M48
; DRILL file {KiCad 8.0.0} date 2024-07-04T13:26:12-0300
; FORMAT={-:-/ absolute / metric / decimal}
; #@! TF.CreationDate,2024-07-04T13:26:12-03:00
; #@! TF.GenerationSoftware,Kicad,Pcbnew,8.0.0
; #@! TF.FileFunction,Plated,1,2,PTH
FMAT,2
METRIC
; #@! TA.AperFunction,Plated,PTH,ComponentDrill
T1C1.000
; #@! TA.AperFunction,Plated,PTH,ComponentDrill
T2C1.100
; #@! TA.AperFunction,Plated,PTH,ComponentDrill
T3C1.320
; #@! TA.AperFunction,Plated,PTH,ComponentDrill
T4C1.500
; #@! TA.AperFunction,Plated,PTH,ViaDrill
T5C3.000
%
G90
G05
T1
X158.844Y-118.511
X158.844Y-121.051
X172.204Y-96.901
X172.204Y-101.463
X172.204Y-116.703
X172.331Y-122.428
X174.617Y-91.186
X174.744Y-101.463
X174.744Y-116.703
X174.871Y-145.288
X174.871Y-147.828
X177.157Y-91.186
X177.284Y-101.463
X177.284Y-116.703
X179.697Y-91.186
X179.824Y-101.463
X179.824Y-116.703
X182.237Y-91.186
X182.364Y-101.463
X182.364Y-116.703
X184.777Y-91.186
X184.904Y-101.463
X184.904Y-116.703
X187.317Y-91.186
X187.444Y-101.463
X187.444Y-116.703
X189.857Y-91.186
X189.984Y-101.463
X189.984Y-116.703
X192.397Y-91.186
X192.524Y-101.463
X192.524Y-116.703
X194.937Y-91.186
X195.064Y-101.463
X195.064Y-116.703
X197.477Y-91.186
X197.604Y-101.463
X197.604Y-116.703
X200.017Y-91.186
X200.144Y-101.463
X200.144Y-116.703
X202.684Y-101.463
X202.684Y-116.703
X204.462Y-124.714
X204.462Y-127.254
X205.224Y-101.463
X205.224Y-116.703
X205.58Y-146.451
X205.58Y-148.991
X207.764Y-101.463
X207.764Y-116.703
X211.701Y-124.46
X214.241Y-124.46
X216.527Y-102.743
X216.781Y-124.46
X219.067Y-102.743
X219.321Y-124.46
X221.861Y-124.46
X224.401Y-124.46
T2
X157.543Y-102.997
X157.543Y-105.537
X157.543Y-108.077
T3
X181.221Y-127.0
X181.221Y-142.24
X183.761Y-127.0
X183.761Y-142.24
X186.301Y-127.0
X186.301Y-142.24
X188.841Y-127.0
X188.841Y-142.24
X191.381Y-127.0
X191.381Y-142.24
X193.921Y-127.0
X193.921Y-142.24
X196.461Y-127.0
X196.461Y-142.24
X199.001Y-127.0
X199.001Y-142.24
T4
X157.552Y-130.556
X161.552Y-130.556
X164.552Y-130.556
X167.552Y-130.556
X171.552Y-130.556
T5
X141.732Y-106.045
X143.121Y-132.842
X143.121Y-150.368
X158.361Y-92.837
X218.305Y-92.837
X233.926Y-132.715
X233.926Y-150.368
X235.458Y-105.918
M30
