%TF.GenerationSoftware,KiCad,Pcbnew,8.0.0*%
%TF.CreationDate,2024-09-30T17:05:31-03:00*%
%TF.ProjectId,LineFollowerRCX,4c696e65-466f-46c6-9c6f-776572524358,rev?*%
%TF.SameCoordinates,Original*%
%TF.FileFunction,Legend,Bot*%
%TF.FilePolarity,Positive*%
%FSLAX46Y46*%
G04 Gerber Fmt 4.6, Leading zero omitted, Abs format (unit mm)*
G04 Created by KiCad (PCBNEW 8.0.0) date 2024-09-30 17:05:31*
%MOMM*%
%LPD*%
G01*
G04 APERTURE LIST*
%ADD10C,0.150000*%
%ADD11C,0.127000*%
%ADD12C,0.200000*%
%ADD13C,0.120000*%
G04 APERTURE END LIST*
D10*
X201770643Y-115298295D02*
X202580166Y-115298295D01*
X202580166Y-115298295D02*
X202675404Y-115345914D01*
X202675404Y-115345914D02*
X202723024Y-115393533D01*
X202723024Y-115393533D02*
X202770643Y-115488771D01*
X202770643Y-115488771D02*
X202770643Y-115679247D01*
X202770643Y-115679247D02*
X202723024Y-115774485D01*
X202723024Y-115774485D02*
X202675404Y-115822104D01*
X202675404Y-115822104D02*
X202580166Y-115869723D01*
X202580166Y-115869723D02*
X201770643Y-115869723D01*
X202770643Y-116869723D02*
X202770643Y-116298295D01*
X202770643Y-116584009D02*
X201770643Y-116584009D01*
X201770643Y-116584009D02*
X201913500Y-116488771D01*
X201913500Y-116488771D02*
X202008738Y-116393533D01*
X202008738Y-116393533D02*
X202056357Y-116298295D01*
X173255957Y-95019819D02*
X173255957Y-95734104D01*
X173255957Y-95734104D02*
X173303576Y-95876961D01*
X173303576Y-95876961D02*
X173398814Y-95972200D01*
X173398814Y-95972200D02*
X173541671Y-96019819D01*
X173541671Y-96019819D02*
X173636909Y-96019819D01*
X172636909Y-95448390D02*
X172732147Y-95400771D01*
X172732147Y-95400771D02*
X172779766Y-95353152D01*
X172779766Y-95353152D02*
X172827385Y-95257914D01*
X172827385Y-95257914D02*
X172827385Y-95210295D01*
X172827385Y-95210295D02*
X172779766Y-95115057D01*
X172779766Y-95115057D02*
X172732147Y-95067438D01*
X172732147Y-95067438D02*
X172636909Y-95019819D01*
X172636909Y-95019819D02*
X172446433Y-95019819D01*
X172446433Y-95019819D02*
X172351195Y-95067438D01*
X172351195Y-95067438D02*
X172303576Y-95115057D01*
X172303576Y-95115057D02*
X172255957Y-95210295D01*
X172255957Y-95210295D02*
X172255957Y-95257914D01*
X172255957Y-95257914D02*
X172303576Y-95353152D01*
X172303576Y-95353152D02*
X172351195Y-95400771D01*
X172351195Y-95400771D02*
X172446433Y-95448390D01*
X172446433Y-95448390D02*
X172636909Y-95448390D01*
X172636909Y-95448390D02*
X172732147Y-95496009D01*
X172732147Y-95496009D02*
X172779766Y-95543628D01*
X172779766Y-95543628D02*
X172827385Y-95638866D01*
X172827385Y-95638866D02*
X172827385Y-95829342D01*
X172827385Y-95829342D02*
X172779766Y-95924580D01*
X172779766Y-95924580D02*
X172732147Y-95972200D01*
X172732147Y-95972200D02*
X172636909Y-96019819D01*
X172636909Y-96019819D02*
X172446433Y-96019819D01*
X172446433Y-96019819D02*
X172351195Y-95972200D01*
X172351195Y-95972200D02*
X172303576Y-95924580D01*
X172303576Y-95924580D02*
X172255957Y-95829342D01*
X172255957Y-95829342D02*
X172255957Y-95638866D01*
X172255957Y-95638866D02*
X172303576Y-95543628D01*
X172303576Y-95543628D02*
X172351195Y-95496009D01*
X172351195Y-95496009D02*
X172446433Y-95448390D01*
X213604728Y-84275714D02*
X213604728Y-84751904D01*
X213890443Y-84180476D02*
X212890443Y-84513809D01*
X212890443Y-84513809D02*
X213890443Y-84847142D01*
X212985681Y-85132857D02*
X212938062Y-85180476D01*
X212938062Y-85180476D02*
X212890443Y-85275714D01*
X212890443Y-85275714D02*
X212890443Y-85513809D01*
X212890443Y-85513809D02*
X212938062Y-85609047D01*
X212938062Y-85609047D02*
X212985681Y-85656666D01*
X212985681Y-85656666D02*
X213080919Y-85704285D01*
X213080919Y-85704285D02*
X213176157Y-85704285D01*
X213176157Y-85704285D02*
X213319014Y-85656666D01*
X213319014Y-85656666D02*
X213890443Y-85085238D01*
X213890443Y-85085238D02*
X213890443Y-85704285D01*
X173340804Y-86251904D02*
X172531281Y-86251904D01*
X172531281Y-86251904D02*
X172436043Y-86204285D01*
X172436043Y-86204285D02*
X172388424Y-86156666D01*
X172388424Y-86156666D02*
X172340804Y-86061428D01*
X172340804Y-86061428D02*
X172340804Y-85870952D01*
X172340804Y-85870952D02*
X172388424Y-85775714D01*
X172388424Y-85775714D02*
X172436043Y-85728095D01*
X172436043Y-85728095D02*
X172531281Y-85680476D01*
X172531281Y-85680476D02*
X173340804Y-85680476D01*
X172388424Y-85251904D02*
X172340804Y-85109047D01*
X172340804Y-85109047D02*
X172340804Y-84870952D01*
X172340804Y-84870952D02*
X172388424Y-84775714D01*
X172388424Y-84775714D02*
X172436043Y-84728095D01*
X172436043Y-84728095D02*
X172531281Y-84680476D01*
X172531281Y-84680476D02*
X172626519Y-84680476D01*
X172626519Y-84680476D02*
X172721757Y-84728095D01*
X172721757Y-84728095D02*
X172769376Y-84775714D01*
X172769376Y-84775714D02*
X172816995Y-84870952D01*
X172816995Y-84870952D02*
X172864614Y-85061428D01*
X172864614Y-85061428D02*
X172912233Y-85156666D01*
X172912233Y-85156666D02*
X172959852Y-85204285D01*
X172959852Y-85204285D02*
X173055090Y-85251904D01*
X173055090Y-85251904D02*
X173150328Y-85251904D01*
X173150328Y-85251904D02*
X173245566Y-85204285D01*
X173245566Y-85204285D02*
X173293185Y-85156666D01*
X173293185Y-85156666D02*
X173340804Y-85061428D01*
X173340804Y-85061428D02*
X173340804Y-84823333D01*
X173340804Y-84823333D02*
X173293185Y-84680476D01*
X172864614Y-83918571D02*
X172816995Y-83775714D01*
X172816995Y-83775714D02*
X172769376Y-83728095D01*
X172769376Y-83728095D02*
X172674138Y-83680476D01*
X172674138Y-83680476D02*
X172531281Y-83680476D01*
X172531281Y-83680476D02*
X172436043Y-83728095D01*
X172436043Y-83728095D02*
X172388424Y-83775714D01*
X172388424Y-83775714D02*
X172340804Y-83870952D01*
X172340804Y-83870952D02*
X172340804Y-84251904D01*
X172340804Y-84251904D02*
X173340804Y-84251904D01*
X173340804Y-84251904D02*
X173340804Y-83918571D01*
X173340804Y-83918571D02*
X173293185Y-83823333D01*
X173293185Y-83823333D02*
X173245566Y-83775714D01*
X173245566Y-83775714D02*
X173150328Y-83728095D01*
X173150328Y-83728095D02*
X173055090Y-83728095D01*
X173055090Y-83728095D02*
X172959852Y-83775714D01*
X172959852Y-83775714D02*
X172912233Y-83823333D01*
X172912233Y-83823333D02*
X172864614Y-83918571D01*
X172864614Y-83918571D02*
X172864614Y-84251904D01*
X221883443Y-78316666D02*
X222597728Y-78316666D01*
X222597728Y-78316666D02*
X222740585Y-78269047D01*
X222740585Y-78269047D02*
X222835824Y-78173809D01*
X222835824Y-78173809D02*
X222883443Y-78030952D01*
X222883443Y-78030952D02*
X222883443Y-77935714D01*
X222883443Y-78840476D02*
X222883443Y-79030952D01*
X222883443Y-79030952D02*
X222835824Y-79126190D01*
X222835824Y-79126190D02*
X222788204Y-79173809D01*
X222788204Y-79173809D02*
X222645347Y-79269047D01*
X222645347Y-79269047D02*
X222454871Y-79316666D01*
X222454871Y-79316666D02*
X222073919Y-79316666D01*
X222073919Y-79316666D02*
X221978681Y-79269047D01*
X221978681Y-79269047D02*
X221931062Y-79221428D01*
X221931062Y-79221428D02*
X221883443Y-79126190D01*
X221883443Y-79126190D02*
X221883443Y-78935714D01*
X221883443Y-78935714D02*
X221931062Y-78840476D01*
X221931062Y-78840476D02*
X221978681Y-78792857D01*
X221978681Y-78792857D02*
X222073919Y-78745238D01*
X222073919Y-78745238D02*
X222312014Y-78745238D01*
X222312014Y-78745238D02*
X222407252Y-78792857D01*
X222407252Y-78792857D02*
X222454871Y-78840476D01*
X222454871Y-78840476D02*
X222502490Y-78935714D01*
X222502490Y-78935714D02*
X222502490Y-79126190D01*
X222502490Y-79126190D02*
X222454871Y-79221428D01*
X222454871Y-79221428D02*
X222407252Y-79269047D01*
X222407252Y-79269047D02*
X222312014Y-79316666D01*
X149815052Y-90399009D02*
X149672195Y-90446628D01*
X149672195Y-90446628D02*
X149624576Y-90494247D01*
X149624576Y-90494247D02*
X149576957Y-90589485D01*
X149576957Y-90589485D02*
X149576957Y-90732342D01*
X149576957Y-90732342D02*
X149624576Y-90827580D01*
X149624576Y-90827580D02*
X149672195Y-90875200D01*
X149672195Y-90875200D02*
X149767433Y-90922819D01*
X149767433Y-90922819D02*
X150148385Y-90922819D01*
X150148385Y-90922819D02*
X150148385Y-89922819D01*
X150148385Y-89922819D02*
X149815052Y-89922819D01*
X149815052Y-89922819D02*
X149719814Y-89970438D01*
X149719814Y-89970438D02*
X149672195Y-90018057D01*
X149672195Y-90018057D02*
X149624576Y-90113295D01*
X149624576Y-90113295D02*
X149624576Y-90208533D01*
X149624576Y-90208533D02*
X149672195Y-90303771D01*
X149672195Y-90303771D02*
X149719814Y-90351390D01*
X149719814Y-90351390D02*
X149815052Y-90399009D01*
X149815052Y-90399009D02*
X150148385Y-90399009D01*
X148719814Y-90922819D02*
X148719814Y-90399009D01*
X148719814Y-90399009D02*
X148767433Y-90303771D01*
X148767433Y-90303771D02*
X148862671Y-90256152D01*
X148862671Y-90256152D02*
X149053147Y-90256152D01*
X149053147Y-90256152D02*
X149148385Y-90303771D01*
X148719814Y-90875200D02*
X148815052Y-90922819D01*
X148815052Y-90922819D02*
X149053147Y-90922819D01*
X149053147Y-90922819D02*
X149148385Y-90875200D01*
X149148385Y-90875200D02*
X149196004Y-90779961D01*
X149196004Y-90779961D02*
X149196004Y-90684723D01*
X149196004Y-90684723D02*
X149148385Y-90589485D01*
X149148385Y-90589485D02*
X149053147Y-90541866D01*
X149053147Y-90541866D02*
X148815052Y-90541866D01*
X148815052Y-90541866D02*
X148719814Y-90494247D01*
X148386480Y-90256152D02*
X148005528Y-90256152D01*
X148243623Y-89922819D02*
X148243623Y-90779961D01*
X148243623Y-90779961D02*
X148196004Y-90875200D01*
X148196004Y-90875200D02*
X148100766Y-90922819D01*
X148100766Y-90922819D02*
X148005528Y-90922819D01*
X147291242Y-90875200D02*
X147386480Y-90922819D01*
X147386480Y-90922819D02*
X147576956Y-90922819D01*
X147576956Y-90922819D02*
X147672194Y-90875200D01*
X147672194Y-90875200D02*
X147719813Y-90779961D01*
X147719813Y-90779961D02*
X147719813Y-90399009D01*
X147719813Y-90399009D02*
X147672194Y-90303771D01*
X147672194Y-90303771D02*
X147576956Y-90256152D01*
X147576956Y-90256152D02*
X147386480Y-90256152D01*
X147386480Y-90256152D02*
X147291242Y-90303771D01*
X147291242Y-90303771D02*
X147243623Y-90399009D01*
X147243623Y-90399009D02*
X147243623Y-90494247D01*
X147243623Y-90494247D02*
X147719813Y-90589485D01*
X146815051Y-90922819D02*
X146815051Y-90256152D01*
X146815051Y-90446628D02*
X146767432Y-90351390D01*
X146767432Y-90351390D02*
X146719813Y-90303771D01*
X146719813Y-90303771D02*
X146624575Y-90256152D01*
X146624575Y-90256152D02*
X146529337Y-90256152D01*
X146196003Y-90922819D02*
X146196003Y-90256152D01*
X146196003Y-89922819D02*
X146243622Y-89970438D01*
X146243622Y-89970438D02*
X146196003Y-90018057D01*
X146196003Y-90018057D02*
X146148384Y-89970438D01*
X146148384Y-89970438D02*
X146196003Y-89922819D01*
X146196003Y-89922819D02*
X146196003Y-90018057D01*
X145291242Y-90922819D02*
X145291242Y-90399009D01*
X145291242Y-90399009D02*
X145338861Y-90303771D01*
X145338861Y-90303771D02*
X145434099Y-90256152D01*
X145434099Y-90256152D02*
X145624575Y-90256152D01*
X145624575Y-90256152D02*
X145719813Y-90303771D01*
X145291242Y-90875200D02*
X145386480Y-90922819D01*
X145386480Y-90922819D02*
X145624575Y-90922819D01*
X145624575Y-90922819D02*
X145719813Y-90875200D01*
X145719813Y-90875200D02*
X145767432Y-90779961D01*
X145767432Y-90779961D02*
X145767432Y-90684723D01*
X145767432Y-90684723D02*
X145719813Y-90589485D01*
X145719813Y-90589485D02*
X145624575Y-90541866D01*
X145624575Y-90541866D02*
X145386480Y-90541866D01*
X145386480Y-90541866D02*
X145291242Y-90494247D01*
X144291242Y-90922819D02*
X144862670Y-90922819D01*
X144576956Y-90922819D02*
X144576956Y-89922819D01*
X144576956Y-89922819D02*
X144672194Y-90065676D01*
X144672194Y-90065676D02*
X144767432Y-90160914D01*
X144767432Y-90160914D02*
X144862670Y-90208533D01*
X202833443Y-66759666D02*
X203547728Y-66759666D01*
X203547728Y-66759666D02*
X203690585Y-66712047D01*
X203690585Y-66712047D02*
X203785824Y-66616809D01*
X203785824Y-66616809D02*
X203833443Y-66473952D01*
X203833443Y-66473952D02*
X203833443Y-66378714D01*
X203833443Y-67759666D02*
X203833443Y-67188238D01*
X203833443Y-67473952D02*
X202833443Y-67473952D01*
X202833443Y-67473952D02*
X202976300Y-67378714D01*
X202976300Y-67378714D02*
X203071538Y-67283476D01*
X203071538Y-67283476D02*
X203119157Y-67188238D01*
X175795957Y-117879819D02*
X175795957Y-118594104D01*
X175795957Y-118594104D02*
X175843576Y-118736961D01*
X175843576Y-118736961D02*
X175938814Y-118832200D01*
X175938814Y-118832200D02*
X176081671Y-118879819D01*
X176081671Y-118879819D02*
X176176909Y-118879819D01*
X175367385Y-117975057D02*
X175319766Y-117927438D01*
X175319766Y-117927438D02*
X175224528Y-117879819D01*
X175224528Y-117879819D02*
X174986433Y-117879819D01*
X174986433Y-117879819D02*
X174891195Y-117927438D01*
X174891195Y-117927438D02*
X174843576Y-117975057D01*
X174843576Y-117975057D02*
X174795957Y-118070295D01*
X174795957Y-118070295D02*
X174795957Y-118165533D01*
X174795957Y-118165533D02*
X174843576Y-118308390D01*
X174843576Y-118308390D02*
X175415004Y-118879819D01*
X175415004Y-118879819D02*
X174795957Y-118879819D01*
X169693443Y-67278095D02*
X170502966Y-67278095D01*
X170502966Y-67278095D02*
X170598204Y-67325714D01*
X170598204Y-67325714D02*
X170645824Y-67373333D01*
X170645824Y-67373333D02*
X170693443Y-67468571D01*
X170693443Y-67468571D02*
X170693443Y-67659047D01*
X170693443Y-67659047D02*
X170645824Y-67754285D01*
X170645824Y-67754285D02*
X170598204Y-67801904D01*
X170598204Y-67801904D02*
X170502966Y-67849523D01*
X170502966Y-67849523D02*
X169693443Y-67849523D01*
X169788681Y-68278095D02*
X169741062Y-68325714D01*
X169741062Y-68325714D02*
X169693443Y-68420952D01*
X169693443Y-68420952D02*
X169693443Y-68659047D01*
X169693443Y-68659047D02*
X169741062Y-68754285D01*
X169741062Y-68754285D02*
X169788681Y-68801904D01*
X169788681Y-68801904D02*
X169883919Y-68849523D01*
X169883919Y-68849523D02*
X169979157Y-68849523D01*
X169979157Y-68849523D02*
X170122014Y-68801904D01*
X170122014Y-68801904D02*
X170693443Y-68230476D01*
X170693443Y-68230476D02*
X170693443Y-68849523D01*
X208977443Y-100033666D02*
X209691728Y-100033666D01*
X209691728Y-100033666D02*
X209834585Y-99986047D01*
X209834585Y-99986047D02*
X209929824Y-99890809D01*
X209929824Y-99890809D02*
X209977443Y-99747952D01*
X209977443Y-99747952D02*
X209977443Y-99652714D01*
X209310776Y-100938428D02*
X209977443Y-100938428D01*
X208929824Y-100700333D02*
X209644109Y-100462238D01*
X209644109Y-100462238D02*
X209644109Y-101081285D01*
X206504957Y-119042819D02*
X206504957Y-119757104D01*
X206504957Y-119757104D02*
X206552576Y-119899961D01*
X206552576Y-119899961D02*
X206647814Y-119995200D01*
X206647814Y-119995200D02*
X206790671Y-120042819D01*
X206790671Y-120042819D02*
X206885909Y-120042819D01*
X206124004Y-119042819D02*
X205504957Y-119042819D01*
X205504957Y-119042819D02*
X205838290Y-119423771D01*
X205838290Y-119423771D02*
X205695433Y-119423771D01*
X205695433Y-119423771D02*
X205600195Y-119471390D01*
X205600195Y-119471390D02*
X205552576Y-119519009D01*
X205552576Y-119519009D02*
X205504957Y-119614247D01*
X205504957Y-119614247D02*
X205504957Y-119852342D01*
X205504957Y-119852342D02*
X205552576Y-119947580D01*
X205552576Y-119947580D02*
X205600195Y-119995200D01*
X205600195Y-119995200D02*
X205695433Y-120042819D01*
X205695433Y-120042819D02*
X205981147Y-120042819D01*
X205981147Y-120042819D02*
X206076385Y-119995200D01*
X206076385Y-119995200D02*
X206124004Y-119947580D01*
X151892549Y-104966972D02*
X151780063Y-105004467D01*
X151780063Y-105004467D02*
X151592587Y-105004467D01*
X151592587Y-105004467D02*
X151517596Y-104966972D01*
X151517596Y-104966972D02*
X151480101Y-104929476D01*
X151480101Y-104929476D02*
X151442605Y-104854486D01*
X151442605Y-104854486D02*
X151442605Y-104779495D01*
X151442605Y-104779495D02*
X151480101Y-104704504D01*
X151480101Y-104704504D02*
X151517596Y-104667009D01*
X151517596Y-104667009D02*
X151592587Y-104629514D01*
X151592587Y-104629514D02*
X151742568Y-104592018D01*
X151742568Y-104592018D02*
X151817559Y-104554523D01*
X151817559Y-104554523D02*
X151855054Y-104517028D01*
X151855054Y-104517028D02*
X151892549Y-104442037D01*
X151892549Y-104442037D02*
X151892549Y-104367046D01*
X151892549Y-104367046D02*
X151855054Y-104292056D01*
X151855054Y-104292056D02*
X151817559Y-104254560D01*
X151817559Y-104254560D02*
X151742568Y-104217065D01*
X151742568Y-104217065D02*
X151555091Y-104217065D01*
X151555091Y-104217065D02*
X151442605Y-104254560D01*
X150692698Y-105004467D02*
X151142642Y-105004467D01*
X150917670Y-105004467D02*
X150917670Y-104217065D01*
X150917670Y-104217065D02*
X150992661Y-104329551D01*
X150992661Y-104329551D02*
X151067652Y-104404542D01*
X151067652Y-104404542D02*
X151142642Y-104442037D01*
X207489147Y-97305819D02*
X207489147Y-98020104D01*
X207489147Y-98020104D02*
X207536766Y-98162961D01*
X207536766Y-98162961D02*
X207632004Y-98258200D01*
X207632004Y-98258200D02*
X207774861Y-98305819D01*
X207774861Y-98305819D02*
X207870099Y-98305819D01*
X206489147Y-98305819D02*
X207060575Y-98305819D01*
X206774861Y-98305819D02*
X206774861Y-97305819D01*
X206774861Y-97305819D02*
X206870099Y-97448676D01*
X206870099Y-97448676D02*
X206965337Y-97543914D01*
X206965337Y-97543914D02*
X207060575Y-97591533D01*
X205870099Y-97305819D02*
X205774861Y-97305819D01*
X205774861Y-97305819D02*
X205679623Y-97353438D01*
X205679623Y-97353438D02*
X205632004Y-97401057D01*
X205632004Y-97401057D02*
X205584385Y-97496295D01*
X205584385Y-97496295D02*
X205536766Y-97686771D01*
X205536766Y-97686771D02*
X205536766Y-97924866D01*
X205536766Y-97924866D02*
X205584385Y-98115342D01*
X205584385Y-98115342D02*
X205632004Y-98210580D01*
X205632004Y-98210580D02*
X205679623Y-98258200D01*
X205679623Y-98258200D02*
X205774861Y-98305819D01*
X205774861Y-98305819D02*
X205870099Y-98305819D01*
X205870099Y-98305819D02*
X205965337Y-98258200D01*
X205965337Y-98258200D02*
X206012956Y-98210580D01*
X206012956Y-98210580D02*
X206060575Y-98115342D01*
X206060575Y-98115342D02*
X206108194Y-97924866D01*
X206108194Y-97924866D02*
X206108194Y-97686771D01*
X206108194Y-97686771D02*
X206060575Y-97496295D01*
X206060575Y-97496295D02*
X206012956Y-97401057D01*
X206012956Y-97401057D02*
X205965337Y-97353438D01*
X205965337Y-97353438D02*
X205870099Y-97305819D01*
D11*
%TO.C,U1*%
X200862624Y-100367000D02*
X200862624Y-101637000D01*
X200862624Y-104027000D02*
X200862624Y-117027000D01*
X200862624Y-120687000D02*
X200862624Y-119417000D01*
X180542624Y-120687000D02*
X200862624Y-120687000D01*
X200862624Y-100367000D02*
X180542624Y-100367000D01*
X180542624Y-100367000D02*
X180542624Y-101637000D01*
X180542624Y-104027000D02*
X180542624Y-117027000D01*
X180542624Y-120687000D02*
X180542624Y-119417000D01*
D12*
X201530824Y-118147000D02*
G75*
G02*
X201330824Y-118147000I-100000J0D01*
G01*
X201330824Y-118147000D02*
G75*
G02*
X201530824Y-118147000I100000J0D01*
G01*
D13*
%TO.C,J8*%
X174252624Y-99665000D02*
X174252624Y-99545000D01*
X171592624Y-99665000D02*
X174252624Y-99665000D01*
X171592624Y-97005000D02*
X172922624Y-97005000D01*
X171592624Y-98335000D02*
X171592624Y-97005000D01*
X171592624Y-99665000D02*
X171592624Y-99545000D01*
%TO.C,A2*%
X212295624Y-94010000D02*
X212295624Y-75970000D01*
X209625624Y-94010000D02*
X212295624Y-94010000D01*
X209625624Y-75970000D02*
X209625624Y-78640000D01*
X171525624Y-78640000D02*
X209625624Y-78640000D01*
X209625624Y-94010000D02*
X209625624Y-91340000D01*
X209625624Y-91340000D02*
X207085624Y-91340000D01*
X207085624Y-94010000D02*
X207085624Y-91340000D01*
X171525624Y-91340000D02*
X207085624Y-91340000D01*
X168855624Y-94010000D02*
X207085624Y-94010000D01*
X166315624Y-81050000D02*
X176735624Y-81050000D01*
X176735624Y-81050000D02*
X176735624Y-88930000D01*
X171525624Y-75970000D02*
X171525624Y-78640000D01*
X171525624Y-94010000D02*
X171525624Y-91340000D01*
X212295624Y-75970000D02*
X168855624Y-75970000D01*
X168855624Y-81050000D02*
X168855624Y-75970000D01*
X168855624Y-88930000D02*
X168855624Y-94010000D01*
X166315624Y-88930000D02*
X166315624Y-81050000D01*
X176735624Y-88930000D02*
X166315624Y-88930000D01*
%TO.C,J9*%
X219658624Y-77320000D02*
X220988624Y-77320000D01*
X220988624Y-77320000D02*
X220988624Y-78650000D01*
X215788624Y-77320000D02*
X218388624Y-77320000D01*
X218388624Y-77320000D02*
X218388624Y-79980000D01*
X215788624Y-79980000D02*
X218388624Y-79980000D01*
X215788624Y-77320000D02*
X215788624Y-79980000D01*
%TO.C,Bateria1*%
X148573624Y-97108000D02*
X148573624Y-94508000D01*
X145913624Y-94508000D02*
X148573624Y-94508000D01*
X145913624Y-97108000D02*
X148573624Y-97108000D01*
X145913624Y-91908000D02*
X147243624Y-91908000D01*
X145913624Y-93238000D02*
X145913624Y-91908000D01*
X145913624Y-97108000D02*
X145913624Y-94508000D01*
%TO.C,J1*%
X200608624Y-65763000D02*
X201938624Y-65763000D01*
X201938624Y-65763000D02*
X201938624Y-67093000D01*
X173878624Y-65763000D02*
X199338624Y-65763000D01*
X199338624Y-65763000D02*
X199338624Y-68423000D01*
X173878624Y-68423000D02*
X199338624Y-68423000D01*
X173878624Y-65763000D02*
X173878624Y-68423000D01*
%TO.C,J2*%
X176792624Y-125065000D02*
X176792624Y-122465000D01*
X174132624Y-122465000D02*
X176792624Y-122465000D01*
X174132624Y-125065000D02*
X176792624Y-125065000D01*
X174132624Y-119865000D02*
X175462624Y-119865000D01*
X174132624Y-121195000D02*
X174132624Y-119865000D01*
X174132624Y-125065000D02*
X174132624Y-122465000D01*
%TO.C,U2*%
X164597624Y-62920000D02*
X169238624Y-62920000D01*
X167728624Y-66189000D02*
X169238624Y-66189000D01*
X167728624Y-69890000D02*
X169238624Y-69890000D01*
X169238624Y-62920000D02*
X169238624Y-73160000D01*
X164597624Y-73160000D02*
X169238624Y-73160000D01*
X167728624Y-62920000D02*
X167728624Y-73160000D01*
X164597624Y-62920000D02*
X164597624Y-73160000D01*
%TO.C,J4*%
X226322624Y-101697000D02*
X226322624Y-99037000D01*
X226322624Y-99037000D02*
X213562624Y-99037000D01*
X213562624Y-101697000D02*
X213562624Y-99037000D01*
X226322624Y-101697000D02*
X213562624Y-101697000D01*
X210962624Y-101697000D02*
X210962624Y-100367000D01*
X212292624Y-101697000D02*
X210962624Y-101697000D01*
%TO.C,J3*%
X207501624Y-126228000D02*
X207501624Y-123628000D01*
X204841624Y-123628000D02*
X207501624Y-123628000D01*
X204841624Y-126228000D02*
X207501624Y-126228000D01*
X204841624Y-121028000D02*
X206171624Y-121028000D01*
X204841624Y-122358000D02*
X204841624Y-121028000D01*
X204841624Y-126228000D02*
X204841624Y-123628000D01*
D11*
%TO.C,S1*%
X156292624Y-103348000D02*
X156292624Y-102648000D01*
X146292624Y-102648000D02*
X156292624Y-102648000D01*
X156292624Y-106648000D02*
X156292624Y-105948000D01*
X156292624Y-106648000D02*
X153292624Y-106648000D01*
X153292624Y-106648000D02*
X151292624Y-106648000D01*
X151292624Y-106648000D02*
X149292624Y-106648000D01*
X146292624Y-103348000D02*
X146292624Y-102648000D01*
X146292624Y-106648000D02*
X146292624Y-105948000D01*
X149292624Y-106648000D02*
X146292624Y-106648000D01*
D13*
%TO.C,J10*%
X208009624Y-104491000D02*
X208009624Y-101891000D01*
X205349624Y-101891000D02*
X208009624Y-101891000D01*
X205349624Y-104491000D02*
X208009624Y-104491000D01*
X205349624Y-99291000D02*
X206679624Y-99291000D01*
X205349624Y-100621000D02*
X205349624Y-99291000D01*
X205349624Y-104491000D02*
X205349624Y-101891000D01*
%TD*%
M02*
