%TF.GenerationSoftware,KiCad,Pcbnew,8.0.0*%
%TF.CreationDate,2024-06-20T13:21:25-03:00*%
%TF.ProjectId,LineFollowerRCX,4c696e65-466f-46c6-9c6f-776572524358,rev?*%
%TF.SameCoordinates,Original*%
%TF.FileFunction,Legend,Top*%
%TF.FilePolarity,Positive*%
%FSLAX46Y46*%
G04 Gerber Fmt 4.6, Leading zero omitted, Abs format (unit mm)*
G04 Created by KiCad (PCBNEW 8.0.0) date 2024-06-20 13:21:25*
%MOMM*%
%LPD*%
G01*
G04 APERTURE LIST*
%ADD10C,0.100000*%
%ADD11C,0.150000*%
%ADD12C,0.300000*%
%ADD13C,0.400000*%
%ADD14C,0.127000*%
%ADD15C,0.200000*%
%ADD16C,0.120000*%
G04 APERTURE END LIST*
D10*
D11*
X177002200Y-166007200D02*
X285002200Y-166007200D01*
X285002200Y-198007200D01*
X177002200Y-198007200D01*
X177002200Y-166007200D01*
D10*
D11*
X10000000Y-10000000D02*
X287002200Y-10000000D01*
X287002200Y-200007200D01*
X10000000Y-200007200D01*
X10000000Y-10000000D01*
D10*
D11*
X12000000Y-12000000D02*
X285002200Y-12000000D01*
X285002200Y-198007200D01*
X12000000Y-198007200D01*
X12000000Y-12000000D01*
D10*
D11*
X60000000Y-12000000D02*
X60000000Y-10000000D01*
D10*
D11*
X110000000Y-12000000D02*
X110000000Y-10000000D01*
D10*
D11*
X160000000Y-12000000D02*
X160000000Y-10000000D01*
D10*
D11*
X210000000Y-12000000D02*
X210000000Y-10000000D01*
D10*
D11*
X260000000Y-12000000D02*
X260000000Y-10000000D01*
D10*
D11*
X36089160Y-11593604D02*
X35346303Y-11593604D01*
X35717731Y-11593604D02*
X35717731Y-10293604D01*
X35717731Y-10293604D02*
X35593922Y-10479319D01*
X35593922Y-10479319D02*
X35470112Y-10603128D01*
X35470112Y-10603128D02*
X35346303Y-10665033D01*
D10*
D11*
X85346303Y-10417414D02*
X85408207Y-10355509D01*
X85408207Y-10355509D02*
X85532017Y-10293604D01*
X85532017Y-10293604D02*
X85841541Y-10293604D01*
X85841541Y-10293604D02*
X85965350Y-10355509D01*
X85965350Y-10355509D02*
X86027255Y-10417414D01*
X86027255Y-10417414D02*
X86089160Y-10541223D01*
X86089160Y-10541223D02*
X86089160Y-10665033D01*
X86089160Y-10665033D02*
X86027255Y-10850747D01*
X86027255Y-10850747D02*
X85284398Y-11593604D01*
X85284398Y-11593604D02*
X86089160Y-11593604D01*
D10*
D11*
X135284398Y-10293604D02*
X136089160Y-10293604D01*
X136089160Y-10293604D02*
X135655826Y-10788842D01*
X135655826Y-10788842D02*
X135841541Y-10788842D01*
X135841541Y-10788842D02*
X135965350Y-10850747D01*
X135965350Y-10850747D02*
X136027255Y-10912652D01*
X136027255Y-10912652D02*
X136089160Y-11036461D01*
X136089160Y-11036461D02*
X136089160Y-11345985D01*
X136089160Y-11345985D02*
X136027255Y-11469795D01*
X136027255Y-11469795D02*
X135965350Y-11531700D01*
X135965350Y-11531700D02*
X135841541Y-11593604D01*
X135841541Y-11593604D02*
X135470112Y-11593604D01*
X135470112Y-11593604D02*
X135346303Y-11531700D01*
X135346303Y-11531700D02*
X135284398Y-11469795D01*
D10*
D11*
X185965350Y-10726938D02*
X185965350Y-11593604D01*
X185655826Y-10231700D02*
X185346303Y-11160271D01*
X185346303Y-11160271D02*
X186151064Y-11160271D01*
D10*
D11*
X236027255Y-10293604D02*
X235408207Y-10293604D01*
X235408207Y-10293604D02*
X235346303Y-10912652D01*
X235346303Y-10912652D02*
X235408207Y-10850747D01*
X235408207Y-10850747D02*
X235532017Y-10788842D01*
X235532017Y-10788842D02*
X235841541Y-10788842D01*
X235841541Y-10788842D02*
X235965350Y-10850747D01*
X235965350Y-10850747D02*
X236027255Y-10912652D01*
X236027255Y-10912652D02*
X236089160Y-11036461D01*
X236089160Y-11036461D02*
X236089160Y-11345985D01*
X236089160Y-11345985D02*
X236027255Y-11469795D01*
X236027255Y-11469795D02*
X235965350Y-11531700D01*
X235965350Y-11531700D02*
X235841541Y-11593604D01*
X235841541Y-11593604D02*
X235532017Y-11593604D01*
X235532017Y-11593604D02*
X235408207Y-11531700D01*
X235408207Y-11531700D02*
X235346303Y-11469795D01*
D10*
D11*
X285965350Y-10293604D02*
X285717731Y-10293604D01*
X285717731Y-10293604D02*
X285593922Y-10355509D01*
X285593922Y-10355509D02*
X285532017Y-10417414D01*
X285532017Y-10417414D02*
X285408207Y-10603128D01*
X285408207Y-10603128D02*
X285346303Y-10850747D01*
X285346303Y-10850747D02*
X285346303Y-11345985D01*
X285346303Y-11345985D02*
X285408207Y-11469795D01*
X285408207Y-11469795D02*
X285470112Y-11531700D01*
X285470112Y-11531700D02*
X285593922Y-11593604D01*
X285593922Y-11593604D02*
X285841541Y-11593604D01*
X285841541Y-11593604D02*
X285965350Y-11531700D01*
X285965350Y-11531700D02*
X286027255Y-11469795D01*
X286027255Y-11469795D02*
X286089160Y-11345985D01*
X286089160Y-11345985D02*
X286089160Y-11036461D01*
X286089160Y-11036461D02*
X286027255Y-10912652D01*
X286027255Y-10912652D02*
X285965350Y-10850747D01*
X285965350Y-10850747D02*
X285841541Y-10788842D01*
X285841541Y-10788842D02*
X285593922Y-10788842D01*
X285593922Y-10788842D02*
X285470112Y-10850747D01*
X285470112Y-10850747D02*
X285408207Y-10912652D01*
X285408207Y-10912652D02*
X285346303Y-11036461D01*
D10*
D11*
X60000000Y-198007200D02*
X60000000Y-200007200D01*
D10*
D11*
X110000000Y-198007200D02*
X110000000Y-200007200D01*
D10*
D11*
X160000000Y-198007200D02*
X160000000Y-200007200D01*
D10*
D11*
X210000000Y-198007200D02*
X210000000Y-200007200D01*
D10*
D11*
X260000000Y-198007200D02*
X260000000Y-200007200D01*
D10*
D11*
X36089160Y-199600804D02*
X35346303Y-199600804D01*
X35717731Y-199600804D02*
X35717731Y-198300804D01*
X35717731Y-198300804D02*
X35593922Y-198486519D01*
X35593922Y-198486519D02*
X35470112Y-198610328D01*
X35470112Y-198610328D02*
X35346303Y-198672233D01*
D10*
D11*
X85346303Y-198424614D02*
X85408207Y-198362709D01*
X85408207Y-198362709D02*
X85532017Y-198300804D01*
X85532017Y-198300804D02*
X85841541Y-198300804D01*
X85841541Y-198300804D02*
X85965350Y-198362709D01*
X85965350Y-198362709D02*
X86027255Y-198424614D01*
X86027255Y-198424614D02*
X86089160Y-198548423D01*
X86089160Y-198548423D02*
X86089160Y-198672233D01*
X86089160Y-198672233D02*
X86027255Y-198857947D01*
X86027255Y-198857947D02*
X85284398Y-199600804D01*
X85284398Y-199600804D02*
X86089160Y-199600804D01*
D10*
D11*
X135284398Y-198300804D02*
X136089160Y-198300804D01*
X136089160Y-198300804D02*
X135655826Y-198796042D01*
X135655826Y-198796042D02*
X135841541Y-198796042D01*
X135841541Y-198796042D02*
X135965350Y-198857947D01*
X135965350Y-198857947D02*
X136027255Y-198919852D01*
X136027255Y-198919852D02*
X136089160Y-199043661D01*
X136089160Y-199043661D02*
X136089160Y-199353185D01*
X136089160Y-199353185D02*
X136027255Y-199476995D01*
X136027255Y-199476995D02*
X135965350Y-199538900D01*
X135965350Y-199538900D02*
X135841541Y-199600804D01*
X135841541Y-199600804D02*
X135470112Y-199600804D01*
X135470112Y-199600804D02*
X135346303Y-199538900D01*
X135346303Y-199538900D02*
X135284398Y-199476995D01*
D10*
D11*
X185965350Y-198734138D02*
X185965350Y-199600804D01*
X185655826Y-198238900D02*
X185346303Y-199167471D01*
X185346303Y-199167471D02*
X186151064Y-199167471D01*
D10*
D11*
X236027255Y-198300804D02*
X235408207Y-198300804D01*
X235408207Y-198300804D02*
X235346303Y-198919852D01*
X235346303Y-198919852D02*
X235408207Y-198857947D01*
X235408207Y-198857947D02*
X235532017Y-198796042D01*
X235532017Y-198796042D02*
X235841541Y-198796042D01*
X235841541Y-198796042D02*
X235965350Y-198857947D01*
X235965350Y-198857947D02*
X236027255Y-198919852D01*
X236027255Y-198919852D02*
X236089160Y-199043661D01*
X236089160Y-199043661D02*
X236089160Y-199353185D01*
X236089160Y-199353185D02*
X236027255Y-199476995D01*
X236027255Y-199476995D02*
X235965350Y-199538900D01*
X235965350Y-199538900D02*
X235841541Y-199600804D01*
X235841541Y-199600804D02*
X235532017Y-199600804D01*
X235532017Y-199600804D02*
X235408207Y-199538900D01*
X235408207Y-199538900D02*
X235346303Y-199476995D01*
D10*
D11*
X285965350Y-198300804D02*
X285717731Y-198300804D01*
X285717731Y-198300804D02*
X285593922Y-198362709D01*
X285593922Y-198362709D02*
X285532017Y-198424614D01*
X285532017Y-198424614D02*
X285408207Y-198610328D01*
X285408207Y-198610328D02*
X285346303Y-198857947D01*
X285346303Y-198857947D02*
X285346303Y-199353185D01*
X285346303Y-199353185D02*
X285408207Y-199476995D01*
X285408207Y-199476995D02*
X285470112Y-199538900D01*
X285470112Y-199538900D02*
X285593922Y-199600804D01*
X285593922Y-199600804D02*
X285841541Y-199600804D01*
X285841541Y-199600804D02*
X285965350Y-199538900D01*
X285965350Y-199538900D02*
X286027255Y-199476995D01*
X286027255Y-199476995D02*
X286089160Y-199353185D01*
X286089160Y-199353185D02*
X286089160Y-199043661D01*
X286089160Y-199043661D02*
X286027255Y-198919852D01*
X286027255Y-198919852D02*
X285965350Y-198857947D01*
X285965350Y-198857947D02*
X285841541Y-198796042D01*
X285841541Y-198796042D02*
X285593922Y-198796042D01*
X285593922Y-198796042D02*
X285470112Y-198857947D01*
X285470112Y-198857947D02*
X285408207Y-198919852D01*
X285408207Y-198919852D02*
X285346303Y-199043661D01*
D10*
D11*
X10000000Y-60000000D02*
X12000000Y-60000000D01*
D10*
D11*
X10000000Y-110000000D02*
X12000000Y-110000000D01*
D10*
D11*
X10000000Y-160000000D02*
X12000000Y-160000000D01*
D10*
D11*
X10690476Y-35222176D02*
X11309523Y-35222176D01*
X10566666Y-35593604D02*
X10999999Y-34293604D01*
X10999999Y-34293604D02*
X11433333Y-35593604D01*
D10*
D11*
X11092857Y-84912652D02*
X11278571Y-84974557D01*
X11278571Y-84974557D02*
X11340476Y-85036461D01*
X11340476Y-85036461D02*
X11402380Y-85160271D01*
X11402380Y-85160271D02*
X11402380Y-85345985D01*
X11402380Y-85345985D02*
X11340476Y-85469795D01*
X11340476Y-85469795D02*
X11278571Y-85531700D01*
X11278571Y-85531700D02*
X11154761Y-85593604D01*
X11154761Y-85593604D02*
X10659523Y-85593604D01*
X10659523Y-85593604D02*
X10659523Y-84293604D01*
X10659523Y-84293604D02*
X11092857Y-84293604D01*
X11092857Y-84293604D02*
X11216666Y-84355509D01*
X11216666Y-84355509D02*
X11278571Y-84417414D01*
X11278571Y-84417414D02*
X11340476Y-84541223D01*
X11340476Y-84541223D02*
X11340476Y-84665033D01*
X11340476Y-84665033D02*
X11278571Y-84788842D01*
X11278571Y-84788842D02*
X11216666Y-84850747D01*
X11216666Y-84850747D02*
X11092857Y-84912652D01*
X11092857Y-84912652D02*
X10659523Y-84912652D01*
D10*
D11*
X11402380Y-135469795D02*
X11340476Y-135531700D01*
X11340476Y-135531700D02*
X11154761Y-135593604D01*
X11154761Y-135593604D02*
X11030952Y-135593604D01*
X11030952Y-135593604D02*
X10845238Y-135531700D01*
X10845238Y-135531700D02*
X10721428Y-135407890D01*
X10721428Y-135407890D02*
X10659523Y-135284080D01*
X10659523Y-135284080D02*
X10597619Y-135036461D01*
X10597619Y-135036461D02*
X10597619Y-134850747D01*
X10597619Y-134850747D02*
X10659523Y-134603128D01*
X10659523Y-134603128D02*
X10721428Y-134479319D01*
X10721428Y-134479319D02*
X10845238Y-134355509D01*
X10845238Y-134355509D02*
X11030952Y-134293604D01*
X11030952Y-134293604D02*
X11154761Y-134293604D01*
X11154761Y-134293604D02*
X11340476Y-134355509D01*
X11340476Y-134355509D02*
X11402380Y-134417414D01*
D10*
D11*
X10659523Y-185593604D02*
X10659523Y-184293604D01*
X10659523Y-184293604D02*
X10969047Y-184293604D01*
X10969047Y-184293604D02*
X11154761Y-184355509D01*
X11154761Y-184355509D02*
X11278571Y-184479319D01*
X11278571Y-184479319D02*
X11340476Y-184603128D01*
X11340476Y-184603128D02*
X11402380Y-184850747D01*
X11402380Y-184850747D02*
X11402380Y-185036461D01*
X11402380Y-185036461D02*
X11340476Y-185284080D01*
X11340476Y-185284080D02*
X11278571Y-185407890D01*
X11278571Y-185407890D02*
X11154761Y-185531700D01*
X11154761Y-185531700D02*
X10969047Y-185593604D01*
X10969047Y-185593604D02*
X10659523Y-185593604D01*
D10*
D11*
X287002200Y-60000000D02*
X285002200Y-60000000D01*
D10*
D11*
X287002200Y-110000000D02*
X285002200Y-110000000D01*
D10*
D11*
X287002200Y-160000000D02*
X285002200Y-160000000D01*
D10*
D11*
X285692676Y-35222176D02*
X286311723Y-35222176D01*
X285568866Y-35593604D02*
X286002199Y-34293604D01*
X286002199Y-34293604D02*
X286435533Y-35593604D01*
D10*
D11*
X286095057Y-84912652D02*
X286280771Y-84974557D01*
X286280771Y-84974557D02*
X286342676Y-85036461D01*
X286342676Y-85036461D02*
X286404580Y-85160271D01*
X286404580Y-85160271D02*
X286404580Y-85345985D01*
X286404580Y-85345985D02*
X286342676Y-85469795D01*
X286342676Y-85469795D02*
X286280771Y-85531700D01*
X286280771Y-85531700D02*
X286156961Y-85593604D01*
X286156961Y-85593604D02*
X285661723Y-85593604D01*
X285661723Y-85593604D02*
X285661723Y-84293604D01*
X285661723Y-84293604D02*
X286095057Y-84293604D01*
X286095057Y-84293604D02*
X286218866Y-84355509D01*
X286218866Y-84355509D02*
X286280771Y-84417414D01*
X286280771Y-84417414D02*
X286342676Y-84541223D01*
X286342676Y-84541223D02*
X286342676Y-84665033D01*
X286342676Y-84665033D02*
X286280771Y-84788842D01*
X286280771Y-84788842D02*
X286218866Y-84850747D01*
X286218866Y-84850747D02*
X286095057Y-84912652D01*
X286095057Y-84912652D02*
X285661723Y-84912652D01*
D10*
D11*
X286404580Y-135469795D02*
X286342676Y-135531700D01*
X286342676Y-135531700D02*
X286156961Y-135593604D01*
X286156961Y-135593604D02*
X286033152Y-135593604D01*
X286033152Y-135593604D02*
X285847438Y-135531700D01*
X285847438Y-135531700D02*
X285723628Y-135407890D01*
X285723628Y-135407890D02*
X285661723Y-135284080D01*
X285661723Y-135284080D02*
X285599819Y-135036461D01*
X285599819Y-135036461D02*
X285599819Y-134850747D01*
X285599819Y-134850747D02*
X285661723Y-134603128D01*
X285661723Y-134603128D02*
X285723628Y-134479319D01*
X285723628Y-134479319D02*
X285847438Y-134355509D01*
X285847438Y-134355509D02*
X286033152Y-134293604D01*
X286033152Y-134293604D02*
X286156961Y-134293604D01*
X286156961Y-134293604D02*
X286342676Y-134355509D01*
X286342676Y-134355509D02*
X286404580Y-134417414D01*
D10*
D11*
X285661723Y-185593604D02*
X285661723Y-184293604D01*
X285661723Y-184293604D02*
X285971247Y-184293604D01*
X285971247Y-184293604D02*
X286156961Y-184355509D01*
X286156961Y-184355509D02*
X286280771Y-184479319D01*
X286280771Y-184479319D02*
X286342676Y-184603128D01*
X286342676Y-184603128D02*
X286404580Y-184850747D01*
X286404580Y-184850747D02*
X286404580Y-185036461D01*
X286404580Y-185036461D02*
X286342676Y-185284080D01*
X286342676Y-185284080D02*
X286280771Y-185407890D01*
X286280771Y-185407890D02*
X286156961Y-185531700D01*
X286156961Y-185531700D02*
X285971247Y-185593604D01*
X285971247Y-185593604D02*
X285661723Y-185593604D01*
D10*
D11*
X200458026Y-193793328D02*
X200458026Y-192293328D01*
X200458026Y-192293328D02*
X200815169Y-192293328D01*
X200815169Y-192293328D02*
X201029455Y-192364757D01*
X201029455Y-192364757D02*
X201172312Y-192507614D01*
X201172312Y-192507614D02*
X201243741Y-192650471D01*
X201243741Y-192650471D02*
X201315169Y-192936185D01*
X201315169Y-192936185D02*
X201315169Y-193150471D01*
X201315169Y-193150471D02*
X201243741Y-193436185D01*
X201243741Y-193436185D02*
X201172312Y-193579042D01*
X201172312Y-193579042D02*
X201029455Y-193721900D01*
X201029455Y-193721900D02*
X200815169Y-193793328D01*
X200815169Y-193793328D02*
X200458026Y-193793328D01*
X202600884Y-193793328D02*
X202600884Y-193007614D01*
X202600884Y-193007614D02*
X202529455Y-192864757D01*
X202529455Y-192864757D02*
X202386598Y-192793328D01*
X202386598Y-192793328D02*
X202100884Y-192793328D01*
X202100884Y-192793328D02*
X201958026Y-192864757D01*
X202600884Y-193721900D02*
X202458026Y-193793328D01*
X202458026Y-193793328D02*
X202100884Y-193793328D01*
X202100884Y-193793328D02*
X201958026Y-193721900D01*
X201958026Y-193721900D02*
X201886598Y-193579042D01*
X201886598Y-193579042D02*
X201886598Y-193436185D01*
X201886598Y-193436185D02*
X201958026Y-193293328D01*
X201958026Y-193293328D02*
X202100884Y-193221900D01*
X202100884Y-193221900D02*
X202458026Y-193221900D01*
X202458026Y-193221900D02*
X202600884Y-193150471D01*
X203100884Y-192793328D02*
X203672312Y-192793328D01*
X203315169Y-192293328D02*
X203315169Y-193579042D01*
X203315169Y-193579042D02*
X203386598Y-193721900D01*
X203386598Y-193721900D02*
X203529455Y-193793328D01*
X203529455Y-193793328D02*
X203672312Y-193793328D01*
X204743741Y-193721900D02*
X204600884Y-193793328D01*
X204600884Y-193793328D02*
X204315170Y-193793328D01*
X204315170Y-193793328D02*
X204172312Y-193721900D01*
X204172312Y-193721900D02*
X204100884Y-193579042D01*
X204100884Y-193579042D02*
X204100884Y-193007614D01*
X204100884Y-193007614D02*
X204172312Y-192864757D01*
X204172312Y-192864757D02*
X204315170Y-192793328D01*
X204315170Y-192793328D02*
X204600884Y-192793328D01*
X204600884Y-192793328D02*
X204743741Y-192864757D01*
X204743741Y-192864757D02*
X204815170Y-193007614D01*
X204815170Y-193007614D02*
X204815170Y-193150471D01*
X204815170Y-193150471D02*
X204100884Y-193293328D01*
X205458026Y-193650471D02*
X205529455Y-193721900D01*
X205529455Y-193721900D02*
X205458026Y-193793328D01*
X205458026Y-193793328D02*
X205386598Y-193721900D01*
X205386598Y-193721900D02*
X205458026Y-193650471D01*
X205458026Y-193650471D02*
X205458026Y-193793328D01*
X205458026Y-192864757D02*
X205529455Y-192936185D01*
X205529455Y-192936185D02*
X205458026Y-193007614D01*
X205458026Y-193007614D02*
X205386598Y-192936185D01*
X205386598Y-192936185D02*
X205458026Y-192864757D01*
X205458026Y-192864757D02*
X205458026Y-193007614D01*
D10*
D11*
X177002200Y-194507200D02*
X285002200Y-194507200D01*
D10*
D11*
X178458026Y-196593328D02*
X178458026Y-195093328D01*
X179315169Y-196593328D02*
X178672312Y-195736185D01*
X179315169Y-195093328D02*
X178458026Y-195950471D01*
X179958026Y-196593328D02*
X179958026Y-195593328D01*
X179958026Y-195093328D02*
X179886598Y-195164757D01*
X179886598Y-195164757D02*
X179958026Y-195236185D01*
X179958026Y-195236185D02*
X180029455Y-195164757D01*
X180029455Y-195164757D02*
X179958026Y-195093328D01*
X179958026Y-195093328D02*
X179958026Y-195236185D01*
X181529455Y-196450471D02*
X181458027Y-196521900D01*
X181458027Y-196521900D02*
X181243741Y-196593328D01*
X181243741Y-196593328D02*
X181100884Y-196593328D01*
X181100884Y-196593328D02*
X180886598Y-196521900D01*
X180886598Y-196521900D02*
X180743741Y-196379042D01*
X180743741Y-196379042D02*
X180672312Y-196236185D01*
X180672312Y-196236185D02*
X180600884Y-195950471D01*
X180600884Y-195950471D02*
X180600884Y-195736185D01*
X180600884Y-195736185D02*
X180672312Y-195450471D01*
X180672312Y-195450471D02*
X180743741Y-195307614D01*
X180743741Y-195307614D02*
X180886598Y-195164757D01*
X180886598Y-195164757D02*
X181100884Y-195093328D01*
X181100884Y-195093328D02*
X181243741Y-195093328D01*
X181243741Y-195093328D02*
X181458027Y-195164757D01*
X181458027Y-195164757D02*
X181529455Y-195236185D01*
X182815170Y-196593328D02*
X182815170Y-195807614D01*
X182815170Y-195807614D02*
X182743741Y-195664757D01*
X182743741Y-195664757D02*
X182600884Y-195593328D01*
X182600884Y-195593328D02*
X182315170Y-195593328D01*
X182315170Y-195593328D02*
X182172312Y-195664757D01*
X182815170Y-196521900D02*
X182672312Y-196593328D01*
X182672312Y-196593328D02*
X182315170Y-196593328D01*
X182315170Y-196593328D02*
X182172312Y-196521900D01*
X182172312Y-196521900D02*
X182100884Y-196379042D01*
X182100884Y-196379042D02*
X182100884Y-196236185D01*
X182100884Y-196236185D02*
X182172312Y-196093328D01*
X182172312Y-196093328D02*
X182315170Y-196021900D01*
X182315170Y-196021900D02*
X182672312Y-196021900D01*
X182672312Y-196021900D02*
X182815170Y-195950471D01*
X184172313Y-196593328D02*
X184172313Y-195093328D01*
X184172313Y-196521900D02*
X184029455Y-196593328D01*
X184029455Y-196593328D02*
X183743741Y-196593328D01*
X183743741Y-196593328D02*
X183600884Y-196521900D01*
X183600884Y-196521900D02*
X183529455Y-196450471D01*
X183529455Y-196450471D02*
X183458027Y-196307614D01*
X183458027Y-196307614D02*
X183458027Y-195879042D01*
X183458027Y-195879042D02*
X183529455Y-195736185D01*
X183529455Y-195736185D02*
X183600884Y-195664757D01*
X183600884Y-195664757D02*
X183743741Y-195593328D01*
X183743741Y-195593328D02*
X184029455Y-195593328D01*
X184029455Y-195593328D02*
X184172313Y-195664757D01*
X186029455Y-195807614D02*
X186529455Y-195807614D01*
X186743741Y-196593328D02*
X186029455Y-196593328D01*
X186029455Y-196593328D02*
X186029455Y-195093328D01*
X186029455Y-195093328D02*
X186743741Y-195093328D01*
X187386598Y-196450471D02*
X187458027Y-196521900D01*
X187458027Y-196521900D02*
X187386598Y-196593328D01*
X187386598Y-196593328D02*
X187315170Y-196521900D01*
X187315170Y-196521900D02*
X187386598Y-196450471D01*
X187386598Y-196450471D02*
X187386598Y-196593328D01*
X188100884Y-196593328D02*
X188100884Y-195093328D01*
X188100884Y-195093328D02*
X188458027Y-195093328D01*
X188458027Y-195093328D02*
X188672313Y-195164757D01*
X188672313Y-195164757D02*
X188815170Y-195307614D01*
X188815170Y-195307614D02*
X188886599Y-195450471D01*
X188886599Y-195450471D02*
X188958027Y-195736185D01*
X188958027Y-195736185D02*
X188958027Y-195950471D01*
X188958027Y-195950471D02*
X188886599Y-196236185D01*
X188886599Y-196236185D02*
X188815170Y-196379042D01*
X188815170Y-196379042D02*
X188672313Y-196521900D01*
X188672313Y-196521900D02*
X188458027Y-196593328D01*
X188458027Y-196593328D02*
X188100884Y-196593328D01*
X189600884Y-196450471D02*
X189672313Y-196521900D01*
X189672313Y-196521900D02*
X189600884Y-196593328D01*
X189600884Y-196593328D02*
X189529456Y-196521900D01*
X189529456Y-196521900D02*
X189600884Y-196450471D01*
X189600884Y-196450471D02*
X189600884Y-196593328D01*
X190243742Y-196164757D02*
X190958028Y-196164757D01*
X190100885Y-196593328D02*
X190600885Y-195093328D01*
X190600885Y-195093328D02*
X191100885Y-196593328D01*
X191600884Y-196450471D02*
X191672313Y-196521900D01*
X191672313Y-196521900D02*
X191600884Y-196593328D01*
X191600884Y-196593328D02*
X191529456Y-196521900D01*
X191529456Y-196521900D02*
X191600884Y-196450471D01*
X191600884Y-196450471D02*
X191600884Y-196593328D01*
X193672313Y-195736185D02*
X193529456Y-195664757D01*
X193529456Y-195664757D02*
X193458027Y-195593328D01*
X193458027Y-195593328D02*
X193386599Y-195450471D01*
X193386599Y-195450471D02*
X193386599Y-195379042D01*
X193386599Y-195379042D02*
X193458027Y-195236185D01*
X193458027Y-195236185D02*
X193529456Y-195164757D01*
X193529456Y-195164757D02*
X193672313Y-195093328D01*
X193672313Y-195093328D02*
X193958027Y-195093328D01*
X193958027Y-195093328D02*
X194100885Y-195164757D01*
X194100885Y-195164757D02*
X194172313Y-195236185D01*
X194172313Y-195236185D02*
X194243742Y-195379042D01*
X194243742Y-195379042D02*
X194243742Y-195450471D01*
X194243742Y-195450471D02*
X194172313Y-195593328D01*
X194172313Y-195593328D02*
X194100885Y-195664757D01*
X194100885Y-195664757D02*
X193958027Y-195736185D01*
X193958027Y-195736185D02*
X193672313Y-195736185D01*
X193672313Y-195736185D02*
X193529456Y-195807614D01*
X193529456Y-195807614D02*
X193458027Y-195879042D01*
X193458027Y-195879042D02*
X193386599Y-196021900D01*
X193386599Y-196021900D02*
X193386599Y-196307614D01*
X193386599Y-196307614D02*
X193458027Y-196450471D01*
X193458027Y-196450471D02*
X193529456Y-196521900D01*
X193529456Y-196521900D02*
X193672313Y-196593328D01*
X193672313Y-196593328D02*
X193958027Y-196593328D01*
X193958027Y-196593328D02*
X194100885Y-196521900D01*
X194100885Y-196521900D02*
X194172313Y-196450471D01*
X194172313Y-196450471D02*
X194243742Y-196307614D01*
X194243742Y-196307614D02*
X194243742Y-196021900D01*
X194243742Y-196021900D02*
X194172313Y-195879042D01*
X194172313Y-195879042D02*
X194100885Y-195807614D01*
X194100885Y-195807614D02*
X193958027Y-195736185D01*
X194886598Y-196450471D02*
X194958027Y-196521900D01*
X194958027Y-196521900D02*
X194886598Y-196593328D01*
X194886598Y-196593328D02*
X194815170Y-196521900D01*
X194815170Y-196521900D02*
X194886598Y-196450471D01*
X194886598Y-196450471D02*
X194886598Y-196593328D01*
X195886599Y-195093328D02*
X196029456Y-195093328D01*
X196029456Y-195093328D02*
X196172313Y-195164757D01*
X196172313Y-195164757D02*
X196243742Y-195236185D01*
X196243742Y-195236185D02*
X196315170Y-195379042D01*
X196315170Y-195379042D02*
X196386599Y-195664757D01*
X196386599Y-195664757D02*
X196386599Y-196021900D01*
X196386599Y-196021900D02*
X196315170Y-196307614D01*
X196315170Y-196307614D02*
X196243742Y-196450471D01*
X196243742Y-196450471D02*
X196172313Y-196521900D01*
X196172313Y-196521900D02*
X196029456Y-196593328D01*
X196029456Y-196593328D02*
X195886599Y-196593328D01*
X195886599Y-196593328D02*
X195743742Y-196521900D01*
X195743742Y-196521900D02*
X195672313Y-196450471D01*
X195672313Y-196450471D02*
X195600884Y-196307614D01*
X195600884Y-196307614D02*
X195529456Y-196021900D01*
X195529456Y-196021900D02*
X195529456Y-195664757D01*
X195529456Y-195664757D02*
X195600884Y-195379042D01*
X195600884Y-195379042D02*
X195672313Y-195236185D01*
X195672313Y-195236185D02*
X195743742Y-195164757D01*
X195743742Y-195164757D02*
X195886599Y-195093328D01*
X197029455Y-196450471D02*
X197100884Y-196521900D01*
X197100884Y-196521900D02*
X197029455Y-196593328D01*
X197029455Y-196593328D02*
X196958027Y-196521900D01*
X196958027Y-196521900D02*
X197029455Y-196450471D01*
X197029455Y-196450471D02*
X197029455Y-196593328D01*
X198029456Y-195093328D02*
X198172313Y-195093328D01*
X198172313Y-195093328D02*
X198315170Y-195164757D01*
X198315170Y-195164757D02*
X198386599Y-195236185D01*
X198386599Y-195236185D02*
X198458027Y-195379042D01*
X198458027Y-195379042D02*
X198529456Y-195664757D01*
X198529456Y-195664757D02*
X198529456Y-196021900D01*
X198529456Y-196021900D02*
X198458027Y-196307614D01*
X198458027Y-196307614D02*
X198386599Y-196450471D01*
X198386599Y-196450471D02*
X198315170Y-196521900D01*
X198315170Y-196521900D02*
X198172313Y-196593328D01*
X198172313Y-196593328D02*
X198029456Y-196593328D01*
X198029456Y-196593328D02*
X197886599Y-196521900D01*
X197886599Y-196521900D02*
X197815170Y-196450471D01*
X197815170Y-196450471D02*
X197743741Y-196307614D01*
X197743741Y-196307614D02*
X197672313Y-196021900D01*
X197672313Y-196021900D02*
X197672313Y-195664757D01*
X197672313Y-195664757D02*
X197743741Y-195379042D01*
X197743741Y-195379042D02*
X197815170Y-195236185D01*
X197815170Y-195236185D02*
X197886599Y-195164757D01*
X197886599Y-195164757D02*
X198029456Y-195093328D01*
D10*
D11*
X177002200Y-191507200D02*
X285002200Y-191507200D01*
D10*
D12*
X264413853Y-193785528D02*
X263913853Y-193071242D01*
X263556710Y-193785528D02*
X263556710Y-192285528D01*
X263556710Y-192285528D02*
X264128139Y-192285528D01*
X264128139Y-192285528D02*
X264270996Y-192356957D01*
X264270996Y-192356957D02*
X264342425Y-192428385D01*
X264342425Y-192428385D02*
X264413853Y-192571242D01*
X264413853Y-192571242D02*
X264413853Y-192785528D01*
X264413853Y-192785528D02*
X264342425Y-192928385D01*
X264342425Y-192928385D02*
X264270996Y-192999814D01*
X264270996Y-192999814D02*
X264128139Y-193071242D01*
X264128139Y-193071242D02*
X263556710Y-193071242D01*
X265628139Y-193714100D02*
X265485282Y-193785528D01*
X265485282Y-193785528D02*
X265199568Y-193785528D01*
X265199568Y-193785528D02*
X265056710Y-193714100D01*
X265056710Y-193714100D02*
X264985282Y-193571242D01*
X264985282Y-193571242D02*
X264985282Y-192999814D01*
X264985282Y-192999814D02*
X265056710Y-192856957D01*
X265056710Y-192856957D02*
X265199568Y-192785528D01*
X265199568Y-192785528D02*
X265485282Y-192785528D01*
X265485282Y-192785528D02*
X265628139Y-192856957D01*
X265628139Y-192856957D02*
X265699568Y-192999814D01*
X265699568Y-192999814D02*
X265699568Y-193142671D01*
X265699568Y-193142671D02*
X264985282Y-193285528D01*
X266199567Y-192785528D02*
X266556710Y-193785528D01*
X266556710Y-193785528D02*
X266913853Y-192785528D01*
X267485281Y-193642671D02*
X267556710Y-193714100D01*
X267556710Y-193714100D02*
X267485281Y-193785528D01*
X267485281Y-193785528D02*
X267413853Y-193714100D01*
X267413853Y-193714100D02*
X267485281Y-193642671D01*
X267485281Y-193642671D02*
X267485281Y-193785528D01*
X267485281Y-192856957D02*
X267556710Y-192928385D01*
X267556710Y-192928385D02*
X267485281Y-192999814D01*
X267485281Y-192999814D02*
X267413853Y-192928385D01*
X267413853Y-192928385D02*
X267485281Y-192856957D01*
X267485281Y-192856957D02*
X267485281Y-192999814D01*
D10*
D11*
X178386598Y-193721900D02*
X178600884Y-193793328D01*
X178600884Y-193793328D02*
X178958026Y-193793328D01*
X178958026Y-193793328D02*
X179100884Y-193721900D01*
X179100884Y-193721900D02*
X179172312Y-193650471D01*
X179172312Y-193650471D02*
X179243741Y-193507614D01*
X179243741Y-193507614D02*
X179243741Y-193364757D01*
X179243741Y-193364757D02*
X179172312Y-193221900D01*
X179172312Y-193221900D02*
X179100884Y-193150471D01*
X179100884Y-193150471D02*
X178958026Y-193079042D01*
X178958026Y-193079042D02*
X178672312Y-193007614D01*
X178672312Y-193007614D02*
X178529455Y-192936185D01*
X178529455Y-192936185D02*
X178458026Y-192864757D01*
X178458026Y-192864757D02*
X178386598Y-192721900D01*
X178386598Y-192721900D02*
X178386598Y-192579042D01*
X178386598Y-192579042D02*
X178458026Y-192436185D01*
X178458026Y-192436185D02*
X178529455Y-192364757D01*
X178529455Y-192364757D02*
X178672312Y-192293328D01*
X178672312Y-192293328D02*
X179029455Y-192293328D01*
X179029455Y-192293328D02*
X179243741Y-192364757D01*
X179886597Y-193793328D02*
X179886597Y-192793328D01*
X179886597Y-192293328D02*
X179815169Y-192364757D01*
X179815169Y-192364757D02*
X179886597Y-192436185D01*
X179886597Y-192436185D02*
X179958026Y-192364757D01*
X179958026Y-192364757D02*
X179886597Y-192293328D01*
X179886597Y-192293328D02*
X179886597Y-192436185D01*
X180458026Y-192793328D02*
X181243741Y-192793328D01*
X181243741Y-192793328D02*
X180458026Y-193793328D01*
X180458026Y-193793328D02*
X181243741Y-193793328D01*
X182386598Y-193721900D02*
X182243741Y-193793328D01*
X182243741Y-193793328D02*
X181958027Y-193793328D01*
X181958027Y-193793328D02*
X181815169Y-193721900D01*
X181815169Y-193721900D02*
X181743741Y-193579042D01*
X181743741Y-193579042D02*
X181743741Y-193007614D01*
X181743741Y-193007614D02*
X181815169Y-192864757D01*
X181815169Y-192864757D02*
X181958027Y-192793328D01*
X181958027Y-192793328D02*
X182243741Y-192793328D01*
X182243741Y-192793328D02*
X182386598Y-192864757D01*
X182386598Y-192864757D02*
X182458027Y-193007614D01*
X182458027Y-193007614D02*
X182458027Y-193150471D01*
X182458027Y-193150471D02*
X181743741Y-193293328D01*
X183100883Y-193650471D02*
X183172312Y-193721900D01*
X183172312Y-193721900D02*
X183100883Y-193793328D01*
X183100883Y-193793328D02*
X183029455Y-193721900D01*
X183029455Y-193721900D02*
X183100883Y-193650471D01*
X183100883Y-193650471D02*
X183100883Y-193793328D01*
X183100883Y-192864757D02*
X183172312Y-192936185D01*
X183172312Y-192936185D02*
X183100883Y-193007614D01*
X183100883Y-193007614D02*
X183029455Y-192936185D01*
X183029455Y-192936185D02*
X183100883Y-192864757D01*
X183100883Y-192864757D02*
X183100883Y-193007614D01*
X184886598Y-193364757D02*
X185600884Y-193364757D01*
X184743741Y-193793328D02*
X185243741Y-192293328D01*
X185243741Y-192293328D02*
X185743741Y-193793328D01*
X186886598Y-192793328D02*
X186886598Y-193793328D01*
X186529455Y-192221900D02*
X186172312Y-193293328D01*
X186172312Y-193293328D02*
X187100883Y-193293328D01*
D10*
D11*
X263458026Y-196593328D02*
X263458026Y-195093328D01*
X264815170Y-196593328D02*
X264815170Y-195093328D01*
X264815170Y-196521900D02*
X264672312Y-196593328D01*
X264672312Y-196593328D02*
X264386598Y-196593328D01*
X264386598Y-196593328D02*
X264243741Y-196521900D01*
X264243741Y-196521900D02*
X264172312Y-196450471D01*
X264172312Y-196450471D02*
X264100884Y-196307614D01*
X264100884Y-196307614D02*
X264100884Y-195879042D01*
X264100884Y-195879042D02*
X264172312Y-195736185D01*
X264172312Y-195736185D02*
X264243741Y-195664757D01*
X264243741Y-195664757D02*
X264386598Y-195593328D01*
X264386598Y-195593328D02*
X264672312Y-195593328D01*
X264672312Y-195593328D02*
X264815170Y-195664757D01*
X265529455Y-196450471D02*
X265600884Y-196521900D01*
X265600884Y-196521900D02*
X265529455Y-196593328D01*
X265529455Y-196593328D02*
X265458027Y-196521900D01*
X265458027Y-196521900D02*
X265529455Y-196450471D01*
X265529455Y-196450471D02*
X265529455Y-196593328D01*
X265529455Y-195664757D02*
X265600884Y-195736185D01*
X265600884Y-195736185D02*
X265529455Y-195807614D01*
X265529455Y-195807614D02*
X265458027Y-195736185D01*
X265458027Y-195736185D02*
X265529455Y-195664757D01*
X265529455Y-195664757D02*
X265529455Y-195807614D01*
X268172313Y-196593328D02*
X267315170Y-196593328D01*
X267743741Y-196593328D02*
X267743741Y-195093328D01*
X267743741Y-195093328D02*
X267600884Y-195307614D01*
X267600884Y-195307614D02*
X267458027Y-195450471D01*
X267458027Y-195450471D02*
X267315170Y-195521900D01*
X269886598Y-195021900D02*
X268600884Y-196950471D01*
X271172313Y-196593328D02*
X270315170Y-196593328D01*
X270743741Y-196593328D02*
X270743741Y-195093328D01*
X270743741Y-195093328D02*
X270600884Y-195307614D01*
X270600884Y-195307614D02*
X270458027Y-195450471D01*
X270458027Y-195450471D02*
X270315170Y-195521900D01*
D10*
D11*
X177002200Y-187507200D02*
X285002200Y-187507200D01*
D10*
D13*
X178693928Y-188211638D02*
X179836785Y-188211638D01*
X179015357Y-190211638D02*
X179265357Y-188211638D01*
X180253452Y-190211638D02*
X180420119Y-188878304D01*
X180503452Y-188211638D02*
X180396309Y-188306876D01*
X180396309Y-188306876D02*
X180479643Y-188402114D01*
X180479643Y-188402114D02*
X180586786Y-188306876D01*
X180586786Y-188306876D02*
X180503452Y-188211638D01*
X180503452Y-188211638D02*
X180479643Y-188402114D01*
X181086786Y-188878304D02*
X181848690Y-188878304D01*
X181455833Y-188211638D02*
X181241548Y-189925923D01*
X181241548Y-189925923D02*
X181312976Y-190116400D01*
X181312976Y-190116400D02*
X181491548Y-190211638D01*
X181491548Y-190211638D02*
X181682024Y-190211638D01*
X182634405Y-190211638D02*
X182455833Y-190116400D01*
X182455833Y-190116400D02*
X182384405Y-189925923D01*
X182384405Y-189925923D02*
X182598690Y-188211638D01*
X184170119Y-190116400D02*
X183967738Y-190211638D01*
X183967738Y-190211638D02*
X183586785Y-190211638D01*
X183586785Y-190211638D02*
X183408214Y-190116400D01*
X183408214Y-190116400D02*
X183336785Y-189925923D01*
X183336785Y-189925923D02*
X183432024Y-189164019D01*
X183432024Y-189164019D02*
X183551071Y-188973542D01*
X183551071Y-188973542D02*
X183753452Y-188878304D01*
X183753452Y-188878304D02*
X184134404Y-188878304D01*
X184134404Y-188878304D02*
X184312976Y-188973542D01*
X184312976Y-188973542D02*
X184384404Y-189164019D01*
X184384404Y-189164019D02*
X184360595Y-189354495D01*
X184360595Y-189354495D02*
X183384404Y-189544971D01*
X185134405Y-190021161D02*
X185217738Y-190116400D01*
X185217738Y-190116400D02*
X185110595Y-190211638D01*
X185110595Y-190211638D02*
X185027262Y-190116400D01*
X185027262Y-190116400D02*
X185134405Y-190021161D01*
X185134405Y-190021161D02*
X185110595Y-190211638D01*
X185265357Y-188973542D02*
X185348690Y-189068780D01*
X185348690Y-189068780D02*
X185241548Y-189164019D01*
X185241548Y-189164019D02*
X185158214Y-189068780D01*
X185158214Y-189068780D02*
X185265357Y-188973542D01*
X185265357Y-188973542D02*
X185241548Y-189164019D01*
D10*
D11*
X178958026Y-185607614D02*
X178458026Y-185607614D01*
X178458026Y-186393328D02*
X178458026Y-184893328D01*
X178458026Y-184893328D02*
X179172312Y-184893328D01*
X179743740Y-186393328D02*
X179743740Y-185393328D01*
X179743740Y-184893328D02*
X179672312Y-184964757D01*
X179672312Y-184964757D02*
X179743740Y-185036185D01*
X179743740Y-185036185D02*
X179815169Y-184964757D01*
X179815169Y-184964757D02*
X179743740Y-184893328D01*
X179743740Y-184893328D02*
X179743740Y-185036185D01*
X180672312Y-186393328D02*
X180529455Y-186321900D01*
X180529455Y-186321900D02*
X180458026Y-186179042D01*
X180458026Y-186179042D02*
X180458026Y-184893328D01*
X181815169Y-186321900D02*
X181672312Y-186393328D01*
X181672312Y-186393328D02*
X181386598Y-186393328D01*
X181386598Y-186393328D02*
X181243740Y-186321900D01*
X181243740Y-186321900D02*
X181172312Y-186179042D01*
X181172312Y-186179042D02*
X181172312Y-185607614D01*
X181172312Y-185607614D02*
X181243740Y-185464757D01*
X181243740Y-185464757D02*
X181386598Y-185393328D01*
X181386598Y-185393328D02*
X181672312Y-185393328D01*
X181672312Y-185393328D02*
X181815169Y-185464757D01*
X181815169Y-185464757D02*
X181886598Y-185607614D01*
X181886598Y-185607614D02*
X181886598Y-185750471D01*
X181886598Y-185750471D02*
X181172312Y-185893328D01*
X182529454Y-186250471D02*
X182600883Y-186321900D01*
X182600883Y-186321900D02*
X182529454Y-186393328D01*
X182529454Y-186393328D02*
X182458026Y-186321900D01*
X182458026Y-186321900D02*
X182529454Y-186250471D01*
X182529454Y-186250471D02*
X182529454Y-186393328D01*
X182529454Y-185464757D02*
X182600883Y-185536185D01*
X182600883Y-185536185D02*
X182529454Y-185607614D01*
X182529454Y-185607614D02*
X182458026Y-185536185D01*
X182458026Y-185536185D02*
X182529454Y-185464757D01*
X182529454Y-185464757D02*
X182529454Y-185607614D01*
X185100883Y-186393328D02*
X184386597Y-186393328D01*
X184386597Y-186393328D02*
X184386597Y-184893328D01*
X185600883Y-186393328D02*
X185600883Y-185393328D01*
X185600883Y-184893328D02*
X185529455Y-184964757D01*
X185529455Y-184964757D02*
X185600883Y-185036185D01*
X185600883Y-185036185D02*
X185672312Y-184964757D01*
X185672312Y-184964757D02*
X185600883Y-184893328D01*
X185600883Y-184893328D02*
X185600883Y-185036185D01*
X186315169Y-185393328D02*
X186315169Y-186393328D01*
X186315169Y-185536185D02*
X186386598Y-185464757D01*
X186386598Y-185464757D02*
X186529455Y-185393328D01*
X186529455Y-185393328D02*
X186743741Y-185393328D01*
X186743741Y-185393328D02*
X186886598Y-185464757D01*
X186886598Y-185464757D02*
X186958027Y-185607614D01*
X186958027Y-185607614D02*
X186958027Y-186393328D01*
X188243741Y-186321900D02*
X188100884Y-186393328D01*
X188100884Y-186393328D02*
X187815170Y-186393328D01*
X187815170Y-186393328D02*
X187672312Y-186321900D01*
X187672312Y-186321900D02*
X187600884Y-186179042D01*
X187600884Y-186179042D02*
X187600884Y-185607614D01*
X187600884Y-185607614D02*
X187672312Y-185464757D01*
X187672312Y-185464757D02*
X187815170Y-185393328D01*
X187815170Y-185393328D02*
X188100884Y-185393328D01*
X188100884Y-185393328D02*
X188243741Y-185464757D01*
X188243741Y-185464757D02*
X188315170Y-185607614D01*
X188315170Y-185607614D02*
X188315170Y-185750471D01*
X188315170Y-185750471D02*
X187600884Y-185893328D01*
X189458026Y-185607614D02*
X188958026Y-185607614D01*
X188958026Y-186393328D02*
X188958026Y-184893328D01*
X188958026Y-184893328D02*
X189672312Y-184893328D01*
X190458026Y-186393328D02*
X190315169Y-186321900D01*
X190315169Y-186321900D02*
X190243740Y-186250471D01*
X190243740Y-186250471D02*
X190172312Y-186107614D01*
X190172312Y-186107614D02*
X190172312Y-185679042D01*
X190172312Y-185679042D02*
X190243740Y-185536185D01*
X190243740Y-185536185D02*
X190315169Y-185464757D01*
X190315169Y-185464757D02*
X190458026Y-185393328D01*
X190458026Y-185393328D02*
X190672312Y-185393328D01*
X190672312Y-185393328D02*
X190815169Y-185464757D01*
X190815169Y-185464757D02*
X190886598Y-185536185D01*
X190886598Y-185536185D02*
X190958026Y-185679042D01*
X190958026Y-185679042D02*
X190958026Y-186107614D01*
X190958026Y-186107614D02*
X190886598Y-186250471D01*
X190886598Y-186250471D02*
X190815169Y-186321900D01*
X190815169Y-186321900D02*
X190672312Y-186393328D01*
X190672312Y-186393328D02*
X190458026Y-186393328D01*
X191815169Y-186393328D02*
X191672312Y-186321900D01*
X191672312Y-186321900D02*
X191600883Y-186179042D01*
X191600883Y-186179042D02*
X191600883Y-184893328D01*
X192600883Y-186393328D02*
X192458026Y-186321900D01*
X192458026Y-186321900D02*
X192386597Y-186179042D01*
X192386597Y-186179042D02*
X192386597Y-184893328D01*
X193386597Y-186393328D02*
X193243740Y-186321900D01*
X193243740Y-186321900D02*
X193172311Y-186250471D01*
X193172311Y-186250471D02*
X193100883Y-186107614D01*
X193100883Y-186107614D02*
X193100883Y-185679042D01*
X193100883Y-185679042D02*
X193172311Y-185536185D01*
X193172311Y-185536185D02*
X193243740Y-185464757D01*
X193243740Y-185464757D02*
X193386597Y-185393328D01*
X193386597Y-185393328D02*
X193600883Y-185393328D01*
X193600883Y-185393328D02*
X193743740Y-185464757D01*
X193743740Y-185464757D02*
X193815169Y-185536185D01*
X193815169Y-185536185D02*
X193886597Y-185679042D01*
X193886597Y-185679042D02*
X193886597Y-186107614D01*
X193886597Y-186107614D02*
X193815169Y-186250471D01*
X193815169Y-186250471D02*
X193743740Y-186321900D01*
X193743740Y-186321900D02*
X193600883Y-186393328D01*
X193600883Y-186393328D02*
X193386597Y-186393328D01*
X194386597Y-185393328D02*
X194672312Y-186393328D01*
X194672312Y-186393328D02*
X194958026Y-185679042D01*
X194958026Y-185679042D02*
X195243740Y-186393328D01*
X195243740Y-186393328D02*
X195529454Y-185393328D01*
X196672312Y-186321900D02*
X196529455Y-186393328D01*
X196529455Y-186393328D02*
X196243741Y-186393328D01*
X196243741Y-186393328D02*
X196100883Y-186321900D01*
X196100883Y-186321900D02*
X196029455Y-186179042D01*
X196029455Y-186179042D02*
X196029455Y-185607614D01*
X196029455Y-185607614D02*
X196100883Y-185464757D01*
X196100883Y-185464757D02*
X196243741Y-185393328D01*
X196243741Y-185393328D02*
X196529455Y-185393328D01*
X196529455Y-185393328D02*
X196672312Y-185464757D01*
X196672312Y-185464757D02*
X196743741Y-185607614D01*
X196743741Y-185607614D02*
X196743741Y-185750471D01*
X196743741Y-185750471D02*
X196029455Y-185893328D01*
X197386597Y-186393328D02*
X197386597Y-185393328D01*
X197386597Y-185679042D02*
X197458026Y-185536185D01*
X197458026Y-185536185D02*
X197529455Y-185464757D01*
X197529455Y-185464757D02*
X197672312Y-185393328D01*
X197672312Y-185393328D02*
X197815169Y-185393328D01*
X199172311Y-186393328D02*
X198672311Y-185679042D01*
X198315168Y-186393328D02*
X198315168Y-184893328D01*
X198315168Y-184893328D02*
X198886597Y-184893328D01*
X198886597Y-184893328D02*
X199029454Y-184964757D01*
X199029454Y-184964757D02*
X199100883Y-185036185D01*
X199100883Y-185036185D02*
X199172311Y-185179042D01*
X199172311Y-185179042D02*
X199172311Y-185393328D01*
X199172311Y-185393328D02*
X199100883Y-185536185D01*
X199100883Y-185536185D02*
X199029454Y-185607614D01*
X199029454Y-185607614D02*
X198886597Y-185679042D01*
X198886597Y-185679042D02*
X198315168Y-185679042D01*
X200672311Y-186250471D02*
X200600883Y-186321900D01*
X200600883Y-186321900D02*
X200386597Y-186393328D01*
X200386597Y-186393328D02*
X200243740Y-186393328D01*
X200243740Y-186393328D02*
X200029454Y-186321900D01*
X200029454Y-186321900D02*
X199886597Y-186179042D01*
X199886597Y-186179042D02*
X199815168Y-186036185D01*
X199815168Y-186036185D02*
X199743740Y-185750471D01*
X199743740Y-185750471D02*
X199743740Y-185536185D01*
X199743740Y-185536185D02*
X199815168Y-185250471D01*
X199815168Y-185250471D02*
X199886597Y-185107614D01*
X199886597Y-185107614D02*
X200029454Y-184964757D01*
X200029454Y-184964757D02*
X200243740Y-184893328D01*
X200243740Y-184893328D02*
X200386597Y-184893328D01*
X200386597Y-184893328D02*
X200600883Y-184964757D01*
X200600883Y-184964757D02*
X200672311Y-185036185D01*
X201172311Y-184893328D02*
X202172311Y-186393328D01*
X202172311Y-184893328D02*
X201172311Y-186393328D01*
X202743739Y-186250471D02*
X202815168Y-186321900D01*
X202815168Y-186321900D02*
X202743739Y-186393328D01*
X202743739Y-186393328D02*
X202672311Y-186321900D01*
X202672311Y-186321900D02*
X202743739Y-186250471D01*
X202743739Y-186250471D02*
X202743739Y-186393328D01*
X203458025Y-186393328D02*
X203458025Y-184893328D01*
X203600883Y-185821900D02*
X204029454Y-186393328D01*
X204029454Y-185393328D02*
X203458025Y-185964757D01*
X204672311Y-186393328D02*
X204672311Y-185393328D01*
X204672311Y-184893328D02*
X204600883Y-184964757D01*
X204600883Y-184964757D02*
X204672311Y-185036185D01*
X204672311Y-185036185D02*
X204743740Y-184964757D01*
X204743740Y-184964757D02*
X204672311Y-184893328D01*
X204672311Y-184893328D02*
X204672311Y-185036185D01*
X206029455Y-186321900D02*
X205886597Y-186393328D01*
X205886597Y-186393328D02*
X205600883Y-186393328D01*
X205600883Y-186393328D02*
X205458026Y-186321900D01*
X205458026Y-186321900D02*
X205386597Y-186250471D01*
X205386597Y-186250471D02*
X205315169Y-186107614D01*
X205315169Y-186107614D02*
X205315169Y-185679042D01*
X205315169Y-185679042D02*
X205386597Y-185536185D01*
X205386597Y-185536185D02*
X205458026Y-185464757D01*
X205458026Y-185464757D02*
X205600883Y-185393328D01*
X205600883Y-185393328D02*
X205886597Y-185393328D01*
X205886597Y-185393328D02*
X206029455Y-185464757D01*
X207315169Y-186393328D02*
X207315169Y-185607614D01*
X207315169Y-185607614D02*
X207243740Y-185464757D01*
X207243740Y-185464757D02*
X207100883Y-185393328D01*
X207100883Y-185393328D02*
X206815169Y-185393328D01*
X206815169Y-185393328D02*
X206672311Y-185464757D01*
X207315169Y-186321900D02*
X207172311Y-186393328D01*
X207172311Y-186393328D02*
X206815169Y-186393328D01*
X206815169Y-186393328D02*
X206672311Y-186321900D01*
X206672311Y-186321900D02*
X206600883Y-186179042D01*
X206600883Y-186179042D02*
X206600883Y-186036185D01*
X206600883Y-186036185D02*
X206672311Y-185893328D01*
X206672311Y-185893328D02*
X206815169Y-185821900D01*
X206815169Y-185821900D02*
X207172311Y-185821900D01*
X207172311Y-185821900D02*
X207315169Y-185750471D01*
X208672312Y-186393328D02*
X208672312Y-184893328D01*
X208672312Y-186321900D02*
X208529454Y-186393328D01*
X208529454Y-186393328D02*
X208243740Y-186393328D01*
X208243740Y-186393328D02*
X208100883Y-186321900D01*
X208100883Y-186321900D02*
X208029454Y-186250471D01*
X208029454Y-186250471D02*
X207958026Y-186107614D01*
X207958026Y-186107614D02*
X207958026Y-185679042D01*
X207958026Y-185679042D02*
X208029454Y-185536185D01*
X208029454Y-185536185D02*
X208100883Y-185464757D01*
X208100883Y-185464757D02*
X208243740Y-185393328D01*
X208243740Y-185393328D02*
X208529454Y-185393328D01*
X208529454Y-185393328D02*
X208672312Y-185464757D01*
X209029455Y-186536185D02*
X210172312Y-186536185D01*
X210529454Y-185393328D02*
X210529454Y-186893328D01*
X210529454Y-185464757D02*
X210672312Y-185393328D01*
X210672312Y-185393328D02*
X210958026Y-185393328D01*
X210958026Y-185393328D02*
X211100883Y-185464757D01*
X211100883Y-185464757D02*
X211172312Y-185536185D01*
X211172312Y-185536185D02*
X211243740Y-185679042D01*
X211243740Y-185679042D02*
X211243740Y-186107614D01*
X211243740Y-186107614D02*
X211172312Y-186250471D01*
X211172312Y-186250471D02*
X211100883Y-186321900D01*
X211100883Y-186321900D02*
X210958026Y-186393328D01*
X210958026Y-186393328D02*
X210672312Y-186393328D01*
X210672312Y-186393328D02*
X210529454Y-186321900D01*
X212529455Y-186321900D02*
X212386597Y-186393328D01*
X212386597Y-186393328D02*
X212100883Y-186393328D01*
X212100883Y-186393328D02*
X211958026Y-186321900D01*
X211958026Y-186321900D02*
X211886597Y-186250471D01*
X211886597Y-186250471D02*
X211815169Y-186107614D01*
X211815169Y-186107614D02*
X211815169Y-185679042D01*
X211815169Y-185679042D02*
X211886597Y-185536185D01*
X211886597Y-185536185D02*
X211958026Y-185464757D01*
X211958026Y-185464757D02*
X212100883Y-185393328D01*
X212100883Y-185393328D02*
X212386597Y-185393328D01*
X212386597Y-185393328D02*
X212529455Y-185464757D01*
X213172311Y-186393328D02*
X213172311Y-184893328D01*
X213172311Y-185464757D02*
X213315169Y-185393328D01*
X213315169Y-185393328D02*
X213600883Y-185393328D01*
X213600883Y-185393328D02*
X213743740Y-185464757D01*
X213743740Y-185464757D02*
X213815169Y-185536185D01*
X213815169Y-185536185D02*
X213886597Y-185679042D01*
X213886597Y-185679042D02*
X213886597Y-186107614D01*
X213886597Y-186107614D02*
X213815169Y-186250471D01*
X213815169Y-186250471D02*
X213743740Y-186321900D01*
X213743740Y-186321900D02*
X213600883Y-186393328D01*
X213600883Y-186393328D02*
X213315169Y-186393328D01*
X213315169Y-186393328D02*
X213172311Y-186321900D01*
D10*
D11*
X177002200Y-181507200D02*
X285002200Y-181507200D01*
D10*
D11*
X178386598Y-183621900D02*
X178600884Y-183693328D01*
X178600884Y-183693328D02*
X178958026Y-183693328D01*
X178958026Y-183693328D02*
X179100884Y-183621900D01*
X179100884Y-183621900D02*
X179172312Y-183550471D01*
X179172312Y-183550471D02*
X179243741Y-183407614D01*
X179243741Y-183407614D02*
X179243741Y-183264757D01*
X179243741Y-183264757D02*
X179172312Y-183121900D01*
X179172312Y-183121900D02*
X179100884Y-183050471D01*
X179100884Y-183050471D02*
X178958026Y-182979042D01*
X178958026Y-182979042D02*
X178672312Y-182907614D01*
X178672312Y-182907614D02*
X178529455Y-182836185D01*
X178529455Y-182836185D02*
X178458026Y-182764757D01*
X178458026Y-182764757D02*
X178386598Y-182621900D01*
X178386598Y-182621900D02*
X178386598Y-182479042D01*
X178386598Y-182479042D02*
X178458026Y-182336185D01*
X178458026Y-182336185D02*
X178529455Y-182264757D01*
X178529455Y-182264757D02*
X178672312Y-182193328D01*
X178672312Y-182193328D02*
X179029455Y-182193328D01*
X179029455Y-182193328D02*
X179243741Y-182264757D01*
X179886597Y-183693328D02*
X179886597Y-182193328D01*
X180529455Y-183693328D02*
X180529455Y-182907614D01*
X180529455Y-182907614D02*
X180458026Y-182764757D01*
X180458026Y-182764757D02*
X180315169Y-182693328D01*
X180315169Y-182693328D02*
X180100883Y-182693328D01*
X180100883Y-182693328D02*
X179958026Y-182764757D01*
X179958026Y-182764757D02*
X179886597Y-182836185D01*
X181815169Y-183621900D02*
X181672312Y-183693328D01*
X181672312Y-183693328D02*
X181386598Y-183693328D01*
X181386598Y-183693328D02*
X181243740Y-183621900D01*
X181243740Y-183621900D02*
X181172312Y-183479042D01*
X181172312Y-183479042D02*
X181172312Y-182907614D01*
X181172312Y-182907614D02*
X181243740Y-182764757D01*
X181243740Y-182764757D02*
X181386598Y-182693328D01*
X181386598Y-182693328D02*
X181672312Y-182693328D01*
X181672312Y-182693328D02*
X181815169Y-182764757D01*
X181815169Y-182764757D02*
X181886598Y-182907614D01*
X181886598Y-182907614D02*
X181886598Y-183050471D01*
X181886598Y-183050471D02*
X181172312Y-183193328D01*
X183100883Y-183621900D02*
X182958026Y-183693328D01*
X182958026Y-183693328D02*
X182672312Y-183693328D01*
X182672312Y-183693328D02*
X182529454Y-183621900D01*
X182529454Y-183621900D02*
X182458026Y-183479042D01*
X182458026Y-183479042D02*
X182458026Y-182907614D01*
X182458026Y-182907614D02*
X182529454Y-182764757D01*
X182529454Y-182764757D02*
X182672312Y-182693328D01*
X182672312Y-182693328D02*
X182958026Y-182693328D01*
X182958026Y-182693328D02*
X183100883Y-182764757D01*
X183100883Y-182764757D02*
X183172312Y-182907614D01*
X183172312Y-182907614D02*
X183172312Y-183050471D01*
X183172312Y-183050471D02*
X182458026Y-183193328D01*
X183600883Y-182693328D02*
X184172311Y-182693328D01*
X183815168Y-182193328D02*
X183815168Y-183479042D01*
X183815168Y-183479042D02*
X183886597Y-183621900D01*
X183886597Y-183621900D02*
X184029454Y-183693328D01*
X184029454Y-183693328D02*
X184172311Y-183693328D01*
X184672311Y-183550471D02*
X184743740Y-183621900D01*
X184743740Y-183621900D02*
X184672311Y-183693328D01*
X184672311Y-183693328D02*
X184600883Y-183621900D01*
X184600883Y-183621900D02*
X184672311Y-183550471D01*
X184672311Y-183550471D02*
X184672311Y-183693328D01*
X184672311Y-182764757D02*
X184743740Y-182836185D01*
X184743740Y-182836185D02*
X184672311Y-182907614D01*
X184672311Y-182907614D02*
X184600883Y-182836185D01*
X184600883Y-182836185D02*
X184672311Y-182764757D01*
X184672311Y-182764757D02*
X184672311Y-182907614D01*
D10*
D12*
D10*
D11*
D10*
D11*
D10*
D11*
D10*
D11*
D10*
D11*
X197002200Y-191507200D02*
X197002200Y-194507200D01*
D10*
D11*
X261002200Y-191507200D02*
X261002200Y-198007200D01*
X147607619Y-140915104D02*
X148417142Y-140915104D01*
X148417142Y-140915104D02*
X148512380Y-140867485D01*
X148512380Y-140867485D02*
X148560000Y-140819866D01*
X148560000Y-140819866D02*
X148607619Y-140724628D01*
X148607619Y-140724628D02*
X148607619Y-140534152D01*
X148607619Y-140534152D02*
X148560000Y-140438914D01*
X148560000Y-140438914D02*
X148512380Y-140391295D01*
X148512380Y-140391295D02*
X148417142Y-140343676D01*
X148417142Y-140343676D02*
X147607619Y-140343676D01*
X148607619Y-139343676D02*
X148607619Y-139915104D01*
X148607619Y-139629390D02*
X147607619Y-139629390D01*
X147607619Y-139629390D02*
X147750476Y-139724628D01*
X147750476Y-139724628D02*
X147845714Y-139819866D01*
X147845714Y-139819866D02*
X147893333Y-139915104D01*
X177339666Y-93585819D02*
X177339666Y-94300104D01*
X177339666Y-94300104D02*
X177292047Y-94442961D01*
X177292047Y-94442961D02*
X177196809Y-94538200D01*
X177196809Y-94538200D02*
X177053952Y-94585819D01*
X177053952Y-94585819D02*
X176958714Y-94585819D01*
X177720619Y-93585819D02*
X178387285Y-93585819D01*
X178387285Y-93585819D02*
X177958714Y-94585819D01*
X177212666Y-119112819D02*
X177212666Y-119827104D01*
X177212666Y-119827104D02*
X177165047Y-119969961D01*
X177165047Y-119969961D02*
X177069809Y-120065200D01*
X177069809Y-120065200D02*
X176926952Y-120112819D01*
X176926952Y-120112819D02*
X176831714Y-120112819D01*
X177831714Y-119541390D02*
X177736476Y-119493771D01*
X177736476Y-119493771D02*
X177688857Y-119446152D01*
X177688857Y-119446152D02*
X177641238Y-119350914D01*
X177641238Y-119350914D02*
X177641238Y-119303295D01*
X177641238Y-119303295D02*
X177688857Y-119208057D01*
X177688857Y-119208057D02*
X177736476Y-119160438D01*
X177736476Y-119160438D02*
X177831714Y-119112819D01*
X177831714Y-119112819D02*
X178022190Y-119112819D01*
X178022190Y-119112819D02*
X178117428Y-119160438D01*
X178117428Y-119160438D02*
X178165047Y-119208057D01*
X178165047Y-119208057D02*
X178212666Y-119303295D01*
X178212666Y-119303295D02*
X178212666Y-119350914D01*
X178212666Y-119350914D02*
X178165047Y-119446152D01*
X178165047Y-119446152D02*
X178117428Y-119493771D01*
X178117428Y-119493771D02*
X178022190Y-119541390D01*
X178022190Y-119541390D02*
X177831714Y-119541390D01*
X177831714Y-119541390D02*
X177736476Y-119589009D01*
X177736476Y-119589009D02*
X177688857Y-119636628D01*
X177688857Y-119636628D02*
X177641238Y-119731866D01*
X177641238Y-119731866D02*
X177641238Y-119922342D01*
X177641238Y-119922342D02*
X177688857Y-120017580D01*
X177688857Y-120017580D02*
X177736476Y-120065200D01*
X177736476Y-120065200D02*
X177831714Y-120112819D01*
X177831714Y-120112819D02*
X178022190Y-120112819D01*
X178022190Y-120112819D02*
X178117428Y-120065200D01*
X178117428Y-120065200D02*
X178165047Y-120017580D01*
X178165047Y-120017580D02*
X178212666Y-119922342D01*
X178212666Y-119922342D02*
X178212666Y-119731866D01*
X178212666Y-119731866D02*
X178165047Y-119636628D01*
X178165047Y-119636628D02*
X178117428Y-119589009D01*
X178117428Y-119589009D02*
X178022190Y-119541390D01*
X137202104Y-109797285D02*
X137202104Y-109321095D01*
X137487819Y-109892523D02*
X136487819Y-109559190D01*
X136487819Y-109559190D02*
X137487819Y-109225857D01*
X136583057Y-108940142D02*
X136535438Y-108892523D01*
X136535438Y-108892523D02*
X136487819Y-108797285D01*
X136487819Y-108797285D02*
X136487819Y-108559190D01*
X136487819Y-108559190D02*
X136535438Y-108463952D01*
X136535438Y-108463952D02*
X136583057Y-108416333D01*
X136583057Y-108416333D02*
X136678295Y-108368714D01*
X136678295Y-108368714D02*
X136773533Y-108368714D01*
X136773533Y-108368714D02*
X136916390Y-108416333D01*
X136916390Y-108416333D02*
X137487819Y-108987761D01*
X137487819Y-108987761D02*
X137487819Y-108368714D01*
X177127819Y-110344904D02*
X177937342Y-110344904D01*
X177937342Y-110344904D02*
X178032580Y-110297285D01*
X178032580Y-110297285D02*
X178080200Y-110249666D01*
X178080200Y-110249666D02*
X178127819Y-110154428D01*
X178127819Y-110154428D02*
X178127819Y-109963952D01*
X178127819Y-109963952D02*
X178080200Y-109868714D01*
X178080200Y-109868714D02*
X178032580Y-109821095D01*
X178032580Y-109821095D02*
X177937342Y-109773476D01*
X177937342Y-109773476D02*
X177127819Y-109773476D01*
X178080200Y-109344904D02*
X178127819Y-109202047D01*
X178127819Y-109202047D02*
X178127819Y-108963952D01*
X178127819Y-108963952D02*
X178080200Y-108868714D01*
X178080200Y-108868714D02*
X178032580Y-108821095D01*
X178032580Y-108821095D02*
X177937342Y-108773476D01*
X177937342Y-108773476D02*
X177842104Y-108773476D01*
X177842104Y-108773476D02*
X177746866Y-108821095D01*
X177746866Y-108821095D02*
X177699247Y-108868714D01*
X177699247Y-108868714D02*
X177651628Y-108963952D01*
X177651628Y-108963952D02*
X177604009Y-109154428D01*
X177604009Y-109154428D02*
X177556390Y-109249666D01*
X177556390Y-109249666D02*
X177508771Y-109297285D01*
X177508771Y-109297285D02*
X177413533Y-109344904D01*
X177413533Y-109344904D02*
X177318295Y-109344904D01*
X177318295Y-109344904D02*
X177223057Y-109297285D01*
X177223057Y-109297285D02*
X177175438Y-109249666D01*
X177175438Y-109249666D02*
X177127819Y-109154428D01*
X177127819Y-109154428D02*
X177127819Y-108916333D01*
X177127819Y-108916333D02*
X177175438Y-108773476D01*
X177604009Y-108011571D02*
X177651628Y-107868714D01*
X177651628Y-107868714D02*
X177699247Y-107821095D01*
X177699247Y-107821095D02*
X177794485Y-107773476D01*
X177794485Y-107773476D02*
X177937342Y-107773476D01*
X177937342Y-107773476D02*
X178032580Y-107821095D01*
X178032580Y-107821095D02*
X178080200Y-107868714D01*
X178080200Y-107868714D02*
X178127819Y-107963952D01*
X178127819Y-107963952D02*
X178127819Y-108344904D01*
X178127819Y-108344904D02*
X177127819Y-108344904D01*
X177127819Y-108344904D02*
X177127819Y-108011571D01*
X177127819Y-108011571D02*
X177175438Y-107916333D01*
X177175438Y-107916333D02*
X177223057Y-107868714D01*
X177223057Y-107868714D02*
X177318295Y-107821095D01*
X177318295Y-107821095D02*
X177413533Y-107821095D01*
X177413533Y-107821095D02*
X177508771Y-107868714D01*
X177508771Y-107868714D02*
X177556390Y-107916333D01*
X177556390Y-107916333D02*
X177604009Y-108011571D01*
X177604009Y-108011571D02*
X177604009Y-108344904D01*
X127494819Y-103076333D02*
X128209104Y-103076333D01*
X128209104Y-103076333D02*
X128351961Y-103123952D01*
X128351961Y-103123952D02*
X128447200Y-103219190D01*
X128447200Y-103219190D02*
X128494819Y-103362047D01*
X128494819Y-103362047D02*
X128494819Y-103457285D01*
X128494819Y-102552523D02*
X128494819Y-102362047D01*
X128494819Y-102362047D02*
X128447200Y-102266809D01*
X128447200Y-102266809D02*
X128399580Y-102219190D01*
X128399580Y-102219190D02*
X128256723Y-102123952D01*
X128256723Y-102123952D02*
X128066247Y-102076333D01*
X128066247Y-102076333D02*
X127685295Y-102076333D01*
X127685295Y-102076333D02*
X127590057Y-102123952D01*
X127590057Y-102123952D02*
X127542438Y-102171571D01*
X127542438Y-102171571D02*
X127494819Y-102266809D01*
X127494819Y-102266809D02*
X127494819Y-102457285D01*
X127494819Y-102457285D02*
X127542438Y-102552523D01*
X127542438Y-102552523D02*
X127590057Y-102600142D01*
X127590057Y-102600142D02*
X127685295Y-102647761D01*
X127685295Y-102647761D02*
X127923390Y-102647761D01*
X127923390Y-102647761D02*
X128018628Y-102600142D01*
X128018628Y-102600142D02*
X128066247Y-102552523D01*
X128066247Y-102552523D02*
X128113866Y-102457285D01*
X128113866Y-102457285D02*
X128113866Y-102266809D01*
X128113866Y-102266809D02*
X128066247Y-102171571D01*
X128066247Y-102171571D02*
X128018628Y-102123952D01*
X128018628Y-102123952D02*
X127923390Y-102076333D01*
X188461571Y-115672009D02*
X188604428Y-115719628D01*
X188604428Y-115719628D02*
X188652047Y-115767247D01*
X188652047Y-115767247D02*
X188699666Y-115862485D01*
X188699666Y-115862485D02*
X188699666Y-116005342D01*
X188699666Y-116005342D02*
X188652047Y-116100580D01*
X188652047Y-116100580D02*
X188604428Y-116148200D01*
X188604428Y-116148200D02*
X188509190Y-116195819D01*
X188509190Y-116195819D02*
X188128238Y-116195819D01*
X188128238Y-116195819D02*
X188128238Y-115195819D01*
X188128238Y-115195819D02*
X188461571Y-115195819D01*
X188461571Y-115195819D02*
X188556809Y-115243438D01*
X188556809Y-115243438D02*
X188604428Y-115291057D01*
X188604428Y-115291057D02*
X188652047Y-115386295D01*
X188652047Y-115386295D02*
X188652047Y-115481533D01*
X188652047Y-115481533D02*
X188604428Y-115576771D01*
X188604428Y-115576771D02*
X188556809Y-115624390D01*
X188556809Y-115624390D02*
X188461571Y-115672009D01*
X188461571Y-115672009D02*
X188128238Y-115672009D01*
X189556809Y-116195819D02*
X189556809Y-115672009D01*
X189556809Y-115672009D02*
X189509190Y-115576771D01*
X189509190Y-115576771D02*
X189413952Y-115529152D01*
X189413952Y-115529152D02*
X189223476Y-115529152D01*
X189223476Y-115529152D02*
X189128238Y-115576771D01*
X189556809Y-116148200D02*
X189461571Y-116195819D01*
X189461571Y-116195819D02*
X189223476Y-116195819D01*
X189223476Y-116195819D02*
X189128238Y-116148200D01*
X189128238Y-116148200D02*
X189080619Y-116052961D01*
X189080619Y-116052961D02*
X189080619Y-115957723D01*
X189080619Y-115957723D02*
X189128238Y-115862485D01*
X189128238Y-115862485D02*
X189223476Y-115814866D01*
X189223476Y-115814866D02*
X189461571Y-115814866D01*
X189461571Y-115814866D02*
X189556809Y-115767247D01*
X189890143Y-115529152D02*
X190271095Y-115529152D01*
X190033000Y-115195819D02*
X190033000Y-116052961D01*
X190033000Y-116052961D02*
X190080619Y-116148200D01*
X190080619Y-116148200D02*
X190175857Y-116195819D01*
X190175857Y-116195819D02*
X190271095Y-116195819D01*
X190985381Y-116148200D02*
X190890143Y-116195819D01*
X190890143Y-116195819D02*
X190699667Y-116195819D01*
X190699667Y-116195819D02*
X190604429Y-116148200D01*
X190604429Y-116148200D02*
X190556810Y-116052961D01*
X190556810Y-116052961D02*
X190556810Y-115672009D01*
X190556810Y-115672009D02*
X190604429Y-115576771D01*
X190604429Y-115576771D02*
X190699667Y-115529152D01*
X190699667Y-115529152D02*
X190890143Y-115529152D01*
X190890143Y-115529152D02*
X190985381Y-115576771D01*
X190985381Y-115576771D02*
X191033000Y-115672009D01*
X191033000Y-115672009D02*
X191033000Y-115767247D01*
X191033000Y-115767247D02*
X190556810Y-115862485D01*
X191461572Y-116195819D02*
X191461572Y-115529152D01*
X191461572Y-115719628D02*
X191509191Y-115624390D01*
X191509191Y-115624390D02*
X191556810Y-115576771D01*
X191556810Y-115576771D02*
X191652048Y-115529152D01*
X191652048Y-115529152D02*
X191747286Y-115529152D01*
X192080620Y-116195819D02*
X192080620Y-115529152D01*
X192080620Y-115195819D02*
X192033001Y-115243438D01*
X192033001Y-115243438D02*
X192080620Y-115291057D01*
X192080620Y-115291057D02*
X192128239Y-115243438D01*
X192128239Y-115243438D02*
X192080620Y-115195819D01*
X192080620Y-115195819D02*
X192080620Y-115291057D01*
X192985381Y-116195819D02*
X192985381Y-115672009D01*
X192985381Y-115672009D02*
X192937762Y-115576771D01*
X192937762Y-115576771D02*
X192842524Y-115529152D01*
X192842524Y-115529152D02*
X192652048Y-115529152D01*
X192652048Y-115529152D02*
X192556810Y-115576771D01*
X192985381Y-116148200D02*
X192890143Y-116195819D01*
X192890143Y-116195819D02*
X192652048Y-116195819D01*
X192652048Y-116195819D02*
X192556810Y-116148200D01*
X192556810Y-116148200D02*
X192509191Y-116052961D01*
X192509191Y-116052961D02*
X192509191Y-115957723D01*
X192509191Y-115957723D02*
X192556810Y-115862485D01*
X192556810Y-115862485D02*
X192652048Y-115814866D01*
X192652048Y-115814866D02*
X192890143Y-115814866D01*
X192890143Y-115814866D02*
X192985381Y-115767247D01*
X193985381Y-116195819D02*
X193413953Y-116195819D01*
X193699667Y-116195819D02*
X193699667Y-115195819D01*
X193699667Y-115195819D02*
X193604429Y-115338676D01*
X193604429Y-115338676D02*
X193509191Y-115433914D01*
X193509191Y-115433914D02*
X193413953Y-115481533D01*
X146544819Y-91519333D02*
X147259104Y-91519333D01*
X147259104Y-91519333D02*
X147401961Y-91566952D01*
X147401961Y-91566952D02*
X147497200Y-91662190D01*
X147497200Y-91662190D02*
X147544819Y-91805047D01*
X147544819Y-91805047D02*
X147544819Y-91900285D01*
X147544819Y-90519333D02*
X147544819Y-91090761D01*
X147544819Y-90805047D02*
X146544819Y-90805047D01*
X146544819Y-90805047D02*
X146687676Y-90900285D01*
X146687676Y-90900285D02*
X146782914Y-90995523D01*
X146782914Y-90995523D02*
X146830533Y-91090761D01*
X180260666Y-137273819D02*
X180260666Y-137988104D01*
X180260666Y-137988104D02*
X180213047Y-138130961D01*
X180213047Y-138130961D02*
X180117809Y-138226200D01*
X180117809Y-138226200D02*
X179974952Y-138273819D01*
X179974952Y-138273819D02*
X179879714Y-138273819D01*
X180689238Y-137369057D02*
X180736857Y-137321438D01*
X180736857Y-137321438D02*
X180832095Y-137273819D01*
X180832095Y-137273819D02*
X181070190Y-137273819D01*
X181070190Y-137273819D02*
X181165428Y-137321438D01*
X181165428Y-137321438D02*
X181213047Y-137369057D01*
X181213047Y-137369057D02*
X181260666Y-137464295D01*
X181260666Y-137464295D02*
X181260666Y-137559533D01*
X181260666Y-137559533D02*
X181213047Y-137702390D01*
X181213047Y-137702390D02*
X180641619Y-138273819D01*
X180641619Y-138273819D02*
X181260666Y-138273819D01*
X187518819Y-106298904D02*
X188328342Y-106298904D01*
X188328342Y-106298904D02*
X188423580Y-106251285D01*
X188423580Y-106251285D02*
X188471200Y-106203666D01*
X188471200Y-106203666D02*
X188518819Y-106108428D01*
X188518819Y-106108428D02*
X188518819Y-105917952D01*
X188518819Y-105917952D02*
X188471200Y-105822714D01*
X188471200Y-105822714D02*
X188423580Y-105775095D01*
X188423580Y-105775095D02*
X188328342Y-105727476D01*
X188328342Y-105727476D02*
X187518819Y-105727476D01*
X187614057Y-105298904D02*
X187566438Y-105251285D01*
X187566438Y-105251285D02*
X187518819Y-105156047D01*
X187518819Y-105156047D02*
X187518819Y-104917952D01*
X187518819Y-104917952D02*
X187566438Y-104822714D01*
X187566438Y-104822714D02*
X187614057Y-104775095D01*
X187614057Y-104775095D02*
X187709295Y-104727476D01*
X187709295Y-104727476D02*
X187804533Y-104727476D01*
X187804533Y-104727476D02*
X187947390Y-104775095D01*
X187947390Y-104775095D02*
X188518819Y-105346523D01*
X188518819Y-105346523D02*
X188518819Y-104727476D01*
X140400819Y-124793333D02*
X141115104Y-124793333D01*
X141115104Y-124793333D02*
X141257961Y-124840952D01*
X141257961Y-124840952D02*
X141353200Y-124936190D01*
X141353200Y-124936190D02*
X141400819Y-125079047D01*
X141400819Y-125079047D02*
X141400819Y-125174285D01*
X140734152Y-123888571D02*
X141400819Y-123888571D01*
X140353200Y-124126666D02*
X141067485Y-124364761D01*
X141067485Y-124364761D02*
X141067485Y-123745714D01*
X136191666Y-137293819D02*
X136191666Y-138008104D01*
X136191666Y-138008104D02*
X136144047Y-138150961D01*
X136144047Y-138150961D02*
X136048809Y-138246200D01*
X136048809Y-138246200D02*
X135905952Y-138293819D01*
X135905952Y-138293819D02*
X135810714Y-138293819D01*
X136572619Y-137293819D02*
X137191666Y-137293819D01*
X137191666Y-137293819D02*
X136858333Y-137674771D01*
X136858333Y-137674771D02*
X137001190Y-137674771D01*
X137001190Y-137674771D02*
X137096428Y-137722390D01*
X137096428Y-137722390D02*
X137144047Y-137770009D01*
X137144047Y-137770009D02*
X137191666Y-137865247D01*
X137191666Y-137865247D02*
X137191666Y-138103342D01*
X137191666Y-138103342D02*
X137144047Y-138198580D01*
X137144047Y-138198580D02*
X137096428Y-138246200D01*
X137096428Y-138246200D02*
X137001190Y-138293819D01*
X137001190Y-138293819D02*
X136715476Y-138293819D01*
X136715476Y-138293819D02*
X136620238Y-138246200D01*
X136620238Y-138246200D02*
X136572619Y-138198580D01*
X184725074Y-130874972D02*
X184837560Y-130912467D01*
X184837560Y-130912467D02*
X185025037Y-130912467D01*
X185025037Y-130912467D02*
X185100027Y-130874972D01*
X185100027Y-130874972D02*
X185137523Y-130837476D01*
X185137523Y-130837476D02*
X185175018Y-130762486D01*
X185175018Y-130762486D02*
X185175018Y-130687495D01*
X185175018Y-130687495D02*
X185137523Y-130612504D01*
X185137523Y-130612504D02*
X185100027Y-130575009D01*
X185100027Y-130575009D02*
X185025037Y-130537514D01*
X185025037Y-130537514D02*
X184875055Y-130500018D01*
X184875055Y-130500018D02*
X184800065Y-130462523D01*
X184800065Y-130462523D02*
X184762569Y-130425028D01*
X184762569Y-130425028D02*
X184725074Y-130350037D01*
X184725074Y-130350037D02*
X184725074Y-130275046D01*
X184725074Y-130275046D02*
X184762569Y-130200056D01*
X184762569Y-130200056D02*
X184800065Y-130162560D01*
X184800065Y-130162560D02*
X184875055Y-130125065D01*
X184875055Y-130125065D02*
X185062532Y-130125065D01*
X185062532Y-130125065D02*
X185175018Y-130162560D01*
X185924925Y-130912467D02*
X185474981Y-130912467D01*
X185699953Y-130912467D02*
X185699953Y-130125065D01*
X185699953Y-130125065D02*
X185624962Y-130237551D01*
X185624962Y-130237551D02*
X185549972Y-130312542D01*
X185549972Y-130312542D02*
X185474981Y-130350037D01*
X144605476Y-121398819D02*
X144605476Y-122113104D01*
X144605476Y-122113104D02*
X144557857Y-122255961D01*
X144557857Y-122255961D02*
X144462619Y-122351200D01*
X144462619Y-122351200D02*
X144319762Y-122398819D01*
X144319762Y-122398819D02*
X144224524Y-122398819D01*
X145605476Y-122398819D02*
X145034048Y-122398819D01*
X145319762Y-122398819D02*
X145319762Y-121398819D01*
X145319762Y-121398819D02*
X145224524Y-121541676D01*
X145224524Y-121541676D02*
X145129286Y-121636914D01*
X145129286Y-121636914D02*
X145034048Y-121684533D01*
X146224524Y-121398819D02*
X146319762Y-121398819D01*
X146319762Y-121398819D02*
X146415000Y-121446438D01*
X146415000Y-121446438D02*
X146462619Y-121494057D01*
X146462619Y-121494057D02*
X146510238Y-121589295D01*
X146510238Y-121589295D02*
X146557857Y-121779771D01*
X146557857Y-121779771D02*
X146557857Y-122017866D01*
X146557857Y-122017866D02*
X146510238Y-122208342D01*
X146510238Y-122208342D02*
X146462619Y-122303580D01*
X146462619Y-122303580D02*
X146415000Y-122351200D01*
X146415000Y-122351200D02*
X146319762Y-122398819D01*
X146319762Y-122398819D02*
X146224524Y-122398819D01*
X146224524Y-122398819D02*
X146129286Y-122351200D01*
X146129286Y-122351200D02*
X146081667Y-122303580D01*
X146081667Y-122303580D02*
X146034048Y-122208342D01*
X146034048Y-122208342D02*
X145986429Y-122017866D01*
X145986429Y-122017866D02*
X145986429Y-121779771D01*
X145986429Y-121779771D02*
X146034048Y-121589295D01*
X146034048Y-121589295D02*
X146081667Y-121494057D01*
X146081667Y-121494057D02*
X146129286Y-121446438D01*
X146129286Y-121446438D02*
X146224524Y-121398819D01*
D14*
%TO.C,U1*%
X149606000Y-125730000D02*
X149606000Y-124460000D01*
X149606000Y-141120000D02*
X149606000Y-128120000D01*
X149606000Y-143510000D02*
X149606000Y-144780000D01*
X149606000Y-144780000D02*
X169926000Y-144780000D01*
X169926000Y-124460000D02*
X149606000Y-124460000D01*
X169926000Y-125730000D02*
X169926000Y-124460000D01*
X169926000Y-141120000D02*
X169926000Y-128120000D01*
X169926000Y-143510000D02*
X169926000Y-144780000D01*
D15*
X149137800Y-142240000D02*
G75*
G02*
X148937800Y-142240000I-100000J0D01*
G01*
X148937800Y-142240000D02*
G75*
G02*
X149137800Y-142240000I100000J0D01*
G01*
D16*
%TO.C,J7*%
X176343000Y-98111000D02*
X176343000Y-98231000D01*
X176343000Y-98231000D02*
X179003000Y-98231000D01*
X177673000Y-95571000D02*
X179003000Y-95571000D01*
X179003000Y-95571000D02*
X179003000Y-96901000D01*
X179003000Y-98111000D02*
X179003000Y-98231000D01*
%TO.C,J8*%
X176216000Y-123638000D02*
X176216000Y-123758000D01*
X176216000Y-123758000D02*
X178876000Y-123758000D01*
X177546000Y-121098000D02*
X178876000Y-121098000D01*
X178876000Y-121098000D02*
X178876000Y-122428000D01*
X178876000Y-123638000D02*
X178876000Y-123758000D01*
%TO.C,A2*%
X138173000Y-100063000D02*
X138173000Y-118103000D01*
X138173000Y-118103000D02*
X140843000Y-118103000D01*
X140843000Y-102733000D02*
X140843000Y-100063000D01*
X140843000Y-102733000D02*
X178943000Y-102733000D01*
X140843000Y-115433000D02*
X140843000Y-118103000D01*
X143383000Y-115433000D02*
X140843000Y-115433000D01*
X143383000Y-115433000D02*
X143383000Y-118103000D01*
X143383000Y-115433000D02*
X178943000Y-115433000D01*
X143383000Y-118103000D02*
X181613000Y-118103000D01*
X173733000Y-105143000D02*
X184153000Y-105143000D01*
X173733000Y-113023000D02*
X173733000Y-105143000D01*
X178943000Y-102733000D02*
X178943000Y-100063000D01*
X178943000Y-115433000D02*
X178943000Y-118103000D01*
X181613000Y-100063000D02*
X138173000Y-100063000D01*
X181613000Y-100063000D02*
X181613000Y-105143000D01*
X181613000Y-118103000D02*
X181613000Y-113023000D01*
X184153000Y-105143000D02*
X184153000Y-113023000D01*
X184153000Y-113023000D02*
X173733000Y-113023000D01*
%TO.C,J9*%
X129480000Y-101413000D02*
X130810000Y-101413000D01*
X129480000Y-102743000D02*
X129480000Y-101413000D01*
X132080000Y-101413000D02*
X134680000Y-101413000D01*
X132080000Y-104073000D02*
X132080000Y-101413000D01*
X132080000Y-104073000D02*
X134680000Y-104073000D01*
X134680000Y-104073000D02*
X134680000Y-101413000D01*
%TO.C,Bateria1*%
X189703000Y-119781000D02*
X189703000Y-122381000D01*
X189703000Y-119781000D02*
X192363000Y-119781000D01*
X189703000Y-122381000D02*
X192363000Y-122381000D01*
X191033000Y-117181000D02*
X192363000Y-117181000D01*
X192363000Y-117181000D02*
X192363000Y-118511000D01*
X192363000Y-119781000D02*
X192363000Y-122381000D01*
%TO.C,J1*%
X148530000Y-89856000D02*
X149860000Y-89856000D01*
X148530000Y-91186000D02*
X148530000Y-89856000D01*
X151130000Y-89856000D02*
X176590000Y-89856000D01*
X151130000Y-92516000D02*
X151130000Y-89856000D01*
X151130000Y-92516000D02*
X176590000Y-92516000D01*
X176590000Y-92516000D02*
X176590000Y-89856000D01*
%TO.C,J2*%
X179264000Y-141859000D02*
X179264000Y-144459000D01*
X179264000Y-141859000D02*
X181924000Y-141859000D01*
X179264000Y-144459000D02*
X181924000Y-144459000D01*
X180594000Y-139259000D02*
X181924000Y-139259000D01*
X181924000Y-139259000D02*
X181924000Y-140589000D01*
X181924000Y-141859000D02*
X181924000Y-144459000D01*
%TO.C,U2*%
X189064000Y-100417000D02*
X193705000Y-100417000D01*
X189064000Y-103686000D02*
X190574000Y-103686000D01*
X189064000Y-107387000D02*
X190574000Y-107387000D01*
X189064000Y-110657000D02*
X189064000Y-100417000D01*
X189064000Y-110657000D02*
X193705000Y-110657000D01*
X190574000Y-110657000D02*
X190574000Y-100417000D01*
X193705000Y-110657000D02*
X193705000Y-100417000D01*
%TO.C,J4*%
X124146000Y-123130000D02*
X124146000Y-125790000D01*
X136906000Y-123130000D02*
X124146000Y-123130000D01*
X136906000Y-123130000D02*
X136906000Y-125790000D01*
X136906000Y-125790000D02*
X124146000Y-125790000D01*
X139506000Y-124460000D02*
X139506000Y-125790000D01*
X139506000Y-125790000D02*
X138176000Y-125790000D01*
%TO.C,J3*%
X135195000Y-141879000D02*
X135195000Y-144479000D01*
X135195000Y-141879000D02*
X137855000Y-141879000D01*
X135195000Y-144479000D02*
X137855000Y-144479000D01*
X136525000Y-139279000D02*
X137855000Y-139279000D01*
X137855000Y-139279000D02*
X137855000Y-140609000D01*
X137855000Y-141879000D02*
X137855000Y-144479000D01*
D14*
%TO.C,S1*%
X180325000Y-128556000D02*
X180325000Y-129256000D01*
X180325000Y-128556000D02*
X190325000Y-128556000D01*
X180325000Y-131856000D02*
X180325000Y-132556000D01*
X183325000Y-132556000D02*
X180325000Y-132556000D01*
X185325000Y-132556000D02*
X183325000Y-132556000D01*
X187325000Y-132556000D02*
X185325000Y-132556000D01*
X190325000Y-128556000D02*
X190325000Y-129256000D01*
X190325000Y-131856000D02*
X190325000Y-132556000D01*
X190325000Y-132556000D02*
X187325000Y-132556000D01*
D16*
%TO.C,J10*%
X144085000Y-125984000D02*
X144085000Y-128584000D01*
X144085000Y-125984000D02*
X146745000Y-125984000D01*
X144085000Y-128584000D02*
X146745000Y-128584000D01*
X145415000Y-123384000D02*
X146745000Y-123384000D01*
X146745000Y-123384000D02*
X146745000Y-124714000D01*
X146745000Y-125984000D02*
X146745000Y-128584000D01*
%TD*%
M02*
