%TF.GenerationSoftware,KiCad,Pcbnew,8.0.0*%
%TF.CreationDate,2024-06-20T18:12:00-03:00*%
%TF.ProjectId,LineFollowerRCX,4c696e65-466f-46c6-9c6f-776572524358,rev?*%
%TF.SameCoordinates,Original*%
%TF.FileFunction,Copper,L2,Bot*%
%TF.FilePolarity,Positive*%
%FSLAX46Y46*%
G04 Gerber Fmt 4.6, Leading zero omitted, Abs format (unit mm)*
G04 Created by KiCad (PCBNEW 8.0.0) date 2024-06-20 18:12:00*
%MOMM*%
%LPD*%
G01*
G04 APERTURE LIST*
%TA.AperFunction,ComponentPad*%
%ADD10C,1.308000*%
%TD*%
%TA.AperFunction,ComponentPad*%
%ADD11C,2.250000*%
%TD*%
%TA.AperFunction,ComponentPad*%
%ADD12C,1.980000*%
%TD*%
%TA.AperFunction,ComponentPad*%
%ADD13R,1.700000X1.700000*%
%TD*%
%TA.AperFunction,ComponentPad*%
%ADD14R,1.600000X1.600000*%
%TD*%
%TA.AperFunction,ComponentPad*%
%ADD15O,1.600000X1.600000*%
%TD*%
%TA.AperFunction,ComponentPad*%
%ADD16O,1.700000X1.700000*%
%TD*%
%TA.AperFunction,ComponentPad*%
%ADD17R,2.000000X1.905000*%
%TD*%
%TA.AperFunction,ComponentPad*%
%ADD18O,2.000000X1.905000*%
%TD*%
%TA.AperFunction,ViaPad*%
%ADD19C,3.500000*%
%TD*%
G04 APERTURE END LIST*
D10*
%TO.P,S1,1*%
%TO.N,Net-(Bateria1-+)*%
X182825000Y-130556000D03*
%TO.P,S1,2*%
%TO.N,Net-(U1-VM)*%
X185325000Y-130556000D03*
%TO.P,S1,3*%
%TO.N,Net-(Bateria1--)*%
X187825000Y-130556000D03*
D11*
%TO.P,S1,P$4*%
%TO.N,N/C*%
X178825000Y-130556000D03*
%TO.P,S1,P$5*%
X191825000Y-130556000D03*
%TD*%
D12*
%TO.P,U1,1,VM*%
%TO.N,Net-(U1-VM)*%
X150876000Y-142240000D03*
%TO.P,U1,2,VCC*%
%TO.N,Alimenta\u00E7\u00E3o sensores*%
X153416000Y-142240000D03*
%TO.P,U1,3,GND*%
%TO.N,unconnected-(U1-GND-Pad3)*%
X155956000Y-142240000D03*
%TO.P,U1,4,A01*%
%TO.N,Net-(J3-+)*%
X158496000Y-142240000D03*
%TO.P,U1,5,A02*%
%TO.N,Net-(J3--)*%
X161036000Y-142240000D03*
%TO.P,U1,6,B02*%
%TO.N,Net-(J2--)*%
X163576000Y-142240000D03*
%TO.P,U1,7,B01*%
%TO.N,Net-(J2-+)*%
X166116000Y-142240000D03*
%TO.P,U1,8,GND__1*%
%TO.N,Net-(U1-GND__1)*%
X168656000Y-142240000D03*
%TO.P,U1,9,GND__2*%
%TO.N,unconnected-(U1-GND__2-Pad9)*%
X168656000Y-127000000D03*
%TO.P,U1,10,PWMB*%
%TO.N,Net-(A2-D11)*%
X166116000Y-127000000D03*
%TO.P,U1,11,BI2*%
%TO.N,Net-(A2-D9)*%
X163576000Y-127000000D03*
%TO.P,U1,12,BI1*%
%TO.N,Net-(A2-D8)*%
X161036000Y-127000000D03*
%TO.P,U1,13,STBY*%
%TO.N,Net-(A2-D5)*%
X158496000Y-127000000D03*
%TO.P,U1,14,AI1*%
%TO.N,Net-(A2-D4)*%
X155956000Y-127000000D03*
%TO.P,U1,15,AI2*%
%TO.N,Net-(A2-D3)*%
X153416000Y-127000000D03*
%TO.P,U1,16,PWMA*%
%TO.N,Net-(A2-D2)*%
X150876000Y-127000000D03*
%TD*%
D13*
%TO.P,J7,1,Pin_1*%
%TO.N,Net-(A2-D13)*%
X177673000Y-96901000D03*
%TD*%
%TO.P,J8,1,Pin_1*%
%TO.N,Net-(A2-D12)*%
X177546000Y-122428000D03*
%TD*%
D14*
%TO.P,A2,1,D1/TX*%
%TO.N,Net-(A2-D1{slash}TX)*%
X142113000Y-116703000D03*
D15*
%TO.P,A2,2,D0/RX*%
%TO.N,Net-(A2-D0{slash}RX)*%
X144653000Y-116703000D03*
%TO.P,A2,3,~{RESET}*%
%TO.N,unconnected-(A2-~{RESET}-Pad3)*%
X147193000Y-116703000D03*
%TO.P,A2,4,GND*%
%TO.N,GND*%
X149733000Y-116703000D03*
%TO.P,A2,5,D2*%
%TO.N,Net-(A2-D2)*%
X152273000Y-116703000D03*
%TO.P,A2,6,D3*%
%TO.N,Net-(A2-D3)*%
X154813000Y-116703000D03*
%TO.P,A2,7,D4*%
%TO.N,Net-(A2-D4)*%
X157353000Y-116703000D03*
%TO.P,A2,8,D5*%
%TO.N,Net-(A2-D5)*%
X159893000Y-116703000D03*
%TO.P,A2,9,D6*%
%TO.N,unconnected-(A2-D6-Pad9)*%
X162433000Y-116703000D03*
%TO.P,A2,10,D7*%
%TO.N,unconnected-(A2-D7-Pad10)*%
X164973000Y-116703000D03*
%TO.P,A2,11,D8*%
%TO.N,Net-(A2-D8)*%
X167513000Y-116703000D03*
%TO.P,A2,12,D9*%
%TO.N,Net-(A2-D9)*%
X170053000Y-116703000D03*
%TO.P,A2,13,D10*%
%TO.N,unconnected-(A2-D10-Pad13)*%
X172593000Y-116703000D03*
%TO.P,A2,14,D11*%
%TO.N,Net-(A2-D11)*%
X175133000Y-116703000D03*
%TO.P,A2,15,D12*%
%TO.N,Net-(A2-D12)*%
X177673000Y-116703000D03*
%TO.P,A2,16,D13*%
%TO.N,Net-(A2-D13)*%
X177673000Y-101463000D03*
%TO.P,A2,17,3V3*%
%TO.N,unconnected-(A2-3V3-Pad17)*%
X175133000Y-101463000D03*
%TO.P,A2,18,AREF*%
%TO.N,unconnected-(A2-AREF-Pad18)*%
X172593000Y-101463000D03*
%TO.P,A2,19,A0*%
%TO.N,Net-(A2-A0)*%
X170053000Y-101463000D03*
%TO.P,A2,20,A1*%
%TO.N,Net-(A2-A1)*%
X167513000Y-101463000D03*
%TO.P,A2,21,A2*%
%TO.N,Net-(A2-A2)*%
X164973000Y-101463000D03*
%TO.P,A2,22,A3*%
%TO.N,Net-(A2-A3)*%
X162433000Y-101463000D03*
%TO.P,A2,23,A4*%
%TO.N,Net-(A2-A4)*%
X159893000Y-101463000D03*
%TO.P,A2,24,A5*%
%TO.N,Net-(A2-A5)*%
X157353000Y-101463000D03*
%TO.P,A2,25,A6*%
%TO.N,Net-(A2-A6)*%
X154813000Y-101463000D03*
%TO.P,A2,26,A7*%
%TO.N,Net-(A2-A7)*%
X152273000Y-101463000D03*
%TO.P,A2,27,+5V*%
%TO.N,Alimenta\u00E7\u00E3o sensores*%
X149733000Y-101463000D03*
%TO.P,A2,28,~{RESET}*%
%TO.N,unconnected-(A2-~{RESET}-Pad28)*%
X147193000Y-101463000D03*
%TO.P,A2,29,GND*%
%TO.N,GND*%
X144653000Y-101463000D03*
%TO.P,A2,30,VIN*%
%TO.N,Bateria Arduino*%
X142113000Y-101463000D03*
%TD*%
D13*
%TO.P,J9,1,Pin_1*%
%TO.N,Alimenta\u00E7\u00E3o sensores*%
X130810000Y-102743000D03*
D16*
%TO.P,J9,2,Pin_2*%
X133350000Y-102743000D03*
%TD*%
D13*
%TO.P,Bateria1,1,+*%
%TO.N,Net-(Bateria1-+)*%
X191033000Y-118511000D03*
D16*
%TO.P,Bateria1,2,-*%
%TO.N,Net-(Bateria1--)*%
X191033000Y-121051000D03*
%TD*%
D13*
%TO.P,J1,1,Pin_1*%
%TO.N,Alimenta\u00E7\u00E3o sensores*%
X149860000Y-91186000D03*
D16*
%TO.P,J1,2,Pin_2*%
%TO.N,Net-(A2-A7)*%
X152400000Y-91186000D03*
%TO.P,J1,3,Pin_3*%
%TO.N,Net-(A2-A6)*%
X154940000Y-91186000D03*
%TO.P,J1,4,Pin_4*%
%TO.N,Net-(A2-A5)*%
X157480000Y-91186000D03*
%TO.P,J1,5,Pin_5*%
%TO.N,Net-(A2-A4)*%
X160020000Y-91186000D03*
%TO.P,J1,6,Pin_6*%
%TO.N,Net-(A2-A3)*%
X162560000Y-91186000D03*
%TO.P,J1,7,Pin_7*%
%TO.N,Net-(A2-A2)*%
X165100000Y-91186000D03*
%TO.P,J1,8,Pin_8*%
%TO.N,Net-(A2-A1)*%
X167640000Y-91186000D03*
%TO.P,J1,9,Pin_9*%
%TO.N,Net-(A2-A0)*%
X170180000Y-91186000D03*
%TO.P,J1,10,Pin_10*%
%TO.N,unconnected-(J1-Pin_10-Pad10)*%
X172720000Y-91186000D03*
%TO.P,J1,11,Pin_11*%
%TO.N,GND*%
X175260000Y-91186000D03*
%TD*%
D13*
%TO.P,J2,1,+*%
%TO.N,Net-(J2-+)*%
X175006000Y-145288000D03*
D16*
%TO.P,J2,2,-*%
%TO.N,Net-(J2--)*%
X175006000Y-147828000D03*
%TD*%
D17*
%TO.P,U2,1,VI*%
%TO.N,Net-(U1-VM)*%
X192334000Y-108077000D03*
D18*
%TO.P,U2,2,GND*%
%TO.N,Net-(U1-GND__1)*%
X192334000Y-105537000D03*
%TO.P,U2,3,VO*%
%TO.N,Bateria Arduino*%
X192334000Y-102997000D03*
%TD*%
D13*
%TO.P,J4,1,State*%
%TO.N,unconnected-(J4-State-Pad1)*%
X138176000Y-124460000D03*
D16*
%TO.P,J4,2,RX*%
%TO.N,Net-(A2-D0{slash}RX)*%
X135636000Y-124460000D03*
%TO.P,J4,3,TX*%
%TO.N,Net-(A2-D1{slash}TX)*%
X133096000Y-124460000D03*
%TO.P,J4,4,GND*%
%TO.N,GND*%
X130556000Y-124460000D03*
%TO.P,J4,5,VCC*%
%TO.N,Alimenta\u00E7\u00E3o sensores*%
X128016000Y-124460000D03*
%TO.P,J4,6,EN*%
%TO.N,unconnected-(J4-EN-Pad6)*%
X125476000Y-124460000D03*
%TD*%
D13*
%TO.P,J3,1,+*%
%TO.N,Net-(J3-+)*%
X144297000Y-146451000D03*
D16*
%TO.P,J3,2,-*%
%TO.N,Net-(J3--)*%
X144297000Y-148991000D03*
%TD*%
D13*
%TO.P,J10,1,Pin_1*%
%TO.N,GND*%
X145415000Y-124714000D03*
D16*
%TO.P,J10,2,Pin_2*%
X145415000Y-127254000D03*
%TD*%
D19*
%TO.N,*%
X191516000Y-92837000D03*
X206375000Y-106045000D03*
X206756000Y-132842000D03*
X206756000Y-150368000D03*
X115951000Y-150368000D03*
X115951000Y-132715000D03*
X116332000Y-105918000D03*
X131572000Y-92837000D03*
%TD*%
M02*
