%TF.GenerationSoftware,KiCad,Pcbnew,8.0.0*%
%TF.CreationDate,2024-06-20T13:21:25-03:00*%
%TF.ProjectId,LineFollowerRCX,4c696e65-466f-46c6-9c6f-776572524358,rev?*%
%TF.SameCoordinates,Original*%
%TF.FileFunction,Copper,L1,Top*%
%TF.FilePolarity,Positive*%
%FSLAX46Y46*%
G04 Gerber Fmt 4.6, Leading zero omitted, Abs format (unit mm)*
G04 Created by KiCad (PCBNEW 8.0.0) date 2024-06-20 13:21:25*
%MOMM*%
%LPD*%
G01*
G04 APERTURE LIST*
%ADD10C,0.100000*%
%ADD11C,0.150000*%
%ADD12C,0.300000*%
%ADD13C,0.400000*%
%TA.AperFunction,NonConductor*%
%ADD14C,1.000000*%
%TD*%
%TA.AperFunction,ComponentPad*%
%ADD15C,1.980000*%
%TD*%
%TA.AperFunction,ComponentPad*%
%ADD16R,1.700000X1.700000*%
%TD*%
%TA.AperFunction,ComponentPad*%
%ADD17R,1.600000X1.600000*%
%TD*%
%TA.AperFunction,ComponentPad*%
%ADD18O,1.600000X1.600000*%
%TD*%
%TA.AperFunction,ComponentPad*%
%ADD19O,1.700000X1.700000*%
%TD*%
%TA.AperFunction,ComponentPad*%
%ADD20R,2.000000X1.905000*%
%TD*%
%TA.AperFunction,ComponentPad*%
%ADD21O,2.000000X1.905000*%
%TD*%
%TA.AperFunction,ComponentPad*%
%ADD22C,1.308000*%
%TD*%
%TA.AperFunction,ComponentPad*%
%ADD23C,2.250000*%
%TD*%
%TA.AperFunction,Conductor*%
%ADD24C,1.000000*%
%TD*%
G04 APERTURE END LIST*
D10*
D11*
X177002200Y-166007200D02*
X285002200Y-166007200D01*
X285002200Y-198007200D01*
X177002200Y-198007200D01*
X177002200Y-166007200D01*
D10*
D11*
X10000000Y-10000000D02*
X287002200Y-10000000D01*
X287002200Y-200007200D01*
X10000000Y-200007200D01*
X10000000Y-10000000D01*
D10*
D11*
X12000000Y-12000000D02*
X285002200Y-12000000D01*
X285002200Y-198007200D01*
X12000000Y-198007200D01*
X12000000Y-12000000D01*
D10*
D11*
X60000000Y-12000000D02*
X60000000Y-10000000D01*
D10*
D11*
X110000000Y-12000000D02*
X110000000Y-10000000D01*
D10*
D11*
X160000000Y-12000000D02*
X160000000Y-10000000D01*
D10*
D11*
X210000000Y-12000000D02*
X210000000Y-10000000D01*
D10*
D11*
X260000000Y-12000000D02*
X260000000Y-10000000D01*
D10*
D11*
X36089160Y-11593604D02*
X35346303Y-11593604D01*
X35717731Y-11593604D02*
X35717731Y-10293604D01*
X35717731Y-10293604D02*
X35593922Y-10479319D01*
X35593922Y-10479319D02*
X35470112Y-10603128D01*
X35470112Y-10603128D02*
X35346303Y-10665033D01*
D10*
D11*
X85346303Y-10417414D02*
X85408207Y-10355509D01*
X85408207Y-10355509D02*
X85532017Y-10293604D01*
X85532017Y-10293604D02*
X85841541Y-10293604D01*
X85841541Y-10293604D02*
X85965350Y-10355509D01*
X85965350Y-10355509D02*
X86027255Y-10417414D01*
X86027255Y-10417414D02*
X86089160Y-10541223D01*
X86089160Y-10541223D02*
X86089160Y-10665033D01*
X86089160Y-10665033D02*
X86027255Y-10850747D01*
X86027255Y-10850747D02*
X85284398Y-11593604D01*
X85284398Y-11593604D02*
X86089160Y-11593604D01*
D10*
D11*
X135284398Y-10293604D02*
X136089160Y-10293604D01*
X136089160Y-10293604D02*
X135655826Y-10788842D01*
X135655826Y-10788842D02*
X135841541Y-10788842D01*
X135841541Y-10788842D02*
X135965350Y-10850747D01*
X135965350Y-10850747D02*
X136027255Y-10912652D01*
X136027255Y-10912652D02*
X136089160Y-11036461D01*
X136089160Y-11036461D02*
X136089160Y-11345985D01*
X136089160Y-11345985D02*
X136027255Y-11469795D01*
X136027255Y-11469795D02*
X135965350Y-11531700D01*
X135965350Y-11531700D02*
X135841541Y-11593604D01*
X135841541Y-11593604D02*
X135470112Y-11593604D01*
X135470112Y-11593604D02*
X135346303Y-11531700D01*
X135346303Y-11531700D02*
X135284398Y-11469795D01*
D10*
D11*
X185965350Y-10726938D02*
X185965350Y-11593604D01*
X185655826Y-10231700D02*
X185346303Y-11160271D01*
X185346303Y-11160271D02*
X186151064Y-11160271D01*
D10*
D11*
X236027255Y-10293604D02*
X235408207Y-10293604D01*
X235408207Y-10293604D02*
X235346303Y-10912652D01*
X235346303Y-10912652D02*
X235408207Y-10850747D01*
X235408207Y-10850747D02*
X235532017Y-10788842D01*
X235532017Y-10788842D02*
X235841541Y-10788842D01*
X235841541Y-10788842D02*
X235965350Y-10850747D01*
X235965350Y-10850747D02*
X236027255Y-10912652D01*
X236027255Y-10912652D02*
X236089160Y-11036461D01*
X236089160Y-11036461D02*
X236089160Y-11345985D01*
X236089160Y-11345985D02*
X236027255Y-11469795D01*
X236027255Y-11469795D02*
X235965350Y-11531700D01*
X235965350Y-11531700D02*
X235841541Y-11593604D01*
X235841541Y-11593604D02*
X235532017Y-11593604D01*
X235532017Y-11593604D02*
X235408207Y-11531700D01*
X235408207Y-11531700D02*
X235346303Y-11469795D01*
D10*
D11*
X285965350Y-10293604D02*
X285717731Y-10293604D01*
X285717731Y-10293604D02*
X285593922Y-10355509D01*
X285593922Y-10355509D02*
X285532017Y-10417414D01*
X285532017Y-10417414D02*
X285408207Y-10603128D01*
X285408207Y-10603128D02*
X285346303Y-10850747D01*
X285346303Y-10850747D02*
X285346303Y-11345985D01*
X285346303Y-11345985D02*
X285408207Y-11469795D01*
X285408207Y-11469795D02*
X285470112Y-11531700D01*
X285470112Y-11531700D02*
X285593922Y-11593604D01*
X285593922Y-11593604D02*
X285841541Y-11593604D01*
X285841541Y-11593604D02*
X285965350Y-11531700D01*
X285965350Y-11531700D02*
X286027255Y-11469795D01*
X286027255Y-11469795D02*
X286089160Y-11345985D01*
X286089160Y-11345985D02*
X286089160Y-11036461D01*
X286089160Y-11036461D02*
X286027255Y-10912652D01*
X286027255Y-10912652D02*
X285965350Y-10850747D01*
X285965350Y-10850747D02*
X285841541Y-10788842D01*
X285841541Y-10788842D02*
X285593922Y-10788842D01*
X285593922Y-10788842D02*
X285470112Y-10850747D01*
X285470112Y-10850747D02*
X285408207Y-10912652D01*
X285408207Y-10912652D02*
X285346303Y-11036461D01*
D10*
D11*
X60000000Y-198007200D02*
X60000000Y-200007200D01*
D10*
D11*
X110000000Y-198007200D02*
X110000000Y-200007200D01*
D10*
D11*
X160000000Y-198007200D02*
X160000000Y-200007200D01*
D10*
D11*
X210000000Y-198007200D02*
X210000000Y-200007200D01*
D10*
D11*
X260000000Y-198007200D02*
X260000000Y-200007200D01*
D10*
D11*
X36089160Y-199600804D02*
X35346303Y-199600804D01*
X35717731Y-199600804D02*
X35717731Y-198300804D01*
X35717731Y-198300804D02*
X35593922Y-198486519D01*
X35593922Y-198486519D02*
X35470112Y-198610328D01*
X35470112Y-198610328D02*
X35346303Y-198672233D01*
D10*
D11*
X85346303Y-198424614D02*
X85408207Y-198362709D01*
X85408207Y-198362709D02*
X85532017Y-198300804D01*
X85532017Y-198300804D02*
X85841541Y-198300804D01*
X85841541Y-198300804D02*
X85965350Y-198362709D01*
X85965350Y-198362709D02*
X86027255Y-198424614D01*
X86027255Y-198424614D02*
X86089160Y-198548423D01*
X86089160Y-198548423D02*
X86089160Y-198672233D01*
X86089160Y-198672233D02*
X86027255Y-198857947D01*
X86027255Y-198857947D02*
X85284398Y-199600804D01*
X85284398Y-199600804D02*
X86089160Y-199600804D01*
D10*
D11*
X135284398Y-198300804D02*
X136089160Y-198300804D01*
X136089160Y-198300804D02*
X135655826Y-198796042D01*
X135655826Y-198796042D02*
X135841541Y-198796042D01*
X135841541Y-198796042D02*
X135965350Y-198857947D01*
X135965350Y-198857947D02*
X136027255Y-198919852D01*
X136027255Y-198919852D02*
X136089160Y-199043661D01*
X136089160Y-199043661D02*
X136089160Y-199353185D01*
X136089160Y-199353185D02*
X136027255Y-199476995D01*
X136027255Y-199476995D02*
X135965350Y-199538900D01*
X135965350Y-199538900D02*
X135841541Y-199600804D01*
X135841541Y-199600804D02*
X135470112Y-199600804D01*
X135470112Y-199600804D02*
X135346303Y-199538900D01*
X135346303Y-199538900D02*
X135284398Y-199476995D01*
D10*
D11*
X185965350Y-198734138D02*
X185965350Y-199600804D01*
X185655826Y-198238900D02*
X185346303Y-199167471D01*
X185346303Y-199167471D02*
X186151064Y-199167471D01*
D10*
D11*
X236027255Y-198300804D02*
X235408207Y-198300804D01*
X235408207Y-198300804D02*
X235346303Y-198919852D01*
X235346303Y-198919852D02*
X235408207Y-198857947D01*
X235408207Y-198857947D02*
X235532017Y-198796042D01*
X235532017Y-198796042D02*
X235841541Y-198796042D01*
X235841541Y-198796042D02*
X235965350Y-198857947D01*
X235965350Y-198857947D02*
X236027255Y-198919852D01*
X236027255Y-198919852D02*
X236089160Y-199043661D01*
X236089160Y-199043661D02*
X236089160Y-199353185D01*
X236089160Y-199353185D02*
X236027255Y-199476995D01*
X236027255Y-199476995D02*
X235965350Y-199538900D01*
X235965350Y-199538900D02*
X235841541Y-199600804D01*
X235841541Y-199600804D02*
X235532017Y-199600804D01*
X235532017Y-199600804D02*
X235408207Y-199538900D01*
X235408207Y-199538900D02*
X235346303Y-199476995D01*
D10*
D11*
X285965350Y-198300804D02*
X285717731Y-198300804D01*
X285717731Y-198300804D02*
X285593922Y-198362709D01*
X285593922Y-198362709D02*
X285532017Y-198424614D01*
X285532017Y-198424614D02*
X285408207Y-198610328D01*
X285408207Y-198610328D02*
X285346303Y-198857947D01*
X285346303Y-198857947D02*
X285346303Y-199353185D01*
X285346303Y-199353185D02*
X285408207Y-199476995D01*
X285408207Y-199476995D02*
X285470112Y-199538900D01*
X285470112Y-199538900D02*
X285593922Y-199600804D01*
X285593922Y-199600804D02*
X285841541Y-199600804D01*
X285841541Y-199600804D02*
X285965350Y-199538900D01*
X285965350Y-199538900D02*
X286027255Y-199476995D01*
X286027255Y-199476995D02*
X286089160Y-199353185D01*
X286089160Y-199353185D02*
X286089160Y-199043661D01*
X286089160Y-199043661D02*
X286027255Y-198919852D01*
X286027255Y-198919852D02*
X285965350Y-198857947D01*
X285965350Y-198857947D02*
X285841541Y-198796042D01*
X285841541Y-198796042D02*
X285593922Y-198796042D01*
X285593922Y-198796042D02*
X285470112Y-198857947D01*
X285470112Y-198857947D02*
X285408207Y-198919852D01*
X285408207Y-198919852D02*
X285346303Y-199043661D01*
D10*
D11*
X10000000Y-60000000D02*
X12000000Y-60000000D01*
D10*
D11*
X10000000Y-110000000D02*
X12000000Y-110000000D01*
D10*
D11*
X10000000Y-160000000D02*
X12000000Y-160000000D01*
D10*
D11*
X10690476Y-35222176D02*
X11309523Y-35222176D01*
X10566666Y-35593604D02*
X10999999Y-34293604D01*
X10999999Y-34293604D02*
X11433333Y-35593604D01*
D10*
D11*
X11092857Y-84912652D02*
X11278571Y-84974557D01*
X11278571Y-84974557D02*
X11340476Y-85036461D01*
X11340476Y-85036461D02*
X11402380Y-85160271D01*
X11402380Y-85160271D02*
X11402380Y-85345985D01*
X11402380Y-85345985D02*
X11340476Y-85469795D01*
X11340476Y-85469795D02*
X11278571Y-85531700D01*
X11278571Y-85531700D02*
X11154761Y-85593604D01*
X11154761Y-85593604D02*
X10659523Y-85593604D01*
X10659523Y-85593604D02*
X10659523Y-84293604D01*
X10659523Y-84293604D02*
X11092857Y-84293604D01*
X11092857Y-84293604D02*
X11216666Y-84355509D01*
X11216666Y-84355509D02*
X11278571Y-84417414D01*
X11278571Y-84417414D02*
X11340476Y-84541223D01*
X11340476Y-84541223D02*
X11340476Y-84665033D01*
X11340476Y-84665033D02*
X11278571Y-84788842D01*
X11278571Y-84788842D02*
X11216666Y-84850747D01*
X11216666Y-84850747D02*
X11092857Y-84912652D01*
X11092857Y-84912652D02*
X10659523Y-84912652D01*
D10*
D11*
X11402380Y-135469795D02*
X11340476Y-135531700D01*
X11340476Y-135531700D02*
X11154761Y-135593604D01*
X11154761Y-135593604D02*
X11030952Y-135593604D01*
X11030952Y-135593604D02*
X10845238Y-135531700D01*
X10845238Y-135531700D02*
X10721428Y-135407890D01*
X10721428Y-135407890D02*
X10659523Y-135284080D01*
X10659523Y-135284080D02*
X10597619Y-135036461D01*
X10597619Y-135036461D02*
X10597619Y-134850747D01*
X10597619Y-134850747D02*
X10659523Y-134603128D01*
X10659523Y-134603128D02*
X10721428Y-134479319D01*
X10721428Y-134479319D02*
X10845238Y-134355509D01*
X10845238Y-134355509D02*
X11030952Y-134293604D01*
X11030952Y-134293604D02*
X11154761Y-134293604D01*
X11154761Y-134293604D02*
X11340476Y-134355509D01*
X11340476Y-134355509D02*
X11402380Y-134417414D01*
D10*
D11*
X10659523Y-185593604D02*
X10659523Y-184293604D01*
X10659523Y-184293604D02*
X10969047Y-184293604D01*
X10969047Y-184293604D02*
X11154761Y-184355509D01*
X11154761Y-184355509D02*
X11278571Y-184479319D01*
X11278571Y-184479319D02*
X11340476Y-184603128D01*
X11340476Y-184603128D02*
X11402380Y-184850747D01*
X11402380Y-184850747D02*
X11402380Y-185036461D01*
X11402380Y-185036461D02*
X11340476Y-185284080D01*
X11340476Y-185284080D02*
X11278571Y-185407890D01*
X11278571Y-185407890D02*
X11154761Y-185531700D01*
X11154761Y-185531700D02*
X10969047Y-185593604D01*
X10969047Y-185593604D02*
X10659523Y-185593604D01*
D10*
D11*
X287002200Y-60000000D02*
X285002200Y-60000000D01*
D10*
D11*
X287002200Y-110000000D02*
X285002200Y-110000000D01*
D10*
D11*
X287002200Y-160000000D02*
X285002200Y-160000000D01*
D10*
D11*
X285692676Y-35222176D02*
X286311723Y-35222176D01*
X285568866Y-35593604D02*
X286002199Y-34293604D01*
X286002199Y-34293604D02*
X286435533Y-35593604D01*
D10*
D11*
X286095057Y-84912652D02*
X286280771Y-84974557D01*
X286280771Y-84974557D02*
X286342676Y-85036461D01*
X286342676Y-85036461D02*
X286404580Y-85160271D01*
X286404580Y-85160271D02*
X286404580Y-85345985D01*
X286404580Y-85345985D02*
X286342676Y-85469795D01*
X286342676Y-85469795D02*
X286280771Y-85531700D01*
X286280771Y-85531700D02*
X286156961Y-85593604D01*
X286156961Y-85593604D02*
X285661723Y-85593604D01*
X285661723Y-85593604D02*
X285661723Y-84293604D01*
X285661723Y-84293604D02*
X286095057Y-84293604D01*
X286095057Y-84293604D02*
X286218866Y-84355509D01*
X286218866Y-84355509D02*
X286280771Y-84417414D01*
X286280771Y-84417414D02*
X286342676Y-84541223D01*
X286342676Y-84541223D02*
X286342676Y-84665033D01*
X286342676Y-84665033D02*
X286280771Y-84788842D01*
X286280771Y-84788842D02*
X286218866Y-84850747D01*
X286218866Y-84850747D02*
X286095057Y-84912652D01*
X286095057Y-84912652D02*
X285661723Y-84912652D01*
D10*
D11*
X286404580Y-135469795D02*
X286342676Y-135531700D01*
X286342676Y-135531700D02*
X286156961Y-135593604D01*
X286156961Y-135593604D02*
X286033152Y-135593604D01*
X286033152Y-135593604D02*
X285847438Y-135531700D01*
X285847438Y-135531700D02*
X285723628Y-135407890D01*
X285723628Y-135407890D02*
X285661723Y-135284080D01*
X285661723Y-135284080D02*
X285599819Y-135036461D01*
X285599819Y-135036461D02*
X285599819Y-134850747D01*
X285599819Y-134850747D02*
X285661723Y-134603128D01*
X285661723Y-134603128D02*
X285723628Y-134479319D01*
X285723628Y-134479319D02*
X285847438Y-134355509D01*
X285847438Y-134355509D02*
X286033152Y-134293604D01*
X286033152Y-134293604D02*
X286156961Y-134293604D01*
X286156961Y-134293604D02*
X286342676Y-134355509D01*
X286342676Y-134355509D02*
X286404580Y-134417414D01*
D10*
D11*
X285661723Y-185593604D02*
X285661723Y-184293604D01*
X285661723Y-184293604D02*
X285971247Y-184293604D01*
X285971247Y-184293604D02*
X286156961Y-184355509D01*
X286156961Y-184355509D02*
X286280771Y-184479319D01*
X286280771Y-184479319D02*
X286342676Y-184603128D01*
X286342676Y-184603128D02*
X286404580Y-184850747D01*
X286404580Y-184850747D02*
X286404580Y-185036461D01*
X286404580Y-185036461D02*
X286342676Y-185284080D01*
X286342676Y-185284080D02*
X286280771Y-185407890D01*
X286280771Y-185407890D02*
X286156961Y-185531700D01*
X286156961Y-185531700D02*
X285971247Y-185593604D01*
X285971247Y-185593604D02*
X285661723Y-185593604D01*
D10*
D11*
X200458026Y-193793328D02*
X200458026Y-192293328D01*
X200458026Y-192293328D02*
X200815169Y-192293328D01*
X200815169Y-192293328D02*
X201029455Y-192364757D01*
X201029455Y-192364757D02*
X201172312Y-192507614D01*
X201172312Y-192507614D02*
X201243741Y-192650471D01*
X201243741Y-192650471D02*
X201315169Y-192936185D01*
X201315169Y-192936185D02*
X201315169Y-193150471D01*
X201315169Y-193150471D02*
X201243741Y-193436185D01*
X201243741Y-193436185D02*
X201172312Y-193579042D01*
X201172312Y-193579042D02*
X201029455Y-193721900D01*
X201029455Y-193721900D02*
X200815169Y-193793328D01*
X200815169Y-193793328D02*
X200458026Y-193793328D01*
X202600884Y-193793328D02*
X202600884Y-193007614D01*
X202600884Y-193007614D02*
X202529455Y-192864757D01*
X202529455Y-192864757D02*
X202386598Y-192793328D01*
X202386598Y-192793328D02*
X202100884Y-192793328D01*
X202100884Y-192793328D02*
X201958026Y-192864757D01*
X202600884Y-193721900D02*
X202458026Y-193793328D01*
X202458026Y-193793328D02*
X202100884Y-193793328D01*
X202100884Y-193793328D02*
X201958026Y-193721900D01*
X201958026Y-193721900D02*
X201886598Y-193579042D01*
X201886598Y-193579042D02*
X201886598Y-193436185D01*
X201886598Y-193436185D02*
X201958026Y-193293328D01*
X201958026Y-193293328D02*
X202100884Y-193221900D01*
X202100884Y-193221900D02*
X202458026Y-193221900D01*
X202458026Y-193221900D02*
X202600884Y-193150471D01*
X203100884Y-192793328D02*
X203672312Y-192793328D01*
X203315169Y-192293328D02*
X203315169Y-193579042D01*
X203315169Y-193579042D02*
X203386598Y-193721900D01*
X203386598Y-193721900D02*
X203529455Y-193793328D01*
X203529455Y-193793328D02*
X203672312Y-193793328D01*
X204743741Y-193721900D02*
X204600884Y-193793328D01*
X204600884Y-193793328D02*
X204315170Y-193793328D01*
X204315170Y-193793328D02*
X204172312Y-193721900D01*
X204172312Y-193721900D02*
X204100884Y-193579042D01*
X204100884Y-193579042D02*
X204100884Y-193007614D01*
X204100884Y-193007614D02*
X204172312Y-192864757D01*
X204172312Y-192864757D02*
X204315170Y-192793328D01*
X204315170Y-192793328D02*
X204600884Y-192793328D01*
X204600884Y-192793328D02*
X204743741Y-192864757D01*
X204743741Y-192864757D02*
X204815170Y-193007614D01*
X204815170Y-193007614D02*
X204815170Y-193150471D01*
X204815170Y-193150471D02*
X204100884Y-193293328D01*
X205458026Y-193650471D02*
X205529455Y-193721900D01*
X205529455Y-193721900D02*
X205458026Y-193793328D01*
X205458026Y-193793328D02*
X205386598Y-193721900D01*
X205386598Y-193721900D02*
X205458026Y-193650471D01*
X205458026Y-193650471D02*
X205458026Y-193793328D01*
X205458026Y-192864757D02*
X205529455Y-192936185D01*
X205529455Y-192936185D02*
X205458026Y-193007614D01*
X205458026Y-193007614D02*
X205386598Y-192936185D01*
X205386598Y-192936185D02*
X205458026Y-192864757D01*
X205458026Y-192864757D02*
X205458026Y-193007614D01*
D10*
D11*
X177002200Y-194507200D02*
X285002200Y-194507200D01*
D10*
D11*
X178458026Y-196593328D02*
X178458026Y-195093328D01*
X179315169Y-196593328D02*
X178672312Y-195736185D01*
X179315169Y-195093328D02*
X178458026Y-195950471D01*
X179958026Y-196593328D02*
X179958026Y-195593328D01*
X179958026Y-195093328D02*
X179886598Y-195164757D01*
X179886598Y-195164757D02*
X179958026Y-195236185D01*
X179958026Y-195236185D02*
X180029455Y-195164757D01*
X180029455Y-195164757D02*
X179958026Y-195093328D01*
X179958026Y-195093328D02*
X179958026Y-195236185D01*
X181529455Y-196450471D02*
X181458027Y-196521900D01*
X181458027Y-196521900D02*
X181243741Y-196593328D01*
X181243741Y-196593328D02*
X181100884Y-196593328D01*
X181100884Y-196593328D02*
X180886598Y-196521900D01*
X180886598Y-196521900D02*
X180743741Y-196379042D01*
X180743741Y-196379042D02*
X180672312Y-196236185D01*
X180672312Y-196236185D02*
X180600884Y-195950471D01*
X180600884Y-195950471D02*
X180600884Y-195736185D01*
X180600884Y-195736185D02*
X180672312Y-195450471D01*
X180672312Y-195450471D02*
X180743741Y-195307614D01*
X180743741Y-195307614D02*
X180886598Y-195164757D01*
X180886598Y-195164757D02*
X181100884Y-195093328D01*
X181100884Y-195093328D02*
X181243741Y-195093328D01*
X181243741Y-195093328D02*
X181458027Y-195164757D01*
X181458027Y-195164757D02*
X181529455Y-195236185D01*
X182815170Y-196593328D02*
X182815170Y-195807614D01*
X182815170Y-195807614D02*
X182743741Y-195664757D01*
X182743741Y-195664757D02*
X182600884Y-195593328D01*
X182600884Y-195593328D02*
X182315170Y-195593328D01*
X182315170Y-195593328D02*
X182172312Y-195664757D01*
X182815170Y-196521900D02*
X182672312Y-196593328D01*
X182672312Y-196593328D02*
X182315170Y-196593328D01*
X182315170Y-196593328D02*
X182172312Y-196521900D01*
X182172312Y-196521900D02*
X182100884Y-196379042D01*
X182100884Y-196379042D02*
X182100884Y-196236185D01*
X182100884Y-196236185D02*
X182172312Y-196093328D01*
X182172312Y-196093328D02*
X182315170Y-196021900D01*
X182315170Y-196021900D02*
X182672312Y-196021900D01*
X182672312Y-196021900D02*
X182815170Y-195950471D01*
X184172313Y-196593328D02*
X184172313Y-195093328D01*
X184172313Y-196521900D02*
X184029455Y-196593328D01*
X184029455Y-196593328D02*
X183743741Y-196593328D01*
X183743741Y-196593328D02*
X183600884Y-196521900D01*
X183600884Y-196521900D02*
X183529455Y-196450471D01*
X183529455Y-196450471D02*
X183458027Y-196307614D01*
X183458027Y-196307614D02*
X183458027Y-195879042D01*
X183458027Y-195879042D02*
X183529455Y-195736185D01*
X183529455Y-195736185D02*
X183600884Y-195664757D01*
X183600884Y-195664757D02*
X183743741Y-195593328D01*
X183743741Y-195593328D02*
X184029455Y-195593328D01*
X184029455Y-195593328D02*
X184172313Y-195664757D01*
X186029455Y-195807614D02*
X186529455Y-195807614D01*
X186743741Y-196593328D02*
X186029455Y-196593328D01*
X186029455Y-196593328D02*
X186029455Y-195093328D01*
X186029455Y-195093328D02*
X186743741Y-195093328D01*
X187386598Y-196450471D02*
X187458027Y-196521900D01*
X187458027Y-196521900D02*
X187386598Y-196593328D01*
X187386598Y-196593328D02*
X187315170Y-196521900D01*
X187315170Y-196521900D02*
X187386598Y-196450471D01*
X187386598Y-196450471D02*
X187386598Y-196593328D01*
X188100884Y-196593328D02*
X188100884Y-195093328D01*
X188100884Y-195093328D02*
X188458027Y-195093328D01*
X188458027Y-195093328D02*
X188672313Y-195164757D01*
X188672313Y-195164757D02*
X188815170Y-195307614D01*
X188815170Y-195307614D02*
X188886599Y-195450471D01*
X188886599Y-195450471D02*
X188958027Y-195736185D01*
X188958027Y-195736185D02*
X188958027Y-195950471D01*
X188958027Y-195950471D02*
X188886599Y-196236185D01*
X188886599Y-196236185D02*
X188815170Y-196379042D01*
X188815170Y-196379042D02*
X188672313Y-196521900D01*
X188672313Y-196521900D02*
X188458027Y-196593328D01*
X188458027Y-196593328D02*
X188100884Y-196593328D01*
X189600884Y-196450471D02*
X189672313Y-196521900D01*
X189672313Y-196521900D02*
X189600884Y-196593328D01*
X189600884Y-196593328D02*
X189529456Y-196521900D01*
X189529456Y-196521900D02*
X189600884Y-196450471D01*
X189600884Y-196450471D02*
X189600884Y-196593328D01*
X190243742Y-196164757D02*
X190958028Y-196164757D01*
X190100885Y-196593328D02*
X190600885Y-195093328D01*
X190600885Y-195093328D02*
X191100885Y-196593328D01*
X191600884Y-196450471D02*
X191672313Y-196521900D01*
X191672313Y-196521900D02*
X191600884Y-196593328D01*
X191600884Y-196593328D02*
X191529456Y-196521900D01*
X191529456Y-196521900D02*
X191600884Y-196450471D01*
X191600884Y-196450471D02*
X191600884Y-196593328D01*
X193672313Y-195736185D02*
X193529456Y-195664757D01*
X193529456Y-195664757D02*
X193458027Y-195593328D01*
X193458027Y-195593328D02*
X193386599Y-195450471D01*
X193386599Y-195450471D02*
X193386599Y-195379042D01*
X193386599Y-195379042D02*
X193458027Y-195236185D01*
X193458027Y-195236185D02*
X193529456Y-195164757D01*
X193529456Y-195164757D02*
X193672313Y-195093328D01*
X193672313Y-195093328D02*
X193958027Y-195093328D01*
X193958027Y-195093328D02*
X194100885Y-195164757D01*
X194100885Y-195164757D02*
X194172313Y-195236185D01*
X194172313Y-195236185D02*
X194243742Y-195379042D01*
X194243742Y-195379042D02*
X194243742Y-195450471D01*
X194243742Y-195450471D02*
X194172313Y-195593328D01*
X194172313Y-195593328D02*
X194100885Y-195664757D01*
X194100885Y-195664757D02*
X193958027Y-195736185D01*
X193958027Y-195736185D02*
X193672313Y-195736185D01*
X193672313Y-195736185D02*
X193529456Y-195807614D01*
X193529456Y-195807614D02*
X193458027Y-195879042D01*
X193458027Y-195879042D02*
X193386599Y-196021900D01*
X193386599Y-196021900D02*
X193386599Y-196307614D01*
X193386599Y-196307614D02*
X193458027Y-196450471D01*
X193458027Y-196450471D02*
X193529456Y-196521900D01*
X193529456Y-196521900D02*
X193672313Y-196593328D01*
X193672313Y-196593328D02*
X193958027Y-196593328D01*
X193958027Y-196593328D02*
X194100885Y-196521900D01*
X194100885Y-196521900D02*
X194172313Y-196450471D01*
X194172313Y-196450471D02*
X194243742Y-196307614D01*
X194243742Y-196307614D02*
X194243742Y-196021900D01*
X194243742Y-196021900D02*
X194172313Y-195879042D01*
X194172313Y-195879042D02*
X194100885Y-195807614D01*
X194100885Y-195807614D02*
X193958027Y-195736185D01*
X194886598Y-196450471D02*
X194958027Y-196521900D01*
X194958027Y-196521900D02*
X194886598Y-196593328D01*
X194886598Y-196593328D02*
X194815170Y-196521900D01*
X194815170Y-196521900D02*
X194886598Y-196450471D01*
X194886598Y-196450471D02*
X194886598Y-196593328D01*
X195886599Y-195093328D02*
X196029456Y-195093328D01*
X196029456Y-195093328D02*
X196172313Y-195164757D01*
X196172313Y-195164757D02*
X196243742Y-195236185D01*
X196243742Y-195236185D02*
X196315170Y-195379042D01*
X196315170Y-195379042D02*
X196386599Y-195664757D01*
X196386599Y-195664757D02*
X196386599Y-196021900D01*
X196386599Y-196021900D02*
X196315170Y-196307614D01*
X196315170Y-196307614D02*
X196243742Y-196450471D01*
X196243742Y-196450471D02*
X196172313Y-196521900D01*
X196172313Y-196521900D02*
X196029456Y-196593328D01*
X196029456Y-196593328D02*
X195886599Y-196593328D01*
X195886599Y-196593328D02*
X195743742Y-196521900D01*
X195743742Y-196521900D02*
X195672313Y-196450471D01*
X195672313Y-196450471D02*
X195600884Y-196307614D01*
X195600884Y-196307614D02*
X195529456Y-196021900D01*
X195529456Y-196021900D02*
X195529456Y-195664757D01*
X195529456Y-195664757D02*
X195600884Y-195379042D01*
X195600884Y-195379042D02*
X195672313Y-195236185D01*
X195672313Y-195236185D02*
X195743742Y-195164757D01*
X195743742Y-195164757D02*
X195886599Y-195093328D01*
X197029455Y-196450471D02*
X197100884Y-196521900D01*
X197100884Y-196521900D02*
X197029455Y-196593328D01*
X197029455Y-196593328D02*
X196958027Y-196521900D01*
X196958027Y-196521900D02*
X197029455Y-196450471D01*
X197029455Y-196450471D02*
X197029455Y-196593328D01*
X198029456Y-195093328D02*
X198172313Y-195093328D01*
X198172313Y-195093328D02*
X198315170Y-195164757D01*
X198315170Y-195164757D02*
X198386599Y-195236185D01*
X198386599Y-195236185D02*
X198458027Y-195379042D01*
X198458027Y-195379042D02*
X198529456Y-195664757D01*
X198529456Y-195664757D02*
X198529456Y-196021900D01*
X198529456Y-196021900D02*
X198458027Y-196307614D01*
X198458027Y-196307614D02*
X198386599Y-196450471D01*
X198386599Y-196450471D02*
X198315170Y-196521900D01*
X198315170Y-196521900D02*
X198172313Y-196593328D01*
X198172313Y-196593328D02*
X198029456Y-196593328D01*
X198029456Y-196593328D02*
X197886599Y-196521900D01*
X197886599Y-196521900D02*
X197815170Y-196450471D01*
X197815170Y-196450471D02*
X197743741Y-196307614D01*
X197743741Y-196307614D02*
X197672313Y-196021900D01*
X197672313Y-196021900D02*
X197672313Y-195664757D01*
X197672313Y-195664757D02*
X197743741Y-195379042D01*
X197743741Y-195379042D02*
X197815170Y-195236185D01*
X197815170Y-195236185D02*
X197886599Y-195164757D01*
X197886599Y-195164757D02*
X198029456Y-195093328D01*
D10*
D11*
X177002200Y-191507200D02*
X285002200Y-191507200D01*
D10*
D12*
X264413853Y-193785528D02*
X263913853Y-193071242D01*
X263556710Y-193785528D02*
X263556710Y-192285528D01*
X263556710Y-192285528D02*
X264128139Y-192285528D01*
X264128139Y-192285528D02*
X264270996Y-192356957D01*
X264270996Y-192356957D02*
X264342425Y-192428385D01*
X264342425Y-192428385D02*
X264413853Y-192571242D01*
X264413853Y-192571242D02*
X264413853Y-192785528D01*
X264413853Y-192785528D02*
X264342425Y-192928385D01*
X264342425Y-192928385D02*
X264270996Y-192999814D01*
X264270996Y-192999814D02*
X264128139Y-193071242D01*
X264128139Y-193071242D02*
X263556710Y-193071242D01*
X265628139Y-193714100D02*
X265485282Y-193785528D01*
X265485282Y-193785528D02*
X265199568Y-193785528D01*
X265199568Y-193785528D02*
X265056710Y-193714100D01*
X265056710Y-193714100D02*
X264985282Y-193571242D01*
X264985282Y-193571242D02*
X264985282Y-192999814D01*
X264985282Y-192999814D02*
X265056710Y-192856957D01*
X265056710Y-192856957D02*
X265199568Y-192785528D01*
X265199568Y-192785528D02*
X265485282Y-192785528D01*
X265485282Y-192785528D02*
X265628139Y-192856957D01*
X265628139Y-192856957D02*
X265699568Y-192999814D01*
X265699568Y-192999814D02*
X265699568Y-193142671D01*
X265699568Y-193142671D02*
X264985282Y-193285528D01*
X266199567Y-192785528D02*
X266556710Y-193785528D01*
X266556710Y-193785528D02*
X266913853Y-192785528D01*
X267485281Y-193642671D02*
X267556710Y-193714100D01*
X267556710Y-193714100D02*
X267485281Y-193785528D01*
X267485281Y-193785528D02*
X267413853Y-193714100D01*
X267413853Y-193714100D02*
X267485281Y-193642671D01*
X267485281Y-193642671D02*
X267485281Y-193785528D01*
X267485281Y-192856957D02*
X267556710Y-192928385D01*
X267556710Y-192928385D02*
X267485281Y-192999814D01*
X267485281Y-192999814D02*
X267413853Y-192928385D01*
X267413853Y-192928385D02*
X267485281Y-192856957D01*
X267485281Y-192856957D02*
X267485281Y-192999814D01*
D10*
D11*
X178386598Y-193721900D02*
X178600884Y-193793328D01*
X178600884Y-193793328D02*
X178958026Y-193793328D01*
X178958026Y-193793328D02*
X179100884Y-193721900D01*
X179100884Y-193721900D02*
X179172312Y-193650471D01*
X179172312Y-193650471D02*
X179243741Y-193507614D01*
X179243741Y-193507614D02*
X179243741Y-193364757D01*
X179243741Y-193364757D02*
X179172312Y-193221900D01*
X179172312Y-193221900D02*
X179100884Y-193150471D01*
X179100884Y-193150471D02*
X178958026Y-193079042D01*
X178958026Y-193079042D02*
X178672312Y-193007614D01*
X178672312Y-193007614D02*
X178529455Y-192936185D01*
X178529455Y-192936185D02*
X178458026Y-192864757D01*
X178458026Y-192864757D02*
X178386598Y-192721900D01*
X178386598Y-192721900D02*
X178386598Y-192579042D01*
X178386598Y-192579042D02*
X178458026Y-192436185D01*
X178458026Y-192436185D02*
X178529455Y-192364757D01*
X178529455Y-192364757D02*
X178672312Y-192293328D01*
X178672312Y-192293328D02*
X179029455Y-192293328D01*
X179029455Y-192293328D02*
X179243741Y-192364757D01*
X179886597Y-193793328D02*
X179886597Y-192793328D01*
X179886597Y-192293328D02*
X179815169Y-192364757D01*
X179815169Y-192364757D02*
X179886597Y-192436185D01*
X179886597Y-192436185D02*
X179958026Y-192364757D01*
X179958026Y-192364757D02*
X179886597Y-192293328D01*
X179886597Y-192293328D02*
X179886597Y-192436185D01*
X180458026Y-192793328D02*
X181243741Y-192793328D01*
X181243741Y-192793328D02*
X180458026Y-193793328D01*
X180458026Y-193793328D02*
X181243741Y-193793328D01*
X182386598Y-193721900D02*
X182243741Y-193793328D01*
X182243741Y-193793328D02*
X181958027Y-193793328D01*
X181958027Y-193793328D02*
X181815169Y-193721900D01*
X181815169Y-193721900D02*
X181743741Y-193579042D01*
X181743741Y-193579042D02*
X181743741Y-193007614D01*
X181743741Y-193007614D02*
X181815169Y-192864757D01*
X181815169Y-192864757D02*
X181958027Y-192793328D01*
X181958027Y-192793328D02*
X182243741Y-192793328D01*
X182243741Y-192793328D02*
X182386598Y-192864757D01*
X182386598Y-192864757D02*
X182458027Y-193007614D01*
X182458027Y-193007614D02*
X182458027Y-193150471D01*
X182458027Y-193150471D02*
X181743741Y-193293328D01*
X183100883Y-193650471D02*
X183172312Y-193721900D01*
X183172312Y-193721900D02*
X183100883Y-193793328D01*
X183100883Y-193793328D02*
X183029455Y-193721900D01*
X183029455Y-193721900D02*
X183100883Y-193650471D01*
X183100883Y-193650471D02*
X183100883Y-193793328D01*
X183100883Y-192864757D02*
X183172312Y-192936185D01*
X183172312Y-192936185D02*
X183100883Y-193007614D01*
X183100883Y-193007614D02*
X183029455Y-192936185D01*
X183029455Y-192936185D02*
X183100883Y-192864757D01*
X183100883Y-192864757D02*
X183100883Y-193007614D01*
X184886598Y-193364757D02*
X185600884Y-193364757D01*
X184743741Y-193793328D02*
X185243741Y-192293328D01*
X185243741Y-192293328D02*
X185743741Y-193793328D01*
X186886598Y-192793328D02*
X186886598Y-193793328D01*
X186529455Y-192221900D02*
X186172312Y-193293328D01*
X186172312Y-193293328D02*
X187100883Y-193293328D01*
D10*
D11*
X263458026Y-196593328D02*
X263458026Y-195093328D01*
X264815170Y-196593328D02*
X264815170Y-195093328D01*
X264815170Y-196521900D02*
X264672312Y-196593328D01*
X264672312Y-196593328D02*
X264386598Y-196593328D01*
X264386598Y-196593328D02*
X264243741Y-196521900D01*
X264243741Y-196521900D02*
X264172312Y-196450471D01*
X264172312Y-196450471D02*
X264100884Y-196307614D01*
X264100884Y-196307614D02*
X264100884Y-195879042D01*
X264100884Y-195879042D02*
X264172312Y-195736185D01*
X264172312Y-195736185D02*
X264243741Y-195664757D01*
X264243741Y-195664757D02*
X264386598Y-195593328D01*
X264386598Y-195593328D02*
X264672312Y-195593328D01*
X264672312Y-195593328D02*
X264815170Y-195664757D01*
X265529455Y-196450471D02*
X265600884Y-196521900D01*
X265600884Y-196521900D02*
X265529455Y-196593328D01*
X265529455Y-196593328D02*
X265458027Y-196521900D01*
X265458027Y-196521900D02*
X265529455Y-196450471D01*
X265529455Y-196450471D02*
X265529455Y-196593328D01*
X265529455Y-195664757D02*
X265600884Y-195736185D01*
X265600884Y-195736185D02*
X265529455Y-195807614D01*
X265529455Y-195807614D02*
X265458027Y-195736185D01*
X265458027Y-195736185D02*
X265529455Y-195664757D01*
X265529455Y-195664757D02*
X265529455Y-195807614D01*
X268172313Y-196593328D02*
X267315170Y-196593328D01*
X267743741Y-196593328D02*
X267743741Y-195093328D01*
X267743741Y-195093328D02*
X267600884Y-195307614D01*
X267600884Y-195307614D02*
X267458027Y-195450471D01*
X267458027Y-195450471D02*
X267315170Y-195521900D01*
X269886598Y-195021900D02*
X268600884Y-196950471D01*
X271172313Y-196593328D02*
X270315170Y-196593328D01*
X270743741Y-196593328D02*
X270743741Y-195093328D01*
X270743741Y-195093328D02*
X270600884Y-195307614D01*
X270600884Y-195307614D02*
X270458027Y-195450471D01*
X270458027Y-195450471D02*
X270315170Y-195521900D01*
D10*
D11*
X177002200Y-187507200D02*
X285002200Y-187507200D01*
D10*
D13*
X178693928Y-188211638D02*
X179836785Y-188211638D01*
X179015357Y-190211638D02*
X179265357Y-188211638D01*
X180253452Y-190211638D02*
X180420119Y-188878304D01*
X180503452Y-188211638D02*
X180396309Y-188306876D01*
X180396309Y-188306876D02*
X180479643Y-188402114D01*
X180479643Y-188402114D02*
X180586786Y-188306876D01*
X180586786Y-188306876D02*
X180503452Y-188211638D01*
X180503452Y-188211638D02*
X180479643Y-188402114D01*
X181086786Y-188878304D02*
X181848690Y-188878304D01*
X181455833Y-188211638D02*
X181241548Y-189925923D01*
X181241548Y-189925923D02*
X181312976Y-190116400D01*
X181312976Y-190116400D02*
X181491548Y-190211638D01*
X181491548Y-190211638D02*
X181682024Y-190211638D01*
X182634405Y-190211638D02*
X182455833Y-190116400D01*
X182455833Y-190116400D02*
X182384405Y-189925923D01*
X182384405Y-189925923D02*
X182598690Y-188211638D01*
X184170119Y-190116400D02*
X183967738Y-190211638D01*
X183967738Y-190211638D02*
X183586785Y-190211638D01*
X183586785Y-190211638D02*
X183408214Y-190116400D01*
X183408214Y-190116400D02*
X183336785Y-189925923D01*
X183336785Y-189925923D02*
X183432024Y-189164019D01*
X183432024Y-189164019D02*
X183551071Y-188973542D01*
X183551071Y-188973542D02*
X183753452Y-188878304D01*
X183753452Y-188878304D02*
X184134404Y-188878304D01*
X184134404Y-188878304D02*
X184312976Y-188973542D01*
X184312976Y-188973542D02*
X184384404Y-189164019D01*
X184384404Y-189164019D02*
X184360595Y-189354495D01*
X184360595Y-189354495D02*
X183384404Y-189544971D01*
X185134405Y-190021161D02*
X185217738Y-190116400D01*
X185217738Y-190116400D02*
X185110595Y-190211638D01*
X185110595Y-190211638D02*
X185027262Y-190116400D01*
X185027262Y-190116400D02*
X185134405Y-190021161D01*
X185134405Y-190021161D02*
X185110595Y-190211638D01*
X185265357Y-188973542D02*
X185348690Y-189068780D01*
X185348690Y-189068780D02*
X185241548Y-189164019D01*
X185241548Y-189164019D02*
X185158214Y-189068780D01*
X185158214Y-189068780D02*
X185265357Y-188973542D01*
X185265357Y-188973542D02*
X185241548Y-189164019D01*
D10*
D11*
X178958026Y-185607614D02*
X178458026Y-185607614D01*
X178458026Y-186393328D02*
X178458026Y-184893328D01*
X178458026Y-184893328D02*
X179172312Y-184893328D01*
X179743740Y-186393328D02*
X179743740Y-185393328D01*
X179743740Y-184893328D02*
X179672312Y-184964757D01*
X179672312Y-184964757D02*
X179743740Y-185036185D01*
X179743740Y-185036185D02*
X179815169Y-184964757D01*
X179815169Y-184964757D02*
X179743740Y-184893328D01*
X179743740Y-184893328D02*
X179743740Y-185036185D01*
X180672312Y-186393328D02*
X180529455Y-186321900D01*
X180529455Y-186321900D02*
X180458026Y-186179042D01*
X180458026Y-186179042D02*
X180458026Y-184893328D01*
X181815169Y-186321900D02*
X181672312Y-186393328D01*
X181672312Y-186393328D02*
X181386598Y-186393328D01*
X181386598Y-186393328D02*
X181243740Y-186321900D01*
X181243740Y-186321900D02*
X181172312Y-186179042D01*
X181172312Y-186179042D02*
X181172312Y-185607614D01*
X181172312Y-185607614D02*
X181243740Y-185464757D01*
X181243740Y-185464757D02*
X181386598Y-185393328D01*
X181386598Y-185393328D02*
X181672312Y-185393328D01*
X181672312Y-185393328D02*
X181815169Y-185464757D01*
X181815169Y-185464757D02*
X181886598Y-185607614D01*
X181886598Y-185607614D02*
X181886598Y-185750471D01*
X181886598Y-185750471D02*
X181172312Y-185893328D01*
X182529454Y-186250471D02*
X182600883Y-186321900D01*
X182600883Y-186321900D02*
X182529454Y-186393328D01*
X182529454Y-186393328D02*
X182458026Y-186321900D01*
X182458026Y-186321900D02*
X182529454Y-186250471D01*
X182529454Y-186250471D02*
X182529454Y-186393328D01*
X182529454Y-185464757D02*
X182600883Y-185536185D01*
X182600883Y-185536185D02*
X182529454Y-185607614D01*
X182529454Y-185607614D02*
X182458026Y-185536185D01*
X182458026Y-185536185D02*
X182529454Y-185464757D01*
X182529454Y-185464757D02*
X182529454Y-185607614D01*
X185100883Y-186393328D02*
X184386597Y-186393328D01*
X184386597Y-186393328D02*
X184386597Y-184893328D01*
X185600883Y-186393328D02*
X185600883Y-185393328D01*
X185600883Y-184893328D02*
X185529455Y-184964757D01*
X185529455Y-184964757D02*
X185600883Y-185036185D01*
X185600883Y-185036185D02*
X185672312Y-184964757D01*
X185672312Y-184964757D02*
X185600883Y-184893328D01*
X185600883Y-184893328D02*
X185600883Y-185036185D01*
X186315169Y-185393328D02*
X186315169Y-186393328D01*
X186315169Y-185536185D02*
X186386598Y-185464757D01*
X186386598Y-185464757D02*
X186529455Y-185393328D01*
X186529455Y-185393328D02*
X186743741Y-185393328D01*
X186743741Y-185393328D02*
X186886598Y-185464757D01*
X186886598Y-185464757D02*
X186958027Y-185607614D01*
X186958027Y-185607614D02*
X186958027Y-186393328D01*
X188243741Y-186321900D02*
X188100884Y-186393328D01*
X188100884Y-186393328D02*
X187815170Y-186393328D01*
X187815170Y-186393328D02*
X187672312Y-186321900D01*
X187672312Y-186321900D02*
X187600884Y-186179042D01*
X187600884Y-186179042D02*
X187600884Y-185607614D01*
X187600884Y-185607614D02*
X187672312Y-185464757D01*
X187672312Y-185464757D02*
X187815170Y-185393328D01*
X187815170Y-185393328D02*
X188100884Y-185393328D01*
X188100884Y-185393328D02*
X188243741Y-185464757D01*
X188243741Y-185464757D02*
X188315170Y-185607614D01*
X188315170Y-185607614D02*
X188315170Y-185750471D01*
X188315170Y-185750471D02*
X187600884Y-185893328D01*
X189458026Y-185607614D02*
X188958026Y-185607614D01*
X188958026Y-186393328D02*
X188958026Y-184893328D01*
X188958026Y-184893328D02*
X189672312Y-184893328D01*
X190458026Y-186393328D02*
X190315169Y-186321900D01*
X190315169Y-186321900D02*
X190243740Y-186250471D01*
X190243740Y-186250471D02*
X190172312Y-186107614D01*
X190172312Y-186107614D02*
X190172312Y-185679042D01*
X190172312Y-185679042D02*
X190243740Y-185536185D01*
X190243740Y-185536185D02*
X190315169Y-185464757D01*
X190315169Y-185464757D02*
X190458026Y-185393328D01*
X190458026Y-185393328D02*
X190672312Y-185393328D01*
X190672312Y-185393328D02*
X190815169Y-185464757D01*
X190815169Y-185464757D02*
X190886598Y-185536185D01*
X190886598Y-185536185D02*
X190958026Y-185679042D01*
X190958026Y-185679042D02*
X190958026Y-186107614D01*
X190958026Y-186107614D02*
X190886598Y-186250471D01*
X190886598Y-186250471D02*
X190815169Y-186321900D01*
X190815169Y-186321900D02*
X190672312Y-186393328D01*
X190672312Y-186393328D02*
X190458026Y-186393328D01*
X191815169Y-186393328D02*
X191672312Y-186321900D01*
X191672312Y-186321900D02*
X191600883Y-186179042D01*
X191600883Y-186179042D02*
X191600883Y-184893328D01*
X192600883Y-186393328D02*
X192458026Y-186321900D01*
X192458026Y-186321900D02*
X192386597Y-186179042D01*
X192386597Y-186179042D02*
X192386597Y-184893328D01*
X193386597Y-186393328D02*
X193243740Y-186321900D01*
X193243740Y-186321900D02*
X193172311Y-186250471D01*
X193172311Y-186250471D02*
X193100883Y-186107614D01*
X193100883Y-186107614D02*
X193100883Y-185679042D01*
X193100883Y-185679042D02*
X193172311Y-185536185D01*
X193172311Y-185536185D02*
X193243740Y-185464757D01*
X193243740Y-185464757D02*
X193386597Y-185393328D01*
X193386597Y-185393328D02*
X193600883Y-185393328D01*
X193600883Y-185393328D02*
X193743740Y-185464757D01*
X193743740Y-185464757D02*
X193815169Y-185536185D01*
X193815169Y-185536185D02*
X193886597Y-185679042D01*
X193886597Y-185679042D02*
X193886597Y-186107614D01*
X193886597Y-186107614D02*
X193815169Y-186250471D01*
X193815169Y-186250471D02*
X193743740Y-186321900D01*
X193743740Y-186321900D02*
X193600883Y-186393328D01*
X193600883Y-186393328D02*
X193386597Y-186393328D01*
X194386597Y-185393328D02*
X194672312Y-186393328D01*
X194672312Y-186393328D02*
X194958026Y-185679042D01*
X194958026Y-185679042D02*
X195243740Y-186393328D01*
X195243740Y-186393328D02*
X195529454Y-185393328D01*
X196672312Y-186321900D02*
X196529455Y-186393328D01*
X196529455Y-186393328D02*
X196243741Y-186393328D01*
X196243741Y-186393328D02*
X196100883Y-186321900D01*
X196100883Y-186321900D02*
X196029455Y-186179042D01*
X196029455Y-186179042D02*
X196029455Y-185607614D01*
X196029455Y-185607614D02*
X196100883Y-185464757D01*
X196100883Y-185464757D02*
X196243741Y-185393328D01*
X196243741Y-185393328D02*
X196529455Y-185393328D01*
X196529455Y-185393328D02*
X196672312Y-185464757D01*
X196672312Y-185464757D02*
X196743741Y-185607614D01*
X196743741Y-185607614D02*
X196743741Y-185750471D01*
X196743741Y-185750471D02*
X196029455Y-185893328D01*
X197386597Y-186393328D02*
X197386597Y-185393328D01*
X197386597Y-185679042D02*
X197458026Y-185536185D01*
X197458026Y-185536185D02*
X197529455Y-185464757D01*
X197529455Y-185464757D02*
X197672312Y-185393328D01*
X197672312Y-185393328D02*
X197815169Y-185393328D01*
X199172311Y-186393328D02*
X198672311Y-185679042D01*
X198315168Y-186393328D02*
X198315168Y-184893328D01*
X198315168Y-184893328D02*
X198886597Y-184893328D01*
X198886597Y-184893328D02*
X199029454Y-184964757D01*
X199029454Y-184964757D02*
X199100883Y-185036185D01*
X199100883Y-185036185D02*
X199172311Y-185179042D01*
X199172311Y-185179042D02*
X199172311Y-185393328D01*
X199172311Y-185393328D02*
X199100883Y-185536185D01*
X199100883Y-185536185D02*
X199029454Y-185607614D01*
X199029454Y-185607614D02*
X198886597Y-185679042D01*
X198886597Y-185679042D02*
X198315168Y-185679042D01*
X200672311Y-186250471D02*
X200600883Y-186321900D01*
X200600883Y-186321900D02*
X200386597Y-186393328D01*
X200386597Y-186393328D02*
X200243740Y-186393328D01*
X200243740Y-186393328D02*
X200029454Y-186321900D01*
X200029454Y-186321900D02*
X199886597Y-186179042D01*
X199886597Y-186179042D02*
X199815168Y-186036185D01*
X199815168Y-186036185D02*
X199743740Y-185750471D01*
X199743740Y-185750471D02*
X199743740Y-185536185D01*
X199743740Y-185536185D02*
X199815168Y-185250471D01*
X199815168Y-185250471D02*
X199886597Y-185107614D01*
X199886597Y-185107614D02*
X200029454Y-184964757D01*
X200029454Y-184964757D02*
X200243740Y-184893328D01*
X200243740Y-184893328D02*
X200386597Y-184893328D01*
X200386597Y-184893328D02*
X200600883Y-184964757D01*
X200600883Y-184964757D02*
X200672311Y-185036185D01*
X201172311Y-184893328D02*
X202172311Y-186393328D01*
X202172311Y-184893328D02*
X201172311Y-186393328D01*
X202743739Y-186250471D02*
X202815168Y-186321900D01*
X202815168Y-186321900D02*
X202743739Y-186393328D01*
X202743739Y-186393328D02*
X202672311Y-186321900D01*
X202672311Y-186321900D02*
X202743739Y-186250471D01*
X202743739Y-186250471D02*
X202743739Y-186393328D01*
X203458025Y-186393328D02*
X203458025Y-184893328D01*
X203600883Y-185821900D02*
X204029454Y-186393328D01*
X204029454Y-185393328D02*
X203458025Y-185964757D01*
X204672311Y-186393328D02*
X204672311Y-185393328D01*
X204672311Y-184893328D02*
X204600883Y-184964757D01*
X204600883Y-184964757D02*
X204672311Y-185036185D01*
X204672311Y-185036185D02*
X204743740Y-184964757D01*
X204743740Y-184964757D02*
X204672311Y-184893328D01*
X204672311Y-184893328D02*
X204672311Y-185036185D01*
X206029455Y-186321900D02*
X205886597Y-186393328D01*
X205886597Y-186393328D02*
X205600883Y-186393328D01*
X205600883Y-186393328D02*
X205458026Y-186321900D01*
X205458026Y-186321900D02*
X205386597Y-186250471D01*
X205386597Y-186250471D02*
X205315169Y-186107614D01*
X205315169Y-186107614D02*
X205315169Y-185679042D01*
X205315169Y-185679042D02*
X205386597Y-185536185D01*
X205386597Y-185536185D02*
X205458026Y-185464757D01*
X205458026Y-185464757D02*
X205600883Y-185393328D01*
X205600883Y-185393328D02*
X205886597Y-185393328D01*
X205886597Y-185393328D02*
X206029455Y-185464757D01*
X207315169Y-186393328D02*
X207315169Y-185607614D01*
X207315169Y-185607614D02*
X207243740Y-185464757D01*
X207243740Y-185464757D02*
X207100883Y-185393328D01*
X207100883Y-185393328D02*
X206815169Y-185393328D01*
X206815169Y-185393328D02*
X206672311Y-185464757D01*
X207315169Y-186321900D02*
X207172311Y-186393328D01*
X207172311Y-186393328D02*
X206815169Y-186393328D01*
X206815169Y-186393328D02*
X206672311Y-186321900D01*
X206672311Y-186321900D02*
X206600883Y-186179042D01*
X206600883Y-186179042D02*
X206600883Y-186036185D01*
X206600883Y-186036185D02*
X206672311Y-185893328D01*
X206672311Y-185893328D02*
X206815169Y-185821900D01*
X206815169Y-185821900D02*
X207172311Y-185821900D01*
X207172311Y-185821900D02*
X207315169Y-185750471D01*
X208672312Y-186393328D02*
X208672312Y-184893328D01*
X208672312Y-186321900D02*
X208529454Y-186393328D01*
X208529454Y-186393328D02*
X208243740Y-186393328D01*
X208243740Y-186393328D02*
X208100883Y-186321900D01*
X208100883Y-186321900D02*
X208029454Y-186250471D01*
X208029454Y-186250471D02*
X207958026Y-186107614D01*
X207958026Y-186107614D02*
X207958026Y-185679042D01*
X207958026Y-185679042D02*
X208029454Y-185536185D01*
X208029454Y-185536185D02*
X208100883Y-185464757D01*
X208100883Y-185464757D02*
X208243740Y-185393328D01*
X208243740Y-185393328D02*
X208529454Y-185393328D01*
X208529454Y-185393328D02*
X208672312Y-185464757D01*
X209029455Y-186536185D02*
X210172312Y-186536185D01*
X210529454Y-185393328D02*
X210529454Y-186893328D01*
X210529454Y-185464757D02*
X210672312Y-185393328D01*
X210672312Y-185393328D02*
X210958026Y-185393328D01*
X210958026Y-185393328D02*
X211100883Y-185464757D01*
X211100883Y-185464757D02*
X211172312Y-185536185D01*
X211172312Y-185536185D02*
X211243740Y-185679042D01*
X211243740Y-185679042D02*
X211243740Y-186107614D01*
X211243740Y-186107614D02*
X211172312Y-186250471D01*
X211172312Y-186250471D02*
X211100883Y-186321900D01*
X211100883Y-186321900D02*
X210958026Y-186393328D01*
X210958026Y-186393328D02*
X210672312Y-186393328D01*
X210672312Y-186393328D02*
X210529454Y-186321900D01*
X212529455Y-186321900D02*
X212386597Y-186393328D01*
X212386597Y-186393328D02*
X212100883Y-186393328D01*
X212100883Y-186393328D02*
X211958026Y-186321900D01*
X211958026Y-186321900D02*
X211886597Y-186250471D01*
X211886597Y-186250471D02*
X211815169Y-186107614D01*
X211815169Y-186107614D02*
X211815169Y-185679042D01*
X211815169Y-185679042D02*
X211886597Y-185536185D01*
X211886597Y-185536185D02*
X211958026Y-185464757D01*
X211958026Y-185464757D02*
X212100883Y-185393328D01*
X212100883Y-185393328D02*
X212386597Y-185393328D01*
X212386597Y-185393328D02*
X212529455Y-185464757D01*
X213172311Y-186393328D02*
X213172311Y-184893328D01*
X213172311Y-185464757D02*
X213315169Y-185393328D01*
X213315169Y-185393328D02*
X213600883Y-185393328D01*
X213600883Y-185393328D02*
X213743740Y-185464757D01*
X213743740Y-185464757D02*
X213815169Y-185536185D01*
X213815169Y-185536185D02*
X213886597Y-185679042D01*
X213886597Y-185679042D02*
X213886597Y-186107614D01*
X213886597Y-186107614D02*
X213815169Y-186250471D01*
X213815169Y-186250471D02*
X213743740Y-186321900D01*
X213743740Y-186321900D02*
X213600883Y-186393328D01*
X213600883Y-186393328D02*
X213315169Y-186393328D01*
X213315169Y-186393328D02*
X213172311Y-186321900D01*
D10*
D11*
X177002200Y-181507200D02*
X285002200Y-181507200D01*
D10*
D11*
X178386598Y-183621900D02*
X178600884Y-183693328D01*
X178600884Y-183693328D02*
X178958026Y-183693328D01*
X178958026Y-183693328D02*
X179100884Y-183621900D01*
X179100884Y-183621900D02*
X179172312Y-183550471D01*
X179172312Y-183550471D02*
X179243741Y-183407614D01*
X179243741Y-183407614D02*
X179243741Y-183264757D01*
X179243741Y-183264757D02*
X179172312Y-183121900D01*
X179172312Y-183121900D02*
X179100884Y-183050471D01*
X179100884Y-183050471D02*
X178958026Y-182979042D01*
X178958026Y-182979042D02*
X178672312Y-182907614D01*
X178672312Y-182907614D02*
X178529455Y-182836185D01*
X178529455Y-182836185D02*
X178458026Y-182764757D01*
X178458026Y-182764757D02*
X178386598Y-182621900D01*
X178386598Y-182621900D02*
X178386598Y-182479042D01*
X178386598Y-182479042D02*
X178458026Y-182336185D01*
X178458026Y-182336185D02*
X178529455Y-182264757D01*
X178529455Y-182264757D02*
X178672312Y-182193328D01*
X178672312Y-182193328D02*
X179029455Y-182193328D01*
X179029455Y-182193328D02*
X179243741Y-182264757D01*
X179886597Y-183693328D02*
X179886597Y-182193328D01*
X180529455Y-183693328D02*
X180529455Y-182907614D01*
X180529455Y-182907614D02*
X180458026Y-182764757D01*
X180458026Y-182764757D02*
X180315169Y-182693328D01*
X180315169Y-182693328D02*
X180100883Y-182693328D01*
X180100883Y-182693328D02*
X179958026Y-182764757D01*
X179958026Y-182764757D02*
X179886597Y-182836185D01*
X181815169Y-183621900D02*
X181672312Y-183693328D01*
X181672312Y-183693328D02*
X181386598Y-183693328D01*
X181386598Y-183693328D02*
X181243740Y-183621900D01*
X181243740Y-183621900D02*
X181172312Y-183479042D01*
X181172312Y-183479042D02*
X181172312Y-182907614D01*
X181172312Y-182907614D02*
X181243740Y-182764757D01*
X181243740Y-182764757D02*
X181386598Y-182693328D01*
X181386598Y-182693328D02*
X181672312Y-182693328D01*
X181672312Y-182693328D02*
X181815169Y-182764757D01*
X181815169Y-182764757D02*
X181886598Y-182907614D01*
X181886598Y-182907614D02*
X181886598Y-183050471D01*
X181886598Y-183050471D02*
X181172312Y-183193328D01*
X183100883Y-183621900D02*
X182958026Y-183693328D01*
X182958026Y-183693328D02*
X182672312Y-183693328D01*
X182672312Y-183693328D02*
X182529454Y-183621900D01*
X182529454Y-183621900D02*
X182458026Y-183479042D01*
X182458026Y-183479042D02*
X182458026Y-182907614D01*
X182458026Y-182907614D02*
X182529454Y-182764757D01*
X182529454Y-182764757D02*
X182672312Y-182693328D01*
X182672312Y-182693328D02*
X182958026Y-182693328D01*
X182958026Y-182693328D02*
X183100883Y-182764757D01*
X183100883Y-182764757D02*
X183172312Y-182907614D01*
X183172312Y-182907614D02*
X183172312Y-183050471D01*
X183172312Y-183050471D02*
X182458026Y-183193328D01*
X183600883Y-182693328D02*
X184172311Y-182693328D01*
X183815168Y-182193328D02*
X183815168Y-183479042D01*
X183815168Y-183479042D02*
X183886597Y-183621900D01*
X183886597Y-183621900D02*
X184029454Y-183693328D01*
X184029454Y-183693328D02*
X184172311Y-183693328D01*
X184672311Y-183550471D02*
X184743740Y-183621900D01*
X184743740Y-183621900D02*
X184672311Y-183693328D01*
X184672311Y-183693328D02*
X184600883Y-183621900D01*
X184600883Y-183621900D02*
X184672311Y-183550471D01*
X184672311Y-183550471D02*
X184672311Y-183693328D01*
X184672311Y-182764757D02*
X184743740Y-182836185D01*
X184743740Y-182836185D02*
X184672311Y-182907614D01*
X184672311Y-182907614D02*
X184600883Y-182836185D01*
X184600883Y-182836185D02*
X184672311Y-182764757D01*
X184672311Y-182764757D02*
X184672311Y-182907614D01*
D10*
D12*
D10*
D11*
D10*
D11*
D10*
D11*
D10*
D11*
D10*
D11*
X197002200Y-191507200D02*
X197002200Y-194507200D01*
D10*
D11*
X261002200Y-191507200D02*
X261002200Y-198007200D01*
D14*
X206856000Y-132810793D02*
G75*
G02*
X206656000Y-132810793I-100000J0D01*
G01*
X206656000Y-132810793D02*
G75*
G02*
X206856000Y-132810793I100000J0D01*
G01*
X208277830Y-106011621D02*
G75*
G02*
X204277830Y-106011621I-2000000J0D01*
G01*
X204277830Y-106011621D02*
G75*
G02*
X208277830Y-106011621I2000000J0D01*
G01*
X118364000Y-105918000D02*
G75*
G02*
X114364000Y-105918000I-2000000J0D01*
G01*
X114364000Y-105918000D02*
G75*
G02*
X118364000Y-105918000I2000000J0D01*
G01*
X116051000Y-150425962D02*
G75*
G02*
X115851000Y-150425962I-100000J0D01*
G01*
X115851000Y-150425962D02*
G75*
G02*
X116051000Y-150425962I100000J0D01*
G01*
X208756000Y-150395000D02*
G75*
G02*
X204756000Y-150395000I-2000000J0D01*
G01*
X204756000Y-150395000D02*
G75*
G02*
X208756000Y-150395000I2000000J0D01*
G01*
X208277830Y-105980414D02*
G75*
G02*
X204277830Y-105980414I-2000000J0D01*
G01*
X204277830Y-105980414D02*
G75*
G02*
X208277830Y-105980414I2000000J0D01*
G01*
X131672000Y-92815666D02*
G75*
G02*
X131472000Y-92815666I-100000J0D01*
G01*
X131472000Y-92815666D02*
G75*
G02*
X131672000Y-92815666I100000J0D01*
G01*
X193516000Y-92826332D02*
G75*
G02*
X189516000Y-92826332I-2000000J0D01*
G01*
X189516000Y-92826332D02*
G75*
G02*
X193516000Y-92826332I2000000J0D01*
G01*
X116051000Y-132715000D02*
G75*
G02*
X115851000Y-132715000I-100000J0D01*
G01*
X115851000Y-132715000D02*
G75*
G02*
X116051000Y-132715000I100000J0D01*
G01*
X133572000Y-92805000D02*
G75*
G02*
X129572000Y-92805000I-2000000J0D01*
G01*
X129572000Y-92805000D02*
G75*
G02*
X133572000Y-92805000I2000000J0D01*
G01*
X117886000Y-132715000D02*
G75*
G02*
X113886000Y-132715000I-2000000J0D01*
G01*
X113886000Y-132715000D02*
G75*
G02*
X117886000Y-132715000I2000000J0D01*
G01*
X191616000Y-92836998D02*
G75*
G02*
X191416000Y-92836998I-100000J0D01*
G01*
X191416000Y-92836998D02*
G75*
G02*
X191616000Y-92836998I100000J0D01*
G01*
X206856000Y-150395000D02*
G75*
G02*
X206656000Y-150395000I-100000J0D01*
G01*
X206656000Y-150395000D02*
G75*
G02*
X206856000Y-150395000I100000J0D01*
G01*
X117924051Y-150426949D02*
G75*
G02*
X113924051Y-150426949I-2000000J0D01*
G01*
X113924051Y-150426949D02*
G75*
G02*
X117924051Y-150426949I2000000J0D01*
G01*
X206377830Y-106042828D02*
G75*
G02*
X206177830Y-106042828I-100000J0D01*
G01*
X206177830Y-106042828D02*
G75*
G02*
X206377830Y-106042828I100000J0D01*
G01*
X116464000Y-105949207D02*
G75*
G02*
X116264000Y-105949207I-100000J0D01*
G01*
X116264000Y-105949207D02*
G75*
G02*
X116464000Y-105949207I100000J0D01*
G01*
X208756000Y-132810793D02*
G75*
G02*
X204756000Y-132810793I-2000000J0D01*
G01*
X204756000Y-132810793D02*
G75*
G02*
X208756000Y-132810793I2000000J0D01*
G01*
D15*
%TO.P,U1,1,VM*%
%TO.N,Net-(U1-VM)*%
X150876000Y-142240000D03*
%TO.P,U1,2,VCC*%
%TO.N,Alimenta\u00E7\u00E3o sensores*%
X153416000Y-142240000D03*
%TO.P,U1,3,GND*%
%TO.N,unconnected-(U1-GND-Pad3)*%
X155956000Y-142240000D03*
%TO.P,U1,4,A01*%
%TO.N,Net-(J3-+)*%
X158496000Y-142240000D03*
%TO.P,U1,5,A02*%
%TO.N,Net-(J3--)*%
X161036000Y-142240000D03*
%TO.P,U1,6,B02*%
%TO.N,Net-(J2--)*%
X163576000Y-142240000D03*
%TO.P,U1,7,B01*%
%TO.N,Net-(J2-+)*%
X166116000Y-142240000D03*
%TO.P,U1,8,GND__1*%
%TO.N,Net-(U1-GND__1)*%
X168656000Y-142240000D03*
%TO.P,U1,9,GND__2*%
%TO.N,unconnected-(U1-GND__2-Pad9)*%
X168656000Y-127000000D03*
%TO.P,U1,10,PWMB*%
%TO.N,Net-(A2-D11)*%
X166116000Y-127000000D03*
%TO.P,U1,11,BI2*%
%TO.N,Net-(A2-D9)*%
X163576000Y-127000000D03*
%TO.P,U1,12,BI1*%
%TO.N,Net-(A2-D8)*%
X161036000Y-127000000D03*
%TO.P,U1,13,STBY*%
%TO.N,Net-(A2-D5)*%
X158496000Y-127000000D03*
%TO.P,U1,14,AI1*%
%TO.N,Net-(A2-D4)*%
X155956000Y-127000000D03*
%TO.P,U1,15,AI2*%
%TO.N,Net-(A2-D3)*%
X153416000Y-127000000D03*
%TO.P,U1,16,PWMA*%
%TO.N,Net-(A2-D2)*%
X150876000Y-127000000D03*
%TD*%
D16*
%TO.P,J7,1,Pin_1*%
%TO.N,Net-(A2-D13)*%
X177673000Y-96901000D03*
%TD*%
%TO.P,J8,1,Pin_1*%
%TO.N,Net-(A2-D12)*%
X177546000Y-122428000D03*
%TD*%
D17*
%TO.P,A2,1,D1/TX*%
%TO.N,Net-(A2-D1{slash}TX)*%
X142113000Y-116703000D03*
D18*
%TO.P,A2,2,D0/RX*%
%TO.N,Net-(A2-D0{slash}RX)*%
X144653000Y-116703000D03*
%TO.P,A2,3,~{RESET}*%
%TO.N,unconnected-(A2-~{RESET}-Pad3)*%
X147193000Y-116703000D03*
%TO.P,A2,4,GND*%
%TO.N,GND*%
X149733000Y-116703000D03*
%TO.P,A2,5,D2*%
%TO.N,Net-(A2-D2)*%
X152273000Y-116703000D03*
%TO.P,A2,6,D3*%
%TO.N,Net-(A2-D3)*%
X154813000Y-116703000D03*
%TO.P,A2,7,D4*%
%TO.N,Net-(A2-D4)*%
X157353000Y-116703000D03*
%TO.P,A2,8,D5*%
%TO.N,Net-(A2-D5)*%
X159893000Y-116703000D03*
%TO.P,A2,9,D6*%
%TO.N,unconnected-(A2-D6-Pad9)*%
X162433000Y-116703000D03*
%TO.P,A2,10,D7*%
%TO.N,unconnected-(A2-D7-Pad10)*%
X164973000Y-116703000D03*
%TO.P,A2,11,D8*%
%TO.N,Net-(A2-D8)*%
X167513000Y-116703000D03*
%TO.P,A2,12,D9*%
%TO.N,Net-(A2-D9)*%
X170053000Y-116703000D03*
%TO.P,A2,13,D10*%
%TO.N,unconnected-(A2-D10-Pad13)*%
X172593000Y-116703000D03*
%TO.P,A2,14,D11*%
%TO.N,Net-(A2-D11)*%
X175133000Y-116703000D03*
%TO.P,A2,15,D12*%
%TO.N,Net-(A2-D12)*%
X177673000Y-116703000D03*
%TO.P,A2,16,D13*%
%TO.N,Net-(A2-D13)*%
X177673000Y-101463000D03*
%TO.P,A2,17,3V3*%
%TO.N,unconnected-(A2-3V3-Pad17)*%
X175133000Y-101463000D03*
%TO.P,A2,18,AREF*%
%TO.N,unconnected-(A2-AREF-Pad18)*%
X172593000Y-101463000D03*
%TO.P,A2,19,A0*%
%TO.N,Net-(A2-A0)*%
X170053000Y-101463000D03*
%TO.P,A2,20,A1*%
%TO.N,Net-(A2-A1)*%
X167513000Y-101463000D03*
%TO.P,A2,21,A2*%
%TO.N,Net-(A2-A2)*%
X164973000Y-101463000D03*
%TO.P,A2,22,A3*%
%TO.N,Net-(A2-A3)*%
X162433000Y-101463000D03*
%TO.P,A2,23,A4*%
%TO.N,Net-(A2-A4)*%
X159893000Y-101463000D03*
%TO.P,A2,24,A5*%
%TO.N,Net-(A2-A5)*%
X157353000Y-101463000D03*
%TO.P,A2,25,A6*%
%TO.N,Net-(A2-A6)*%
X154813000Y-101463000D03*
%TO.P,A2,26,A7*%
%TO.N,Net-(A2-A7)*%
X152273000Y-101463000D03*
%TO.P,A2,27,+5V*%
%TO.N,Alimenta\u00E7\u00E3o sensores*%
X149733000Y-101463000D03*
%TO.P,A2,28,~{RESET}*%
%TO.N,unconnected-(A2-~{RESET}-Pad28)*%
X147193000Y-101463000D03*
%TO.P,A2,29,GND*%
%TO.N,GND*%
X144653000Y-101463000D03*
%TO.P,A2,30,VIN*%
%TO.N,Bateria Arduino*%
X142113000Y-101463000D03*
%TD*%
D16*
%TO.P,J9,1,Pin_1*%
%TO.N,Alimenta\u00E7\u00E3o sensores*%
X130810000Y-102743000D03*
D19*
%TO.P,J9,2,Pin_2*%
X133350000Y-102743000D03*
%TD*%
D16*
%TO.P,Bateria1,1,+*%
%TO.N,Net-(Bateria1-+)*%
X191033000Y-118511000D03*
D19*
%TO.P,Bateria1,2,-*%
%TO.N,Net-(Bateria1--)*%
X191033000Y-121051000D03*
%TD*%
D16*
%TO.P,J1,1,Pin_1*%
%TO.N,Alimenta\u00E7\u00E3o sensores*%
X149860000Y-91186000D03*
D19*
%TO.P,J1,2,Pin_2*%
%TO.N,Net-(A2-A7)*%
X152400000Y-91186000D03*
%TO.P,J1,3,Pin_3*%
%TO.N,Net-(A2-A6)*%
X154940000Y-91186000D03*
%TO.P,J1,4,Pin_4*%
%TO.N,Net-(A2-A5)*%
X157480000Y-91186000D03*
%TO.P,J1,5,Pin_5*%
%TO.N,Net-(A2-A4)*%
X160020000Y-91186000D03*
%TO.P,J1,6,Pin_6*%
%TO.N,Net-(A2-A3)*%
X162560000Y-91186000D03*
%TO.P,J1,7,Pin_7*%
%TO.N,Net-(A2-A2)*%
X165100000Y-91186000D03*
%TO.P,J1,8,Pin_8*%
%TO.N,Net-(A2-A1)*%
X167640000Y-91186000D03*
%TO.P,J1,9,Pin_9*%
%TO.N,Net-(A2-A0)*%
X170180000Y-91186000D03*
%TO.P,J1,10,Pin_10*%
%TO.N,unconnected-(J1-Pin_10-Pad10)*%
X172720000Y-91186000D03*
%TO.P,J1,11,Pin_11*%
%TO.N,GND*%
X175260000Y-91186000D03*
%TD*%
D16*
%TO.P,J2,1,+*%
%TO.N,Net-(J2-+)*%
X180594000Y-140589000D03*
D19*
%TO.P,J2,2,-*%
%TO.N,Net-(J2--)*%
X180594000Y-143129000D03*
%TD*%
D20*
%TO.P,U2,1,VI*%
%TO.N,Net-(U1-VM)*%
X192334000Y-108077000D03*
D21*
%TO.P,U2,2,GND*%
%TO.N,Net-(U1-GND__1)*%
X192334000Y-105537000D03*
%TO.P,U2,3,VO*%
%TO.N,Bateria Arduino*%
X192334000Y-102997000D03*
%TD*%
D16*
%TO.P,J4,1,State*%
%TO.N,unconnected-(J4-State-Pad1)*%
X138176000Y-124460000D03*
D19*
%TO.P,J4,2,RX*%
%TO.N,Net-(A2-D0{slash}RX)*%
X135636000Y-124460000D03*
%TO.P,J4,3,TX*%
%TO.N,Net-(A2-D1{slash}TX)*%
X133096000Y-124460000D03*
%TO.P,J4,4,GND*%
%TO.N,GND*%
X130556000Y-124460000D03*
%TO.P,J4,5,VCC*%
%TO.N,Alimenta\u00E7\u00E3o sensores*%
X128016000Y-124460000D03*
%TO.P,J4,6,EN*%
%TO.N,unconnected-(J4-EN-Pad6)*%
X125476000Y-124460000D03*
%TD*%
D16*
%TO.P,J3,1,+*%
%TO.N,Net-(J3-+)*%
X136525000Y-140609000D03*
D19*
%TO.P,J3,2,-*%
%TO.N,Net-(J3--)*%
X136525000Y-143149000D03*
%TD*%
D22*
%TO.P,S1,1*%
%TO.N,Net-(Bateria1-+)*%
X183325000Y-130556000D03*
%TO.P,S1,2*%
%TO.N,Net-(U1-VM)*%
X185325000Y-130556000D03*
%TO.P,S1,3*%
%TO.N,Net-(Bateria1--)*%
X187325000Y-130556000D03*
D23*
%TO.P,S1,P$4*%
%TO.N,N/C*%
X180475000Y-130556000D03*
%TO.P,S1,P$5*%
X190175000Y-130556000D03*
%TD*%
D16*
%TO.P,J10,1,Pin_1*%
%TO.N,GND*%
X145415000Y-124714000D03*
D19*
%TO.P,J10,2,Pin_2*%
X145415000Y-127254000D03*
%TD*%
D24*
%TO.N,GND*%
X145415000Y-124714000D02*
X145415000Y-127254000D01*
%TO.N,Alimenta\u00E7\u00E3o sensores*%
X133350000Y-102743000D02*
X130810000Y-102743000D01*
%TO.N,Net-(A2-D12)*%
X177673000Y-116703000D02*
X177673000Y-122301000D01*
X177673000Y-122301000D02*
X177546000Y-122428000D01*
%TO.N,Net-(A2-A1)*%
X167640000Y-101336000D02*
X167513000Y-101463000D01*
X167640000Y-91186000D02*
X167640000Y-101336000D01*
%TO.N,Net-(A2-A4)*%
X160020000Y-91186000D02*
X160020000Y-101336000D01*
X160020000Y-101336000D02*
X159893000Y-101463000D01*
%TO.N,Bateria Arduino*%
X141097000Y-100203000D02*
X139319000Y-98425000D01*
X139319000Y-85852000D02*
X177983000Y-85852000D01*
X142113000Y-101463000D02*
X141097000Y-100447000D01*
X139319000Y-98425000D02*
X139319000Y-85852000D01*
X141097000Y-100447000D02*
X141097000Y-100203000D01*
X177983000Y-85852000D02*
X192334000Y-100203000D01*
X192334000Y-100203000D02*
X192334000Y-102997000D01*
%TO.N,Net-(A2-A0)*%
X170180000Y-91186000D02*
X170180000Y-101336000D01*
X170180000Y-101336000D02*
X170053000Y-101463000D01*
%TO.N,Net-(A2-A7)*%
X152400000Y-91186000D02*
X152400000Y-101336000D01*
X152400000Y-101336000D02*
X152273000Y-101463000D01*
%TO.N,Net-(A2-A6)*%
X154940000Y-91186000D02*
X154940000Y-101336000D01*
X154940000Y-101336000D02*
X154813000Y-101463000D01*
%TO.N,Net-(A2-A3)*%
X162560000Y-101336000D02*
X162433000Y-101463000D01*
X162560000Y-91186000D02*
X162560000Y-101336000D01*
%TO.N,Net-(A2-A5)*%
X157480000Y-101336000D02*
X157353000Y-101463000D01*
X157480000Y-91186000D02*
X157480000Y-101336000D01*
%TO.N,Net-(A2-D13)*%
X177673000Y-101463000D02*
X177673000Y-96901000D01*
%TO.N,Net-(A2-D9)*%
X163576000Y-127000000D02*
X170053000Y-120523000D01*
X170053000Y-120523000D02*
X170053000Y-116703000D01*
%TO.N,Net-(A2-A2)*%
X165100000Y-101336000D02*
X164973000Y-101463000D01*
X165100000Y-91186000D02*
X165100000Y-101336000D01*
%TO.N,Net-(Bateria1--)*%
X189529000Y-122555000D02*
X191033000Y-121051000D01*
X187325000Y-130556000D02*
X189529000Y-128352000D01*
X189529000Y-128352000D02*
X189529000Y-122555000D01*
%TO.N,Alimenta\u00E7\u00E3o sensores*%
X153416000Y-142240000D02*
X153416000Y-145669000D01*
X149733000Y-101463000D02*
X144770000Y-106426000D01*
X128016000Y-118491000D02*
X128016000Y-124460000D01*
X149860000Y-101336000D02*
X149733000Y-101463000D01*
X150622000Y-146431000D02*
X133223000Y-129032000D01*
X153416000Y-145669000D02*
X152654000Y-146431000D01*
X149860000Y-91186000D02*
X149860000Y-101336000D01*
X133350000Y-113157000D02*
X128016000Y-118491000D01*
X152654000Y-146431000D02*
X150622000Y-146431000D01*
X144770000Y-106426000D02*
X133350000Y-106426000D01*
X133350000Y-106426000D02*
X133350000Y-113157000D01*
X128016000Y-127254000D02*
X128016000Y-124460000D01*
X129794000Y-129032000D02*
X128016000Y-127254000D01*
X133350000Y-106426000D02*
X133350000Y-102743000D01*
X133223000Y-129032000D02*
X129794000Y-129032000D01*
%TO.N,Net-(Bateria1-+)*%
X195580000Y-118491000D02*
X195560000Y-118511000D01*
X183325000Y-130556000D02*
X186119000Y-133350000D01*
X195560000Y-118511000D02*
X191033000Y-118511000D01*
X193548000Y-133350000D02*
X195580000Y-131318000D01*
X186119000Y-133350000D02*
X193548000Y-133350000D01*
X195580000Y-131318000D02*
X195580000Y-118491000D01*
%TO.N,Net-(A2-D8)*%
X167513000Y-120523000D02*
X167513000Y-116703000D01*
X161036000Y-127000000D02*
X167513000Y-120523000D01*
%TO.N,Net-(A2-D3)*%
X153416000Y-118745000D02*
X153924000Y-118237000D01*
X153416000Y-127000000D02*
X153416000Y-118745000D01*
X153924000Y-118237000D02*
X153924000Y-117592000D01*
X153924000Y-117592000D02*
X154813000Y-116703000D01*
%TO.N,Net-(A2-D4)*%
X155956000Y-118100000D02*
X157353000Y-116703000D01*
X155956000Y-127000000D02*
X155956000Y-118100000D01*
%TO.N,Net-(A2-D5)*%
X158496000Y-127000000D02*
X158496000Y-118100000D01*
X158496000Y-118100000D02*
X159893000Y-116703000D01*
%TO.N,Net-(A2-D2)*%
X150876000Y-118100000D02*
X152273000Y-116703000D01*
X150876000Y-127000000D02*
X150876000Y-118100000D01*
%TO.N,Net-(A2-D11)*%
X166116000Y-127000000D02*
X175133000Y-117983000D01*
X175133000Y-117983000D02*
X175133000Y-116703000D01*
%TO.N,GND*%
X175260000Y-91186000D02*
X174371000Y-90297000D01*
X145415000Y-121021000D02*
X149733000Y-116703000D01*
X145415000Y-124714000D02*
X145415000Y-121021000D01*
X174371000Y-90297000D02*
X174371000Y-88011000D01*
X145796000Y-88011000D02*
X144653000Y-89154000D01*
X144653000Y-89154000D02*
X144653000Y-101463000D01*
X174371000Y-88011000D02*
X145796000Y-88011000D01*
%TO.N,Net-(J3--)*%
X161036000Y-146431000D02*
X154686000Y-152781000D01*
X154686000Y-152781000D02*
X138938000Y-152781000D01*
X136525000Y-150368000D02*
X136525000Y-143149000D01*
X138938000Y-152781000D02*
X136525000Y-150368000D01*
X161036000Y-142240000D02*
X161036000Y-146431000D01*
%TO.N,Net-(J2-+)*%
X173101000Y-147701000D02*
X176784000Y-144018000D01*
X166116000Y-142240000D02*
X166116000Y-143891000D01*
X176784000Y-140716000D02*
X176911000Y-140589000D01*
X176911000Y-140589000D02*
X180594000Y-140589000D01*
X166116000Y-143891000D02*
X169926000Y-147701000D01*
X176784000Y-144018000D02*
X176784000Y-140716000D01*
X169926000Y-147701000D02*
X173101000Y-147701000D01*
%TO.N,Net-(J2--)*%
X165735000Y-151892000D02*
X177546000Y-151892000D01*
X180594000Y-148844000D02*
X180594000Y-143129000D01*
X163576000Y-149733000D02*
X165735000Y-151892000D01*
X177546000Y-151892000D02*
X180594000Y-148844000D01*
X163576000Y-142240000D02*
X163576000Y-149733000D01*
%TO.N,Net-(J3-+)*%
X143891000Y-142875000D02*
X141625000Y-140609000D01*
X144653000Y-149098000D02*
X143891000Y-148336000D01*
X158496000Y-142240000D02*
X158496000Y-144399000D01*
X143891000Y-148336000D02*
X143891000Y-142875000D01*
X153797000Y-149098000D02*
X144653000Y-149098000D01*
X141625000Y-140609000D02*
X136525000Y-140609000D01*
X158496000Y-144399000D02*
X153797000Y-149098000D01*
%TO.N,Net-(A2-D1{slash}TX)*%
X135509000Y-118745000D02*
X133096000Y-121158000D01*
X140970000Y-118745000D02*
X141097000Y-118618000D01*
X141097000Y-117719000D02*
X142113000Y-116703000D01*
X140970000Y-118745000D02*
X135509000Y-118745000D01*
X141097000Y-118618000D02*
X141097000Y-117719000D01*
X133096000Y-121158000D02*
X133096000Y-124460000D01*
%TO.N,Net-(A2-D0{slash}RX)*%
X135636000Y-124460000D02*
X135636000Y-122682000D01*
X142367000Y-121285000D02*
X144653000Y-118999000D01*
X135636000Y-122682000D02*
X137033000Y-121285000D01*
X137033000Y-121285000D02*
X142367000Y-121285000D01*
X144653000Y-118999000D02*
X144653000Y-116703000D01*
%TO.N,Net-(U1-VM)*%
X185118500Y-115617500D02*
X192334000Y-108402000D01*
X192334000Y-108402000D02*
X192334000Y-108077000D01*
X185325000Y-130556000D02*
X185118500Y-130349500D01*
X182150000Y-127381000D02*
X185325000Y-130556000D01*
X150876000Y-142240000D02*
X150876000Y-140589000D01*
X174117000Y-127381000D02*
X182150000Y-127381000D01*
X185118500Y-130349500D02*
X185118500Y-115617500D01*
X158623000Y-132842000D02*
X168656000Y-132842000D01*
X150876000Y-140589000D02*
X158623000Y-132842000D01*
X168656000Y-132842000D02*
X174117000Y-127381000D01*
%TO.N,Net-(U1-GND__1)*%
X168656000Y-139827000D02*
X171704000Y-136779000D01*
X198120000Y-136779000D02*
X198120000Y-109323000D01*
X194334000Y-105537000D02*
X192334000Y-105537000D01*
X168656000Y-142240000D02*
X168656000Y-139827000D01*
X171704000Y-136779000D02*
X198120000Y-136779000D01*
X198120000Y-109323000D02*
X194334000Y-105537000D01*
%TD*%
%TA.AperFunction,Conductor*%
%TO.N,GND*%
G36*
X145665000Y-126820988D02*
G01*
X145607993Y-126788075D01*
X145480826Y-126754000D01*
X145349174Y-126754000D01*
X145222007Y-126788075D01*
X145165000Y-126820988D01*
X145165000Y-125147012D01*
X145222007Y-125179925D01*
X145349174Y-125214000D01*
X145480826Y-125214000D01*
X145607993Y-125179925D01*
X145665000Y-125147012D01*
X145665000Y-126820988D01*
G37*
%TD.AperFunction*%
%TA.AperFunction,Conductor*%
G36*
X192032177Y-84721185D02*
G01*
X192052819Y-84737819D01*
X210842181Y-103527181D01*
X210875666Y-103588504D01*
X210878500Y-103614862D01*
X210878500Y-153814138D01*
X210858815Y-153881177D01*
X210842181Y-153901819D01*
X210411819Y-154332181D01*
X210350496Y-154365666D01*
X210324138Y-154368500D01*
X112582500Y-154368500D01*
X112515461Y-154348815D01*
X112469706Y-154296011D01*
X112458500Y-154244500D01*
X112458500Y-150426949D01*
X113218615Y-150426949D01*
X113238340Y-150753048D01*
X113297229Y-151074401D01*
X113394417Y-151386291D01*
X113394421Y-151386303D01*
X113394424Y-151386310D01*
X113528506Y-151684228D01*
X113553458Y-151725503D01*
X113697524Y-151963817D01*
X113899005Y-152220988D01*
X114130011Y-152451994D01*
X114387182Y-152653475D01*
X114387185Y-152653477D01*
X114387188Y-152653479D01*
X114666772Y-152822494D01*
X114964690Y-152956576D01*
X114964703Y-152956580D01*
X114964708Y-152956582D01*
X115276598Y-153053770D01*
X115597947Y-153112659D01*
X115924051Y-153132385D01*
X116250155Y-153112659D01*
X116571504Y-153053770D01*
X116883412Y-152956576D01*
X117181330Y-152822494D01*
X117460914Y-152653479D01*
X117718087Y-152451997D01*
X117949099Y-152220985D01*
X118150581Y-151963812D01*
X118319596Y-151684228D01*
X118453678Y-151386310D01*
X118550872Y-151074402D01*
X118609761Y-150753053D01*
X118629487Y-150426949D01*
X118609761Y-150100845D01*
X118550872Y-149779496D01*
X118501295Y-149620397D01*
X118453684Y-149467606D01*
X118453682Y-149467601D01*
X118453678Y-149467588D01*
X118319596Y-149169670D01*
X118150581Y-148890086D01*
X118150579Y-148890083D01*
X118150577Y-148890080D01*
X117949096Y-148632909D01*
X117718090Y-148401903D01*
X117460919Y-148200422D01*
X117408064Y-148168470D01*
X117181330Y-148031404D01*
X116883412Y-147897322D01*
X116883405Y-147897319D01*
X116883393Y-147897315D01*
X116571503Y-147800127D01*
X116250150Y-147741238D01*
X115924051Y-147721513D01*
X115597951Y-147741238D01*
X115276598Y-147800127D01*
X114964708Y-147897315D01*
X114964692Y-147897321D01*
X114964690Y-147897322D01*
X114774984Y-147982701D01*
X114666776Y-148031402D01*
X114666774Y-148031403D01*
X114387182Y-148200422D01*
X114130011Y-148401903D01*
X113899005Y-148632909D01*
X113697524Y-148890080D01*
X113573343Y-149095500D01*
X113547818Y-149137725D01*
X113528505Y-149169672D01*
X113528504Y-149169674D01*
X113485595Y-149265014D01*
X113474106Y-149290543D01*
X113394423Y-149467591D01*
X113394417Y-149467606D01*
X113297229Y-149779496D01*
X113238340Y-150100849D01*
X113218615Y-150426949D01*
X112458500Y-150426949D01*
X112458500Y-132715000D01*
X113180564Y-132715000D01*
X113200289Y-133041099D01*
X113259178Y-133362452D01*
X113356366Y-133674342D01*
X113356370Y-133674354D01*
X113356373Y-133674361D01*
X113490455Y-133972279D01*
X113573316Y-134109347D01*
X113659473Y-134251868D01*
X113860954Y-134509039D01*
X114091960Y-134740045D01*
X114349131Y-134941526D01*
X114349134Y-134941528D01*
X114349137Y-134941530D01*
X114628721Y-135110545D01*
X114926639Y-135244627D01*
X114926652Y-135244631D01*
X114926657Y-135244633D01*
X115234051Y-135340420D01*
X115238547Y-135341821D01*
X115559896Y-135400710D01*
X115886000Y-135420436D01*
X116212104Y-135400710D01*
X116533453Y-135341821D01*
X116845361Y-135244627D01*
X117143279Y-135110545D01*
X117422863Y-134941530D01*
X117680036Y-134740048D01*
X117911048Y-134509036D01*
X118112530Y-134251863D01*
X118281545Y-133972279D01*
X118415627Y-133674361D01*
X118512821Y-133362453D01*
X118571710Y-133041104D01*
X118591436Y-132715000D01*
X118571710Y-132388896D01*
X118512821Y-132067547D01*
X118457053Y-131888581D01*
X118415633Y-131755657D01*
X118415631Y-131755652D01*
X118415627Y-131755639D01*
X118281545Y-131457721D01*
X118112530Y-131178137D01*
X118112528Y-131178134D01*
X118112526Y-131178131D01*
X117911045Y-130920960D01*
X117680039Y-130689954D01*
X117422868Y-130488473D01*
X117301739Y-130415248D01*
X117143279Y-130319455D01*
X116845361Y-130185373D01*
X116845354Y-130185370D01*
X116845342Y-130185366D01*
X116533452Y-130088178D01*
X116212099Y-130029289D01*
X115886000Y-130009564D01*
X115559900Y-130029289D01*
X115238547Y-130088178D01*
X114926657Y-130185366D01*
X114926641Y-130185372D01*
X114926639Y-130185373D01*
X114628721Y-130319455D01*
X114619631Y-130324950D01*
X114349131Y-130488473D01*
X114091960Y-130689954D01*
X113860954Y-130920960D01*
X113659473Y-131178131D01*
X113490454Y-131457723D01*
X113490453Y-131457725D01*
X113466344Y-131511293D01*
X113385189Y-131691614D01*
X113356372Y-131755642D01*
X113356366Y-131755657D01*
X113259178Y-132067547D01*
X113200289Y-132388900D01*
X113180564Y-132715000D01*
X112458500Y-132715000D01*
X112458500Y-124460000D01*
X124420417Y-124460000D01*
X124440699Y-124665932D01*
X124440700Y-124665934D01*
X124500768Y-124863954D01*
X124598315Y-125046450D01*
X124598317Y-125046452D01*
X124729589Y-125206410D01*
X124800517Y-125264618D01*
X124889550Y-125337685D01*
X125072046Y-125435232D01*
X125270066Y-125495300D01*
X125270065Y-125495300D01*
X125288529Y-125497118D01*
X125476000Y-125515583D01*
X125681934Y-125495300D01*
X125879954Y-125435232D01*
X126062450Y-125337685D01*
X126222410Y-125206410D01*
X126353685Y-125046450D01*
X126451232Y-124863954D01*
X126511300Y-124665934D01*
X126531583Y-124460000D01*
X126960417Y-124460000D01*
X126980699Y-124665932D01*
X126980700Y-124665934D01*
X127040768Y-124863954D01*
X127138315Y-125046450D01*
X127269590Y-125206410D01*
X127270159Y-125206877D01*
X127270379Y-125207199D01*
X127273893Y-125210713D01*
X127273226Y-125211379D01*
X127309496Y-125264618D01*
X127315500Y-125302734D01*
X127315500Y-127185006D01*
X127315500Y-127322994D01*
X127315500Y-127322996D01*
X127315499Y-127322996D01*
X127342418Y-127458322D01*
X127342421Y-127458332D01*
X127395222Y-127585807D01*
X127471887Y-127700545D01*
X129347454Y-129576112D01*
X129462192Y-129652777D01*
X129577965Y-129700731D01*
X129589672Y-129705580D01*
X129589676Y-129705580D01*
X129589677Y-129705581D01*
X129725003Y-129732500D01*
X129725006Y-129732500D01*
X129725007Y-129732500D01*
X132881481Y-129732500D01*
X132948520Y-129752185D01*
X132969162Y-129768819D01*
X150175453Y-146975111D01*
X150175454Y-146975112D01*
X150290192Y-147051777D01*
X150417667Y-147104578D01*
X150417672Y-147104580D01*
X150417676Y-147104580D01*
X150417677Y-147104581D01*
X150553003Y-147131500D01*
X150553006Y-147131500D01*
X152722996Y-147131500D01*
X152814040Y-147113389D01*
X152858328Y-147104580D01*
X152922069Y-147078177D01*
X152985807Y-147051777D01*
X152985808Y-147051776D01*
X152985811Y-147051775D01*
X153100543Y-146975114D01*
X153960114Y-146115543D01*
X154036775Y-146000811D01*
X154089580Y-145873328D01*
X154116500Y-145737994D01*
X154116500Y-145600006D01*
X154116500Y-143267102D01*
X154136185Y-143200063D01*
X154156962Y-143175465D01*
X154200409Y-143135857D01*
X154299559Y-143045471D01*
X154432520Y-142869402D01*
X154530864Y-142671901D01*
X154566734Y-142545830D01*
X154604013Y-142486737D01*
X154667323Y-142457180D01*
X154736562Y-142466542D01*
X154789749Y-142511852D01*
X154805266Y-142545831D01*
X154841134Y-142671896D01*
X154841140Y-142671911D01*
X154907911Y-142806004D01*
X154939480Y-142869402D01*
X155072441Y-143045471D01*
X155235490Y-143194109D01*
X155423075Y-143310257D01*
X155628809Y-143389959D01*
X155845684Y-143430500D01*
X155845686Y-143430500D01*
X156066314Y-143430500D01*
X156066316Y-143430500D01*
X156283191Y-143389959D01*
X156488925Y-143310257D01*
X156676510Y-143194109D01*
X156839559Y-143045471D01*
X156972520Y-142869402D01*
X157070864Y-142671901D01*
X157106734Y-142545830D01*
X157144013Y-142486737D01*
X157207323Y-142457180D01*
X157276562Y-142466542D01*
X157329749Y-142511852D01*
X157345266Y-142545831D01*
X157381134Y-142671896D01*
X157381140Y-142671911D01*
X157447911Y-142806004D01*
X157479480Y-142869402D01*
X157612439Y-143045469D01*
X157612442Y-143045472D01*
X157755038Y-143175465D01*
X157791320Y-143235176D01*
X157795500Y-143267102D01*
X157795500Y-144057481D01*
X157775815Y-144124520D01*
X157759181Y-144145162D01*
X153543162Y-148361181D01*
X153481839Y-148394666D01*
X153455481Y-148397500D01*
X144994519Y-148397500D01*
X144927480Y-148377815D01*
X144906838Y-148361181D01*
X144627819Y-148082162D01*
X144594334Y-148020839D01*
X144591500Y-147994481D01*
X144591500Y-142806004D01*
X144564581Y-142670677D01*
X144564580Y-142670676D01*
X144564580Y-142670672D01*
X144511775Y-142543189D01*
X144488413Y-142508225D01*
X144435114Y-142428457D01*
X144435112Y-142428454D01*
X142071545Y-140064887D01*
X141956807Y-139988222D01*
X141829332Y-139935421D01*
X141829322Y-139935418D01*
X141693996Y-139908500D01*
X141693994Y-139908500D01*
X141693993Y-139908500D01*
X137699500Y-139908500D01*
X137632461Y-139888815D01*
X137586706Y-139836011D01*
X137575500Y-139784500D01*
X137575500Y-139739249D01*
X137575499Y-139739247D01*
X137563868Y-139680770D01*
X137563867Y-139680769D01*
X137519552Y-139614447D01*
X137453230Y-139570132D01*
X137453229Y-139570131D01*
X137394752Y-139558500D01*
X137394748Y-139558500D01*
X135655252Y-139558500D01*
X135655247Y-139558500D01*
X135596770Y-139570131D01*
X135596769Y-139570132D01*
X135530447Y-139614447D01*
X135486132Y-139680769D01*
X135486131Y-139680770D01*
X135474500Y-139739247D01*
X135474500Y-141478752D01*
X135486131Y-141537229D01*
X135486132Y-141537230D01*
X135530447Y-141603552D01*
X135596769Y-141647867D01*
X135596770Y-141647868D01*
X135655247Y-141659499D01*
X135655250Y-141659500D01*
X135655252Y-141659500D01*
X137394750Y-141659500D01*
X137394751Y-141659499D01*
X137409568Y-141656552D01*
X137453229Y-141647868D01*
X137453229Y-141647867D01*
X137453231Y-141647867D01*
X137519552Y-141603552D01*
X137563867Y-141537231D01*
X137563867Y-141537229D01*
X137563868Y-141537229D01*
X137575499Y-141478752D01*
X137575500Y-141478750D01*
X137575500Y-141433500D01*
X137595185Y-141366461D01*
X137647989Y-141320706D01*
X137699500Y-141309500D01*
X141283481Y-141309500D01*
X141350520Y-141329185D01*
X141371162Y-141345819D01*
X143154181Y-143128838D01*
X143187666Y-143190161D01*
X143190500Y-143216519D01*
X143190500Y-148267006D01*
X143190500Y-148404994D01*
X143190500Y-148404996D01*
X143190499Y-148404996D01*
X143217418Y-148540322D01*
X143217421Y-148540332D01*
X143270222Y-148667807D01*
X143346887Y-148782545D01*
X144206454Y-149642112D01*
X144321192Y-149718777D01*
X144448667Y-149771578D01*
X144448672Y-149771580D01*
X144448676Y-149771580D01*
X144448677Y-149771581D01*
X144584003Y-149798500D01*
X144584006Y-149798500D01*
X153865996Y-149798500D01*
X153961532Y-149779496D01*
X154001328Y-149771580D01*
X154065069Y-149745177D01*
X154128807Y-149718777D01*
X154128808Y-149718776D01*
X154128811Y-149718775D01*
X154243543Y-149642114D01*
X159040114Y-144845543D01*
X159116775Y-144730811D01*
X159169580Y-144603328D01*
X159196500Y-144467993D01*
X159196500Y-144330006D01*
X159196500Y-143267102D01*
X159216185Y-143200063D01*
X159236962Y-143175465D01*
X159280409Y-143135857D01*
X159379559Y-143045471D01*
X159512520Y-142869402D01*
X159610864Y-142671901D01*
X159646734Y-142545830D01*
X159684013Y-142486737D01*
X159747323Y-142457180D01*
X159816562Y-142466542D01*
X159869749Y-142511852D01*
X159885266Y-142545831D01*
X159921134Y-142671896D01*
X159921140Y-142671911D01*
X159987911Y-142806004D01*
X160019480Y-142869402D01*
X160152439Y-143045469D01*
X160152442Y-143045472D01*
X160295038Y-143175465D01*
X160331320Y-143235176D01*
X160335500Y-143267102D01*
X160335500Y-146089481D01*
X160315815Y-146156520D01*
X160299181Y-146177162D01*
X154432162Y-152044181D01*
X154370839Y-152077666D01*
X154344481Y-152080500D01*
X139279518Y-152080500D01*
X139212479Y-152060815D01*
X139191837Y-152044181D01*
X137261819Y-150114162D01*
X137228334Y-150052839D01*
X137225500Y-150026481D01*
X137225500Y-143991734D01*
X137245185Y-143924695D01*
X137267275Y-143899881D01*
X137267107Y-143899713D01*
X137270003Y-143896816D01*
X137270838Y-143895879D01*
X137271410Y-143895410D01*
X137402685Y-143735450D01*
X137500232Y-143552954D01*
X137560300Y-143354934D01*
X137580583Y-143149000D01*
X137560300Y-142943066D01*
X137500232Y-142745046D01*
X137402685Y-142562550D01*
X137318272Y-142459692D01*
X137271410Y-142402589D01*
X137111452Y-142271317D01*
X137111453Y-142271317D01*
X137111450Y-142271315D01*
X136928954Y-142173768D01*
X136730934Y-142113700D01*
X136730932Y-142113699D01*
X136730934Y-142113699D01*
X136525000Y-142093417D01*
X136319067Y-142113699D01*
X136121043Y-142173769D01*
X136010898Y-142232643D01*
X135938550Y-142271315D01*
X135938548Y-142271316D01*
X135938547Y-142271317D01*
X135778589Y-142402589D01*
X135647317Y-142562547D01*
X135549769Y-142745043D01*
X135489699Y-142943067D01*
X135469417Y-143149000D01*
X135489699Y-143354932D01*
X135512622Y-143430500D01*
X135549768Y-143552954D01*
X135647315Y-143735450D01*
X135778590Y-143895410D01*
X135779159Y-143895877D01*
X135779379Y-143896199D01*
X135782893Y-143899713D01*
X135782226Y-143900379D01*
X135818496Y-143953618D01*
X135824500Y-143991734D01*
X135824500Y-150299006D01*
X135824500Y-150436994D01*
X135824500Y-150436996D01*
X135824499Y-150436996D01*
X135851418Y-150572322D01*
X135851421Y-150572332D01*
X135904222Y-150699807D01*
X135980887Y-150814545D01*
X135980888Y-150814546D01*
X138393886Y-153227542D01*
X138491456Y-153325112D01*
X138491459Y-153325115D01*
X138606182Y-153401771D01*
X138606186Y-153401773D01*
X138606189Y-153401775D01*
X138680866Y-153432707D01*
X138680867Y-153432707D01*
X138680869Y-153432709D01*
X138733666Y-153454578D01*
X138733671Y-153454580D01*
X138733680Y-153454581D01*
X138733681Y-153454582D01*
X138760545Y-153459925D01*
X138760551Y-153459926D01*
X138760591Y-153459934D01*
X138850937Y-153477905D01*
X138869006Y-153481500D01*
X138869007Y-153481500D01*
X154754996Y-153481500D01*
X154863457Y-153459925D01*
X154890328Y-153454580D01*
X154954069Y-153428177D01*
X155017807Y-153401777D01*
X155017808Y-153401776D01*
X155017811Y-153401775D01*
X155132543Y-153325114D01*
X161580114Y-146877543D01*
X161656775Y-146762811D01*
X161709580Y-146635328D01*
X161736500Y-146499993D01*
X161736500Y-143267102D01*
X161756185Y-143200063D01*
X161776962Y-143175465D01*
X161820409Y-143135857D01*
X161919559Y-143045471D01*
X162052520Y-142869402D01*
X162150864Y-142671901D01*
X162186734Y-142545830D01*
X162224013Y-142486737D01*
X162287323Y-142457180D01*
X162356562Y-142466542D01*
X162409749Y-142511852D01*
X162425266Y-142545831D01*
X162461134Y-142671896D01*
X162461140Y-142671911D01*
X162527911Y-142806004D01*
X162559480Y-142869402D01*
X162692439Y-143045469D01*
X162692442Y-143045472D01*
X162835038Y-143175465D01*
X162871320Y-143235176D01*
X162875500Y-143267102D01*
X162875500Y-149664006D01*
X162875500Y-149801994D01*
X162875500Y-149801996D01*
X162875499Y-149801996D01*
X162902418Y-149937322D01*
X162902421Y-149937332D01*
X162955222Y-150064807D01*
X163031887Y-150179545D01*
X165288454Y-152436112D01*
X165403192Y-152512777D01*
X165530667Y-152565578D01*
X165530672Y-152565580D01*
X165530676Y-152565580D01*
X165530677Y-152565581D01*
X165666003Y-152592500D01*
X165666006Y-152592500D01*
X177614996Y-152592500D01*
X177706040Y-152574389D01*
X177750328Y-152565580D01*
X177814069Y-152539177D01*
X177877807Y-152512777D01*
X177877808Y-152512776D01*
X177877811Y-152512775D01*
X177992543Y-152436114D01*
X180033657Y-150395000D01*
X204050564Y-150395000D01*
X204070289Y-150721099D01*
X204129178Y-151042452D01*
X204226366Y-151354342D01*
X204226370Y-151354354D01*
X204226373Y-151354361D01*
X204360455Y-151652279D01*
X204524901Y-151924306D01*
X204529473Y-151931868D01*
X204730954Y-152189039D01*
X204961960Y-152420045D01*
X205219131Y-152621526D01*
X205219134Y-152621528D01*
X205219137Y-152621530D01*
X205498721Y-152790545D01*
X205796639Y-152924627D01*
X205796652Y-152924631D01*
X205796657Y-152924633D01*
X206108547Y-153021821D01*
X206429896Y-153080710D01*
X206756000Y-153100436D01*
X207082104Y-153080710D01*
X207403453Y-153021821D01*
X207715361Y-152924627D01*
X208013279Y-152790545D01*
X208292863Y-152621530D01*
X208550036Y-152420048D01*
X208781048Y-152189036D01*
X208982530Y-151931863D01*
X209151545Y-151652279D01*
X209285627Y-151354361D01*
X209382821Y-151042453D01*
X209441710Y-150721104D01*
X209461436Y-150395000D01*
X209441710Y-150068896D01*
X209382821Y-149747547D01*
X209321894Y-149552023D01*
X209285633Y-149435657D01*
X209285631Y-149435652D01*
X209285627Y-149435639D01*
X209151545Y-149137721D01*
X208982530Y-148858137D01*
X208982528Y-148858134D01*
X208982526Y-148858131D01*
X208781045Y-148600960D01*
X208550039Y-148369954D01*
X208292868Y-148168473D01*
X208285306Y-148163901D01*
X208013279Y-147999455D01*
X207715361Y-147865373D01*
X207715354Y-147865370D01*
X207715342Y-147865366D01*
X207403452Y-147768178D01*
X207082099Y-147709289D01*
X206756000Y-147689564D01*
X206429900Y-147709289D01*
X206108547Y-147768178D01*
X205796657Y-147865366D01*
X205796641Y-147865372D01*
X205796639Y-147865373D01*
X205606933Y-147950752D01*
X205498725Y-147999453D01*
X205498723Y-147999454D01*
X205219131Y-148168473D01*
X204961960Y-148369954D01*
X204730954Y-148600960D01*
X204529473Y-148858131D01*
X204496306Y-148912996D01*
X204366094Y-149128394D01*
X204360454Y-149137723D01*
X204360453Y-149137725D01*
X204226372Y-149435642D01*
X204226366Y-149435657D01*
X204129178Y-149747547D01*
X204070289Y-150068900D01*
X204050564Y-150395000D01*
X180033657Y-150395000D01*
X181138114Y-149290543D01*
X181214775Y-149175811D01*
X181215580Y-149173869D01*
X181267578Y-149048332D01*
X181267580Y-149048328D01*
X181294500Y-148912994D01*
X181294500Y-148775006D01*
X181294500Y-143971734D01*
X181314185Y-143904695D01*
X181336275Y-143879881D01*
X181336107Y-143879713D01*
X181339003Y-143876816D01*
X181339838Y-143875879D01*
X181340410Y-143875410D01*
X181471685Y-143715450D01*
X181569232Y-143532954D01*
X181629300Y-143334934D01*
X181649583Y-143129000D01*
X181629300Y-142923066D01*
X181569232Y-142725046D01*
X181471685Y-142542550D01*
X181378052Y-142428457D01*
X181340410Y-142382589D01*
X181222677Y-142285969D01*
X181180450Y-142251315D01*
X180997954Y-142153768D01*
X180799934Y-142093700D01*
X180799932Y-142093699D01*
X180799934Y-142093699D01*
X180594000Y-142073417D01*
X180388067Y-142093699D01*
X180190043Y-142153769D01*
X180079898Y-142212643D01*
X180007550Y-142251315D01*
X180007548Y-142251316D01*
X180007547Y-142251317D01*
X179847589Y-142382589D01*
X179716317Y-142542547D01*
X179716315Y-142542550D01*
X179705625Y-142562550D01*
X179618769Y-142725043D01*
X179558699Y-142923067D01*
X179538417Y-143129000D01*
X179558699Y-143334932D01*
X179558700Y-143334934D01*
X179618768Y-143532954D01*
X179716315Y-143715450D01*
X179847590Y-143875410D01*
X179848159Y-143875877D01*
X179848379Y-143876199D01*
X179851893Y-143879713D01*
X179851226Y-143880379D01*
X179887496Y-143933618D01*
X179893500Y-143971734D01*
X179893500Y-148502481D01*
X179873815Y-148569520D01*
X179857181Y-148590162D01*
X177292162Y-151155181D01*
X177230839Y-151188666D01*
X177204481Y-151191500D01*
X166076519Y-151191500D01*
X166009480Y-151171815D01*
X165988838Y-151155181D01*
X164312819Y-149479162D01*
X164279334Y-149417839D01*
X164276500Y-149391481D01*
X164276500Y-143267102D01*
X164296185Y-143200063D01*
X164316962Y-143175465D01*
X164360409Y-143135857D01*
X164459559Y-143045471D01*
X164592520Y-142869402D01*
X164690864Y-142671901D01*
X164726734Y-142545830D01*
X164764013Y-142486737D01*
X164827323Y-142457180D01*
X164896562Y-142466542D01*
X164949749Y-142511852D01*
X164965266Y-142545831D01*
X165001134Y-142671896D01*
X165001140Y-142671911D01*
X165067911Y-142806004D01*
X165099480Y-142869402D01*
X165232439Y-143045469D01*
X165232442Y-143045472D01*
X165375038Y-143175465D01*
X165411320Y-143235176D01*
X165415500Y-143267102D01*
X165415500Y-143822006D01*
X165415500Y-143959994D01*
X165415500Y-143959996D01*
X165415499Y-143959996D01*
X165442418Y-144095322D01*
X165442421Y-144095332D01*
X165495222Y-144222807D01*
X165571887Y-144337545D01*
X169479454Y-148245112D01*
X169594192Y-148321777D01*
X169721667Y-148374578D01*
X169721672Y-148374580D01*
X169721676Y-148374580D01*
X169721677Y-148374581D01*
X169857003Y-148401500D01*
X169857006Y-148401500D01*
X173169996Y-148401500D01*
X173261040Y-148383389D01*
X173305328Y-148374580D01*
X173369069Y-148348177D01*
X173432807Y-148321777D01*
X173432808Y-148321776D01*
X173432811Y-148321775D01*
X173547543Y-148245114D01*
X177328114Y-144464543D01*
X177404775Y-144349811D01*
X177412979Y-144330006D01*
X177457380Y-144222811D01*
X177457580Y-144222328D01*
X177466389Y-144178040D01*
X177484500Y-144086996D01*
X177484500Y-141413500D01*
X177504185Y-141346461D01*
X177556989Y-141300706D01*
X177608500Y-141289500D01*
X179419500Y-141289500D01*
X179486539Y-141309185D01*
X179532294Y-141361989D01*
X179543500Y-141413500D01*
X179543500Y-141458752D01*
X179555131Y-141517229D01*
X179555132Y-141517230D01*
X179599447Y-141583552D01*
X179665769Y-141627867D01*
X179665770Y-141627868D01*
X179724247Y-141639499D01*
X179724250Y-141639500D01*
X179724252Y-141639500D01*
X181463750Y-141639500D01*
X181463751Y-141639499D01*
X181478568Y-141636552D01*
X181522229Y-141627868D01*
X181522229Y-141627867D01*
X181522231Y-141627867D01*
X181588552Y-141583552D01*
X181632867Y-141517231D01*
X181632867Y-141517229D01*
X181632868Y-141517229D01*
X181644499Y-141458752D01*
X181644500Y-141458750D01*
X181644500Y-139719249D01*
X181644499Y-139719247D01*
X181632868Y-139660770D01*
X181632867Y-139660769D01*
X181588552Y-139594447D01*
X181522230Y-139550132D01*
X181522229Y-139550131D01*
X181463752Y-139538500D01*
X181463748Y-139538500D01*
X179724252Y-139538500D01*
X179724247Y-139538500D01*
X179665770Y-139550131D01*
X179665769Y-139550132D01*
X179599447Y-139594447D01*
X179555132Y-139660769D01*
X179555131Y-139660770D01*
X179543500Y-139719247D01*
X179543500Y-139764500D01*
X179523815Y-139831539D01*
X179471011Y-139877294D01*
X179419500Y-139888500D01*
X176842005Y-139888500D01*
X176706677Y-139915418D01*
X176706667Y-139915421D01*
X176579192Y-139968222D01*
X176464454Y-140044887D01*
X176464453Y-140044888D01*
X176239884Y-140269458D01*
X176237162Y-140273534D01*
X176237156Y-140273543D01*
X176163223Y-140384191D01*
X176110421Y-140511667D01*
X176110418Y-140511677D01*
X176083500Y-140647004D01*
X176083500Y-143676481D01*
X176063815Y-143743520D01*
X176047181Y-143764162D01*
X172847162Y-146964181D01*
X172785839Y-146997666D01*
X172759481Y-147000500D01*
X170267519Y-147000500D01*
X170200480Y-146980815D01*
X170179838Y-146964181D01*
X166852819Y-143637162D01*
X166819334Y-143575839D01*
X166816500Y-143549481D01*
X166816500Y-143267102D01*
X166836185Y-143200063D01*
X166856962Y-143175465D01*
X166900409Y-143135857D01*
X166999559Y-143045471D01*
X167132520Y-142869402D01*
X167230864Y-142671901D01*
X167266734Y-142545830D01*
X167304013Y-142486737D01*
X167367323Y-142457180D01*
X167436562Y-142466542D01*
X167489749Y-142511852D01*
X167505266Y-142545831D01*
X167541134Y-142671896D01*
X167541140Y-142671911D01*
X167607911Y-142806004D01*
X167639480Y-142869402D01*
X167772441Y-143045471D01*
X167935490Y-143194109D01*
X168123075Y-143310257D01*
X168328809Y-143389959D01*
X168545684Y-143430500D01*
X168545686Y-143430500D01*
X168766314Y-143430500D01*
X168766316Y-143430500D01*
X168983191Y-143389959D01*
X169188925Y-143310257D01*
X169376510Y-143194109D01*
X169539559Y-143045471D01*
X169672520Y-142869402D01*
X169770864Y-142671901D01*
X169831243Y-142459691D01*
X169851600Y-142240000D01*
X169831243Y-142020309D01*
X169770864Y-141808099D01*
X169672520Y-141610598D01*
X169572952Y-141478748D01*
X169539557Y-141434526D01*
X169396962Y-141304534D01*
X169360680Y-141244823D01*
X169356500Y-141212897D01*
X169356500Y-140168519D01*
X169376185Y-140101480D01*
X169392819Y-140080838D01*
X171957838Y-137515819D01*
X172019161Y-137482334D01*
X172045519Y-137479500D01*
X198188995Y-137479500D01*
X198280041Y-137461389D01*
X198324328Y-137452580D01*
X198451811Y-137399775D01*
X198566542Y-137323114D01*
X198664114Y-137225542D01*
X198740775Y-137110811D01*
X198793580Y-136983328D01*
X198820500Y-136847993D01*
X198820500Y-132810793D01*
X204050564Y-132810793D01*
X204070289Y-133136892D01*
X204129178Y-133458245D01*
X204226366Y-133770135D01*
X204226370Y-133770147D01*
X204226373Y-133770154D01*
X204360455Y-134068072D01*
X204385407Y-134109347D01*
X204529473Y-134347661D01*
X204730954Y-134604832D01*
X204961960Y-134835838D01*
X205219131Y-135037319D01*
X205219134Y-135037321D01*
X205219137Y-135037323D01*
X205498721Y-135206338D01*
X205796639Y-135340420D01*
X205796652Y-135340424D01*
X205796657Y-135340426D01*
X206108547Y-135437614D01*
X206429896Y-135496503D01*
X206756000Y-135516229D01*
X207082104Y-135496503D01*
X207403453Y-135437614D01*
X207715361Y-135340420D01*
X208013279Y-135206338D01*
X208292863Y-135037323D01*
X208550036Y-134835841D01*
X208781048Y-134604829D01*
X208982530Y-134347656D01*
X209151545Y-134068072D01*
X209285627Y-133770154D01*
X209382821Y-133458246D01*
X209441710Y-133136897D01*
X209461436Y-132810793D01*
X209441710Y-132484689D01*
X209382821Y-132163340D01*
X209358411Y-132085004D01*
X209285633Y-131851450D01*
X209285631Y-131851445D01*
X209285627Y-131851432D01*
X209151545Y-131553514D01*
X208982530Y-131273930D01*
X208982528Y-131273927D01*
X208982526Y-131273924D01*
X208781045Y-131016753D01*
X208550039Y-130785747D01*
X208292868Y-130584266D01*
X208246107Y-130555998D01*
X208013279Y-130415248D01*
X207715361Y-130281166D01*
X207715354Y-130281163D01*
X207715342Y-130281159D01*
X207403452Y-130183971D01*
X207082099Y-130125082D01*
X206756000Y-130105357D01*
X206429900Y-130125082D01*
X206108547Y-130183971D01*
X205796657Y-130281159D01*
X205796641Y-130281165D01*
X205796639Y-130281166D01*
X205699355Y-130324950D01*
X205498725Y-130415246D01*
X205498723Y-130415247D01*
X205219131Y-130584266D01*
X204961960Y-130785747D01*
X204730954Y-131016753D01*
X204529473Y-131273924D01*
X204360454Y-131553516D01*
X204360453Y-131553518D01*
X204341414Y-131595821D01*
X204246677Y-131806320D01*
X204226372Y-131851435D01*
X204226366Y-131851450D01*
X204129178Y-132163340D01*
X204070289Y-132484693D01*
X204050564Y-132810793D01*
X198820500Y-132810793D01*
X198820500Y-109254007D01*
X198820500Y-109254004D01*
X198793581Y-109118677D01*
X198793580Y-109118676D01*
X198793580Y-109118672D01*
X198789047Y-109107729D01*
X198740776Y-108991191D01*
X198740775Y-108991189D01*
X198710657Y-108946114D01*
X198664114Y-108876457D01*
X198664111Y-108876453D01*
X195799278Y-106011620D01*
X203572394Y-106011620D01*
X203592119Y-106337720D01*
X203651008Y-106659073D01*
X203748196Y-106970963D01*
X203748200Y-106970975D01*
X203748203Y-106970982D01*
X203882285Y-107268900D01*
X203994704Y-107454863D01*
X204051303Y-107548489D01*
X204252784Y-107805660D01*
X204483790Y-108036666D01*
X204740961Y-108238147D01*
X204740964Y-108238149D01*
X204740967Y-108238151D01*
X205020551Y-108407166D01*
X205318469Y-108541248D01*
X205318482Y-108541252D01*
X205318487Y-108541254D01*
X205582221Y-108623436D01*
X205630377Y-108638442D01*
X205951726Y-108697331D01*
X206277830Y-108717057D01*
X206603934Y-108697331D01*
X206925283Y-108638442D01*
X207237191Y-108541248D01*
X207535109Y-108407166D01*
X207814693Y-108238151D01*
X208071866Y-108036669D01*
X208302878Y-107805657D01*
X208504360Y-107548484D01*
X208673375Y-107268900D01*
X208807457Y-106970982D01*
X208807728Y-106970114D01*
X208845657Y-106848393D01*
X208904651Y-106659074D01*
X208963540Y-106337725D01*
X208983266Y-106011621D01*
X208982775Y-106003504D01*
X208982775Y-105988529D01*
X208983266Y-105980414D01*
X208963540Y-105654310D01*
X208904651Y-105332961D01*
X208881124Y-105257459D01*
X208807463Y-105021071D01*
X208807461Y-105021066D01*
X208807457Y-105021053D01*
X208673375Y-104723135D01*
X208504360Y-104443551D01*
X208504358Y-104443548D01*
X208504356Y-104443545D01*
X208302875Y-104186374D01*
X208071869Y-103955368D01*
X207814698Y-103753887D01*
X207787677Y-103737552D01*
X207535109Y-103584869D01*
X207237191Y-103450787D01*
X207237184Y-103450784D01*
X207237172Y-103450780D01*
X206925282Y-103353592D01*
X206603929Y-103294703D01*
X206277830Y-103274978D01*
X205951730Y-103294703D01*
X205630377Y-103353592D01*
X205318487Y-103450780D01*
X205318471Y-103450786D01*
X205318469Y-103450787D01*
X205020551Y-103584869D01*
X205014538Y-103588504D01*
X204740961Y-103753887D01*
X204483790Y-103955368D01*
X204252784Y-104186374D01*
X204051303Y-104443545D01*
X203945539Y-104618500D01*
X203898164Y-104696869D01*
X203882284Y-104723137D01*
X203882283Y-104723139D01*
X203854051Y-104785868D01*
X203750412Y-105016146D01*
X203748202Y-105021056D01*
X203748196Y-105021071D01*
X203651008Y-105332961D01*
X203592119Y-105654314D01*
X203572394Y-105980413D01*
X203572885Y-105988545D01*
X203572885Y-106003488D01*
X203572394Y-106011620D01*
X195799278Y-106011620D01*
X194780545Y-104992887D01*
X194665807Y-104916222D01*
X194538332Y-104863421D01*
X194538322Y-104863418D01*
X194402996Y-104836500D01*
X194402994Y-104836500D01*
X194402993Y-104836500D01*
X193360925Y-104836500D01*
X193293886Y-104816815D01*
X193264614Y-104789170D01*
X193264131Y-104789584D01*
X193260960Y-104785872D01*
X193132631Y-104657543D01*
X193132629Y-104657541D01*
X192985804Y-104550866D01*
X192824095Y-104468471D01*
X192651498Y-104412391D01*
X192538173Y-104394442D01*
X192506796Y-104389472D01*
X192443662Y-104359544D01*
X192406731Y-104300232D01*
X192407729Y-104230370D01*
X192446339Y-104172137D01*
X192506796Y-104144527D01*
X192651495Y-104121609D01*
X192651498Y-104121608D01*
X192651499Y-104121608D01*
X192824095Y-104065528D01*
X192824095Y-104065527D01*
X192824098Y-104065527D01*
X192985804Y-103983134D01*
X193132629Y-103876459D01*
X193260959Y-103748129D01*
X193367634Y-103601304D01*
X193450027Y-103439598D01*
X193466673Y-103388366D01*
X193506108Y-103266999D01*
X193506108Y-103266998D01*
X193506109Y-103266995D01*
X193534500Y-103087743D01*
X193534500Y-102906257D01*
X193506109Y-102727005D01*
X193506108Y-102727001D01*
X193506108Y-102727000D01*
X193450028Y-102554404D01*
X193404778Y-102465596D01*
X193367634Y-102392696D01*
X193260959Y-102245871D01*
X193132629Y-102117541D01*
X193085613Y-102083381D01*
X193042948Y-102028050D01*
X193034500Y-101983064D01*
X193034500Y-100134004D01*
X193007581Y-99998677D01*
X193007580Y-99998676D01*
X193007580Y-99998672D01*
X192954775Y-99871189D01*
X192889448Y-99773420D01*
X192889446Y-99773417D01*
X192878116Y-99756459D01*
X192878114Y-99756457D01*
X185947989Y-92826332D01*
X188810564Y-92826332D01*
X188830289Y-93152431D01*
X188889178Y-93473784D01*
X188986366Y-93785674D01*
X188986370Y-93785686D01*
X188986373Y-93785693D01*
X189120455Y-94083611D01*
X189145407Y-94124886D01*
X189289473Y-94363200D01*
X189490954Y-94620371D01*
X189721960Y-94851377D01*
X189979131Y-95052858D01*
X189979134Y-95052860D01*
X189979137Y-95052862D01*
X190258721Y-95221877D01*
X190556639Y-95355959D01*
X190556652Y-95355963D01*
X190556657Y-95355965D01*
X190800090Y-95431821D01*
X190868547Y-95453153D01*
X191189896Y-95512042D01*
X191516000Y-95531768D01*
X191842104Y-95512042D01*
X192163453Y-95453153D01*
X192475361Y-95355959D01*
X192773279Y-95221877D01*
X193052863Y-95052862D01*
X193310036Y-94851380D01*
X193541048Y-94620368D01*
X193742530Y-94363195D01*
X193911545Y-94083611D01*
X194045627Y-93785693D01*
X194142821Y-93473785D01*
X194201710Y-93152436D01*
X194221436Y-92826332D01*
X194201710Y-92500228D01*
X194142821Y-92178879D01*
X194103169Y-92051630D01*
X194045633Y-91866989D01*
X194045631Y-91866984D01*
X194045627Y-91866971D01*
X193911545Y-91569053D01*
X193742530Y-91289469D01*
X193742528Y-91289466D01*
X193742526Y-91289463D01*
X193541045Y-91032292D01*
X193310039Y-90801286D01*
X193052868Y-90599805D01*
X193017576Y-90578470D01*
X192773279Y-90430787D01*
X192475361Y-90296705D01*
X192475354Y-90296702D01*
X192475342Y-90296698D01*
X192163452Y-90199510D01*
X191842099Y-90140621D01*
X191516000Y-90120896D01*
X191189900Y-90140621D01*
X190868547Y-90199510D01*
X190556657Y-90296698D01*
X190556641Y-90296704D01*
X190556639Y-90296705D01*
X190366933Y-90382084D01*
X190258725Y-90430785D01*
X190258723Y-90430786D01*
X189979131Y-90599805D01*
X189721960Y-90801286D01*
X189490954Y-91032292D01*
X189289473Y-91289463D01*
X189200554Y-91436553D01*
X189133350Y-91547723D01*
X189120454Y-91569055D01*
X189120453Y-91569057D01*
X189084255Y-91649486D01*
X188995973Y-91845642D01*
X188986372Y-91866974D01*
X188986366Y-91866989D01*
X188889178Y-92178879D01*
X188830289Y-92500232D01*
X188810564Y-92826332D01*
X185947989Y-92826332D01*
X178429546Y-85307888D01*
X178429545Y-85307887D01*
X178314807Y-85231222D01*
X178187332Y-85178421D01*
X178187322Y-85178418D01*
X178051996Y-85151500D01*
X178051994Y-85151500D01*
X178051993Y-85151500D01*
X139387993Y-85151500D01*
X139250007Y-85151500D01*
X139250005Y-85151500D01*
X139114677Y-85178418D01*
X139114667Y-85178421D01*
X138987195Y-85231221D01*
X138987182Y-85231228D01*
X138872458Y-85307885D01*
X138872454Y-85307888D01*
X138774888Y-85405454D01*
X138774885Y-85405458D01*
X138698228Y-85520182D01*
X138698221Y-85520195D01*
X138645421Y-85647667D01*
X138645418Y-85647677D01*
X138618500Y-85783004D01*
X138618500Y-85783007D01*
X138618500Y-98356006D01*
X138618500Y-98493994D01*
X138618500Y-98493996D01*
X138618499Y-98493996D01*
X138645418Y-98629322D01*
X138645421Y-98629332D01*
X138698222Y-98756807D01*
X138774887Y-98871545D01*
X138774888Y-98871546D01*
X140364231Y-100460888D01*
X140397716Y-100522211D01*
X140398167Y-100524377D01*
X140423418Y-100651322D01*
X140423421Y-100651332D01*
X140476222Y-100778807D01*
X140552887Y-100893545D01*
X140552888Y-100893546D01*
X141074681Y-101415338D01*
X141108166Y-101476661D01*
X141110403Y-101490865D01*
X141126975Y-101659129D01*
X141184188Y-101847733D01*
X141277086Y-102021532D01*
X141277090Y-102021539D01*
X141402116Y-102173883D01*
X141554460Y-102298909D01*
X141554467Y-102298913D01*
X141728266Y-102391811D01*
X141728269Y-102391811D01*
X141728273Y-102391814D01*
X141916868Y-102449024D01*
X142113000Y-102468341D01*
X142309132Y-102449024D01*
X142497727Y-102391814D01*
X142671538Y-102298910D01*
X142823883Y-102173883D01*
X142948910Y-102021538D01*
X143032763Y-101864661D01*
X143041811Y-101847733D01*
X143041811Y-101847732D01*
X143041814Y-101847727D01*
X143099024Y-101659132D01*
X143118341Y-101463000D01*
X143099024Y-101266868D01*
X143082683Y-101212999D01*
X143374127Y-101212999D01*
X143374128Y-101213000D01*
X144219988Y-101213000D01*
X144187075Y-101270007D01*
X144153000Y-101397174D01*
X144153000Y-101528826D01*
X144187075Y-101655993D01*
X144219988Y-101713000D01*
X143374128Y-101713000D01*
X143426730Y-101909317D01*
X143426734Y-101909326D01*
X143522865Y-102115482D01*
X143653342Y-102301820D01*
X143814179Y-102462657D01*
X144000517Y-102593134D01*
X144206673Y-102689265D01*
X144206682Y-102689269D01*
X144402999Y-102741872D01*
X144403000Y-102741871D01*
X144403000Y-101896012D01*
X144460007Y-101928925D01*
X144587174Y-101963000D01*
X144718826Y-101963000D01*
X144845993Y-101928925D01*
X144903000Y-101896012D01*
X144903000Y-102741872D01*
X145099317Y-102689269D01*
X145099326Y-102689265D01*
X145305482Y-102593134D01*
X145491820Y-102462657D01*
X145652657Y-102301820D01*
X145783134Y-102115482D01*
X145879265Y-101909326D01*
X145879269Y-101909317D01*
X145931872Y-101713000D01*
X145086012Y-101713000D01*
X145118925Y-101655993D01*
X145153000Y-101528826D01*
X145153000Y-101397174D01*
X145118925Y-101270007D01*
X145086012Y-101213000D01*
X145931872Y-101213000D01*
X145931872Y-101212999D01*
X145879269Y-101016682D01*
X145879265Y-101016673D01*
X145783134Y-100810517D01*
X145652657Y-100624179D01*
X145491820Y-100463342D01*
X145305482Y-100332865D01*
X145099328Y-100236734D01*
X144903000Y-100184127D01*
X144903000Y-101029988D01*
X144845993Y-100997075D01*
X144718826Y-100963000D01*
X144587174Y-100963000D01*
X144460007Y-100997075D01*
X144403000Y-101029988D01*
X144403000Y-100184127D01*
X144206671Y-100236734D01*
X144000517Y-100332865D01*
X143814179Y-100463342D01*
X143653342Y-100624179D01*
X143522865Y-100810517D01*
X143426734Y-101016673D01*
X143426730Y-101016682D01*
X143374127Y-101212999D01*
X143082683Y-101212999D01*
X143041814Y-101078273D01*
X143041811Y-101078267D01*
X143041811Y-101078266D01*
X142948913Y-100904467D01*
X142948909Y-100904460D01*
X142823883Y-100752116D01*
X142671539Y-100627090D01*
X142671532Y-100627086D01*
X142497733Y-100534188D01*
X142497727Y-100534186D01*
X142309132Y-100476976D01*
X142309129Y-100476975D01*
X142140865Y-100460403D01*
X142076078Y-100434242D01*
X142065338Y-100424681D01*
X141829768Y-100189111D01*
X141796283Y-100127788D01*
X141795832Y-100125621D01*
X141770581Y-99998679D01*
X141770581Y-99998677D01*
X141770580Y-99998672D01*
X141717775Y-99871189D01*
X141652448Y-99773420D01*
X141652446Y-99773417D01*
X141641116Y-99756459D01*
X140055819Y-98171162D01*
X140022334Y-98109839D01*
X140019500Y-98083481D01*
X140019500Y-86676500D01*
X140039185Y-86609461D01*
X140091989Y-86563706D01*
X140143500Y-86552500D01*
X177641481Y-86552500D01*
X177708520Y-86572185D01*
X177729162Y-86588819D01*
X191597181Y-100456838D01*
X191630666Y-100518161D01*
X191633500Y-100544519D01*
X191633500Y-101983064D01*
X191613815Y-102050103D01*
X191582387Y-102083381D01*
X191535371Y-102117540D01*
X191407043Y-102245868D01*
X191407043Y-102245869D01*
X191407041Y-102245871D01*
X191368506Y-102298910D01*
X191300366Y-102392695D01*
X191217971Y-102554404D01*
X191161891Y-102727000D01*
X191161891Y-102727003D01*
X191133500Y-102906257D01*
X191133500Y-103087742D01*
X191161891Y-103266996D01*
X191161891Y-103266999D01*
X191217971Y-103439595D01*
X191273013Y-103547621D01*
X191300366Y-103601304D01*
X191407041Y-103748129D01*
X191535371Y-103876459D01*
X191682196Y-103983134D01*
X191843902Y-104065527D01*
X191843904Y-104065528D01*
X192016501Y-104121608D01*
X192016502Y-104121608D01*
X192016505Y-104121609D01*
X192151331Y-104142963D01*
X192161202Y-104144527D01*
X192224337Y-104174456D01*
X192261268Y-104233768D01*
X192260270Y-104303630D01*
X192221660Y-104361863D01*
X192161202Y-104389473D01*
X192016503Y-104412391D01*
X192016500Y-104412391D01*
X191843904Y-104468471D01*
X191682195Y-104550866D01*
X191598426Y-104611728D01*
X191535371Y-104657541D01*
X191535369Y-104657543D01*
X191535368Y-104657543D01*
X191407043Y-104785868D01*
X191407043Y-104785869D01*
X191407041Y-104785871D01*
X191384559Y-104816815D01*
X191300366Y-104932695D01*
X191217971Y-105094404D01*
X191161891Y-105267000D01*
X191161891Y-105267003D01*
X191133500Y-105446257D01*
X191133500Y-105627743D01*
X191142073Y-105681868D01*
X191161891Y-105806996D01*
X191161891Y-105806999D01*
X191217971Y-105979595D01*
X191293820Y-106128456D01*
X191300366Y-106141304D01*
X191407041Y-106288129D01*
X191535371Y-106416459D01*
X191682196Y-106523134D01*
X191787194Y-106576633D01*
X191843904Y-106605528D01*
X192016501Y-106661608D01*
X192016502Y-106661608D01*
X192016505Y-106661609D01*
X192086177Y-106672644D01*
X192117006Y-106677527D01*
X192180141Y-106707456D01*
X192217072Y-106766768D01*
X192216074Y-106836630D01*
X192177464Y-106894863D01*
X192113501Y-106922977D01*
X192097608Y-106924000D01*
X191314247Y-106924000D01*
X191255770Y-106935631D01*
X191255769Y-106935632D01*
X191189447Y-106979947D01*
X191145132Y-107046269D01*
X191145131Y-107046270D01*
X191133500Y-107104747D01*
X191133500Y-108560480D01*
X191113815Y-108627519D01*
X191097181Y-108648161D01*
X184574388Y-115170953D01*
X184574387Y-115170954D01*
X184497722Y-115285692D01*
X184444921Y-115413167D01*
X184444918Y-115413177D01*
X184418000Y-115548504D01*
X184418000Y-128358980D01*
X184398315Y-128426019D01*
X184345511Y-128471774D01*
X184276353Y-128481718D01*
X184212797Y-128452693D01*
X184206319Y-128446661D01*
X182596545Y-126836887D01*
X182481807Y-126760222D01*
X182354332Y-126707421D01*
X182354322Y-126707418D01*
X182218996Y-126680500D01*
X182218994Y-126680500D01*
X182218993Y-126680500D01*
X174048007Y-126680500D01*
X174048003Y-126680500D01*
X173939590Y-126702065D01*
X173939589Y-126702065D01*
X173912681Y-126707418D01*
X173912671Y-126707420D01*
X173785190Y-126760224D01*
X173670454Y-126836887D01*
X173670453Y-126836888D01*
X168402162Y-132105181D01*
X168340839Y-132138666D01*
X168314481Y-132141500D01*
X158554003Y-132141500D01*
X158445590Y-132163065D01*
X158445589Y-132163065D01*
X158432131Y-132165742D01*
X158418673Y-132168419D01*
X158365866Y-132190291D01*
X158365866Y-132190292D01*
X158318774Y-132209798D01*
X158291186Y-132221226D01*
X158281034Y-132228010D01*
X158280923Y-132228084D01*
X158176457Y-132297886D01*
X158176453Y-132297889D01*
X150331888Y-140142453D01*
X150331887Y-140142454D01*
X150255222Y-140257192D01*
X150202421Y-140384667D01*
X150202418Y-140384679D01*
X150176481Y-140515073D01*
X150176480Y-140515078D01*
X150175501Y-140519996D01*
X150175500Y-140520011D01*
X150175500Y-141212897D01*
X150155815Y-141279936D01*
X150135038Y-141304534D01*
X149992442Y-141434526D01*
X149859480Y-141610597D01*
X149761140Y-141808088D01*
X149761134Y-141808103D01*
X149700757Y-142020307D01*
X149700756Y-142020309D01*
X149680400Y-142239999D01*
X149680400Y-142240000D01*
X149700756Y-142459690D01*
X149700757Y-142459692D01*
X149761134Y-142671896D01*
X149761140Y-142671911D01*
X149827911Y-142806004D01*
X149859480Y-142869402D01*
X149992441Y-143045471D01*
X150155490Y-143194109D01*
X150343075Y-143310257D01*
X150548809Y-143389959D01*
X150765684Y-143430500D01*
X150765686Y-143430500D01*
X150986314Y-143430500D01*
X150986316Y-143430500D01*
X151203191Y-143389959D01*
X151408925Y-143310257D01*
X151596510Y-143194109D01*
X151759559Y-143045471D01*
X151892520Y-142869402D01*
X151990864Y-142671901D01*
X152026734Y-142545830D01*
X152064013Y-142486737D01*
X152127323Y-142457180D01*
X152196562Y-142466542D01*
X152249749Y-142511852D01*
X152265266Y-142545831D01*
X152301134Y-142671896D01*
X152301140Y-142671911D01*
X152367911Y-142806004D01*
X152399480Y-142869402D01*
X152532439Y-143045469D01*
X152532442Y-143045472D01*
X152675038Y-143175465D01*
X152711320Y-143235176D01*
X152715500Y-143267102D01*
X152715500Y-145327481D01*
X152695815Y-145394520D01*
X152679181Y-145415162D01*
X152400162Y-145694181D01*
X152338839Y-145727666D01*
X152312481Y-145730500D01*
X150963519Y-145730500D01*
X150896480Y-145710815D01*
X150875838Y-145694181D01*
X133669546Y-128487888D01*
X133669545Y-128487887D01*
X133554807Y-128411222D01*
X133427332Y-128358421D01*
X133427322Y-128358418D01*
X133291996Y-128331500D01*
X133291994Y-128331500D01*
X133291993Y-128331500D01*
X130135519Y-128331500D01*
X130068480Y-128311815D01*
X130047838Y-128295181D01*
X128752819Y-127000162D01*
X128719334Y-126938839D01*
X128716500Y-126912481D01*
X128716500Y-125302734D01*
X128736185Y-125235695D01*
X128758275Y-125210881D01*
X128758107Y-125210713D01*
X128761003Y-125207816D01*
X128761838Y-125206879D01*
X128762410Y-125206410D01*
X128893685Y-125046450D01*
X128991232Y-124863954D01*
X129011406Y-124797446D01*
X129049702Y-124739010D01*
X129113514Y-124710553D01*
X129182581Y-124721112D01*
X129234975Y-124767336D01*
X129249841Y-124801349D01*
X129282567Y-124923486D01*
X129282570Y-124923492D01*
X129382399Y-125137578D01*
X129517894Y-125331082D01*
X129684917Y-125498105D01*
X129878421Y-125633600D01*
X130092507Y-125733429D01*
X130092516Y-125733433D01*
X130306000Y-125790634D01*
X130306000Y-124893012D01*
X130363007Y-124925925D01*
X130490174Y-124960000D01*
X130621826Y-124960000D01*
X130748993Y-124925925D01*
X130806000Y-124893012D01*
X130806000Y-125790633D01*
X131019483Y-125733433D01*
X131019492Y-125733429D01*
X131233578Y-125633600D01*
X131264648Y-125611844D01*
X144065000Y-125611844D01*
X144071401Y-125671372D01*
X144071403Y-125671379D01*
X144121645Y-125806086D01*
X144121649Y-125806093D01*
X144207809Y-125921187D01*
X144207812Y-125921190D01*
X144322906Y-126007350D01*
X144322913Y-126007354D01*
X144454986Y-126056614D01*
X144510920Y-126098485D01*
X144535337Y-126163949D01*
X144520486Y-126232222D01*
X144499335Y-126260477D01*
X144376886Y-126382926D01*
X144241400Y-126576420D01*
X144241399Y-126576422D01*
X144141570Y-126790507D01*
X144141567Y-126790513D01*
X144084364Y-127003999D01*
X144084364Y-127004000D01*
X144981988Y-127004000D01*
X144949075Y-127061007D01*
X144915000Y-127188174D01*
X144915000Y-127319826D01*
X144949075Y-127446993D01*
X144981988Y-127504000D01*
X144084364Y-127504000D01*
X144141567Y-127717486D01*
X144141570Y-127717492D01*
X144241399Y-127931578D01*
X144376894Y-128125082D01*
X144543917Y-128292105D01*
X144737421Y-128427600D01*
X144951507Y-128527429D01*
X144951516Y-128527433D01*
X145165000Y-128584634D01*
X145165000Y-127687012D01*
X145222007Y-127719925D01*
X145349174Y-127754000D01*
X145480826Y-127754000D01*
X145607993Y-127719925D01*
X145665000Y-127687012D01*
X145665000Y-128584633D01*
X145878483Y-128527433D01*
X145878492Y-128527429D01*
X146092578Y-128427600D01*
X146286082Y-128292105D01*
X146453105Y-128125082D01*
X146588600Y-127931578D01*
X146688429Y-127717492D01*
X146688432Y-127717486D01*
X146745636Y-127504000D01*
X145848012Y-127504000D01*
X145880925Y-127446993D01*
X145915000Y-127319826D01*
X145915000Y-127188174D01*
X145880925Y-127061007D01*
X145848012Y-127004000D01*
X146745636Y-127004000D01*
X146745635Y-127003999D01*
X146688432Y-126790513D01*
X146688429Y-126790507D01*
X146588600Y-126576422D01*
X146588599Y-126576420D01*
X146453113Y-126382926D01*
X146453108Y-126382920D01*
X146330665Y-126260477D01*
X146297180Y-126199154D01*
X146302164Y-126129462D01*
X146344036Y-126073529D01*
X146375013Y-126056614D01*
X146507086Y-126007354D01*
X146507093Y-126007350D01*
X146622187Y-125921190D01*
X146622190Y-125921187D01*
X146708350Y-125806093D01*
X146708354Y-125806086D01*
X146758596Y-125671379D01*
X146758598Y-125671372D01*
X146764999Y-125611844D01*
X146765000Y-125611827D01*
X146765000Y-124964000D01*
X145848012Y-124964000D01*
X145880925Y-124906993D01*
X145915000Y-124779826D01*
X145915000Y-124648174D01*
X145880925Y-124521007D01*
X145848012Y-124464000D01*
X146765000Y-124464000D01*
X146765000Y-123816172D01*
X146764999Y-123816155D01*
X146758598Y-123756627D01*
X146758596Y-123756620D01*
X146708354Y-123621913D01*
X146708350Y-123621906D01*
X146622190Y-123506812D01*
X146622187Y-123506809D01*
X146507093Y-123420649D01*
X146507086Y-123420645D01*
X146372379Y-123370403D01*
X146372372Y-123370401D01*
X146312844Y-123364000D01*
X145665000Y-123364000D01*
X145665000Y-124280988D01*
X145607993Y-124248075D01*
X145480826Y-124214000D01*
X145349174Y-124214000D01*
X145222007Y-124248075D01*
X145165000Y-124280988D01*
X145165000Y-123364000D01*
X144517155Y-123364000D01*
X144457627Y-123370401D01*
X144457620Y-123370403D01*
X144322913Y-123420645D01*
X144322906Y-123420649D01*
X144207812Y-123506809D01*
X144207809Y-123506812D01*
X144121649Y-123621906D01*
X144121645Y-123621913D01*
X144071403Y-123756620D01*
X144071401Y-123756627D01*
X144065000Y-123816155D01*
X144065000Y-124464000D01*
X144981988Y-124464000D01*
X144949075Y-124521007D01*
X144915000Y-124648174D01*
X144915000Y-124779826D01*
X144949075Y-124906993D01*
X144981988Y-124964000D01*
X144065000Y-124964000D01*
X144065000Y-125611844D01*
X131264648Y-125611844D01*
X131427082Y-125498105D01*
X131594105Y-125331082D01*
X131729600Y-125137578D01*
X131829429Y-124923492D01*
X131829433Y-124923483D01*
X131862158Y-124801350D01*
X131898522Y-124741690D01*
X131961369Y-124711160D01*
X132030745Y-124719454D01*
X132084623Y-124763939D01*
X132100593Y-124797447D01*
X132120768Y-124863954D01*
X132218315Y-125046450D01*
X132218317Y-125046452D01*
X132349589Y-125206410D01*
X132420517Y-125264618D01*
X132509550Y-125337685D01*
X132692046Y-125435232D01*
X132890066Y-125495300D01*
X132890065Y-125495300D01*
X132908529Y-125497118D01*
X133096000Y-125515583D01*
X133301934Y-125495300D01*
X133499954Y-125435232D01*
X133682450Y-125337685D01*
X133842410Y-125206410D01*
X133973685Y-125046450D01*
X134071232Y-124863954D01*
X134131300Y-124665934D01*
X134151583Y-124460000D01*
X134580417Y-124460000D01*
X134600699Y-124665932D01*
X134600700Y-124665934D01*
X134660768Y-124863954D01*
X134758315Y-125046450D01*
X134758317Y-125046452D01*
X134889589Y-125206410D01*
X134960517Y-125264618D01*
X135049550Y-125337685D01*
X135232046Y-125435232D01*
X135430066Y-125495300D01*
X135430065Y-125495300D01*
X135448529Y-125497118D01*
X135636000Y-125515583D01*
X135841934Y-125495300D01*
X136039954Y-125435232D01*
X136222450Y-125337685D01*
X136232116Y-125329752D01*
X137125500Y-125329752D01*
X137137131Y-125388229D01*
X137137132Y-125388230D01*
X137181447Y-125454552D01*
X137247769Y-125498867D01*
X137247770Y-125498868D01*
X137306247Y-125510499D01*
X137306250Y-125510500D01*
X137306252Y-125510500D01*
X139045750Y-125510500D01*
X139045751Y-125510499D01*
X139060568Y-125507552D01*
X139104229Y-125498868D01*
X139104229Y-125498867D01*
X139104231Y-125498867D01*
X139170552Y-125454552D01*
X139214867Y-125388231D01*
X139214867Y-125388229D01*
X139214868Y-125388229D01*
X139224922Y-125337682D01*
X139226500Y-125329748D01*
X139226500Y-123590252D01*
X139226500Y-123590249D01*
X139226499Y-123590247D01*
X139214868Y-123531770D01*
X139214867Y-123531769D01*
X139170552Y-123465447D01*
X139104230Y-123421132D01*
X139104229Y-123421131D01*
X139045752Y-123409500D01*
X139045748Y-123409500D01*
X137306252Y-123409500D01*
X137306247Y-123409500D01*
X137247770Y-123421131D01*
X137247769Y-123421132D01*
X137181447Y-123465447D01*
X137137132Y-123531769D01*
X137137131Y-123531770D01*
X137125500Y-123590247D01*
X137125500Y-125329752D01*
X136232116Y-125329752D01*
X136382410Y-125206410D01*
X136513685Y-125046450D01*
X136611232Y-124863954D01*
X136671300Y-124665934D01*
X136691583Y-124460000D01*
X136671300Y-124254066D01*
X136611232Y-124056046D01*
X136513685Y-123873550D01*
X136382410Y-123713590D01*
X136381827Y-123713112D01*
X136381604Y-123712784D01*
X136378103Y-123709283D01*
X136378767Y-123708618D01*
X136342498Y-123655365D01*
X136336500Y-123617265D01*
X136336500Y-123023518D01*
X136356185Y-122956479D01*
X136372819Y-122935837D01*
X137286837Y-122021819D01*
X137348160Y-121988334D01*
X137374518Y-121985500D01*
X142435996Y-121985500D01*
X142527040Y-121967389D01*
X142571328Y-121958580D01*
X142643501Y-121928685D01*
X142698807Y-121905777D01*
X142698808Y-121905776D01*
X142698811Y-121905775D01*
X142813543Y-121829114D01*
X145197114Y-119445543D01*
X145273775Y-119330811D01*
X145326580Y-119203329D01*
X145331999Y-119176084D01*
X145353500Y-119067993D01*
X145353500Y-117470902D01*
X145373185Y-117403863D01*
X145381642Y-117392242D01*
X145488910Y-117261538D01*
X145572763Y-117104661D01*
X145581811Y-117087733D01*
X145581811Y-117087732D01*
X145581814Y-117087727D01*
X145639024Y-116899132D01*
X145658341Y-116703000D01*
X146187659Y-116703000D01*
X146206975Y-116899129D01*
X146206976Y-116899132D01*
X146260677Y-117076161D01*
X146264188Y-117087733D01*
X146357086Y-117261532D01*
X146357090Y-117261539D01*
X146482116Y-117413883D01*
X146634460Y-117538909D01*
X146634467Y-117538913D01*
X146808266Y-117631811D01*
X146808269Y-117631811D01*
X146808273Y-117631814D01*
X146996868Y-117689024D01*
X147193000Y-117708341D01*
X147389132Y-117689024D01*
X147577727Y-117631814D01*
X147751538Y-117538910D01*
X147903883Y-117413883D01*
X148028910Y-117261538D01*
X148112763Y-117104661D01*
X148121811Y-117087733D01*
X148121811Y-117087732D01*
X148121814Y-117087727D01*
X148179024Y-116899132D01*
X148198341Y-116703000D01*
X148179024Y-116506868D01*
X148162683Y-116452999D01*
X148454127Y-116452999D01*
X148454128Y-116453000D01*
X149299988Y-116453000D01*
X149267075Y-116510007D01*
X149233000Y-116637174D01*
X149233000Y-116768826D01*
X149267075Y-116895993D01*
X149299988Y-116953000D01*
X148454128Y-116953000D01*
X148506730Y-117149317D01*
X148506734Y-117149326D01*
X148602865Y-117355482D01*
X148733342Y-117541820D01*
X148894179Y-117702657D01*
X149080517Y-117833134D01*
X149286673Y-117929265D01*
X149286682Y-117929269D01*
X149482999Y-117981872D01*
X149483000Y-117981871D01*
X149483000Y-117136012D01*
X149540007Y-117168925D01*
X149667174Y-117203000D01*
X149798826Y-117203000D01*
X149925993Y-117168925D01*
X149983000Y-117136012D01*
X149983000Y-117981871D01*
X150019405Y-117972117D01*
X150089255Y-117973779D01*
X150147118Y-118012940D01*
X150174623Y-118077169D01*
X150175500Y-118091891D01*
X150175500Y-125972897D01*
X150155815Y-126039936D01*
X150135038Y-126064534D01*
X149992442Y-126194526D01*
X149859480Y-126370597D01*
X149761140Y-126568088D01*
X149761134Y-126568103D01*
X149700757Y-126780307D01*
X149700756Y-126780309D01*
X149680400Y-126999999D01*
X149680400Y-127000000D01*
X149700756Y-127219690D01*
X149700757Y-127219692D01*
X149761134Y-127431896D01*
X149761140Y-127431911D01*
X149825423Y-127561007D01*
X149859480Y-127629402D01*
X149992441Y-127805471D01*
X150155490Y-127954109D01*
X150343075Y-128070257D01*
X150548809Y-128149959D01*
X150765684Y-128190500D01*
X150765686Y-128190500D01*
X150986314Y-128190500D01*
X150986316Y-128190500D01*
X151203191Y-128149959D01*
X151408925Y-128070257D01*
X151596510Y-127954109D01*
X151759559Y-127805471D01*
X151892520Y-127629402D01*
X151990864Y-127431901D01*
X152026734Y-127305830D01*
X152064013Y-127246737D01*
X152127323Y-127217180D01*
X152196562Y-127226542D01*
X152249749Y-127271852D01*
X152265266Y-127305831D01*
X152301134Y-127431896D01*
X152301140Y-127431911D01*
X152365423Y-127561007D01*
X152399480Y-127629402D01*
X152532441Y-127805471D01*
X152695490Y-127954109D01*
X152883075Y-128070257D01*
X153088809Y-128149959D01*
X153305684Y-128190500D01*
X153305686Y-128190500D01*
X153526314Y-128190500D01*
X153526316Y-128190500D01*
X153743191Y-128149959D01*
X153948925Y-128070257D01*
X154136510Y-127954109D01*
X154299559Y-127805471D01*
X154432520Y-127629402D01*
X154530864Y-127431901D01*
X154566734Y-127305830D01*
X154604013Y-127246737D01*
X154667323Y-127217180D01*
X154736562Y-127226542D01*
X154789749Y-127271852D01*
X154805266Y-127305831D01*
X154841134Y-127431896D01*
X154841140Y-127431911D01*
X154905423Y-127561007D01*
X154939480Y-127629402D01*
X155072441Y-127805471D01*
X155235490Y-127954109D01*
X155423075Y-128070257D01*
X155628809Y-128149959D01*
X155845684Y-128190500D01*
X155845686Y-128190500D01*
X156066314Y-128190500D01*
X156066316Y-128190500D01*
X156283191Y-128149959D01*
X156488925Y-128070257D01*
X156676510Y-127954109D01*
X156839559Y-127805471D01*
X156972520Y-127629402D01*
X157070864Y-127431901D01*
X157106734Y-127305830D01*
X157144013Y-127246737D01*
X157207323Y-127217180D01*
X157276562Y-127226542D01*
X157329749Y-127271852D01*
X157345266Y-127305831D01*
X157381134Y-127431896D01*
X157381140Y-127431911D01*
X157445423Y-127561007D01*
X157479480Y-127629402D01*
X157612441Y-127805471D01*
X157775490Y-127954109D01*
X157963075Y-128070257D01*
X158168809Y-128149959D01*
X158385684Y-128190500D01*
X158385686Y-128190500D01*
X158606314Y-128190500D01*
X158606316Y-128190500D01*
X158823191Y-128149959D01*
X159028925Y-128070257D01*
X159216510Y-127954109D01*
X159379559Y-127805471D01*
X159512520Y-127629402D01*
X159610864Y-127431901D01*
X159646734Y-127305830D01*
X159684013Y-127246737D01*
X159747323Y-127217180D01*
X159816562Y-127226542D01*
X159869749Y-127271852D01*
X159885266Y-127305831D01*
X159921134Y-127431896D01*
X159921140Y-127431911D01*
X159985423Y-127561007D01*
X160019480Y-127629402D01*
X160152441Y-127805471D01*
X160315490Y-127954109D01*
X160503075Y-128070257D01*
X160708809Y-128149959D01*
X160925684Y-128190500D01*
X160925686Y-128190500D01*
X161146314Y-128190500D01*
X161146316Y-128190500D01*
X161363191Y-128149959D01*
X161568925Y-128070257D01*
X161756510Y-127954109D01*
X161919559Y-127805471D01*
X162052520Y-127629402D01*
X162150864Y-127431901D01*
X162186734Y-127305830D01*
X162224013Y-127246737D01*
X162287323Y-127217180D01*
X162356562Y-127226542D01*
X162409749Y-127271852D01*
X162425266Y-127305831D01*
X162461134Y-127431896D01*
X162461140Y-127431911D01*
X162525423Y-127561007D01*
X162559480Y-127629402D01*
X162692441Y-127805471D01*
X162855490Y-127954109D01*
X163043075Y-128070257D01*
X163248809Y-128149959D01*
X163465684Y-128190500D01*
X163465686Y-128190500D01*
X163686314Y-128190500D01*
X163686316Y-128190500D01*
X163903191Y-128149959D01*
X164108925Y-128070257D01*
X164296510Y-127954109D01*
X164459559Y-127805471D01*
X164592520Y-127629402D01*
X164690864Y-127431901D01*
X164726734Y-127305830D01*
X164764013Y-127246737D01*
X164827323Y-127217180D01*
X164896562Y-127226542D01*
X164949749Y-127271852D01*
X164965266Y-127305831D01*
X165001134Y-127431896D01*
X165001140Y-127431911D01*
X165065423Y-127561007D01*
X165099480Y-127629402D01*
X165232441Y-127805471D01*
X165395490Y-127954109D01*
X165583075Y-128070257D01*
X165788809Y-128149959D01*
X166005684Y-128190500D01*
X166005686Y-128190500D01*
X166226314Y-128190500D01*
X166226316Y-128190500D01*
X166443191Y-128149959D01*
X166648925Y-128070257D01*
X166836510Y-127954109D01*
X166999559Y-127805471D01*
X167132520Y-127629402D01*
X167230864Y-127431901D01*
X167266734Y-127305830D01*
X167304013Y-127246737D01*
X167367323Y-127217180D01*
X167436562Y-127226542D01*
X167489749Y-127271852D01*
X167505266Y-127305831D01*
X167541134Y-127431896D01*
X167541140Y-127431911D01*
X167605423Y-127561007D01*
X167639480Y-127629402D01*
X167772441Y-127805471D01*
X167935490Y-127954109D01*
X168123075Y-128070257D01*
X168328809Y-128149959D01*
X168545684Y-128190500D01*
X168545686Y-128190500D01*
X168766314Y-128190500D01*
X168766316Y-128190500D01*
X168983191Y-128149959D01*
X169188925Y-128070257D01*
X169376510Y-127954109D01*
X169539559Y-127805471D01*
X169672520Y-127629402D01*
X169770864Y-127431901D01*
X169831243Y-127219691D01*
X169851600Y-127000000D01*
X169831243Y-126780309D01*
X169770864Y-126568099D01*
X169768307Y-126562964D01*
X169722928Y-126471832D01*
X169672520Y-126370598D01*
X169539559Y-126194529D01*
X169376510Y-126045891D01*
X169314271Y-126007354D01*
X169188926Y-125929743D01*
X169188924Y-125929742D01*
X169101037Y-125895695D01*
X168983191Y-125850041D01*
X168766316Y-125809500D01*
X168596518Y-125809500D01*
X168529479Y-125789815D01*
X168483724Y-125737011D01*
X168473780Y-125667853D01*
X168502805Y-125604297D01*
X168508837Y-125597819D01*
X170808905Y-123297752D01*
X176495500Y-123297752D01*
X176507131Y-123356229D01*
X176507132Y-123356230D01*
X176551447Y-123422552D01*
X176617769Y-123466867D01*
X176617770Y-123466868D01*
X176676247Y-123478499D01*
X176676250Y-123478500D01*
X176676252Y-123478500D01*
X178415750Y-123478500D01*
X178415751Y-123478499D01*
X178430568Y-123475552D01*
X178474229Y-123466868D01*
X178474229Y-123466867D01*
X178474231Y-123466867D01*
X178540552Y-123422552D01*
X178584867Y-123356231D01*
X178584867Y-123356229D01*
X178584868Y-123356229D01*
X178596499Y-123297752D01*
X178596500Y-123297750D01*
X178596500Y-121558249D01*
X178596499Y-121558247D01*
X178584868Y-121499770D01*
X178584867Y-121499769D01*
X178540552Y-121433447D01*
X178474230Y-121389132D01*
X178474228Y-121389131D01*
X178473301Y-121388947D01*
X178471468Y-121387988D01*
X178462946Y-121384458D01*
X178463262Y-121383694D01*
X178411392Y-121356558D01*
X178376822Y-121295840D01*
X178373500Y-121267331D01*
X178373500Y-117470902D01*
X178393185Y-117403863D01*
X178401642Y-117392242D01*
X178508910Y-117261538D01*
X178592763Y-117104661D01*
X178601811Y-117087733D01*
X178601811Y-117087732D01*
X178601814Y-117087727D01*
X178659024Y-116899132D01*
X178678341Y-116703000D01*
X178659024Y-116506868D01*
X178601814Y-116318273D01*
X178601811Y-116318269D01*
X178601811Y-116318266D01*
X178508913Y-116144467D01*
X178508909Y-116144460D01*
X178383883Y-115992116D01*
X178231539Y-115867090D01*
X178231532Y-115867086D01*
X178057733Y-115774188D01*
X178057727Y-115774186D01*
X177869132Y-115716976D01*
X177869129Y-115716975D01*
X177673000Y-115697659D01*
X177476870Y-115716975D01*
X177288266Y-115774188D01*
X177114467Y-115867086D01*
X177114460Y-115867090D01*
X176962116Y-115992116D01*
X176837090Y-116144460D01*
X176837086Y-116144467D01*
X176744188Y-116318266D01*
X176686975Y-116506870D01*
X176667659Y-116703000D01*
X176686975Y-116899129D01*
X176686976Y-116899132D01*
X176740677Y-117076161D01*
X176744188Y-117087733D01*
X176837086Y-117261532D01*
X176837090Y-117261539D01*
X176897423Y-117335054D01*
X176944353Y-117392238D01*
X176971666Y-117456546D01*
X176972500Y-117470902D01*
X176972500Y-121253500D01*
X176952815Y-121320539D01*
X176900011Y-121366294D01*
X176848500Y-121377500D01*
X176676247Y-121377500D01*
X176617770Y-121389131D01*
X176617769Y-121389132D01*
X176551447Y-121433447D01*
X176507132Y-121499769D01*
X176507131Y-121499770D01*
X176495500Y-121558247D01*
X176495500Y-123297752D01*
X170808905Y-123297752D01*
X171964425Y-122142232D01*
X175677114Y-118429543D01*
X175753775Y-118314811D01*
X175760551Y-118298454D01*
X175800963Y-118200889D01*
X175806580Y-118187328D01*
X175825564Y-118091891D01*
X175833500Y-118051996D01*
X175833500Y-117470902D01*
X175853185Y-117403863D01*
X175861642Y-117392242D01*
X175968910Y-117261538D01*
X176052763Y-117104661D01*
X176061811Y-117087733D01*
X176061811Y-117087732D01*
X176061814Y-117087727D01*
X176119024Y-116899132D01*
X176138341Y-116703000D01*
X176119024Y-116506868D01*
X176061814Y-116318273D01*
X176061811Y-116318269D01*
X176061811Y-116318266D01*
X175968913Y-116144467D01*
X175968909Y-116144460D01*
X175843883Y-115992116D01*
X175691539Y-115867090D01*
X175691532Y-115867086D01*
X175517733Y-115774188D01*
X175517727Y-115774186D01*
X175329132Y-115716976D01*
X175329129Y-115716975D01*
X175133000Y-115697659D01*
X174936870Y-115716975D01*
X174748266Y-115774188D01*
X174574467Y-115867086D01*
X174574460Y-115867090D01*
X174422116Y-115992116D01*
X174297090Y-116144460D01*
X174297086Y-116144467D01*
X174204188Y-116318266D01*
X174146975Y-116506870D01*
X174127659Y-116703000D01*
X174146975Y-116899129D01*
X174146976Y-116899132D01*
X174200677Y-117076161D01*
X174204188Y-117087733D01*
X174297086Y-117261532D01*
X174297090Y-117261539D01*
X174357423Y-117335054D01*
X174404353Y-117392238D01*
X174431666Y-117456546D01*
X174432500Y-117470902D01*
X174432500Y-117641480D01*
X174412815Y-117708519D01*
X174396181Y-117729161D01*
X166347960Y-125777381D01*
X166286637Y-125810866D01*
X166237502Y-125811590D01*
X166226321Y-125809500D01*
X166226316Y-125809500D01*
X166056518Y-125809500D01*
X165989479Y-125789815D01*
X165943724Y-125737011D01*
X165933780Y-125667853D01*
X165962805Y-125604297D01*
X165968837Y-125597819D01*
X168141957Y-123424700D01*
X170597114Y-120969543D01*
X170673775Y-120854811D01*
X170726580Y-120727329D01*
X170749145Y-120613886D01*
X170753500Y-120591993D01*
X170753500Y-117470902D01*
X170773185Y-117403863D01*
X170781642Y-117392242D01*
X170888910Y-117261538D01*
X170972763Y-117104661D01*
X170981811Y-117087733D01*
X170981811Y-117087732D01*
X170981814Y-117087727D01*
X171039024Y-116899132D01*
X171058341Y-116703000D01*
X171587659Y-116703000D01*
X171606975Y-116899129D01*
X171606976Y-116899132D01*
X171660677Y-117076161D01*
X171664188Y-117087733D01*
X171757086Y-117261532D01*
X171757090Y-117261539D01*
X171882116Y-117413883D01*
X172034460Y-117538909D01*
X172034467Y-117538913D01*
X172208266Y-117631811D01*
X172208269Y-117631811D01*
X172208273Y-117631814D01*
X172396868Y-117689024D01*
X172593000Y-117708341D01*
X172789132Y-117689024D01*
X172977727Y-117631814D01*
X173151538Y-117538910D01*
X173303883Y-117413883D01*
X173428910Y-117261538D01*
X173512763Y-117104661D01*
X173521811Y-117087733D01*
X173521811Y-117087732D01*
X173521814Y-117087727D01*
X173579024Y-116899132D01*
X173598341Y-116703000D01*
X173579024Y-116506868D01*
X173521814Y-116318273D01*
X173521811Y-116318269D01*
X173521811Y-116318266D01*
X173428913Y-116144467D01*
X173428909Y-116144460D01*
X173303883Y-115992116D01*
X173151539Y-115867090D01*
X173151532Y-115867086D01*
X172977733Y-115774188D01*
X172977727Y-115774186D01*
X172789132Y-115716976D01*
X172789129Y-115716975D01*
X172593000Y-115697659D01*
X172396870Y-115716975D01*
X172208266Y-115774188D01*
X172034467Y-115867086D01*
X172034460Y-115867090D01*
X171882116Y-115992116D01*
X171757090Y-116144460D01*
X171757086Y-116144467D01*
X171664188Y-116318266D01*
X171606975Y-116506870D01*
X171587659Y-116703000D01*
X171058341Y-116703000D01*
X171039024Y-116506868D01*
X170981814Y-116318273D01*
X170981811Y-116318269D01*
X170981811Y-116318266D01*
X170888913Y-116144467D01*
X170888909Y-116144460D01*
X170763883Y-115992116D01*
X170611539Y-115867090D01*
X170611532Y-115867086D01*
X170437733Y-115774188D01*
X170437727Y-115774186D01*
X170249132Y-115716976D01*
X170249129Y-115716975D01*
X170053000Y-115697659D01*
X169856870Y-115716975D01*
X169668266Y-115774188D01*
X169494467Y-115867086D01*
X169494460Y-115867090D01*
X169342116Y-115992116D01*
X169217090Y-116144460D01*
X169217086Y-116144467D01*
X169124188Y-116318266D01*
X169066975Y-116506870D01*
X169047659Y-116703000D01*
X169066975Y-116899129D01*
X169066976Y-116899132D01*
X169120677Y-117076161D01*
X169124188Y-117087733D01*
X169217086Y-117261532D01*
X169217090Y-117261539D01*
X169277423Y-117335054D01*
X169324353Y-117392238D01*
X169351666Y-117456546D01*
X169352500Y-117470902D01*
X169352500Y-120181480D01*
X169332815Y-120248519D01*
X169316181Y-120269161D01*
X163807960Y-125777381D01*
X163746637Y-125810866D01*
X163697502Y-125811590D01*
X163686321Y-125809500D01*
X163686316Y-125809500D01*
X163516518Y-125809500D01*
X163449479Y-125789815D01*
X163403724Y-125737011D01*
X163393780Y-125667853D01*
X163422805Y-125604297D01*
X163428837Y-125597819D01*
X165601957Y-123424700D01*
X168057114Y-120969543D01*
X168133775Y-120854811D01*
X168186580Y-120727329D01*
X168209145Y-120613886D01*
X168213500Y-120591993D01*
X168213500Y-117470902D01*
X168233185Y-117403863D01*
X168241642Y-117392242D01*
X168348910Y-117261538D01*
X168432763Y-117104661D01*
X168441811Y-117087733D01*
X168441811Y-117087732D01*
X168441814Y-117087727D01*
X168499024Y-116899132D01*
X168518341Y-116703000D01*
X168499024Y-116506868D01*
X168441814Y-116318273D01*
X168441811Y-116318269D01*
X168441811Y-116318266D01*
X168348913Y-116144467D01*
X168348909Y-116144460D01*
X168223883Y-115992116D01*
X168071539Y-115867090D01*
X168071532Y-115867086D01*
X167897733Y-115774188D01*
X167897727Y-115774186D01*
X167709132Y-115716976D01*
X167709129Y-115716975D01*
X167513000Y-115697659D01*
X167316870Y-115716975D01*
X167128266Y-115774188D01*
X166954467Y-115867086D01*
X166954460Y-115867090D01*
X166802116Y-115992116D01*
X166677090Y-116144460D01*
X166677086Y-116144467D01*
X166584188Y-116318266D01*
X166526975Y-116506870D01*
X166507659Y-116703000D01*
X166526975Y-116899129D01*
X166526976Y-116899132D01*
X166580677Y-117076161D01*
X166584188Y-117087733D01*
X166677086Y-117261532D01*
X166677090Y-117261539D01*
X166737423Y-117335054D01*
X166784353Y-117392238D01*
X166811666Y-117456546D01*
X166812500Y-117470902D01*
X166812500Y-120181480D01*
X166792815Y-120248519D01*
X166776181Y-120269161D01*
X161267960Y-125777381D01*
X161206637Y-125810866D01*
X161157502Y-125811590D01*
X161146321Y-125809500D01*
X161146316Y-125809500D01*
X160925684Y-125809500D01*
X160708809Y-125850041D01*
X160651362Y-125872295D01*
X160503075Y-125929742D01*
X160503073Y-125929743D01*
X160315494Y-126045888D01*
X160315492Y-126045889D01*
X160315490Y-126045891D01*
X160185986Y-126163949D01*
X160152440Y-126194530D01*
X160019480Y-126370597D01*
X159921140Y-126568088D01*
X159921135Y-126568101D01*
X159885266Y-126694169D01*
X159847987Y-126753262D01*
X159784677Y-126782819D01*
X159715437Y-126773457D01*
X159662251Y-126728147D01*
X159646734Y-126694169D01*
X159613232Y-126576422D01*
X159610864Y-126568099D01*
X159608307Y-126562964D01*
X159562928Y-126471832D01*
X159512520Y-126370598D01*
X159429361Y-126260477D01*
X159379557Y-126194526D01*
X159236962Y-126064534D01*
X159200680Y-126004823D01*
X159196500Y-125972897D01*
X159196500Y-118441517D01*
X159216185Y-118374478D01*
X159232815Y-118353840D01*
X159845338Y-117741316D01*
X159906659Y-117707833D01*
X159920852Y-117705597D01*
X160089132Y-117689024D01*
X160277727Y-117631814D01*
X160451538Y-117538910D01*
X160603883Y-117413883D01*
X160728910Y-117261538D01*
X160812763Y-117104661D01*
X160821811Y-117087733D01*
X160821811Y-117087732D01*
X160821814Y-117087727D01*
X160879024Y-116899132D01*
X160898341Y-116703000D01*
X161427659Y-116703000D01*
X161446975Y-116899129D01*
X161446976Y-116899132D01*
X161500677Y-117076161D01*
X161504188Y-117087733D01*
X161597086Y-117261532D01*
X161597090Y-117261539D01*
X161722116Y-117413883D01*
X161874460Y-117538909D01*
X161874467Y-117538913D01*
X162048266Y-117631811D01*
X162048269Y-117631811D01*
X162048273Y-117631814D01*
X162236868Y-117689024D01*
X162433000Y-117708341D01*
X162629132Y-117689024D01*
X162817727Y-117631814D01*
X162991538Y-117538910D01*
X163143883Y-117413883D01*
X163268910Y-117261538D01*
X163352763Y-117104661D01*
X163361811Y-117087733D01*
X163361811Y-117087732D01*
X163361814Y-117087727D01*
X163419024Y-116899132D01*
X163438341Y-116703000D01*
X163967659Y-116703000D01*
X163986975Y-116899129D01*
X163986976Y-116899132D01*
X164040677Y-117076161D01*
X164044188Y-117087733D01*
X164137086Y-117261532D01*
X164137090Y-117261539D01*
X164262116Y-117413883D01*
X164414460Y-117538909D01*
X164414467Y-117538913D01*
X164588266Y-117631811D01*
X164588269Y-117631811D01*
X164588273Y-117631814D01*
X164776868Y-117689024D01*
X164973000Y-117708341D01*
X165169132Y-117689024D01*
X165357727Y-117631814D01*
X165531538Y-117538910D01*
X165683883Y-117413883D01*
X165808910Y-117261538D01*
X165892763Y-117104661D01*
X165901811Y-117087733D01*
X165901811Y-117087732D01*
X165901814Y-117087727D01*
X165959024Y-116899132D01*
X165978341Y-116703000D01*
X165959024Y-116506868D01*
X165901814Y-116318273D01*
X165901811Y-116318269D01*
X165901811Y-116318266D01*
X165808913Y-116144467D01*
X165808909Y-116144460D01*
X165683883Y-115992116D01*
X165531539Y-115867090D01*
X165531532Y-115867086D01*
X165357733Y-115774188D01*
X165357727Y-115774186D01*
X165169132Y-115716976D01*
X165169129Y-115716975D01*
X164973000Y-115697659D01*
X164776870Y-115716975D01*
X164588266Y-115774188D01*
X164414467Y-115867086D01*
X164414460Y-115867090D01*
X164262116Y-115992116D01*
X164137090Y-116144460D01*
X164137086Y-116144467D01*
X164044188Y-116318266D01*
X163986975Y-116506870D01*
X163967659Y-116703000D01*
X163438341Y-116703000D01*
X163419024Y-116506868D01*
X163361814Y-116318273D01*
X163361811Y-116318269D01*
X163361811Y-116318266D01*
X163268913Y-116144467D01*
X163268909Y-116144460D01*
X163143883Y-115992116D01*
X162991539Y-115867090D01*
X162991532Y-115867086D01*
X162817733Y-115774188D01*
X162817727Y-115774186D01*
X162629132Y-115716976D01*
X162629129Y-115716975D01*
X162433000Y-115697659D01*
X162236870Y-115716975D01*
X162048266Y-115774188D01*
X161874467Y-115867086D01*
X161874460Y-115867090D01*
X161722116Y-115992116D01*
X161597090Y-116144460D01*
X161597086Y-116144467D01*
X161504188Y-116318266D01*
X161446975Y-116506870D01*
X161427659Y-116703000D01*
X160898341Y-116703000D01*
X160879024Y-116506868D01*
X160821814Y-116318273D01*
X160821811Y-116318269D01*
X160821811Y-116318266D01*
X160728913Y-116144467D01*
X160728909Y-116144460D01*
X160603883Y-115992116D01*
X160451539Y-115867090D01*
X160451532Y-115867086D01*
X160277733Y-115774188D01*
X160277727Y-115774186D01*
X160089132Y-115716976D01*
X160089129Y-115716975D01*
X159893000Y-115697659D01*
X159696870Y-115716975D01*
X159508266Y-115774188D01*
X159334467Y-115867086D01*
X159334460Y-115867090D01*
X159182116Y-115992116D01*
X159057090Y-116144460D01*
X159057086Y-116144467D01*
X158964188Y-116318266D01*
X158906975Y-116506870D01*
X158890403Y-116675134D01*
X158864242Y-116739921D01*
X158854681Y-116750661D01*
X158529180Y-117076161D01*
X158467857Y-117109646D01*
X158398165Y-117104662D01*
X158342232Y-117062790D01*
X158317815Y-116997326D01*
X158322838Y-116952489D01*
X158339024Y-116899132D01*
X158358341Y-116703000D01*
X158339024Y-116506868D01*
X158281814Y-116318273D01*
X158281811Y-116318269D01*
X158281811Y-116318266D01*
X158188913Y-116144467D01*
X158188909Y-116144460D01*
X158063883Y-115992116D01*
X157911539Y-115867090D01*
X157911532Y-115867086D01*
X157737733Y-115774188D01*
X157737727Y-115774186D01*
X157549132Y-115716976D01*
X157549129Y-115716975D01*
X157353000Y-115697659D01*
X157156870Y-115716975D01*
X156968266Y-115774188D01*
X156794467Y-115867086D01*
X156794460Y-115867090D01*
X156642116Y-115992116D01*
X156517090Y-116144460D01*
X156517086Y-116144467D01*
X156424188Y-116318266D01*
X156366975Y-116506870D01*
X156350403Y-116675134D01*
X156324242Y-116739921D01*
X156314681Y-116750661D01*
X155989180Y-117076161D01*
X155927857Y-117109646D01*
X155858165Y-117104662D01*
X155802232Y-117062790D01*
X155777815Y-116997326D01*
X155782838Y-116952489D01*
X155799024Y-116899132D01*
X155818341Y-116703000D01*
X155799024Y-116506868D01*
X155741814Y-116318273D01*
X155741811Y-116318269D01*
X155741811Y-116318266D01*
X155648913Y-116144467D01*
X155648909Y-116144460D01*
X155523883Y-115992116D01*
X155371539Y-115867090D01*
X155371532Y-115867086D01*
X155197733Y-115774188D01*
X155197727Y-115774186D01*
X155009132Y-115716976D01*
X155009129Y-115716975D01*
X154813000Y-115697659D01*
X154616870Y-115716975D01*
X154428266Y-115774188D01*
X154254467Y-115867086D01*
X154254460Y-115867090D01*
X154102116Y-115992116D01*
X153977090Y-116144460D01*
X153977086Y-116144467D01*
X153884188Y-116318266D01*
X153826975Y-116506870D01*
X153810403Y-116675133D01*
X153784242Y-116739921D01*
X153774681Y-116750660D01*
X153449181Y-117076160D01*
X153387858Y-117109645D01*
X153318166Y-117104661D01*
X153262233Y-117062789D01*
X153237816Y-116997325D01*
X153242840Y-116952483D01*
X153243543Y-116950166D01*
X153259024Y-116899132D01*
X153278341Y-116703000D01*
X153259024Y-116506868D01*
X153201814Y-116318273D01*
X153201811Y-116318269D01*
X153201811Y-116318266D01*
X153108913Y-116144467D01*
X153108909Y-116144460D01*
X152983883Y-115992116D01*
X152831539Y-115867090D01*
X152831532Y-115867086D01*
X152657733Y-115774188D01*
X152657727Y-115774186D01*
X152469132Y-115716976D01*
X152469129Y-115716975D01*
X152273000Y-115697659D01*
X152076870Y-115716975D01*
X151888266Y-115774188D01*
X151714467Y-115867086D01*
X151714460Y-115867090D01*
X151562116Y-115992116D01*
X151437090Y-116144460D01*
X151437086Y-116144467D01*
X151344188Y-116318266D01*
X151286975Y-116506870D01*
X151270403Y-116675134D01*
X151244242Y-116739921D01*
X151234681Y-116750661D01*
X151068661Y-116916681D01*
X151007338Y-116950166D01*
X150980980Y-116953000D01*
X150166012Y-116953000D01*
X150198925Y-116895993D01*
X150233000Y-116768826D01*
X150233000Y-116637174D01*
X150198925Y-116510007D01*
X150166012Y-116453000D01*
X151011872Y-116453000D01*
X151011872Y-116452999D01*
X150959269Y-116256682D01*
X150959265Y-116256673D01*
X150863134Y-116050517D01*
X150732657Y-115864179D01*
X150571820Y-115703342D01*
X150385482Y-115572865D01*
X150179328Y-115476734D01*
X149983000Y-115424127D01*
X149983000Y-116269988D01*
X149925993Y-116237075D01*
X149798826Y-116203000D01*
X149667174Y-116203000D01*
X149540007Y-116237075D01*
X149483000Y-116269988D01*
X149483000Y-115424127D01*
X149286671Y-115476734D01*
X149080517Y-115572865D01*
X148894179Y-115703342D01*
X148733342Y-115864179D01*
X148602865Y-116050517D01*
X148506734Y-116256673D01*
X148506730Y-116256682D01*
X148454127Y-116452999D01*
X148162683Y-116452999D01*
X148121814Y-116318273D01*
X148121811Y-116318269D01*
X148121811Y-116318266D01*
X148028913Y-116144467D01*
X148028909Y-116144460D01*
X147903883Y-115992116D01*
X147751539Y-115867090D01*
X147751532Y-115867086D01*
X147577733Y-115774188D01*
X147577727Y-115774186D01*
X147389132Y-115716976D01*
X147389129Y-115716975D01*
X147193000Y-115697659D01*
X146996870Y-115716975D01*
X146808266Y-115774188D01*
X146634467Y-115867086D01*
X146634460Y-115867090D01*
X146482116Y-115992116D01*
X146357090Y-116144460D01*
X146357086Y-116144467D01*
X146264188Y-116318266D01*
X146206975Y-116506870D01*
X146187659Y-116703000D01*
X145658341Y-116703000D01*
X145639024Y-116506868D01*
X145581814Y-116318273D01*
X145581811Y-116318269D01*
X145581811Y-116318266D01*
X145488913Y-116144467D01*
X145488909Y-116144460D01*
X145363883Y-115992116D01*
X145211539Y-115867090D01*
X145211532Y-115867086D01*
X145037733Y-115774188D01*
X145037727Y-115774186D01*
X144849132Y-115716976D01*
X144849129Y-115716975D01*
X144653000Y-115697659D01*
X144456870Y-115716975D01*
X144268266Y-115774188D01*
X144094467Y-115867086D01*
X144094460Y-115867090D01*
X143942116Y-115992116D01*
X143817090Y-116144460D01*
X143817086Y-116144467D01*
X143724188Y-116318266D01*
X143666975Y-116506870D01*
X143647659Y-116703000D01*
X143666975Y-116899129D01*
X143666976Y-116899132D01*
X143720677Y-117076161D01*
X143724188Y-117087733D01*
X143817086Y-117261532D01*
X143817090Y-117261539D01*
X143877423Y-117335054D01*
X143924353Y-117392238D01*
X143951666Y-117456546D01*
X143952500Y-117470902D01*
X143952500Y-118657481D01*
X143932815Y-118724520D01*
X143916181Y-118745162D01*
X142113162Y-120548181D01*
X142051839Y-120581666D01*
X142025481Y-120584500D01*
X136964005Y-120584500D01*
X136926342Y-120591992D01*
X136863677Y-120604457D01*
X136843612Y-120608447D01*
X136828668Y-120611420D01*
X136828660Y-120611423D01*
X136775865Y-120633292D01*
X136701191Y-120664223D01*
X136606748Y-120727329D01*
X136606747Y-120727330D01*
X136586457Y-120740887D01*
X136586453Y-120740889D01*
X135091888Y-122235453D01*
X135091887Y-122235454D01*
X135015222Y-122350192D01*
X134962421Y-122477667D01*
X134962418Y-122477677D01*
X134935500Y-122613004D01*
X134935500Y-123617265D01*
X134915815Y-123684304D01*
X134893729Y-123709115D01*
X134893897Y-123709283D01*
X134891021Y-123712158D01*
X134890173Y-123713110D01*
X134889590Y-123713590D01*
X134889588Y-123713592D01*
X134758317Y-123873546D01*
X134660769Y-124056043D01*
X134600699Y-124254067D01*
X134580417Y-124460000D01*
X134151583Y-124460000D01*
X134131300Y-124254066D01*
X134071232Y-124056046D01*
X133973685Y-123873550D01*
X133842410Y-123713590D01*
X133841827Y-123713112D01*
X133841604Y-123712784D01*
X133838103Y-123709283D01*
X133838767Y-123708618D01*
X133802498Y-123655365D01*
X133796500Y-123617265D01*
X133796500Y-121499518D01*
X133816185Y-121432479D01*
X133832819Y-121411837D01*
X135762837Y-119481819D01*
X135824160Y-119448334D01*
X135850518Y-119445500D01*
X141038996Y-119445500D01*
X141130040Y-119427389D01*
X141174328Y-119418580D01*
X141238069Y-119392177D01*
X141301807Y-119365777D01*
X141301808Y-119365776D01*
X141301811Y-119365775D01*
X141416543Y-119289114D01*
X141641114Y-119064543D01*
X141717775Y-118949811D01*
X141770580Y-118822328D01*
X141778778Y-118781114D01*
X141785994Y-118744838D01*
X141797500Y-118686995D01*
X141797500Y-118060519D01*
X141817185Y-117993480D01*
X141833819Y-117972838D01*
X142066838Y-117739819D01*
X142128161Y-117706334D01*
X142154519Y-117703500D01*
X142932750Y-117703500D01*
X142932751Y-117703499D01*
X142947568Y-117700552D01*
X142991229Y-117691868D01*
X142991229Y-117691867D01*
X142991231Y-117691867D01*
X143057552Y-117647552D01*
X143101867Y-117581231D01*
X143101867Y-117581229D01*
X143101868Y-117581229D01*
X143113499Y-117522752D01*
X143113500Y-117522747D01*
X143113500Y-115883249D01*
X143113499Y-115883247D01*
X143101868Y-115824770D01*
X143101867Y-115824769D01*
X143057552Y-115758447D01*
X142991230Y-115714132D01*
X142991229Y-115714131D01*
X142932752Y-115702500D01*
X142932748Y-115702500D01*
X141293252Y-115702500D01*
X141293247Y-115702500D01*
X141234770Y-115714131D01*
X141234769Y-115714132D01*
X141168447Y-115758447D01*
X141124132Y-115824769D01*
X141124131Y-115824770D01*
X141112500Y-115883247D01*
X141112500Y-116661480D01*
X141092815Y-116728519D01*
X141076181Y-116749161D01*
X140552888Y-117272453D01*
X140552887Y-117272454D01*
X140476222Y-117387192D01*
X140423421Y-117514667D01*
X140423418Y-117514679D01*
X140403220Y-117616224D01*
X140403220Y-117616227D01*
X140396500Y-117650006D01*
X140396500Y-117920500D01*
X140376815Y-117987539D01*
X140324011Y-118033294D01*
X140272500Y-118044500D01*
X135440005Y-118044500D01*
X135373120Y-118057804D01*
X135339677Y-118064457D01*
X135319612Y-118068447D01*
X135304668Y-118071420D01*
X135304660Y-118071423D01*
X135251865Y-118093292D01*
X135177191Y-118124223D01*
X135106502Y-118171457D01*
X135106501Y-118171457D01*
X135062461Y-118200883D01*
X135062453Y-118200889D01*
X132551883Y-120711459D01*
X132532224Y-120740884D01*
X132532222Y-120740887D01*
X132475228Y-120826183D01*
X132475221Y-120826195D01*
X132422421Y-120953667D01*
X132422418Y-120953677D01*
X132395500Y-121089004D01*
X132395500Y-123617265D01*
X132375815Y-123684304D01*
X132353729Y-123709115D01*
X132353897Y-123709283D01*
X132351021Y-123712158D01*
X132350173Y-123713110D01*
X132349590Y-123713590D01*
X132349588Y-123713592D01*
X132218317Y-123873546D01*
X132120767Y-124056046D01*
X132100593Y-124122552D01*
X132062296Y-124180990D01*
X131998483Y-124209447D01*
X131929416Y-124198886D01*
X131877023Y-124152661D01*
X131862158Y-124118649D01*
X131829433Y-123996516D01*
X131829429Y-123996507D01*
X131729600Y-123782422D01*
X131729599Y-123782420D01*
X131594113Y-123588926D01*
X131594108Y-123588920D01*
X131427082Y-123421894D01*
X131233578Y-123286399D01*
X131019492Y-123186570D01*
X131019486Y-123186567D01*
X130806000Y-123129364D01*
X130806000Y-124026988D01*
X130748993Y-123994075D01*
X130621826Y-123960000D01*
X130490174Y-123960000D01*
X130363007Y-123994075D01*
X130306000Y-124026988D01*
X130306000Y-123129364D01*
X130305999Y-123129364D01*
X130092513Y-123186567D01*
X130092507Y-123186570D01*
X129878422Y-123286399D01*
X129878420Y-123286400D01*
X129684926Y-123421886D01*
X129684920Y-123421891D01*
X129517891Y-123588920D01*
X129517886Y-123588926D01*
X129382400Y-123782420D01*
X129382399Y-123782422D01*
X129282570Y-123996507D01*
X129282567Y-123996514D01*
X129249841Y-124118650D01*
X129213476Y-124178310D01*
X129150629Y-124208839D01*
X129081253Y-124200544D01*
X129027375Y-124156059D01*
X129011406Y-124122552D01*
X128991232Y-124056046D01*
X128893685Y-123873550D01*
X128762410Y-123713590D01*
X128761827Y-123713112D01*
X128761604Y-123712784D01*
X128758103Y-123709283D01*
X128758767Y-123708618D01*
X128722498Y-123655365D01*
X128716500Y-123617265D01*
X128716500Y-118832519D01*
X128736185Y-118765480D01*
X128752819Y-118744838D01*
X133894112Y-113603545D01*
X133894114Y-113603543D01*
X133970775Y-113488811D01*
X134023580Y-113361329D01*
X134023580Y-113361325D01*
X134023582Y-113361322D01*
X134028934Y-113334411D01*
X134028934Y-113334409D01*
X134050500Y-113225993D01*
X134050500Y-107250500D01*
X134070185Y-107183461D01*
X134122989Y-107137706D01*
X134174500Y-107126500D01*
X144838996Y-107126500D01*
X144948352Y-107104747D01*
X144974328Y-107099580D01*
X145038069Y-107073177D01*
X145101807Y-107046777D01*
X145101808Y-107046776D01*
X145101811Y-107046775D01*
X145216543Y-106970114D01*
X149685339Y-102501316D01*
X149746660Y-102467833D01*
X149760855Y-102465597D01*
X149929132Y-102449024D01*
X150117727Y-102391814D01*
X150291538Y-102298910D01*
X150443883Y-102173883D01*
X150568910Y-102021538D01*
X150652763Y-101864661D01*
X150661811Y-101847733D01*
X150661811Y-101847732D01*
X150661814Y-101847727D01*
X150719024Y-101659132D01*
X150738341Y-101463000D01*
X151267659Y-101463000D01*
X151286975Y-101659129D01*
X151344188Y-101847733D01*
X151437086Y-102021532D01*
X151437090Y-102021539D01*
X151562116Y-102173883D01*
X151714460Y-102298909D01*
X151714467Y-102298913D01*
X151888266Y-102391811D01*
X151888269Y-102391811D01*
X151888273Y-102391814D01*
X152076868Y-102449024D01*
X152273000Y-102468341D01*
X152469132Y-102449024D01*
X152657727Y-102391814D01*
X152831538Y-102298910D01*
X152983883Y-102173883D01*
X153108910Y-102021538D01*
X153192763Y-101864661D01*
X153201811Y-101847733D01*
X153201811Y-101847732D01*
X153201814Y-101847727D01*
X153259024Y-101659132D01*
X153278341Y-101463000D01*
X153807659Y-101463000D01*
X153826975Y-101659129D01*
X153884188Y-101847733D01*
X153977086Y-102021532D01*
X153977090Y-102021539D01*
X154102116Y-102173883D01*
X154254460Y-102298909D01*
X154254467Y-102298913D01*
X154428266Y-102391811D01*
X154428269Y-102391811D01*
X154428273Y-102391814D01*
X154616868Y-102449024D01*
X154813000Y-102468341D01*
X155009132Y-102449024D01*
X155197727Y-102391814D01*
X155371538Y-102298910D01*
X155523883Y-102173883D01*
X155648910Y-102021538D01*
X155732763Y-101864661D01*
X155741811Y-101847733D01*
X155741811Y-101847732D01*
X155741814Y-101847727D01*
X155799024Y-101659132D01*
X155818341Y-101463000D01*
X156347659Y-101463000D01*
X156366975Y-101659129D01*
X156424188Y-101847733D01*
X156517086Y-102021532D01*
X156517090Y-102021539D01*
X156642116Y-102173883D01*
X156794460Y-102298909D01*
X156794467Y-102298913D01*
X156968266Y-102391811D01*
X156968269Y-102391811D01*
X156968273Y-102391814D01*
X157156868Y-102449024D01*
X157353000Y-102468341D01*
X157549132Y-102449024D01*
X157737727Y-102391814D01*
X157911538Y-102298910D01*
X158063883Y-102173883D01*
X158188910Y-102021538D01*
X158272763Y-101864661D01*
X158281811Y-101847733D01*
X158281811Y-101847732D01*
X158281814Y-101847727D01*
X158339024Y-101659132D01*
X158358341Y-101463000D01*
X158887659Y-101463000D01*
X158906975Y-101659129D01*
X158964188Y-101847733D01*
X159057086Y-102021532D01*
X159057090Y-102021539D01*
X159182116Y-102173883D01*
X159334460Y-102298909D01*
X159334467Y-102298913D01*
X159508266Y-102391811D01*
X159508269Y-102391811D01*
X159508273Y-102391814D01*
X159696868Y-102449024D01*
X159893000Y-102468341D01*
X160089132Y-102449024D01*
X160277727Y-102391814D01*
X160451538Y-102298910D01*
X160603883Y-102173883D01*
X160728910Y-102021538D01*
X160812763Y-101864661D01*
X160821811Y-101847733D01*
X160821811Y-101847732D01*
X160821814Y-101847727D01*
X160879024Y-101659132D01*
X160898341Y-101463000D01*
X161427659Y-101463000D01*
X161446975Y-101659129D01*
X161504188Y-101847733D01*
X161597086Y-102021532D01*
X161597090Y-102021539D01*
X161722116Y-102173883D01*
X161874460Y-102298909D01*
X161874467Y-102298913D01*
X162048266Y-102391811D01*
X162048269Y-102391811D01*
X162048273Y-102391814D01*
X162236868Y-102449024D01*
X162433000Y-102468341D01*
X162629132Y-102449024D01*
X162817727Y-102391814D01*
X162991538Y-102298910D01*
X163143883Y-102173883D01*
X163268910Y-102021538D01*
X163352763Y-101864661D01*
X163361811Y-101847733D01*
X163361811Y-101847732D01*
X163361814Y-101847727D01*
X163419024Y-101659132D01*
X163438341Y-101463000D01*
X163967659Y-101463000D01*
X163986975Y-101659129D01*
X164044188Y-101847733D01*
X164137086Y-102021532D01*
X164137090Y-102021539D01*
X164262116Y-102173883D01*
X164414460Y-102298909D01*
X164414467Y-102298913D01*
X164588266Y-102391811D01*
X164588269Y-102391811D01*
X164588273Y-102391814D01*
X164776868Y-102449024D01*
X164973000Y-102468341D01*
X165169132Y-102449024D01*
X165357727Y-102391814D01*
X165531538Y-102298910D01*
X165683883Y-102173883D01*
X165808910Y-102021538D01*
X165892763Y-101864661D01*
X165901811Y-101847733D01*
X165901811Y-101847732D01*
X165901814Y-101847727D01*
X165959024Y-101659132D01*
X165978341Y-101463000D01*
X166507659Y-101463000D01*
X166526975Y-101659129D01*
X166584188Y-101847733D01*
X166677086Y-102021532D01*
X166677090Y-102021539D01*
X166802116Y-102173883D01*
X166954460Y-102298909D01*
X166954467Y-102298913D01*
X167128266Y-102391811D01*
X167128269Y-102391811D01*
X167128273Y-102391814D01*
X167316868Y-102449024D01*
X167513000Y-102468341D01*
X167709132Y-102449024D01*
X167897727Y-102391814D01*
X168071538Y-102298910D01*
X168223883Y-102173883D01*
X168348910Y-102021538D01*
X168432763Y-101864661D01*
X168441811Y-101847733D01*
X168441811Y-101847732D01*
X168441814Y-101847727D01*
X168499024Y-101659132D01*
X168518341Y-101463000D01*
X169047659Y-101463000D01*
X169066975Y-101659129D01*
X169124188Y-101847733D01*
X169217086Y-102021532D01*
X169217090Y-102021539D01*
X169342116Y-102173883D01*
X169494460Y-102298909D01*
X169494467Y-102298913D01*
X169668266Y-102391811D01*
X169668269Y-102391811D01*
X169668273Y-102391814D01*
X169856868Y-102449024D01*
X170053000Y-102468341D01*
X170249132Y-102449024D01*
X170437727Y-102391814D01*
X170611538Y-102298910D01*
X170763883Y-102173883D01*
X170888910Y-102021538D01*
X170972763Y-101864661D01*
X170981811Y-101847733D01*
X170981811Y-101847732D01*
X170981814Y-101847727D01*
X171039024Y-101659132D01*
X171058341Y-101463000D01*
X171587659Y-101463000D01*
X171606975Y-101659129D01*
X171664188Y-101847733D01*
X171757086Y-102021532D01*
X171757090Y-102021539D01*
X171882116Y-102173883D01*
X172034460Y-102298909D01*
X172034467Y-102298913D01*
X172208266Y-102391811D01*
X172208269Y-102391811D01*
X172208273Y-102391814D01*
X172396868Y-102449024D01*
X172593000Y-102468341D01*
X172789132Y-102449024D01*
X172977727Y-102391814D01*
X173151538Y-102298910D01*
X173303883Y-102173883D01*
X173428910Y-102021538D01*
X173512763Y-101864661D01*
X173521811Y-101847733D01*
X173521811Y-101847732D01*
X173521814Y-101847727D01*
X173579024Y-101659132D01*
X173598341Y-101463000D01*
X174127659Y-101463000D01*
X174146975Y-101659129D01*
X174204188Y-101847733D01*
X174297086Y-102021532D01*
X174297090Y-102021539D01*
X174422116Y-102173883D01*
X174574460Y-102298909D01*
X174574467Y-102298913D01*
X174748266Y-102391811D01*
X174748269Y-102391811D01*
X174748273Y-102391814D01*
X174936868Y-102449024D01*
X175133000Y-102468341D01*
X175329132Y-102449024D01*
X175517727Y-102391814D01*
X175691538Y-102298910D01*
X175843883Y-102173883D01*
X175968910Y-102021538D01*
X176052763Y-101864661D01*
X176061811Y-101847733D01*
X176061811Y-101847732D01*
X176061814Y-101847727D01*
X176119024Y-101659132D01*
X176138341Y-101463000D01*
X176119024Y-101266868D01*
X176061814Y-101078273D01*
X176061811Y-101078267D01*
X176061811Y-101078266D01*
X175968913Y-100904467D01*
X175968909Y-100904460D01*
X175843883Y-100752116D01*
X175691539Y-100627090D01*
X175691532Y-100627086D01*
X175517733Y-100534188D01*
X175517727Y-100534186D01*
X175329132Y-100476976D01*
X175329129Y-100476975D01*
X175133000Y-100457659D01*
X174936870Y-100476975D01*
X174748266Y-100534188D01*
X174574467Y-100627086D01*
X174574460Y-100627090D01*
X174422116Y-100752116D01*
X174297090Y-100904460D01*
X174297086Y-100904467D01*
X174204188Y-101078266D01*
X174146975Y-101266870D01*
X174127659Y-101463000D01*
X173598341Y-101463000D01*
X173579024Y-101266868D01*
X173521814Y-101078273D01*
X173521811Y-101078267D01*
X173521811Y-101078266D01*
X173428913Y-100904467D01*
X173428909Y-100904460D01*
X173303883Y-100752116D01*
X173151539Y-100627090D01*
X173151532Y-100627086D01*
X172977733Y-100534188D01*
X172977727Y-100534186D01*
X172789132Y-100476976D01*
X172789129Y-100476975D01*
X172593000Y-100457659D01*
X172396870Y-100476975D01*
X172208266Y-100534188D01*
X172034467Y-100627086D01*
X172034460Y-100627090D01*
X171882116Y-100752116D01*
X171757090Y-100904460D01*
X171757086Y-100904467D01*
X171664188Y-101078266D01*
X171606975Y-101266870D01*
X171587659Y-101463000D01*
X171058341Y-101463000D01*
X171039024Y-101266868D01*
X170981814Y-101078273D01*
X170981810Y-101078266D01*
X170895142Y-100916120D01*
X170880500Y-100857667D01*
X170880500Y-97770752D01*
X176622500Y-97770752D01*
X176634131Y-97829229D01*
X176634132Y-97829230D01*
X176678447Y-97895552D01*
X176744769Y-97939867D01*
X176744770Y-97939868D01*
X176803247Y-97951499D01*
X176803250Y-97951500D01*
X176803252Y-97951500D01*
X176848500Y-97951500D01*
X176915539Y-97971185D01*
X176961294Y-98023989D01*
X176972500Y-98075500D01*
X176972500Y-100695096D01*
X176952815Y-100762135D01*
X176944353Y-100773761D01*
X176837090Y-100904460D01*
X176837086Y-100904467D01*
X176744188Y-101078266D01*
X176686975Y-101266870D01*
X176667659Y-101463000D01*
X176686975Y-101659129D01*
X176744188Y-101847733D01*
X176837086Y-102021532D01*
X176837090Y-102021539D01*
X176962116Y-102173883D01*
X177114460Y-102298909D01*
X177114467Y-102298913D01*
X177288266Y-102391811D01*
X177288269Y-102391811D01*
X177288273Y-102391814D01*
X177476868Y-102449024D01*
X177673000Y-102468341D01*
X177869132Y-102449024D01*
X178057727Y-102391814D01*
X178231538Y-102298910D01*
X178383883Y-102173883D01*
X178508910Y-102021538D01*
X178592763Y-101864661D01*
X178601811Y-101847733D01*
X178601811Y-101847732D01*
X178601814Y-101847727D01*
X178659024Y-101659132D01*
X178678341Y-101463000D01*
X178659024Y-101266868D01*
X178601814Y-101078273D01*
X178601811Y-101078267D01*
X178601811Y-101078266D01*
X178508913Y-100904467D01*
X178508909Y-100904460D01*
X178401647Y-100773761D01*
X178374334Y-100709451D01*
X178373500Y-100695096D01*
X178373500Y-98075500D01*
X178393185Y-98008461D01*
X178445989Y-97962706D01*
X178497500Y-97951500D01*
X178542750Y-97951500D01*
X178542751Y-97951499D01*
X178557568Y-97948552D01*
X178601229Y-97939868D01*
X178601229Y-97939867D01*
X178601231Y-97939867D01*
X178667552Y-97895552D01*
X178711867Y-97829231D01*
X178711867Y-97829229D01*
X178711868Y-97829229D01*
X178723499Y-97770752D01*
X178723500Y-97770750D01*
X178723500Y-96031249D01*
X178723499Y-96031247D01*
X178711868Y-95972770D01*
X178711867Y-95972769D01*
X178667552Y-95906447D01*
X178601230Y-95862132D01*
X178601229Y-95862131D01*
X178542752Y-95850500D01*
X178542748Y-95850500D01*
X176803252Y-95850500D01*
X176803247Y-95850500D01*
X176744770Y-95862131D01*
X176744769Y-95862132D01*
X176678447Y-95906447D01*
X176634132Y-95972769D01*
X176634131Y-95972770D01*
X176622500Y-96031247D01*
X176622500Y-97770752D01*
X170880500Y-97770752D01*
X170880500Y-92028734D01*
X170900185Y-91961695D01*
X170922275Y-91936881D01*
X170922107Y-91936713D01*
X170925003Y-91933816D01*
X170925838Y-91932879D01*
X170926410Y-91932410D01*
X171057685Y-91772450D01*
X171155232Y-91589954D01*
X171215300Y-91391934D01*
X171235583Y-91186000D01*
X171664417Y-91186000D01*
X171684699Y-91391932D01*
X171684700Y-91391934D01*
X171744768Y-91589954D01*
X171842315Y-91772450D01*
X171876969Y-91814677D01*
X171973589Y-91932410D01*
X172035667Y-91983355D01*
X172133550Y-92063685D01*
X172316046Y-92161232D01*
X172514066Y-92221300D01*
X172514065Y-92221300D01*
X172532529Y-92223118D01*
X172720000Y-92241583D01*
X172925934Y-92221300D01*
X173123954Y-92161232D01*
X173306450Y-92063685D01*
X173466410Y-91932410D01*
X173597685Y-91772450D01*
X173695232Y-91589954D01*
X173715406Y-91523446D01*
X173753702Y-91465010D01*
X173817514Y-91436553D01*
X173886581Y-91447112D01*
X173938975Y-91493336D01*
X173953841Y-91527349D01*
X173986567Y-91649486D01*
X173986570Y-91649492D01*
X174086399Y-91863578D01*
X174221894Y-92057082D01*
X174388917Y-92224105D01*
X174582421Y-92359600D01*
X174796507Y-92459429D01*
X174796516Y-92459433D01*
X175010000Y-92516634D01*
X175010000Y-91619012D01*
X175067007Y-91651925D01*
X175194174Y-91686000D01*
X175325826Y-91686000D01*
X175452993Y-91651925D01*
X175510000Y-91619012D01*
X175510000Y-92516633D01*
X175723483Y-92459433D01*
X175723492Y-92459429D01*
X175937578Y-92359600D01*
X176131082Y-92224105D01*
X176298105Y-92057082D01*
X176433600Y-91863578D01*
X176533429Y-91649492D01*
X176533432Y-91649486D01*
X176590636Y-91436000D01*
X175693012Y-91436000D01*
X175725925Y-91378993D01*
X175760000Y-91251826D01*
X175760000Y-91120174D01*
X175725925Y-90993007D01*
X175693012Y-90936000D01*
X176590636Y-90936000D01*
X176590635Y-90935999D01*
X176533432Y-90722513D01*
X176533429Y-90722507D01*
X176433600Y-90508422D01*
X176433599Y-90508420D01*
X176298113Y-90314926D01*
X176298108Y-90314920D01*
X176131082Y-90147894D01*
X175937578Y-90012399D01*
X175723492Y-89912570D01*
X175723486Y-89912567D01*
X175510000Y-89855364D01*
X175510000Y-90752988D01*
X175452993Y-90720075D01*
X175325826Y-90686000D01*
X175194174Y-90686000D01*
X175067007Y-90720075D01*
X175010000Y-90752988D01*
X175010000Y-89855364D01*
X175009999Y-89855364D01*
X174796513Y-89912567D01*
X174796507Y-89912570D01*
X174582422Y-90012399D01*
X174582420Y-90012400D01*
X174388926Y-90147886D01*
X174388920Y-90147891D01*
X174221891Y-90314920D01*
X174221886Y-90314926D01*
X174086400Y-90508420D01*
X174086399Y-90508422D01*
X173986570Y-90722507D01*
X173986567Y-90722514D01*
X173953841Y-90844650D01*
X173917476Y-90904310D01*
X173854629Y-90934839D01*
X173785253Y-90926544D01*
X173731375Y-90882059D01*
X173715406Y-90848553D01*
X173695232Y-90782046D01*
X173597685Y-90599550D01*
X173522897Y-90508420D01*
X173466410Y-90439589D01*
X173316121Y-90316252D01*
X173306450Y-90308315D01*
X173123954Y-90210768D01*
X172925934Y-90150700D01*
X172925932Y-90150699D01*
X172925934Y-90150699D01*
X172720000Y-90130417D01*
X172514067Y-90150699D01*
X172316043Y-90210769D01*
X172228114Y-90257769D01*
X172133550Y-90308315D01*
X172133548Y-90308316D01*
X172133547Y-90308317D01*
X171973589Y-90439589D01*
X171859612Y-90578473D01*
X171842315Y-90599550D01*
X171842179Y-90599805D01*
X171744769Y-90782043D01*
X171684699Y-90980067D01*
X171664417Y-91186000D01*
X171235583Y-91186000D01*
X171215300Y-90980066D01*
X171155232Y-90782046D01*
X171057685Y-90599550D01*
X170982897Y-90508420D01*
X170926410Y-90439589D01*
X170776121Y-90316252D01*
X170766450Y-90308315D01*
X170583954Y-90210768D01*
X170385934Y-90150700D01*
X170385932Y-90150699D01*
X170385934Y-90150699D01*
X170180000Y-90130417D01*
X169974067Y-90150699D01*
X169776043Y-90210769D01*
X169688114Y-90257769D01*
X169593550Y-90308315D01*
X169593548Y-90308316D01*
X169593547Y-90308317D01*
X169433589Y-90439589D01*
X169319612Y-90578473D01*
X169302315Y-90599550D01*
X169302179Y-90599805D01*
X169204769Y-90782043D01*
X169144699Y-90980067D01*
X169124417Y-91186000D01*
X169144699Y-91391932D01*
X169144700Y-91391934D01*
X169204768Y-91589954D01*
X169302315Y-91772450D01*
X169433590Y-91932410D01*
X169434159Y-91932877D01*
X169434379Y-91933199D01*
X169437893Y-91936713D01*
X169437226Y-91937379D01*
X169473496Y-91990618D01*
X169479500Y-92028734D01*
X169479500Y-100580721D01*
X169459815Y-100647760D01*
X169434165Y-100676574D01*
X169342116Y-100752116D01*
X169217090Y-100904460D01*
X169217086Y-100904467D01*
X169124188Y-101078266D01*
X169066975Y-101266870D01*
X169047659Y-101463000D01*
X168518341Y-101463000D01*
X168499024Y-101266868D01*
X168441814Y-101078273D01*
X168441810Y-101078266D01*
X168355142Y-100916120D01*
X168340500Y-100857667D01*
X168340500Y-92028734D01*
X168360185Y-91961695D01*
X168382275Y-91936881D01*
X168382107Y-91936713D01*
X168385003Y-91933816D01*
X168385838Y-91932879D01*
X168386410Y-91932410D01*
X168517685Y-91772450D01*
X168615232Y-91589954D01*
X168675300Y-91391934D01*
X168695583Y-91186000D01*
X168675300Y-90980066D01*
X168615232Y-90782046D01*
X168517685Y-90599550D01*
X168442897Y-90508420D01*
X168386410Y-90439589D01*
X168236121Y-90316252D01*
X168226450Y-90308315D01*
X168043954Y-90210768D01*
X167845934Y-90150700D01*
X167845932Y-90150699D01*
X167845934Y-90150699D01*
X167640000Y-90130417D01*
X167434067Y-90150699D01*
X167236043Y-90210769D01*
X167148114Y-90257769D01*
X167053550Y-90308315D01*
X167053548Y-90308316D01*
X167053547Y-90308317D01*
X166893589Y-90439589D01*
X166779612Y-90578473D01*
X166762315Y-90599550D01*
X166762179Y-90599805D01*
X166664769Y-90782043D01*
X166604699Y-90980067D01*
X166584417Y-91186000D01*
X166604699Y-91391932D01*
X166604700Y-91391934D01*
X166664768Y-91589954D01*
X166762315Y-91772450D01*
X166893590Y-91932410D01*
X166894159Y-91932877D01*
X166894379Y-91933199D01*
X166897893Y-91936713D01*
X166897226Y-91937379D01*
X166933496Y-91990618D01*
X166939500Y-92028734D01*
X166939500Y-100580721D01*
X166919815Y-100647760D01*
X166894165Y-100676574D01*
X166802116Y-100752116D01*
X166677090Y-100904460D01*
X166677086Y-100904467D01*
X166584188Y-101078266D01*
X166526975Y-101266870D01*
X166507659Y-101463000D01*
X165978341Y-101463000D01*
X165959024Y-101266868D01*
X165901814Y-101078273D01*
X165901810Y-101078266D01*
X165815142Y-100916120D01*
X165800500Y-100857667D01*
X165800500Y-92028734D01*
X165820185Y-91961695D01*
X165842275Y-91936881D01*
X165842107Y-91936713D01*
X165845003Y-91933816D01*
X165845838Y-91932879D01*
X165846410Y-91932410D01*
X165977685Y-91772450D01*
X166075232Y-91589954D01*
X166135300Y-91391934D01*
X166155583Y-91186000D01*
X166135300Y-90980066D01*
X166075232Y-90782046D01*
X165977685Y-90599550D01*
X165902897Y-90508420D01*
X165846410Y-90439589D01*
X165696121Y-90316252D01*
X165686450Y-90308315D01*
X165503954Y-90210768D01*
X165305934Y-90150700D01*
X165305932Y-90150699D01*
X165305934Y-90150699D01*
X165100000Y-90130417D01*
X164894067Y-90150699D01*
X164696043Y-90210769D01*
X164608114Y-90257769D01*
X164513550Y-90308315D01*
X164513548Y-90308316D01*
X164513547Y-90308317D01*
X164353589Y-90439589D01*
X164239612Y-90578473D01*
X164222315Y-90599550D01*
X164222179Y-90599805D01*
X164124769Y-90782043D01*
X164064699Y-90980067D01*
X164044417Y-91186000D01*
X164064699Y-91391932D01*
X164064700Y-91391934D01*
X164124768Y-91589954D01*
X164222315Y-91772450D01*
X164353590Y-91932410D01*
X164354159Y-91932877D01*
X164354379Y-91933199D01*
X164357893Y-91936713D01*
X164357226Y-91937379D01*
X164393496Y-91990618D01*
X164399500Y-92028734D01*
X164399500Y-100580721D01*
X164379815Y-100647760D01*
X164354165Y-100676574D01*
X164262116Y-100752116D01*
X164137090Y-100904460D01*
X164137086Y-100904467D01*
X164044188Y-101078266D01*
X163986975Y-101266870D01*
X163967659Y-101463000D01*
X163438341Y-101463000D01*
X163419024Y-101266868D01*
X163361814Y-101078273D01*
X163361810Y-101078266D01*
X163275142Y-100916120D01*
X163260500Y-100857667D01*
X163260500Y-92028734D01*
X163280185Y-91961695D01*
X163302275Y-91936881D01*
X163302107Y-91936713D01*
X163305003Y-91933816D01*
X163305838Y-91932879D01*
X163306410Y-91932410D01*
X163437685Y-91772450D01*
X163535232Y-91589954D01*
X163595300Y-91391934D01*
X163615583Y-91186000D01*
X163595300Y-90980066D01*
X163535232Y-90782046D01*
X163437685Y-90599550D01*
X163362897Y-90508420D01*
X163306410Y-90439589D01*
X163156121Y-90316252D01*
X163146450Y-90308315D01*
X162963954Y-90210768D01*
X162765934Y-90150700D01*
X162765932Y-90150699D01*
X162765934Y-90150699D01*
X162560000Y-90130417D01*
X162354067Y-90150699D01*
X162156043Y-90210769D01*
X162068114Y-90257769D01*
X161973550Y-90308315D01*
X161973548Y-90308316D01*
X161973547Y-90308317D01*
X161813589Y-90439589D01*
X161699612Y-90578473D01*
X161682315Y-90599550D01*
X161682179Y-90599805D01*
X161584769Y-90782043D01*
X161524699Y-90980067D01*
X161504417Y-91186000D01*
X161524699Y-91391932D01*
X161524700Y-91391934D01*
X161584768Y-91589954D01*
X161682315Y-91772450D01*
X161813590Y-91932410D01*
X161814159Y-91932877D01*
X161814379Y-91933199D01*
X161817893Y-91936713D01*
X161817226Y-91937379D01*
X161853496Y-91990618D01*
X161859500Y-92028734D01*
X161859500Y-100580721D01*
X161839815Y-100647760D01*
X161814165Y-100676574D01*
X161722116Y-100752116D01*
X161597090Y-100904460D01*
X161597086Y-100904467D01*
X161504188Y-101078266D01*
X161446975Y-101266870D01*
X161427659Y-101463000D01*
X160898341Y-101463000D01*
X160879024Y-101266868D01*
X160821814Y-101078273D01*
X160821810Y-101078266D01*
X160735142Y-100916120D01*
X160720500Y-100857667D01*
X160720500Y-92028734D01*
X160740185Y-91961695D01*
X160762275Y-91936881D01*
X160762107Y-91936713D01*
X160765003Y-91933816D01*
X160765838Y-91932879D01*
X160766410Y-91932410D01*
X160897685Y-91772450D01*
X160995232Y-91589954D01*
X161055300Y-91391934D01*
X161075583Y-91186000D01*
X161055300Y-90980066D01*
X160995232Y-90782046D01*
X160897685Y-90599550D01*
X160822897Y-90508420D01*
X160766410Y-90439589D01*
X160616121Y-90316252D01*
X160606450Y-90308315D01*
X160423954Y-90210768D01*
X160225934Y-90150700D01*
X160225932Y-90150699D01*
X160225934Y-90150699D01*
X160020000Y-90130417D01*
X159814067Y-90150699D01*
X159616043Y-90210769D01*
X159528114Y-90257769D01*
X159433550Y-90308315D01*
X159433548Y-90308316D01*
X159433547Y-90308317D01*
X159273589Y-90439589D01*
X159159612Y-90578473D01*
X159142315Y-90599550D01*
X159142179Y-90599805D01*
X159044769Y-90782043D01*
X158984699Y-90980067D01*
X158964417Y-91186000D01*
X158984699Y-91391932D01*
X158984700Y-91391934D01*
X159044768Y-91589954D01*
X159142315Y-91772450D01*
X159273590Y-91932410D01*
X159274159Y-91932877D01*
X159274379Y-91933199D01*
X159277893Y-91936713D01*
X159277226Y-91937379D01*
X159313496Y-91990618D01*
X159319500Y-92028734D01*
X159319500Y-100580721D01*
X159299815Y-100647760D01*
X159274165Y-100676574D01*
X159182116Y-100752116D01*
X159057090Y-100904460D01*
X159057086Y-100904467D01*
X158964188Y-101078266D01*
X158906975Y-101266870D01*
X158887659Y-101463000D01*
X158358341Y-101463000D01*
X158339024Y-101266868D01*
X158281814Y-101078273D01*
X158281810Y-101078266D01*
X158195142Y-100916120D01*
X158180500Y-100857667D01*
X158180500Y-92028734D01*
X158200185Y-91961695D01*
X158222275Y-91936881D01*
X158222107Y-91936713D01*
X158225003Y-91933816D01*
X158225838Y-91932879D01*
X158226410Y-91932410D01*
X158357685Y-91772450D01*
X158455232Y-91589954D01*
X158515300Y-91391934D01*
X158535583Y-91186000D01*
X158515300Y-90980066D01*
X158455232Y-90782046D01*
X158357685Y-90599550D01*
X158282897Y-90508420D01*
X158226410Y-90439589D01*
X158076121Y-90316252D01*
X158066450Y-90308315D01*
X157883954Y-90210768D01*
X157685934Y-90150700D01*
X157685932Y-90150699D01*
X157685934Y-90150699D01*
X157480000Y-90130417D01*
X157274067Y-90150699D01*
X157076043Y-90210769D01*
X156988114Y-90257769D01*
X156893550Y-90308315D01*
X156893548Y-90308316D01*
X156893547Y-90308317D01*
X156733589Y-90439589D01*
X156619612Y-90578473D01*
X156602315Y-90599550D01*
X156602179Y-90599805D01*
X156504769Y-90782043D01*
X156444699Y-90980067D01*
X156424417Y-91186000D01*
X156444699Y-91391932D01*
X156444700Y-91391934D01*
X156504768Y-91589954D01*
X156602315Y-91772450D01*
X156733590Y-91932410D01*
X156734159Y-91932877D01*
X156734379Y-91933199D01*
X156737893Y-91936713D01*
X156737226Y-91937379D01*
X156773496Y-91990618D01*
X156779500Y-92028734D01*
X156779500Y-100580721D01*
X156759815Y-100647760D01*
X156734165Y-100676574D01*
X156642116Y-100752116D01*
X156517090Y-100904460D01*
X156517086Y-100904467D01*
X156424188Y-101078266D01*
X156366975Y-101266870D01*
X156347659Y-101463000D01*
X155818341Y-101463000D01*
X155799024Y-101266868D01*
X155741814Y-101078273D01*
X155741810Y-101078266D01*
X155655142Y-100916120D01*
X155640500Y-100857667D01*
X155640500Y-92028734D01*
X155660185Y-91961695D01*
X155682275Y-91936881D01*
X155682107Y-91936713D01*
X155685003Y-91933816D01*
X155685838Y-91932879D01*
X155686410Y-91932410D01*
X155817685Y-91772450D01*
X155915232Y-91589954D01*
X155975300Y-91391934D01*
X155995583Y-91186000D01*
X155975300Y-90980066D01*
X155915232Y-90782046D01*
X155817685Y-90599550D01*
X155742897Y-90508420D01*
X155686410Y-90439589D01*
X155536121Y-90316252D01*
X155526450Y-90308315D01*
X155343954Y-90210768D01*
X155145934Y-90150700D01*
X155145932Y-90150699D01*
X155145934Y-90150699D01*
X154940000Y-90130417D01*
X154734067Y-90150699D01*
X154536043Y-90210769D01*
X154448114Y-90257769D01*
X154353550Y-90308315D01*
X154353548Y-90308316D01*
X154353547Y-90308317D01*
X154193589Y-90439589D01*
X154079612Y-90578473D01*
X154062315Y-90599550D01*
X154062179Y-90599805D01*
X153964769Y-90782043D01*
X153904699Y-90980067D01*
X153884417Y-91186000D01*
X153904699Y-91391932D01*
X153904700Y-91391934D01*
X153964768Y-91589954D01*
X154062315Y-91772450D01*
X154193590Y-91932410D01*
X154194159Y-91932877D01*
X154194379Y-91933199D01*
X154197893Y-91936713D01*
X154197226Y-91937379D01*
X154233496Y-91990618D01*
X154239500Y-92028734D01*
X154239500Y-100580721D01*
X154219815Y-100647760D01*
X154194165Y-100676574D01*
X154102116Y-100752116D01*
X153977090Y-100904460D01*
X153977086Y-100904467D01*
X153884188Y-101078266D01*
X153826975Y-101266870D01*
X153807659Y-101463000D01*
X153278341Y-101463000D01*
X153259024Y-101266868D01*
X153201814Y-101078273D01*
X153201810Y-101078266D01*
X153115142Y-100916120D01*
X153100500Y-100857667D01*
X153100500Y-92028734D01*
X153120185Y-91961695D01*
X153142275Y-91936881D01*
X153142107Y-91936713D01*
X153145003Y-91933816D01*
X153145838Y-91932879D01*
X153146410Y-91932410D01*
X153277685Y-91772450D01*
X153375232Y-91589954D01*
X153435300Y-91391934D01*
X153455583Y-91186000D01*
X153435300Y-90980066D01*
X153375232Y-90782046D01*
X153277685Y-90599550D01*
X153202897Y-90508420D01*
X153146410Y-90439589D01*
X152996121Y-90316252D01*
X152986450Y-90308315D01*
X152803954Y-90210768D01*
X152605934Y-90150700D01*
X152605932Y-90150699D01*
X152605934Y-90150699D01*
X152400000Y-90130417D01*
X152194067Y-90150699D01*
X151996043Y-90210769D01*
X151908114Y-90257769D01*
X151813550Y-90308315D01*
X151813548Y-90308316D01*
X151813547Y-90308317D01*
X151653589Y-90439589D01*
X151539612Y-90578473D01*
X151522315Y-90599550D01*
X151522179Y-90599805D01*
X151424769Y-90782043D01*
X151364699Y-90980067D01*
X151344417Y-91186000D01*
X151364699Y-91391932D01*
X151364700Y-91391934D01*
X151424768Y-91589954D01*
X151522315Y-91772450D01*
X151653590Y-91932410D01*
X151654159Y-91932877D01*
X151654379Y-91933199D01*
X151657893Y-91936713D01*
X151657226Y-91937379D01*
X151693496Y-91990618D01*
X151699500Y-92028734D01*
X151699500Y-100580721D01*
X151679815Y-100647760D01*
X151654165Y-100676574D01*
X151562116Y-100752116D01*
X151437090Y-100904460D01*
X151437086Y-100904467D01*
X151344188Y-101078266D01*
X151286975Y-101266870D01*
X151267659Y-101463000D01*
X150738341Y-101463000D01*
X150719024Y-101266868D01*
X150661814Y-101078273D01*
X150661810Y-101078266D01*
X150575142Y-100916120D01*
X150560500Y-100857667D01*
X150560500Y-92360500D01*
X150580185Y-92293461D01*
X150632989Y-92247706D01*
X150684500Y-92236500D01*
X150729750Y-92236500D01*
X150729751Y-92236499D01*
X150744568Y-92233552D01*
X150788229Y-92224868D01*
X150788229Y-92224867D01*
X150788231Y-92224867D01*
X150854552Y-92180552D01*
X150898867Y-92114231D01*
X150898867Y-92114229D01*
X150898868Y-92114229D01*
X150908922Y-92063682D01*
X150910500Y-92055748D01*
X150910500Y-90316252D01*
X150910500Y-90316249D01*
X150910499Y-90316247D01*
X150898868Y-90257770D01*
X150898867Y-90257769D01*
X150854552Y-90191447D01*
X150788230Y-90147132D01*
X150788229Y-90147131D01*
X150729752Y-90135500D01*
X150729748Y-90135500D01*
X148990252Y-90135500D01*
X148990247Y-90135500D01*
X148931770Y-90147131D01*
X148931769Y-90147132D01*
X148865447Y-90191447D01*
X148821132Y-90257769D01*
X148821131Y-90257770D01*
X148809500Y-90316247D01*
X148809500Y-92055752D01*
X148821131Y-92114229D01*
X148821132Y-92114230D01*
X148865447Y-92180552D01*
X148931769Y-92224867D01*
X148931770Y-92224868D01*
X148990247Y-92236499D01*
X148990250Y-92236500D01*
X148990252Y-92236500D01*
X149035500Y-92236500D01*
X149102539Y-92256185D01*
X149148294Y-92308989D01*
X149159500Y-92360500D01*
X149159500Y-100580721D01*
X149139815Y-100647760D01*
X149114165Y-100676574D01*
X149022116Y-100752116D01*
X148897090Y-100904460D01*
X148897086Y-100904467D01*
X148804188Y-101078266D01*
X148746975Y-101266870D01*
X148730403Y-101435133D01*
X148704242Y-101499921D01*
X148694681Y-101510660D01*
X148369181Y-101836160D01*
X148307858Y-101869645D01*
X148238166Y-101864661D01*
X148182233Y-101822789D01*
X148157816Y-101757325D01*
X148162840Y-101712483D01*
X148165373Y-101704132D01*
X148179024Y-101659132D01*
X148198341Y-101463000D01*
X148179024Y-101266868D01*
X148121814Y-101078273D01*
X148121811Y-101078267D01*
X148121811Y-101078266D01*
X148028913Y-100904467D01*
X148028909Y-100904460D01*
X147903883Y-100752116D01*
X147751539Y-100627090D01*
X147751532Y-100627086D01*
X147577733Y-100534188D01*
X147577727Y-100534186D01*
X147389132Y-100476976D01*
X147389129Y-100476975D01*
X147193000Y-100457659D01*
X146996870Y-100476975D01*
X146808266Y-100534188D01*
X146634467Y-100627086D01*
X146634460Y-100627090D01*
X146482116Y-100752116D01*
X146357090Y-100904460D01*
X146357086Y-100904467D01*
X146264188Y-101078266D01*
X146206975Y-101266870D01*
X146187659Y-101463000D01*
X146206975Y-101659129D01*
X146264188Y-101847733D01*
X146357086Y-102021532D01*
X146357090Y-102021539D01*
X146482116Y-102173883D01*
X146634460Y-102298909D01*
X146634467Y-102298913D01*
X146808266Y-102391811D01*
X146808269Y-102391811D01*
X146808273Y-102391814D01*
X146996868Y-102449024D01*
X147193000Y-102468341D01*
X147389132Y-102449024D01*
X147421942Y-102439070D01*
X147442484Y-102432840D01*
X147512351Y-102432216D01*
X147571464Y-102469464D01*
X147601055Y-102532758D01*
X147591730Y-102602002D01*
X147566161Y-102639181D01*
X144516162Y-105689181D01*
X144454839Y-105722666D01*
X144428481Y-105725500D01*
X134174500Y-105725500D01*
X134107461Y-105705815D01*
X134061706Y-105653011D01*
X134050500Y-105601500D01*
X134050500Y-103585734D01*
X134070185Y-103518695D01*
X134092275Y-103493881D01*
X134092107Y-103493713D01*
X134095003Y-103490816D01*
X134095838Y-103489879D01*
X134096410Y-103489410D01*
X134227685Y-103329450D01*
X134325232Y-103146954D01*
X134385300Y-102948934D01*
X134405583Y-102743000D01*
X134385300Y-102537066D01*
X134325232Y-102339046D01*
X134227685Y-102156550D01*
X134137161Y-102046245D01*
X134096410Y-101996589D01*
X133946121Y-101873252D01*
X133936450Y-101865315D01*
X133753954Y-101767768D01*
X133555934Y-101707700D01*
X133555932Y-101707699D01*
X133555934Y-101707699D01*
X133350000Y-101687417D01*
X133144067Y-101707699D01*
X132946043Y-101767769D01*
X132858114Y-101814769D01*
X132763550Y-101865315D01*
X132763548Y-101865316D01*
X132763547Y-101865317D01*
X132603591Y-101996588D01*
X132603115Y-101997169D01*
X132602787Y-101997391D01*
X132599287Y-102000893D01*
X132598622Y-102000228D01*
X132545368Y-102036501D01*
X132507265Y-102042500D01*
X131984500Y-102042500D01*
X131917461Y-102022815D01*
X131871706Y-101970011D01*
X131860500Y-101918500D01*
X131860500Y-101873249D01*
X131860499Y-101873247D01*
X131848868Y-101814770D01*
X131848867Y-101814769D01*
X131804552Y-101748447D01*
X131738230Y-101704132D01*
X131738229Y-101704131D01*
X131679752Y-101692500D01*
X131679748Y-101692500D01*
X129940252Y-101692500D01*
X129940247Y-101692500D01*
X129881770Y-101704131D01*
X129881769Y-101704132D01*
X129815447Y-101748447D01*
X129771132Y-101814769D01*
X129771131Y-101814770D01*
X129759500Y-101873247D01*
X129759500Y-103612752D01*
X129771131Y-103671229D01*
X129771132Y-103671230D01*
X129815447Y-103737552D01*
X129881769Y-103781867D01*
X129881770Y-103781868D01*
X129940247Y-103793499D01*
X129940250Y-103793500D01*
X129940252Y-103793500D01*
X131679750Y-103793500D01*
X131679751Y-103793499D01*
X131694568Y-103790552D01*
X131738229Y-103781868D01*
X131738229Y-103781867D01*
X131738231Y-103781867D01*
X131804552Y-103737552D01*
X131848867Y-103671231D01*
X131848867Y-103671229D01*
X131848868Y-103671229D01*
X131860499Y-103612752D01*
X131860500Y-103612750D01*
X131860500Y-103567500D01*
X131880185Y-103500461D01*
X131932989Y-103454706D01*
X131984500Y-103443500D01*
X132507265Y-103443500D01*
X132574304Y-103463185D01*
X132599113Y-103485271D01*
X132599282Y-103485103D01*
X132602183Y-103488004D01*
X132603122Y-103488840D01*
X132603589Y-103489410D01*
X132604160Y-103489878D01*
X132604380Y-103490201D01*
X132607897Y-103493718D01*
X132607230Y-103494384D01*
X132643497Y-103547621D01*
X132649500Y-103585735D01*
X132649500Y-112815480D01*
X132629815Y-112882519D01*
X132613181Y-112903161D01*
X127471888Y-118044453D01*
X127471887Y-118044454D01*
X127395222Y-118159192D01*
X127342421Y-118286667D01*
X127342418Y-118286679D01*
X127316002Y-118419485D01*
X127315999Y-118419502D01*
X127315500Y-118422007D01*
X127315500Y-123617265D01*
X127295815Y-123684304D01*
X127273729Y-123709115D01*
X127273897Y-123709283D01*
X127271021Y-123712158D01*
X127270173Y-123713110D01*
X127269590Y-123713590D01*
X127269588Y-123713592D01*
X127138317Y-123873546D01*
X127040769Y-124056043D01*
X126980699Y-124254067D01*
X126960417Y-124460000D01*
X126531583Y-124460000D01*
X126511300Y-124254066D01*
X126451232Y-124056046D01*
X126353685Y-123873550D01*
X126278897Y-123782420D01*
X126222410Y-123713589D01*
X126072121Y-123590252D01*
X126062450Y-123582315D01*
X125879954Y-123484768D01*
X125681934Y-123424700D01*
X125681932Y-123424699D01*
X125681934Y-123424699D01*
X125476000Y-123404417D01*
X125270067Y-123424699D01*
X125072043Y-123484769D01*
X124984114Y-123531769D01*
X124889550Y-123582315D01*
X124889548Y-123582316D01*
X124889547Y-123582317D01*
X124729589Y-123713589D01*
X124598317Y-123873547D01*
X124500769Y-124056043D01*
X124440699Y-124254067D01*
X124420417Y-124460000D01*
X112458500Y-124460000D01*
X112458500Y-105918000D01*
X113658564Y-105918000D01*
X113678289Y-106244099D01*
X113737178Y-106565452D01*
X113834366Y-106877342D01*
X113834370Y-106877354D01*
X113834373Y-106877361D01*
X113968455Y-107175279D01*
X114132901Y-107447306D01*
X114137473Y-107454868D01*
X114338954Y-107712039D01*
X114569960Y-107943045D01*
X114827131Y-108144526D01*
X114827134Y-108144528D01*
X114827137Y-108144530D01*
X115106721Y-108313545D01*
X115404639Y-108447627D01*
X115404652Y-108447631D01*
X115404657Y-108447633D01*
X115705081Y-108541248D01*
X115716547Y-108544821D01*
X116037896Y-108603710D01*
X116364000Y-108623436D01*
X116690104Y-108603710D01*
X117011453Y-108544821D01*
X117323361Y-108447627D01*
X117621279Y-108313545D01*
X117900863Y-108144530D01*
X118158036Y-107943048D01*
X118389048Y-107712036D01*
X118590530Y-107454863D01*
X118759545Y-107175279D01*
X118893627Y-106877361D01*
X118990821Y-106565453D01*
X119049710Y-106244104D01*
X119069436Y-105918000D01*
X119049710Y-105591896D01*
X118990821Y-105270547D01*
X118893627Y-104958639D01*
X118759545Y-104660721D01*
X118590530Y-104381137D01*
X118590528Y-104381134D01*
X118590526Y-104381131D01*
X118389045Y-104123960D01*
X118158039Y-103892954D01*
X117900868Y-103691473D01*
X117774138Y-103614862D01*
X117621279Y-103522455D01*
X117323361Y-103388373D01*
X117323354Y-103388370D01*
X117323342Y-103388366D01*
X117011452Y-103291178D01*
X116690099Y-103232289D01*
X116364000Y-103212564D01*
X116037900Y-103232289D01*
X115716547Y-103291178D01*
X115404657Y-103388366D01*
X115404641Y-103388372D01*
X115404639Y-103388373D01*
X115214933Y-103473752D01*
X115155590Y-103500461D01*
X115106721Y-103522455D01*
X115036825Y-103564708D01*
X114827131Y-103691473D01*
X114569960Y-103892954D01*
X114338954Y-104123960D01*
X114137473Y-104381131D01*
X114084673Y-104468473D01*
X113970378Y-104657541D01*
X113968454Y-104660723D01*
X113968453Y-104660725D01*
X113945322Y-104712121D01*
X113846050Y-104932695D01*
X113834372Y-104958642D01*
X113834366Y-104958657D01*
X113737178Y-105270547D01*
X113678289Y-105591900D01*
X113658564Y-105918000D01*
X112458500Y-105918000D01*
X112458500Y-102984862D01*
X112478185Y-102917823D01*
X112494819Y-102897181D01*
X122587000Y-92805000D01*
X128866564Y-92805000D01*
X128886289Y-93131099D01*
X128945178Y-93452452D01*
X129042366Y-93764342D01*
X129042370Y-93764354D01*
X129042373Y-93764361D01*
X129176455Y-94062279D01*
X129340901Y-94334306D01*
X129345473Y-94341868D01*
X129546954Y-94599039D01*
X129777960Y-94830045D01*
X130035131Y-95031526D01*
X130035134Y-95031528D01*
X130035137Y-95031530D01*
X130314721Y-95200545D01*
X130612639Y-95334627D01*
X130612652Y-95334631D01*
X130612657Y-95334633D01*
X130924547Y-95431821D01*
X131245896Y-95490710D01*
X131572000Y-95510436D01*
X131898104Y-95490710D01*
X132219453Y-95431821D01*
X132531361Y-95334627D01*
X132829279Y-95200545D01*
X133108863Y-95031530D01*
X133366036Y-94830048D01*
X133597048Y-94599036D01*
X133798530Y-94341863D01*
X133967545Y-94062279D01*
X134101627Y-93764361D01*
X134198821Y-93452453D01*
X134257710Y-93131104D01*
X134277436Y-92805000D01*
X134257710Y-92478896D01*
X134198821Y-92157547D01*
X134165816Y-92051629D01*
X134101633Y-91845657D01*
X134101631Y-91845652D01*
X134101627Y-91845639D01*
X133967545Y-91547721D01*
X133798530Y-91268137D01*
X133798528Y-91268134D01*
X133798526Y-91268131D01*
X133597045Y-91010960D01*
X133366039Y-90779954D01*
X133108868Y-90578473D01*
X133101306Y-90573901D01*
X132829279Y-90409455D01*
X132531361Y-90275373D01*
X132531354Y-90275370D01*
X132531342Y-90275366D01*
X132219452Y-90178178D01*
X131898099Y-90119289D01*
X131572000Y-90099564D01*
X131245900Y-90119289D01*
X130924547Y-90178178D01*
X130612657Y-90275366D01*
X130612641Y-90275372D01*
X130612639Y-90275373D01*
X130314721Y-90409455D01*
X130264872Y-90439590D01*
X130035131Y-90578473D01*
X129777960Y-90779954D01*
X129546954Y-91010960D01*
X129345473Y-91268131D01*
X129332574Y-91289469D01*
X129177149Y-91546574D01*
X129176454Y-91547723D01*
X129176453Y-91547725D01*
X129151849Y-91602393D01*
X129051826Y-91824637D01*
X129042372Y-91845642D01*
X129042366Y-91845657D01*
X128945178Y-92157547D01*
X128886289Y-92478900D01*
X128866564Y-92805000D01*
X122587000Y-92805000D01*
X130654181Y-84737819D01*
X130715504Y-84704334D01*
X130741862Y-84701500D01*
X191965138Y-84701500D01*
X192032177Y-84721185D01*
G37*
%TD.AperFunction*%
%TD*%
M02*
