%TF.GenerationSoftware,KiCad,Pcbnew,8.0.0*%
%TF.CreationDate,2024-06-20T18:12:00-03:00*%
%TF.ProjectId,LineFollowerRCX,4c696e65-466f-46c6-9c6f-776572524358,rev?*%
%TF.SameCoordinates,Original*%
%TF.FileFunction,Soldermask,Bot*%
%TF.FilePolarity,Negative*%
%FSLAX46Y46*%
G04 Gerber Fmt 4.6, Leading zero omitted, Abs format (unit mm)*
G04 Created by KiCad (PCBNEW 8.0.0) date 2024-06-20 18:12:00*
%MOMM*%
%LPD*%
G01*
G04 APERTURE LIST*
%ADD10C,1.512000*%
%ADD11C,2.454000*%
%ADD12C,2.184000*%
%ADD13R,1.700000X1.700000*%
%ADD14R,1.600000X1.600000*%
%ADD15O,1.600000X1.600000*%
%ADD16O,1.700000X1.700000*%
%ADD17R,2.000000X1.905000*%
%ADD18O,2.000000X1.905000*%
G04 APERTURE END LIST*
D10*
%TO.C,S1*%
X182825000Y-130556000D03*
X185325000Y-130556000D03*
X187825000Y-130556000D03*
D11*
X178825000Y-130556000D03*
X191825000Y-130556000D03*
%TD*%
D12*
%TO.C,U1*%
X150876000Y-142240000D03*
X153416000Y-142240000D03*
X155956000Y-142240000D03*
X158496000Y-142240000D03*
X161036000Y-142240000D03*
X163576000Y-142240000D03*
X166116000Y-142240000D03*
X168656000Y-142240000D03*
X168656000Y-127000000D03*
X166116000Y-127000000D03*
X163576000Y-127000000D03*
X161036000Y-127000000D03*
X158496000Y-127000000D03*
X155956000Y-127000000D03*
X153416000Y-127000000D03*
X150876000Y-127000000D03*
%TD*%
D13*
%TO.C,J7*%
X177673000Y-96901000D03*
%TD*%
%TO.C,J8*%
X177546000Y-122428000D03*
%TD*%
D14*
%TO.C,A2*%
X142113000Y-116703000D03*
D15*
X144653000Y-116703000D03*
X147193000Y-116703000D03*
X149733000Y-116703000D03*
X152273000Y-116703000D03*
X154813000Y-116703000D03*
X157353000Y-116703000D03*
X159893000Y-116703000D03*
X162433000Y-116703000D03*
X164973000Y-116703000D03*
X167513000Y-116703000D03*
X170053000Y-116703000D03*
X172593000Y-116703000D03*
X175133000Y-116703000D03*
X177673000Y-116703000D03*
X177673000Y-101463000D03*
X175133000Y-101463000D03*
X172593000Y-101463000D03*
X170053000Y-101463000D03*
X167513000Y-101463000D03*
X164973000Y-101463000D03*
X162433000Y-101463000D03*
X159893000Y-101463000D03*
X157353000Y-101463000D03*
X154813000Y-101463000D03*
X152273000Y-101463000D03*
X149733000Y-101463000D03*
X147193000Y-101463000D03*
X144653000Y-101463000D03*
X142113000Y-101463000D03*
%TD*%
D13*
%TO.C,J9*%
X130810000Y-102743000D03*
D16*
X133350000Y-102743000D03*
%TD*%
D13*
%TO.C,Bateria1*%
X191033000Y-118511000D03*
D16*
X191033000Y-121051000D03*
%TD*%
D13*
%TO.C,J1*%
X149860000Y-91186000D03*
D16*
X152400000Y-91186000D03*
X154940000Y-91186000D03*
X157480000Y-91186000D03*
X160020000Y-91186000D03*
X162560000Y-91186000D03*
X165100000Y-91186000D03*
X167640000Y-91186000D03*
X170180000Y-91186000D03*
X172720000Y-91186000D03*
X175260000Y-91186000D03*
%TD*%
D13*
%TO.C,J2*%
X175006000Y-145288000D03*
D16*
X175006000Y-147828000D03*
%TD*%
D17*
%TO.C,U2*%
X192334000Y-108077000D03*
D18*
X192334000Y-105537000D03*
X192334000Y-102997000D03*
%TD*%
D13*
%TO.C,J4*%
X138176000Y-124460000D03*
D16*
X135636000Y-124460000D03*
X133096000Y-124460000D03*
X130556000Y-124460000D03*
X128016000Y-124460000D03*
X125476000Y-124460000D03*
%TD*%
D13*
%TO.C,J3*%
X144297000Y-146451000D03*
D16*
X144297000Y-148991000D03*
%TD*%
D13*
%TO.C,J10*%
X145415000Y-124714000D03*
D16*
X145415000Y-127254000D03*
%TD*%
M02*
