%TF.GenerationSoftware,KiCad,Pcbnew,8.0.0*%
%TF.CreationDate,2024-07-04T13:25:56-03:00*%
%TF.ProjectId,LineFollowerRCX,4c696e65-466f-46c6-9c6f-776572524358,rev?*%
%TF.SameCoordinates,Original*%
%TF.FileFunction,Legend,Bot*%
%TF.FilePolarity,Positive*%
%FSLAX46Y46*%
G04 Gerber Fmt 4.6, Leading zero omitted, Abs format (unit mm)*
G04 Created by KiCad (PCBNEW 8.0.0) date 2024-07-04 13:25:56*
%MOMM*%
%LPD*%
G01*
G04 APERTURE LIST*
%ADD10C,0.150000*%
%ADD11C,0.127000*%
%ADD12C,0.200000*%
%ADD13C,0.120000*%
G04 APERTURE END LIST*
D10*
X165151549Y-130874972D02*
X165039063Y-130912467D01*
X165039063Y-130912467D02*
X164851587Y-130912467D01*
X164851587Y-130912467D02*
X164776596Y-130874972D01*
X164776596Y-130874972D02*
X164739101Y-130837476D01*
X164739101Y-130837476D02*
X164701605Y-130762486D01*
X164701605Y-130762486D02*
X164701605Y-130687495D01*
X164701605Y-130687495D02*
X164739101Y-130612504D01*
X164739101Y-130612504D02*
X164776596Y-130575009D01*
X164776596Y-130575009D02*
X164851587Y-130537514D01*
X164851587Y-130537514D02*
X165001568Y-130500018D01*
X165001568Y-130500018D02*
X165076559Y-130462523D01*
X165076559Y-130462523D02*
X165114054Y-130425028D01*
X165114054Y-130425028D02*
X165151549Y-130350037D01*
X165151549Y-130350037D02*
X165151549Y-130275046D01*
X165151549Y-130275046D02*
X165114054Y-130200056D01*
X165114054Y-130200056D02*
X165076559Y-130162560D01*
X165076559Y-130162560D02*
X165001568Y-130125065D01*
X165001568Y-130125065D02*
X164814091Y-130125065D01*
X164814091Y-130125065D02*
X164701605Y-130162560D01*
X163951698Y-130912467D02*
X164401642Y-130912467D01*
X164176670Y-130912467D02*
X164176670Y-130125065D01*
X164176670Y-130125065D02*
X164251661Y-130237551D01*
X164251661Y-130237551D02*
X164326652Y-130312542D01*
X164326652Y-130312542D02*
X164401642Y-130350037D01*
X201178643Y-139391295D02*
X201988166Y-139391295D01*
X201988166Y-139391295D02*
X202083404Y-139438914D01*
X202083404Y-139438914D02*
X202131024Y-139486533D01*
X202131024Y-139486533D02*
X202178643Y-139581771D01*
X202178643Y-139581771D02*
X202178643Y-139772247D01*
X202178643Y-139772247D02*
X202131024Y-139867485D01*
X202131024Y-139867485D02*
X202083404Y-139915104D01*
X202083404Y-139915104D02*
X201988166Y-139962723D01*
X201988166Y-139962723D02*
X201178643Y-139962723D01*
X202178643Y-140962723D02*
X202178643Y-140391295D01*
X202178643Y-140677009D02*
X201178643Y-140677009D01*
X201178643Y-140677009D02*
X201321500Y-140581771D01*
X201321500Y-140581771D02*
X201416738Y-140486533D01*
X201416738Y-140486533D02*
X201464357Y-140391295D01*
X172536957Y-93585819D02*
X172536957Y-94300104D01*
X172536957Y-94300104D02*
X172584576Y-94442961D01*
X172584576Y-94442961D02*
X172679814Y-94538200D01*
X172679814Y-94538200D02*
X172822671Y-94585819D01*
X172822671Y-94585819D02*
X172917909Y-94585819D01*
X172156004Y-93585819D02*
X171489338Y-93585819D01*
X171489338Y-93585819D02*
X171917909Y-94585819D01*
X172663957Y-119112819D02*
X172663957Y-119827104D01*
X172663957Y-119827104D02*
X172711576Y-119969961D01*
X172711576Y-119969961D02*
X172806814Y-120065200D01*
X172806814Y-120065200D02*
X172949671Y-120112819D01*
X172949671Y-120112819D02*
X173044909Y-120112819D01*
X172044909Y-119541390D02*
X172140147Y-119493771D01*
X172140147Y-119493771D02*
X172187766Y-119446152D01*
X172187766Y-119446152D02*
X172235385Y-119350914D01*
X172235385Y-119350914D02*
X172235385Y-119303295D01*
X172235385Y-119303295D02*
X172187766Y-119208057D01*
X172187766Y-119208057D02*
X172140147Y-119160438D01*
X172140147Y-119160438D02*
X172044909Y-119112819D01*
X172044909Y-119112819D02*
X171854433Y-119112819D01*
X171854433Y-119112819D02*
X171759195Y-119160438D01*
X171759195Y-119160438D02*
X171711576Y-119208057D01*
X171711576Y-119208057D02*
X171663957Y-119303295D01*
X171663957Y-119303295D02*
X171663957Y-119350914D01*
X171663957Y-119350914D02*
X171711576Y-119446152D01*
X171711576Y-119446152D02*
X171759195Y-119493771D01*
X171759195Y-119493771D02*
X171854433Y-119541390D01*
X171854433Y-119541390D02*
X172044909Y-119541390D01*
X172044909Y-119541390D02*
X172140147Y-119589009D01*
X172140147Y-119589009D02*
X172187766Y-119636628D01*
X172187766Y-119636628D02*
X172235385Y-119731866D01*
X172235385Y-119731866D02*
X172235385Y-119922342D01*
X172235385Y-119922342D02*
X172187766Y-120017580D01*
X172187766Y-120017580D02*
X172140147Y-120065200D01*
X172140147Y-120065200D02*
X172044909Y-120112819D01*
X172044909Y-120112819D02*
X171854433Y-120112819D01*
X171854433Y-120112819D02*
X171759195Y-120065200D01*
X171759195Y-120065200D02*
X171711576Y-120017580D01*
X171711576Y-120017580D02*
X171663957Y-119922342D01*
X171663957Y-119922342D02*
X171663957Y-119731866D01*
X171663957Y-119731866D02*
X171711576Y-119636628D01*
X171711576Y-119636628D02*
X171759195Y-119589009D01*
X171759195Y-119589009D02*
X171854433Y-119541390D01*
X213012728Y-108368714D02*
X213012728Y-108844904D01*
X213298443Y-108273476D02*
X212298443Y-108606809D01*
X212298443Y-108606809D02*
X213298443Y-108940142D01*
X212393681Y-109225857D02*
X212346062Y-109273476D01*
X212346062Y-109273476D02*
X212298443Y-109368714D01*
X212298443Y-109368714D02*
X212298443Y-109606809D01*
X212298443Y-109606809D02*
X212346062Y-109702047D01*
X212346062Y-109702047D02*
X212393681Y-109749666D01*
X212393681Y-109749666D02*
X212488919Y-109797285D01*
X212488919Y-109797285D02*
X212584157Y-109797285D01*
X212584157Y-109797285D02*
X212727014Y-109749666D01*
X212727014Y-109749666D02*
X213298443Y-109178238D01*
X213298443Y-109178238D02*
X213298443Y-109797285D01*
X172748804Y-110344904D02*
X171939281Y-110344904D01*
X171939281Y-110344904D02*
X171844043Y-110297285D01*
X171844043Y-110297285D02*
X171796424Y-110249666D01*
X171796424Y-110249666D02*
X171748804Y-110154428D01*
X171748804Y-110154428D02*
X171748804Y-109963952D01*
X171748804Y-109963952D02*
X171796424Y-109868714D01*
X171796424Y-109868714D02*
X171844043Y-109821095D01*
X171844043Y-109821095D02*
X171939281Y-109773476D01*
X171939281Y-109773476D02*
X172748804Y-109773476D01*
X171796424Y-109344904D02*
X171748804Y-109202047D01*
X171748804Y-109202047D02*
X171748804Y-108963952D01*
X171748804Y-108963952D02*
X171796424Y-108868714D01*
X171796424Y-108868714D02*
X171844043Y-108821095D01*
X171844043Y-108821095D02*
X171939281Y-108773476D01*
X171939281Y-108773476D02*
X172034519Y-108773476D01*
X172034519Y-108773476D02*
X172129757Y-108821095D01*
X172129757Y-108821095D02*
X172177376Y-108868714D01*
X172177376Y-108868714D02*
X172224995Y-108963952D01*
X172224995Y-108963952D02*
X172272614Y-109154428D01*
X172272614Y-109154428D02*
X172320233Y-109249666D01*
X172320233Y-109249666D02*
X172367852Y-109297285D01*
X172367852Y-109297285D02*
X172463090Y-109344904D01*
X172463090Y-109344904D02*
X172558328Y-109344904D01*
X172558328Y-109344904D02*
X172653566Y-109297285D01*
X172653566Y-109297285D02*
X172701185Y-109249666D01*
X172701185Y-109249666D02*
X172748804Y-109154428D01*
X172748804Y-109154428D02*
X172748804Y-108916333D01*
X172748804Y-108916333D02*
X172701185Y-108773476D01*
X172272614Y-108011571D02*
X172224995Y-107868714D01*
X172224995Y-107868714D02*
X172177376Y-107821095D01*
X172177376Y-107821095D02*
X172082138Y-107773476D01*
X172082138Y-107773476D02*
X171939281Y-107773476D01*
X171939281Y-107773476D02*
X171844043Y-107821095D01*
X171844043Y-107821095D02*
X171796424Y-107868714D01*
X171796424Y-107868714D02*
X171748804Y-107963952D01*
X171748804Y-107963952D02*
X171748804Y-108344904D01*
X171748804Y-108344904D02*
X172748804Y-108344904D01*
X172748804Y-108344904D02*
X172748804Y-108011571D01*
X172748804Y-108011571D02*
X172701185Y-107916333D01*
X172701185Y-107916333D02*
X172653566Y-107868714D01*
X172653566Y-107868714D02*
X172558328Y-107821095D01*
X172558328Y-107821095D02*
X172463090Y-107821095D01*
X172463090Y-107821095D02*
X172367852Y-107868714D01*
X172367852Y-107868714D02*
X172320233Y-107916333D01*
X172320233Y-107916333D02*
X172272614Y-108011571D01*
X172272614Y-108011571D02*
X172272614Y-108344904D01*
X221291443Y-102409666D02*
X222005728Y-102409666D01*
X222005728Y-102409666D02*
X222148585Y-102362047D01*
X222148585Y-102362047D02*
X222243824Y-102266809D01*
X222243824Y-102266809D02*
X222291443Y-102123952D01*
X222291443Y-102123952D02*
X222291443Y-102028714D01*
X222291443Y-102933476D02*
X222291443Y-103123952D01*
X222291443Y-103123952D02*
X222243824Y-103219190D01*
X222243824Y-103219190D02*
X222196204Y-103266809D01*
X222196204Y-103266809D02*
X222053347Y-103362047D01*
X222053347Y-103362047D02*
X221862871Y-103409666D01*
X221862871Y-103409666D02*
X221481919Y-103409666D01*
X221481919Y-103409666D02*
X221386681Y-103362047D01*
X221386681Y-103362047D02*
X221339062Y-103314428D01*
X221339062Y-103314428D02*
X221291443Y-103219190D01*
X221291443Y-103219190D02*
X221291443Y-103028714D01*
X221291443Y-103028714D02*
X221339062Y-102933476D01*
X221339062Y-102933476D02*
X221386681Y-102885857D01*
X221386681Y-102885857D02*
X221481919Y-102838238D01*
X221481919Y-102838238D02*
X221720014Y-102838238D01*
X221720014Y-102838238D02*
X221815252Y-102885857D01*
X221815252Y-102885857D02*
X221862871Y-102933476D01*
X221862871Y-102933476D02*
X221910490Y-103028714D01*
X221910490Y-103028714D02*
X221910490Y-103219190D01*
X221910490Y-103219190D02*
X221862871Y-103314428D01*
X221862871Y-103314428D02*
X221815252Y-103362047D01*
X221815252Y-103362047D02*
X221720014Y-103409666D01*
X161415052Y-115672009D02*
X161272195Y-115719628D01*
X161272195Y-115719628D02*
X161224576Y-115767247D01*
X161224576Y-115767247D02*
X161176957Y-115862485D01*
X161176957Y-115862485D02*
X161176957Y-116005342D01*
X161176957Y-116005342D02*
X161224576Y-116100580D01*
X161224576Y-116100580D02*
X161272195Y-116148200D01*
X161272195Y-116148200D02*
X161367433Y-116195819D01*
X161367433Y-116195819D02*
X161748385Y-116195819D01*
X161748385Y-116195819D02*
X161748385Y-115195819D01*
X161748385Y-115195819D02*
X161415052Y-115195819D01*
X161415052Y-115195819D02*
X161319814Y-115243438D01*
X161319814Y-115243438D02*
X161272195Y-115291057D01*
X161272195Y-115291057D02*
X161224576Y-115386295D01*
X161224576Y-115386295D02*
X161224576Y-115481533D01*
X161224576Y-115481533D02*
X161272195Y-115576771D01*
X161272195Y-115576771D02*
X161319814Y-115624390D01*
X161319814Y-115624390D02*
X161415052Y-115672009D01*
X161415052Y-115672009D02*
X161748385Y-115672009D01*
X160319814Y-116195819D02*
X160319814Y-115672009D01*
X160319814Y-115672009D02*
X160367433Y-115576771D01*
X160367433Y-115576771D02*
X160462671Y-115529152D01*
X160462671Y-115529152D02*
X160653147Y-115529152D01*
X160653147Y-115529152D02*
X160748385Y-115576771D01*
X160319814Y-116148200D02*
X160415052Y-116195819D01*
X160415052Y-116195819D02*
X160653147Y-116195819D01*
X160653147Y-116195819D02*
X160748385Y-116148200D01*
X160748385Y-116148200D02*
X160796004Y-116052961D01*
X160796004Y-116052961D02*
X160796004Y-115957723D01*
X160796004Y-115957723D02*
X160748385Y-115862485D01*
X160748385Y-115862485D02*
X160653147Y-115814866D01*
X160653147Y-115814866D02*
X160415052Y-115814866D01*
X160415052Y-115814866D02*
X160319814Y-115767247D01*
X159986480Y-115529152D02*
X159605528Y-115529152D01*
X159843623Y-115195819D02*
X159843623Y-116052961D01*
X159843623Y-116052961D02*
X159796004Y-116148200D01*
X159796004Y-116148200D02*
X159700766Y-116195819D01*
X159700766Y-116195819D02*
X159605528Y-116195819D01*
X158891242Y-116148200D02*
X158986480Y-116195819D01*
X158986480Y-116195819D02*
X159176956Y-116195819D01*
X159176956Y-116195819D02*
X159272194Y-116148200D01*
X159272194Y-116148200D02*
X159319813Y-116052961D01*
X159319813Y-116052961D02*
X159319813Y-115672009D01*
X159319813Y-115672009D02*
X159272194Y-115576771D01*
X159272194Y-115576771D02*
X159176956Y-115529152D01*
X159176956Y-115529152D02*
X158986480Y-115529152D01*
X158986480Y-115529152D02*
X158891242Y-115576771D01*
X158891242Y-115576771D02*
X158843623Y-115672009D01*
X158843623Y-115672009D02*
X158843623Y-115767247D01*
X158843623Y-115767247D02*
X159319813Y-115862485D01*
X158415051Y-116195819D02*
X158415051Y-115529152D01*
X158415051Y-115719628D02*
X158367432Y-115624390D01*
X158367432Y-115624390D02*
X158319813Y-115576771D01*
X158319813Y-115576771D02*
X158224575Y-115529152D01*
X158224575Y-115529152D02*
X158129337Y-115529152D01*
X157796003Y-116195819D02*
X157796003Y-115529152D01*
X157796003Y-115195819D02*
X157843622Y-115243438D01*
X157843622Y-115243438D02*
X157796003Y-115291057D01*
X157796003Y-115291057D02*
X157748384Y-115243438D01*
X157748384Y-115243438D02*
X157796003Y-115195819D01*
X157796003Y-115195819D02*
X157796003Y-115291057D01*
X156891242Y-116195819D02*
X156891242Y-115672009D01*
X156891242Y-115672009D02*
X156938861Y-115576771D01*
X156938861Y-115576771D02*
X157034099Y-115529152D01*
X157034099Y-115529152D02*
X157224575Y-115529152D01*
X157224575Y-115529152D02*
X157319813Y-115576771D01*
X156891242Y-116148200D02*
X156986480Y-116195819D01*
X156986480Y-116195819D02*
X157224575Y-116195819D01*
X157224575Y-116195819D02*
X157319813Y-116148200D01*
X157319813Y-116148200D02*
X157367432Y-116052961D01*
X157367432Y-116052961D02*
X157367432Y-115957723D01*
X157367432Y-115957723D02*
X157319813Y-115862485D01*
X157319813Y-115862485D02*
X157224575Y-115814866D01*
X157224575Y-115814866D02*
X156986480Y-115814866D01*
X156986480Y-115814866D02*
X156891242Y-115767247D01*
X155891242Y-116195819D02*
X156462670Y-116195819D01*
X156176956Y-116195819D02*
X156176956Y-115195819D01*
X156176956Y-115195819D02*
X156272194Y-115338676D01*
X156272194Y-115338676D02*
X156367432Y-115433914D01*
X156367432Y-115433914D02*
X156462670Y-115481533D01*
X202241443Y-90852666D02*
X202955728Y-90852666D01*
X202955728Y-90852666D02*
X203098585Y-90805047D01*
X203098585Y-90805047D02*
X203193824Y-90709809D01*
X203193824Y-90709809D02*
X203241443Y-90566952D01*
X203241443Y-90566952D02*
X203241443Y-90471714D01*
X203241443Y-91852666D02*
X203241443Y-91281238D01*
X203241443Y-91566952D02*
X202241443Y-91566952D01*
X202241443Y-91566952D02*
X202384300Y-91471714D01*
X202384300Y-91471714D02*
X202479538Y-91376476D01*
X202479538Y-91376476D02*
X202527157Y-91281238D01*
X175203957Y-141972819D02*
X175203957Y-142687104D01*
X175203957Y-142687104D02*
X175251576Y-142829961D01*
X175251576Y-142829961D02*
X175346814Y-142925200D01*
X175346814Y-142925200D02*
X175489671Y-142972819D01*
X175489671Y-142972819D02*
X175584909Y-142972819D01*
X174775385Y-142068057D02*
X174727766Y-142020438D01*
X174727766Y-142020438D02*
X174632528Y-141972819D01*
X174632528Y-141972819D02*
X174394433Y-141972819D01*
X174394433Y-141972819D02*
X174299195Y-142020438D01*
X174299195Y-142020438D02*
X174251576Y-142068057D01*
X174251576Y-142068057D02*
X174203957Y-142163295D01*
X174203957Y-142163295D02*
X174203957Y-142258533D01*
X174203957Y-142258533D02*
X174251576Y-142401390D01*
X174251576Y-142401390D02*
X174823004Y-142972819D01*
X174823004Y-142972819D02*
X174203957Y-142972819D01*
X161267443Y-104775095D02*
X162076966Y-104775095D01*
X162076966Y-104775095D02*
X162172204Y-104822714D01*
X162172204Y-104822714D02*
X162219824Y-104870333D01*
X162219824Y-104870333D02*
X162267443Y-104965571D01*
X162267443Y-104965571D02*
X162267443Y-105156047D01*
X162267443Y-105156047D02*
X162219824Y-105251285D01*
X162219824Y-105251285D02*
X162172204Y-105298904D01*
X162172204Y-105298904D02*
X162076966Y-105346523D01*
X162076966Y-105346523D02*
X161267443Y-105346523D01*
X161362681Y-105775095D02*
X161315062Y-105822714D01*
X161315062Y-105822714D02*
X161267443Y-105917952D01*
X161267443Y-105917952D02*
X161267443Y-106156047D01*
X161267443Y-106156047D02*
X161315062Y-106251285D01*
X161315062Y-106251285D02*
X161362681Y-106298904D01*
X161362681Y-106298904D02*
X161457919Y-106346523D01*
X161457919Y-106346523D02*
X161553157Y-106346523D01*
X161553157Y-106346523D02*
X161696014Y-106298904D01*
X161696014Y-106298904D02*
X162267443Y-105727476D01*
X162267443Y-105727476D02*
X162267443Y-106346523D01*
X208385443Y-124126666D02*
X209099728Y-124126666D01*
X209099728Y-124126666D02*
X209242585Y-124079047D01*
X209242585Y-124079047D02*
X209337824Y-123983809D01*
X209337824Y-123983809D02*
X209385443Y-123840952D01*
X209385443Y-123840952D02*
X209385443Y-123745714D01*
X208718776Y-125031428D02*
X209385443Y-125031428D01*
X208337824Y-124793333D02*
X209052109Y-124555238D01*
X209052109Y-124555238D02*
X209052109Y-125174285D01*
X205912957Y-143135819D02*
X205912957Y-143850104D01*
X205912957Y-143850104D02*
X205960576Y-143992961D01*
X205960576Y-143992961D02*
X206055814Y-144088200D01*
X206055814Y-144088200D02*
X206198671Y-144135819D01*
X206198671Y-144135819D02*
X206293909Y-144135819D01*
X205532004Y-143135819D02*
X204912957Y-143135819D01*
X204912957Y-143135819D02*
X205246290Y-143516771D01*
X205246290Y-143516771D02*
X205103433Y-143516771D01*
X205103433Y-143516771D02*
X205008195Y-143564390D01*
X205008195Y-143564390D02*
X204960576Y-143612009D01*
X204960576Y-143612009D02*
X204912957Y-143707247D01*
X204912957Y-143707247D02*
X204912957Y-143945342D01*
X204912957Y-143945342D02*
X204960576Y-144040580D01*
X204960576Y-144040580D02*
X205008195Y-144088200D01*
X205008195Y-144088200D02*
X205103433Y-144135819D01*
X205103433Y-144135819D02*
X205389147Y-144135819D01*
X205389147Y-144135819D02*
X205484385Y-144088200D01*
X205484385Y-144088200D02*
X205532004Y-144040580D01*
X205271147Y-121398819D02*
X205271147Y-122113104D01*
X205271147Y-122113104D02*
X205318766Y-122255961D01*
X205318766Y-122255961D02*
X205414004Y-122351200D01*
X205414004Y-122351200D02*
X205556861Y-122398819D01*
X205556861Y-122398819D02*
X205652099Y-122398819D01*
X204271147Y-122398819D02*
X204842575Y-122398819D01*
X204556861Y-122398819D02*
X204556861Y-121398819D01*
X204556861Y-121398819D02*
X204652099Y-121541676D01*
X204652099Y-121541676D02*
X204747337Y-121636914D01*
X204747337Y-121636914D02*
X204842575Y-121684533D01*
X203652099Y-121398819D02*
X203556861Y-121398819D01*
X203556861Y-121398819D02*
X203461623Y-121446438D01*
X203461623Y-121446438D02*
X203414004Y-121494057D01*
X203414004Y-121494057D02*
X203366385Y-121589295D01*
X203366385Y-121589295D02*
X203318766Y-121779771D01*
X203318766Y-121779771D02*
X203318766Y-122017866D01*
X203318766Y-122017866D02*
X203366385Y-122208342D01*
X203366385Y-122208342D02*
X203414004Y-122303580D01*
X203414004Y-122303580D02*
X203461623Y-122351200D01*
X203461623Y-122351200D02*
X203556861Y-122398819D01*
X203556861Y-122398819D02*
X203652099Y-122398819D01*
X203652099Y-122398819D02*
X203747337Y-122351200D01*
X203747337Y-122351200D02*
X203794956Y-122303580D01*
X203794956Y-122303580D02*
X203842575Y-122208342D01*
X203842575Y-122208342D02*
X203890194Y-122017866D01*
X203890194Y-122017866D02*
X203890194Y-121779771D01*
X203890194Y-121779771D02*
X203842575Y-121589295D01*
X203842575Y-121589295D02*
X203794956Y-121494057D01*
X203794956Y-121494057D02*
X203747337Y-121446438D01*
X203747337Y-121446438D02*
X203652099Y-121398819D01*
D11*
%TO.C,S1*%
X162551624Y-132556000D02*
X159551624Y-132556000D01*
X159551624Y-132556000D02*
X159551624Y-131856000D01*
X159551624Y-129256000D02*
X159551624Y-128556000D01*
X164551624Y-132556000D02*
X162551624Y-132556000D01*
X166551624Y-132556000D02*
X164551624Y-132556000D01*
X169551624Y-132556000D02*
X166551624Y-132556000D01*
X169551624Y-132556000D02*
X169551624Y-131856000D01*
X159551624Y-128556000D02*
X169551624Y-128556000D01*
X169551624Y-129256000D02*
X169551624Y-128556000D01*
D12*
%TO.C,U1*%
X200938824Y-142240000D02*
G75*
G02*
X200738824Y-142240000I-100000J0D01*
G01*
X200738824Y-142240000D02*
G75*
G02*
X200938824Y-142240000I100000J0D01*
G01*
D11*
X179950624Y-144780000D02*
X179950624Y-143510000D01*
X179950624Y-128120000D02*
X179950624Y-141120000D01*
X179950624Y-124460000D02*
X179950624Y-125730000D01*
X200270624Y-124460000D02*
X179950624Y-124460000D01*
X179950624Y-144780000D02*
X200270624Y-144780000D01*
X200270624Y-144780000D02*
X200270624Y-143510000D01*
X200270624Y-128120000D02*
X200270624Y-141120000D01*
X200270624Y-124460000D02*
X200270624Y-125730000D01*
D13*
%TO.C,J7*%
X170873624Y-98231000D02*
X170873624Y-98111000D01*
X170873624Y-96901000D02*
X170873624Y-95571000D01*
X170873624Y-95571000D02*
X172203624Y-95571000D01*
X170873624Y-98231000D02*
X173533624Y-98231000D01*
X173533624Y-98231000D02*
X173533624Y-98111000D01*
%TO.C,J8*%
X173660624Y-123758000D02*
X173660624Y-123638000D01*
X171000624Y-123758000D02*
X173660624Y-123758000D01*
X171000624Y-121098000D02*
X172330624Y-121098000D01*
X171000624Y-122428000D02*
X171000624Y-121098000D01*
X171000624Y-123758000D02*
X171000624Y-123638000D01*
%TO.C,A2*%
X211703624Y-118103000D02*
X211703624Y-100063000D01*
X209033624Y-118103000D02*
X211703624Y-118103000D01*
X209033624Y-100063000D02*
X209033624Y-102733000D01*
X170933624Y-102733000D02*
X209033624Y-102733000D01*
X209033624Y-118103000D02*
X209033624Y-115433000D01*
X209033624Y-115433000D02*
X206493624Y-115433000D01*
X206493624Y-118103000D02*
X206493624Y-115433000D01*
X170933624Y-115433000D02*
X206493624Y-115433000D01*
X168263624Y-118103000D02*
X206493624Y-118103000D01*
X165723624Y-105143000D02*
X176143624Y-105143000D01*
X176143624Y-105143000D02*
X176143624Y-113023000D01*
X170933624Y-100063000D02*
X170933624Y-102733000D01*
X170933624Y-118103000D02*
X170933624Y-115433000D01*
X211703624Y-100063000D02*
X168263624Y-100063000D01*
X168263624Y-105143000D02*
X168263624Y-100063000D01*
X168263624Y-113023000D02*
X168263624Y-118103000D01*
X165723624Y-113023000D02*
X165723624Y-105143000D01*
X176143624Y-113023000D02*
X165723624Y-113023000D01*
%TO.C,J9*%
X215196624Y-101413000D02*
X215196624Y-104073000D01*
X215196624Y-104073000D02*
X217796624Y-104073000D01*
X217796624Y-101413000D02*
X217796624Y-104073000D01*
X215196624Y-101413000D02*
X217796624Y-101413000D01*
X220396624Y-101413000D02*
X220396624Y-102743000D01*
X219066624Y-101413000D02*
X220396624Y-101413000D01*
%TO.C,Bateria1*%
X157513624Y-122381000D02*
X157513624Y-119781000D01*
X157513624Y-118511000D02*
X157513624Y-117181000D01*
X157513624Y-117181000D02*
X158843624Y-117181000D01*
X157513624Y-122381000D02*
X160173624Y-122381000D01*
X157513624Y-119781000D02*
X160173624Y-119781000D01*
X160173624Y-122381000D02*
X160173624Y-119781000D01*
%TO.C,J1*%
X173286624Y-89856000D02*
X173286624Y-92516000D01*
X173286624Y-92516000D02*
X198746624Y-92516000D01*
X198746624Y-89856000D02*
X198746624Y-92516000D01*
X173286624Y-89856000D02*
X198746624Y-89856000D01*
X201346624Y-89856000D02*
X201346624Y-91186000D01*
X200016624Y-89856000D02*
X201346624Y-89856000D01*
%TO.C,J2*%
X173540624Y-149158000D02*
X173540624Y-146558000D01*
X173540624Y-145288000D02*
X173540624Y-143958000D01*
X173540624Y-143958000D02*
X174870624Y-143958000D01*
X173540624Y-149158000D02*
X176200624Y-149158000D01*
X173540624Y-146558000D02*
X176200624Y-146558000D01*
X176200624Y-149158000D02*
X176200624Y-146558000D01*
%TO.C,U2*%
X156171624Y-100417000D02*
X160812624Y-100417000D01*
X159302624Y-103686000D02*
X160812624Y-103686000D01*
X159302624Y-107387000D02*
X160812624Y-107387000D01*
X160812624Y-100417000D02*
X160812624Y-110657000D01*
X156171624Y-110657000D02*
X160812624Y-110657000D01*
X159302624Y-100417000D02*
X159302624Y-110657000D01*
X156171624Y-100417000D02*
X156171624Y-110657000D01*
%TO.C,J4*%
X211700624Y-125790000D02*
X210370624Y-125790000D01*
X210370624Y-125790000D02*
X210370624Y-124460000D01*
X225730624Y-125790000D02*
X212970624Y-125790000D01*
X212970624Y-125790000D02*
X212970624Y-123130000D01*
X225730624Y-123130000D02*
X212970624Y-123130000D01*
X225730624Y-125790000D02*
X225730624Y-123130000D01*
%TO.C,J3*%
X204249624Y-150321000D02*
X204249624Y-147721000D01*
X204249624Y-146451000D02*
X204249624Y-145121000D01*
X204249624Y-145121000D02*
X205579624Y-145121000D01*
X204249624Y-150321000D02*
X206909624Y-150321000D01*
X204249624Y-147721000D02*
X206909624Y-147721000D01*
X206909624Y-150321000D02*
X206909624Y-147721000D01*
%TO.C,J10*%
X203131624Y-128584000D02*
X203131624Y-125984000D01*
X203131624Y-124714000D02*
X203131624Y-123384000D01*
X203131624Y-123384000D02*
X204461624Y-123384000D01*
X203131624Y-128584000D02*
X205791624Y-128584000D01*
X203131624Y-125984000D02*
X205791624Y-125984000D01*
X205791624Y-128584000D02*
X205791624Y-125984000D01*
%TD*%
M02*
