%TF.GenerationSoftware,KiCad,Pcbnew,8.0.0*%
%TF.CreationDate,2024-07-04T13:25:56-03:00*%
%TF.ProjectId,LineFollowerRCX,4c696e65-466f-46c6-9c6f-776572524358,rev?*%
%TF.SameCoordinates,Original*%
%TF.FileFunction,Copper,L1,Top*%
%TF.FilePolarity,Positive*%
%FSLAX46Y46*%
G04 Gerber Fmt 4.6, Leading zero omitted, Abs format (unit mm)*
G04 Created by KiCad (PCBNEW 8.0.0) date 2024-07-04 13:25:56*
%MOMM*%
%LPD*%
G01*
G04 APERTURE LIST*
%TA.AperFunction,ComponentPad*%
%ADD10C,2.250000*%
%TD*%
%TA.AperFunction,ComponentPad*%
%ADD11C,2.000000*%
%TD*%
%TA.AperFunction,ComponentPad*%
%ADD12C,1.980000*%
%TD*%
%TA.AperFunction,ComponentPad*%
%ADD13R,1.700000X1.700000*%
%TD*%
%TA.AperFunction,ComponentPad*%
%ADD14R,1.600000X1.600000*%
%TD*%
%TA.AperFunction,ComponentPad*%
%ADD15O,1.600000X1.600000*%
%TD*%
%TA.AperFunction,ComponentPad*%
%ADD16O,1.700000X1.700000*%
%TD*%
%TA.AperFunction,ComponentPad*%
%ADD17R,2.000000X1.905000*%
%TD*%
%TA.AperFunction,ComponentPad*%
%ADD18O,2.000000X1.905000*%
%TD*%
%TA.AperFunction,ViaPad*%
%ADD19C,3.500000*%
%TD*%
G04 APERTURE END LIST*
D10*
%TO.P,S1,P$5*%
%TO.N,N/C*%
X157551624Y-130556000D03*
%TO.P,S1,P$4*%
X171551624Y-130556000D03*
D11*
%TO.P,S1,3*%
%TO.N,GND*%
X161551624Y-130556000D03*
%TO.P,S1,2*%
%TO.N,Net-(U1-VM)*%
X164551624Y-130556000D03*
%TO.P,S1,1*%
%TO.N,Net-(Bateria1-+)*%
X167551624Y-130556000D03*
%TD*%
D12*
%TO.P,U1,16,PWMA*%
%TO.N,Net-(A2-D2)*%
X199000624Y-127000000D03*
%TO.P,U1,15,AI2*%
%TO.N,Net-(A2-D3)*%
X196460624Y-127000000D03*
%TO.P,U1,14,AI1*%
%TO.N,Net-(A2-D4)*%
X193920624Y-127000000D03*
%TO.P,U1,13,STBY*%
%TO.N,Net-(A2-D5)*%
X191380624Y-127000000D03*
%TO.P,U1,12,BI1*%
%TO.N,Net-(A2-D8)*%
X188840624Y-127000000D03*
%TO.P,U1,11,BI2*%
%TO.N,Net-(A2-D9)*%
X186300624Y-127000000D03*
%TO.P,U1,10,PWMB*%
%TO.N,Net-(A2-D11)*%
X183760624Y-127000000D03*
%TO.P,U1,9,GND__2*%
%TO.N,unconnected-(U1-GND__2-Pad9)*%
X181220624Y-127000000D03*
%TO.P,U1,8,GND__1*%
%TO.N,GND*%
X181220624Y-142240000D03*
%TO.P,U1,7,B01*%
%TO.N,Net-(J2-+)*%
X183760624Y-142240000D03*
%TO.P,U1,6,B02*%
%TO.N,Net-(J2--)*%
X186300624Y-142240000D03*
%TO.P,U1,5,A02*%
%TO.N,Net-(J3--)*%
X188840624Y-142240000D03*
%TO.P,U1,4,A01*%
%TO.N,Net-(J3-+)*%
X191380624Y-142240000D03*
%TO.P,U1,3,GND*%
%TO.N,unconnected-(U1-GND-Pad3)*%
X193920624Y-142240000D03*
%TO.P,U1,2,VCC*%
%TO.N,Alimenta\u00E7\u00E3o sensores*%
X196460624Y-142240000D03*
%TO.P,U1,1,VM*%
%TO.N,Net-(U1-VM)*%
X199000624Y-142240000D03*
%TD*%
D13*
%TO.P,J7,1,Pin_1*%
%TO.N,Net-(A2-D13)*%
X172203624Y-96901000D03*
%TD*%
%TO.P,J8,1,Pin_1*%
%TO.N,Net-(A2-D12)*%
X172330624Y-122428000D03*
%TD*%
D14*
%TO.P,A2,1,D1/TX*%
%TO.N,Net-(A2-D1{slash}TX)*%
X207763624Y-116703000D03*
D15*
%TO.P,A2,2,D0/RX*%
%TO.N,Net-(A2-D0{slash}RX)*%
X205223624Y-116703000D03*
%TO.P,A2,3,~{RESET}*%
%TO.N,unconnected-(A2-~{RESET}-Pad3)*%
X202683624Y-116703000D03*
%TO.P,A2,4,GND*%
%TO.N,GND*%
X200143624Y-116703000D03*
%TO.P,A2,5,D2*%
%TO.N,Net-(A2-D2)*%
X197603624Y-116703000D03*
%TO.P,A2,6,D3*%
%TO.N,Net-(A2-D3)*%
X195063624Y-116703000D03*
%TO.P,A2,7,D4*%
%TO.N,Net-(A2-D4)*%
X192523624Y-116703000D03*
%TO.P,A2,8,D5*%
%TO.N,Net-(A2-D5)*%
X189983624Y-116703000D03*
%TO.P,A2,9,D6*%
%TO.N,unconnected-(A2-D6-Pad9)*%
X187443624Y-116703000D03*
%TO.P,A2,10,D7*%
%TO.N,unconnected-(A2-D7-Pad10)*%
X184903624Y-116703000D03*
%TO.P,A2,11,D8*%
%TO.N,Net-(A2-D8)*%
X182363624Y-116703000D03*
%TO.P,A2,12,D9*%
%TO.N,Net-(A2-D9)*%
X179823624Y-116703000D03*
%TO.P,A2,13,D10*%
%TO.N,unconnected-(A2-D10-Pad13)*%
X177283624Y-116703000D03*
%TO.P,A2,14,D11*%
%TO.N,Net-(A2-D11)*%
X174743624Y-116703000D03*
%TO.P,A2,15,D12*%
%TO.N,Net-(A2-D12)*%
X172203624Y-116703000D03*
%TO.P,A2,16,D13*%
%TO.N,Net-(A2-D13)*%
X172203624Y-101463000D03*
%TO.P,A2,17,3V3*%
%TO.N,unconnected-(A2-3V3-Pad17)*%
X174743624Y-101463000D03*
%TO.P,A2,18,AREF*%
%TO.N,unconnected-(A2-AREF-Pad18)*%
X177283624Y-101463000D03*
%TO.P,A2,19,A0*%
%TO.N,Net-(A2-A0)*%
X179823624Y-101463000D03*
%TO.P,A2,20,A1*%
%TO.N,Net-(A2-A1)*%
X182363624Y-101463000D03*
%TO.P,A2,21,A2*%
%TO.N,Net-(A2-A2)*%
X184903624Y-101463000D03*
%TO.P,A2,22,A3*%
%TO.N,Net-(A2-A3)*%
X187443624Y-101463000D03*
%TO.P,A2,23,A4*%
%TO.N,Net-(A2-A4)*%
X189983624Y-101463000D03*
%TO.P,A2,24,A5*%
%TO.N,Net-(A2-A5)*%
X192523624Y-101463000D03*
%TO.P,A2,25,A6*%
%TO.N,Net-(A2-A6)*%
X195063624Y-101463000D03*
%TO.P,A2,26,A7*%
%TO.N,Net-(A2-A7)*%
X197603624Y-101463000D03*
%TO.P,A2,27,+5V*%
%TO.N,Alimenta\u00E7\u00E3o sensores*%
X200143624Y-101463000D03*
%TO.P,A2,28,~{RESET}*%
%TO.N,unconnected-(A2-~{RESET}-Pad28)*%
X202683624Y-101463000D03*
%TO.P,A2,29,GND*%
%TO.N,GND*%
X205223624Y-101463000D03*
%TO.P,A2,30,VIN*%
%TO.N,Bateria Arduino*%
X207763624Y-101463000D03*
%TD*%
D16*
%TO.P,J9,2,Pin_2*%
%TO.N,Alimenta\u00E7\u00E3o sensores*%
X216526624Y-102743000D03*
D13*
%TO.P,J9,1,Pin_1*%
X219066624Y-102743000D03*
%TD*%
D16*
%TO.P,Bateria1,2,-*%
%TO.N,GND*%
X158843624Y-121051000D03*
D13*
%TO.P,Bateria1,1,+*%
%TO.N,Net-(Bateria1-+)*%
X158843624Y-118511000D03*
%TD*%
D16*
%TO.P,J1,11,Pin_11*%
%TO.N,GND*%
X174616624Y-91186000D03*
%TO.P,J1,10,Pin_10*%
%TO.N,unconnected-(J1-Pin_10-Pad10)*%
X177156624Y-91186000D03*
%TO.P,J1,9,Pin_9*%
%TO.N,Net-(A2-A0)*%
X179696624Y-91186000D03*
%TO.P,J1,8,Pin_8*%
%TO.N,Net-(A2-A1)*%
X182236624Y-91186000D03*
%TO.P,J1,7,Pin_7*%
%TO.N,Net-(A2-A2)*%
X184776624Y-91186000D03*
%TO.P,J1,6,Pin_6*%
%TO.N,Net-(A2-A3)*%
X187316624Y-91186000D03*
%TO.P,J1,5,Pin_5*%
%TO.N,Net-(A2-A4)*%
X189856624Y-91186000D03*
%TO.P,J1,4,Pin_4*%
%TO.N,Net-(A2-A5)*%
X192396624Y-91186000D03*
%TO.P,J1,3,Pin_3*%
%TO.N,Net-(A2-A6)*%
X194936624Y-91186000D03*
%TO.P,J1,2,Pin_2*%
%TO.N,Net-(A2-A7)*%
X197476624Y-91186000D03*
D13*
%TO.P,J1,1,Pin_1*%
%TO.N,Alimenta\u00E7\u00E3o sensores*%
X200016624Y-91186000D03*
%TD*%
D16*
%TO.P,J2,2,-*%
%TO.N,Net-(J2--)*%
X174870624Y-147828000D03*
D13*
%TO.P,J2,1,+*%
%TO.N,Net-(J2-+)*%
X174870624Y-145288000D03*
%TD*%
D17*
%TO.P,U2,1,VI*%
%TO.N,Net-(U1-VM)*%
X157542624Y-108077000D03*
D18*
%TO.P,U2,2,GND*%
%TO.N,GND*%
X157542624Y-105537000D03*
%TO.P,U2,3,VO*%
%TO.N,Bateria Arduino*%
X157542624Y-102997000D03*
%TD*%
D16*
%TO.P,J4,6,EN*%
%TO.N,unconnected-(J4-EN-Pad6)*%
X224400624Y-124460000D03*
%TO.P,J4,5,VCC*%
%TO.N,Alimenta\u00E7\u00E3o sensores*%
X221860624Y-124460000D03*
%TO.P,J4,4,GND*%
%TO.N,GND*%
X219320624Y-124460000D03*
%TO.P,J4,3,TX*%
%TO.N,Net-(A2-D1{slash}TX)*%
X216780624Y-124460000D03*
%TO.P,J4,2,RX*%
%TO.N,Net-(A2-D0{slash}RX)*%
X214240624Y-124460000D03*
D13*
%TO.P,J4,1,State*%
%TO.N,unconnected-(J4-State-Pad1)*%
X211700624Y-124460000D03*
%TD*%
D16*
%TO.P,J3,2,-*%
%TO.N,Net-(J3--)*%
X205579624Y-148991000D03*
D13*
%TO.P,J3,1,+*%
%TO.N,Net-(J3-+)*%
X205579624Y-146451000D03*
%TD*%
D16*
%TO.P,J10,2,Pin_2*%
%TO.N,GND*%
X204461624Y-127254000D03*
D13*
%TO.P,J10,1,Pin_1*%
X204461624Y-124714000D03*
%TD*%
D19*
%TO.N,*%
X235458000Y-105918000D03*
X143120624Y-150368000D03*
X158360624Y-92837000D03*
X218304624Y-92837000D03*
X143120624Y-132842000D03*
X141732000Y-106045000D03*
X233925624Y-132715000D03*
X233925624Y-150368000D03*
%TD*%
M02*
