M48
; DRILL file {KiCad 8.0.0} date 2024-09-30T17:05:12-0300
; FORMAT={-:-/ absolute / metric / decimal}
; #@! TF.CreationDate,2024-09-30T17:05:12-03:00
; #@! TF.GenerationSoftware,Kicad,Pcbnew,8.0.0
; #@! TF.FileFunction,Plated,1,2,PTH
FMAT,2
METRIC
; #@! TA.AperFunction,Plated,PTH,ComponentDrill
T1C0.800
; #@! TA.AperFunction,Plated,PTH,ComponentDrill
T2C1.000
; #@! TA.AperFunction,Plated,PTH,ComponentDrill
T3C1.100
; #@! TA.AperFunction,Plated,PTH,ComponentDrill
T4C1.320
; #@! TA.AperFunction,Plated,PTH,ComponentDrill
T5C1.500
; #@! TA.AperFunction,Plated,PTH,ViaDrill
T6C3.000
%
G90
G05
T1
X148.793Y-104.648
X151.293Y-104.648
X153.793Y-104.648
T2
X147.244Y-93.238
X147.244Y-95.778
X172.796Y-77.37
X172.796Y-92.61
X172.923Y-98.335
X175.209Y-67.093
X175.336Y-77.37
X175.336Y-92.61
X175.463Y-121.195
X175.463Y-123.735
X177.749Y-67.093
X177.876Y-77.37
X177.876Y-92.61
X180.289Y-67.093
X180.416Y-77.37
X180.416Y-92.61
X182.829Y-67.093
X182.956Y-77.37
X182.956Y-92.61
X185.369Y-67.093
X185.496Y-77.37
X185.496Y-92.61
X187.909Y-67.093
X188.036Y-77.37
X188.036Y-92.61
X190.449Y-67.093
X190.576Y-77.37
X190.576Y-92.61
X192.989Y-67.093
X193.116Y-77.37
X193.116Y-92.61
X195.529Y-67.093
X195.656Y-77.37
X195.656Y-92.61
X198.069Y-67.093
X198.196Y-77.37
X198.196Y-92.61
X200.609Y-67.093
X200.736Y-77.37
X200.736Y-92.61
X203.276Y-77.37
X203.276Y-92.61
X205.816Y-77.37
X205.816Y-92.61
X206.172Y-122.358
X206.172Y-124.898
X206.68Y-100.621
X206.68Y-103.161
X208.356Y-77.37
X208.356Y-92.61
X212.293Y-100.367
X214.833Y-100.367
X217.119Y-78.65
X217.373Y-100.367
X219.659Y-78.65
X219.913Y-100.367
X222.453Y-100.367
X224.993Y-100.367
T3
X165.969Y-65.5
X165.969Y-68.04
X165.969Y-70.58
T4
X181.813Y-102.907
X181.813Y-118.147
X184.353Y-102.907
X184.353Y-118.147
X186.893Y-102.907
X186.893Y-118.147
X189.433Y-102.907
X189.433Y-118.147
X191.973Y-102.907
X191.973Y-118.147
X194.513Y-102.907
X194.513Y-118.147
X197.053Y-102.907
X197.053Y-118.147
X199.593Y-102.907
X199.593Y-118.147
T5
X144.793Y-104.648
X157.793Y-104.648
T6
X129.213Y-125.967
X129.213Y-147.908
X133.213Y-109.268
X158.953Y-68.744
X218.897Y-68.744
X248.349Y-125.967
X248.349Y-147.908
M30
