%TF.GenerationSoftware,KiCad,Pcbnew,8.0.0*%
%TF.CreationDate,2024-06-20T13:22:32-03:00*%
%TF.ProjectId,LineFollowerRCX,4c696e65-466f-46c6-9c6f-776572524358,rev?*%
%TF.SameCoordinates,Original*%
%TF.FileFunction,Drillmap*%
%TF.FilePolarity,Positive*%
%FSLAX45Y45*%
G04 Gerber Fmt 4.5, Leading zero omitted, Abs format (unit mm)*
G04 Created by KiCad (PCBNEW 8.0.0) date 2024-06-20 13:22:32*
%MOMM*%
%LPD*%
G01*
G04 APERTURE LIST*
%ADD10C,1.000000*%
%ADD11C,0.050000*%
%ADD12C,0.200000*%
%ADD13C,0.100000*%
%ADD14C,0.110000*%
%ADD15C,0.132000*%
%ADD16C,0.150000*%
G04 APERTURE END LIST*
D10*
X21137900Y-10295500D02*
X19262085Y-8419685D01*
X21137900Y-15506700D02*
X21137900Y-10295500D01*
X19265900Y-8420100D02*
X13017757Y-8420100D01*
X13017757Y-8420100D02*
X11141557Y-10296300D01*
X11137900Y-10295500D02*
X11137900Y-15506700D01*
D11*
X11141557Y-10296300D02*
X11141557Y-15506700D01*
D10*
X11137900Y-15506700D02*
X21137900Y-15506700D01*
D11*
X19265900Y-8420100D02*
X13017757Y-8420100D01*
D12*
D13*
X18292500Y-13015600D02*
X18372500Y-13095600D01*
X18372500Y-13015600D02*
X18292500Y-13095600D01*
X18492500Y-13015600D02*
X18572500Y-13095600D01*
X18572500Y-13015600D02*
X18492500Y-13095600D01*
X18692500Y-13015600D02*
X18772500Y-13095600D01*
X18772500Y-13015600D02*
X18692500Y-13095600D01*
X12597600Y-12446000D02*
G75*
G02*
X12497600Y-12446000I-50000J0D01*
G01*
X12497600Y-12446000D02*
G75*
G02*
X12597600Y-12446000I50000J0D01*
G01*
X12851600Y-12446000D02*
G75*
G02*
X12751600Y-12446000I-50000J0D01*
G01*
X12751600Y-12446000D02*
G75*
G02*
X12851600Y-12446000I50000J0D01*
G01*
X13105600Y-12446000D02*
G75*
G02*
X13005600Y-12446000I-50000J0D01*
G01*
X13005600Y-12446000D02*
G75*
G02*
X13105600Y-12446000I50000J0D01*
G01*
X13131000Y-10274300D02*
G75*
G02*
X13031000Y-10274300I-50000J0D01*
G01*
X13031000Y-10274300D02*
G75*
G02*
X13131000Y-10274300I50000J0D01*
G01*
X13359600Y-12446000D02*
G75*
G02*
X13259600Y-12446000I-50000J0D01*
G01*
X13259600Y-12446000D02*
G75*
G02*
X13359600Y-12446000I50000J0D01*
G01*
X13385000Y-10274300D02*
G75*
G02*
X13285000Y-10274300I-50000J0D01*
G01*
X13285000Y-10274300D02*
G75*
G02*
X13385000Y-10274300I50000J0D01*
G01*
X13613600Y-12446000D02*
G75*
G02*
X13513600Y-12446000I-50000J0D01*
G01*
X13513600Y-12446000D02*
G75*
G02*
X13613600Y-12446000I50000J0D01*
G01*
X13702500Y-14060900D02*
G75*
G02*
X13602500Y-14060900I-50000J0D01*
G01*
X13602500Y-14060900D02*
G75*
G02*
X13702500Y-14060900I50000J0D01*
G01*
X13702500Y-14314900D02*
G75*
G02*
X13602500Y-14314900I-50000J0D01*
G01*
X13602500Y-14314900D02*
G75*
G02*
X13702500Y-14314900I50000J0D01*
G01*
X13867600Y-12446000D02*
G75*
G02*
X13767600Y-12446000I-50000J0D01*
G01*
X13767600Y-12446000D02*
G75*
G02*
X13867600Y-12446000I50000J0D01*
G01*
X14261300Y-10146300D02*
G75*
G02*
X14161300Y-10146300I-50000J0D01*
G01*
X14161300Y-10146300D02*
G75*
G02*
X14261300Y-10146300I50000J0D01*
G01*
X14261300Y-11670300D02*
G75*
G02*
X14161300Y-11670300I-50000J0D01*
G01*
X14161300Y-11670300D02*
G75*
G02*
X14261300Y-11670300I50000J0D01*
G01*
X14515300Y-10146300D02*
G75*
G02*
X14415300Y-10146300I-50000J0D01*
G01*
X14415300Y-10146300D02*
G75*
G02*
X14515300Y-10146300I50000J0D01*
G01*
X14515300Y-11670300D02*
G75*
G02*
X14415300Y-11670300I-50000J0D01*
G01*
X14415300Y-11670300D02*
G75*
G02*
X14515300Y-11670300I50000J0D01*
G01*
X14591500Y-12471400D02*
G75*
G02*
X14491500Y-12471400I-50000J0D01*
G01*
X14491500Y-12471400D02*
G75*
G02*
X14591500Y-12471400I50000J0D01*
G01*
X14591500Y-12725400D02*
G75*
G02*
X14491500Y-12725400I-50000J0D01*
G01*
X14491500Y-12725400D02*
G75*
G02*
X14591500Y-12725400I50000J0D01*
G01*
X14769300Y-10146300D02*
G75*
G02*
X14669300Y-10146300I-50000J0D01*
G01*
X14669300Y-10146300D02*
G75*
G02*
X14769300Y-10146300I50000J0D01*
G01*
X14769300Y-11670300D02*
G75*
G02*
X14669300Y-11670300I-50000J0D01*
G01*
X14669300Y-11670300D02*
G75*
G02*
X14769300Y-11670300I50000J0D01*
G01*
X15023300Y-10146300D02*
G75*
G02*
X14923300Y-10146300I-50000J0D01*
G01*
X14923300Y-10146300D02*
G75*
G02*
X15023300Y-10146300I50000J0D01*
G01*
X15023300Y-11670300D02*
G75*
G02*
X14923300Y-11670300I-50000J0D01*
G01*
X14923300Y-11670300D02*
G75*
G02*
X15023300Y-11670300I50000J0D01*
G01*
X15036000Y-9118600D02*
G75*
G02*
X14936000Y-9118600I-50000J0D01*
G01*
X14936000Y-9118600D02*
G75*
G02*
X15036000Y-9118600I50000J0D01*
G01*
X15277300Y-10146300D02*
G75*
G02*
X15177300Y-10146300I-50000J0D01*
G01*
X15177300Y-10146300D02*
G75*
G02*
X15277300Y-10146300I50000J0D01*
G01*
X15277300Y-11670300D02*
G75*
G02*
X15177300Y-11670300I-50000J0D01*
G01*
X15177300Y-11670300D02*
G75*
G02*
X15277300Y-11670300I50000J0D01*
G01*
X15290000Y-9118600D02*
G75*
G02*
X15190000Y-9118600I-50000J0D01*
G01*
X15190000Y-9118600D02*
G75*
G02*
X15290000Y-9118600I50000J0D01*
G01*
X15531300Y-10146300D02*
G75*
G02*
X15431300Y-10146300I-50000J0D01*
G01*
X15431300Y-10146300D02*
G75*
G02*
X15531300Y-10146300I50000J0D01*
G01*
X15531300Y-11670300D02*
G75*
G02*
X15431300Y-11670300I-50000J0D01*
G01*
X15431300Y-11670300D02*
G75*
G02*
X15531300Y-11670300I50000J0D01*
G01*
X15544000Y-9118600D02*
G75*
G02*
X15444000Y-9118600I-50000J0D01*
G01*
X15444000Y-9118600D02*
G75*
G02*
X15544000Y-9118600I50000J0D01*
G01*
X15785300Y-10146300D02*
G75*
G02*
X15685300Y-10146300I-50000J0D01*
G01*
X15685300Y-10146300D02*
G75*
G02*
X15785300Y-10146300I50000J0D01*
G01*
X15785300Y-11670300D02*
G75*
G02*
X15685300Y-11670300I-50000J0D01*
G01*
X15685300Y-11670300D02*
G75*
G02*
X15785300Y-11670300I50000J0D01*
G01*
X15798000Y-9118600D02*
G75*
G02*
X15698000Y-9118600I-50000J0D01*
G01*
X15698000Y-9118600D02*
G75*
G02*
X15798000Y-9118600I50000J0D01*
G01*
X16039300Y-10146300D02*
G75*
G02*
X15939300Y-10146300I-50000J0D01*
G01*
X15939300Y-10146300D02*
G75*
G02*
X16039300Y-10146300I50000J0D01*
G01*
X16039300Y-11670300D02*
G75*
G02*
X15939300Y-11670300I-50000J0D01*
G01*
X15939300Y-11670300D02*
G75*
G02*
X16039300Y-11670300I50000J0D01*
G01*
X16052000Y-9118600D02*
G75*
G02*
X15952000Y-9118600I-50000J0D01*
G01*
X15952000Y-9118600D02*
G75*
G02*
X16052000Y-9118600I50000J0D01*
G01*
X16293300Y-10146300D02*
G75*
G02*
X16193300Y-10146300I-50000J0D01*
G01*
X16193300Y-10146300D02*
G75*
G02*
X16293300Y-10146300I50000J0D01*
G01*
X16293300Y-11670300D02*
G75*
G02*
X16193300Y-11670300I-50000J0D01*
G01*
X16193300Y-11670300D02*
G75*
G02*
X16293300Y-11670300I50000J0D01*
G01*
X16306000Y-9118600D02*
G75*
G02*
X16206000Y-9118600I-50000J0D01*
G01*
X16206000Y-9118600D02*
G75*
G02*
X16306000Y-9118600I50000J0D01*
G01*
X16547300Y-10146300D02*
G75*
G02*
X16447300Y-10146300I-50000J0D01*
G01*
X16447300Y-10146300D02*
G75*
G02*
X16547300Y-10146300I50000J0D01*
G01*
X16547300Y-11670300D02*
G75*
G02*
X16447300Y-11670300I-50000J0D01*
G01*
X16447300Y-11670300D02*
G75*
G02*
X16547300Y-11670300I50000J0D01*
G01*
X16560000Y-9118600D02*
G75*
G02*
X16460000Y-9118600I-50000J0D01*
G01*
X16460000Y-9118600D02*
G75*
G02*
X16560000Y-9118600I50000J0D01*
G01*
X16801300Y-10146300D02*
G75*
G02*
X16701300Y-10146300I-50000J0D01*
G01*
X16701300Y-10146300D02*
G75*
G02*
X16801300Y-10146300I50000J0D01*
G01*
X16801300Y-11670300D02*
G75*
G02*
X16701300Y-11670300I-50000J0D01*
G01*
X16701300Y-11670300D02*
G75*
G02*
X16801300Y-11670300I50000J0D01*
G01*
X16814000Y-9118600D02*
G75*
G02*
X16714000Y-9118600I-50000J0D01*
G01*
X16714000Y-9118600D02*
G75*
G02*
X16814000Y-9118600I50000J0D01*
G01*
X17055300Y-10146300D02*
G75*
G02*
X16955300Y-10146300I-50000J0D01*
G01*
X16955300Y-10146300D02*
G75*
G02*
X17055300Y-10146300I50000J0D01*
G01*
X17055300Y-11670300D02*
G75*
G02*
X16955300Y-11670300I-50000J0D01*
G01*
X16955300Y-11670300D02*
G75*
G02*
X17055300Y-11670300I50000J0D01*
G01*
X17068000Y-9118600D02*
G75*
G02*
X16968000Y-9118600I-50000J0D01*
G01*
X16968000Y-9118600D02*
G75*
G02*
X17068000Y-9118600I50000J0D01*
G01*
X17309300Y-10146300D02*
G75*
G02*
X17209300Y-10146300I-50000J0D01*
G01*
X17209300Y-10146300D02*
G75*
G02*
X17309300Y-10146300I50000J0D01*
G01*
X17309300Y-11670300D02*
G75*
G02*
X17209300Y-11670300I-50000J0D01*
G01*
X17209300Y-11670300D02*
G75*
G02*
X17309300Y-11670300I50000J0D01*
G01*
X17322000Y-9118600D02*
G75*
G02*
X17222000Y-9118600I-50000J0D01*
G01*
X17222000Y-9118600D02*
G75*
G02*
X17322000Y-9118600I50000J0D01*
G01*
X17563300Y-10146300D02*
G75*
G02*
X17463300Y-10146300I-50000J0D01*
G01*
X17463300Y-10146300D02*
G75*
G02*
X17563300Y-10146300I50000J0D01*
G01*
X17563300Y-11670300D02*
G75*
G02*
X17463300Y-11670300I-50000J0D01*
G01*
X17463300Y-11670300D02*
G75*
G02*
X17563300Y-11670300I50000J0D01*
G01*
X17576000Y-9118600D02*
G75*
G02*
X17476000Y-9118600I-50000J0D01*
G01*
X17476000Y-9118600D02*
G75*
G02*
X17576000Y-9118600I50000J0D01*
G01*
X17804600Y-12242800D02*
G75*
G02*
X17704600Y-12242800I-50000J0D01*
G01*
X17704600Y-12242800D02*
G75*
G02*
X17804600Y-12242800I50000J0D01*
G01*
X17817300Y-9690100D02*
G75*
G02*
X17717300Y-9690100I-50000J0D01*
G01*
X17717300Y-9690100D02*
G75*
G02*
X17817300Y-9690100I50000J0D01*
G01*
X17817300Y-10146300D02*
G75*
G02*
X17717300Y-10146300I-50000J0D01*
G01*
X17717300Y-10146300D02*
G75*
G02*
X17817300Y-10146300I50000J0D01*
G01*
X17817300Y-11670300D02*
G75*
G02*
X17717300Y-11670300I-50000J0D01*
G01*
X17717300Y-11670300D02*
G75*
G02*
X17817300Y-11670300I50000J0D01*
G01*
X18109400Y-14058900D02*
G75*
G02*
X18009400Y-14058900I-50000J0D01*
G01*
X18009400Y-14058900D02*
G75*
G02*
X18109400Y-14058900I50000J0D01*
G01*
X18109400Y-14312900D02*
G75*
G02*
X18009400Y-14312900I-50000J0D01*
G01*
X18009400Y-14312900D02*
G75*
G02*
X18109400Y-14312900I50000J0D01*
G01*
X19153300Y-11851100D02*
G75*
G02*
X19053300Y-11851100I-50000J0D01*
G01*
X19053300Y-11851100D02*
G75*
G02*
X19153300Y-11851100I50000J0D01*
G01*
X19153300Y-12105100D02*
G75*
G02*
X19053300Y-12105100I-50000J0D01*
G01*
X19053300Y-12105100D02*
G75*
G02*
X19153300Y-12105100I50000J0D01*
G01*
D14*
X19233400Y-10244700D02*
X19233400Y-10354700D01*
X19178400Y-10299700D02*
X19288400Y-10299700D01*
X19233400Y-10498700D02*
X19233400Y-10608700D01*
X19178400Y-10553700D02*
X19288400Y-10553700D01*
X19233400Y-10752700D02*
X19233400Y-10862700D01*
X19178400Y-10807700D02*
X19288400Y-10807700D01*
D15*
X15134269Y-12746669D02*
X15134269Y-12653330D01*
X15040930Y-12653330D01*
X15040930Y-12746669D01*
X15134269Y-12746669D01*
X15134269Y-14270669D02*
X15134269Y-14177330D01*
X15040930Y-14177330D01*
X15040930Y-14270669D01*
X15134269Y-14270669D01*
X15388269Y-12746669D02*
X15388269Y-12653330D01*
X15294930Y-12653330D01*
X15294930Y-12746669D01*
X15388269Y-12746669D01*
X15388269Y-14270669D02*
X15388269Y-14177330D01*
X15294930Y-14177330D01*
X15294930Y-14270669D01*
X15388269Y-14270669D01*
X15642269Y-12746669D02*
X15642269Y-12653330D01*
X15548930Y-12653330D01*
X15548930Y-12746669D01*
X15642269Y-12746669D01*
X15642269Y-14270669D02*
X15642269Y-14177330D01*
X15548930Y-14177330D01*
X15548930Y-14270669D01*
X15642269Y-14270669D01*
X15896269Y-12746669D02*
X15896269Y-12653330D01*
X15802930Y-12653330D01*
X15802930Y-12746669D01*
X15896269Y-12746669D01*
X15896269Y-14270669D02*
X15896269Y-14177330D01*
X15802930Y-14177330D01*
X15802930Y-14270669D01*
X15896269Y-14270669D01*
X16150269Y-12746669D02*
X16150269Y-12653330D01*
X16056930Y-12653330D01*
X16056930Y-12746669D01*
X16150269Y-12746669D01*
X16150269Y-14270669D02*
X16150269Y-14177330D01*
X16056930Y-14177330D01*
X16056930Y-14270669D01*
X16150269Y-14270669D01*
X16404269Y-12746669D02*
X16404269Y-12653330D01*
X16310930Y-12653330D01*
X16310930Y-12746669D01*
X16404269Y-12746669D01*
X16404269Y-14270669D02*
X16404269Y-14177330D01*
X16310930Y-14177330D01*
X16310930Y-14270669D01*
X16404269Y-14270669D01*
X16658269Y-12746669D02*
X16658269Y-12653330D01*
X16564930Y-12653330D01*
X16564930Y-12746669D01*
X16658269Y-12746669D01*
X16658269Y-14270669D02*
X16658269Y-14177330D01*
X16564930Y-14177330D01*
X16564930Y-14270669D01*
X16658269Y-14270669D01*
X16912270Y-12746669D02*
X16912270Y-12653330D01*
X16818931Y-12653330D01*
X16818931Y-12746669D01*
X16912270Y-12746669D01*
X16912270Y-14270669D02*
X16912270Y-14177330D01*
X16818931Y-14177330D01*
X16818931Y-14270669D01*
X16912270Y-14270669D01*
D16*
X18047500Y-13130600D02*
X18122500Y-13055600D01*
X18047500Y-12980600D01*
X17972500Y-13055600D01*
X18047500Y-13130600D01*
X19017500Y-13130600D02*
X19092500Y-13055600D01*
X19017500Y-12980600D01*
X18942500Y-13055600D01*
X19017500Y-13130600D01*
D12*
X11348677Y-15868184D02*
X11348677Y-15668184D01*
X11348677Y-15668184D02*
X11396296Y-15668184D01*
X11396296Y-15668184D02*
X11424867Y-15677708D01*
X11424867Y-15677708D02*
X11443915Y-15696755D01*
X11443915Y-15696755D02*
X11453439Y-15715803D01*
X11453439Y-15715803D02*
X11462962Y-15753898D01*
X11462962Y-15753898D02*
X11462962Y-15782469D01*
X11462962Y-15782469D02*
X11453439Y-15820565D01*
X11453439Y-15820565D02*
X11443915Y-15839612D01*
X11443915Y-15839612D02*
X11424867Y-15858660D01*
X11424867Y-15858660D02*
X11396296Y-15868184D01*
X11396296Y-15868184D02*
X11348677Y-15868184D01*
X11548677Y-15868184D02*
X11548677Y-15734850D01*
X11548677Y-15772946D02*
X11558201Y-15753898D01*
X11558201Y-15753898D02*
X11567724Y-15744374D01*
X11567724Y-15744374D02*
X11586772Y-15734850D01*
X11586772Y-15734850D02*
X11605820Y-15734850D01*
X11672486Y-15868184D02*
X11672486Y-15734850D01*
X11672486Y-15668184D02*
X11662962Y-15677708D01*
X11662962Y-15677708D02*
X11672486Y-15687231D01*
X11672486Y-15687231D02*
X11682010Y-15677708D01*
X11682010Y-15677708D02*
X11672486Y-15668184D01*
X11672486Y-15668184D02*
X11672486Y-15687231D01*
X11796296Y-15868184D02*
X11777248Y-15858660D01*
X11777248Y-15858660D02*
X11767724Y-15839612D01*
X11767724Y-15839612D02*
X11767724Y-15668184D01*
X11901058Y-15868184D02*
X11882010Y-15858660D01*
X11882010Y-15858660D02*
X11872486Y-15839612D01*
X11872486Y-15839612D02*
X11872486Y-15668184D01*
X12129629Y-15868184D02*
X12129629Y-15668184D01*
X12129629Y-15668184D02*
X12196296Y-15811041D01*
X12196296Y-15811041D02*
X12262962Y-15668184D01*
X12262962Y-15668184D02*
X12262962Y-15868184D01*
X12443915Y-15868184D02*
X12443915Y-15763422D01*
X12443915Y-15763422D02*
X12434391Y-15744374D01*
X12434391Y-15744374D02*
X12415343Y-15734850D01*
X12415343Y-15734850D02*
X12377248Y-15734850D01*
X12377248Y-15734850D02*
X12358201Y-15744374D01*
X12443915Y-15858660D02*
X12424867Y-15868184D01*
X12424867Y-15868184D02*
X12377248Y-15868184D01*
X12377248Y-15868184D02*
X12358201Y-15858660D01*
X12358201Y-15858660D02*
X12348677Y-15839612D01*
X12348677Y-15839612D02*
X12348677Y-15820565D01*
X12348677Y-15820565D02*
X12358201Y-15801517D01*
X12358201Y-15801517D02*
X12377248Y-15791993D01*
X12377248Y-15791993D02*
X12424867Y-15791993D01*
X12424867Y-15791993D02*
X12443915Y-15782469D01*
X12539153Y-15734850D02*
X12539153Y-15934850D01*
X12539153Y-15744374D02*
X12558201Y-15734850D01*
X12558201Y-15734850D02*
X12596296Y-15734850D01*
X12596296Y-15734850D02*
X12615343Y-15744374D01*
X12615343Y-15744374D02*
X12624867Y-15753898D01*
X12624867Y-15753898D02*
X12634391Y-15772946D01*
X12634391Y-15772946D02*
X12634391Y-15830088D01*
X12634391Y-15830088D02*
X12624867Y-15849136D01*
X12624867Y-15849136D02*
X12615343Y-15858660D01*
X12615343Y-15858660D02*
X12596296Y-15868184D01*
X12596296Y-15868184D02*
X12558201Y-15868184D01*
X12558201Y-15868184D02*
X12539153Y-15858660D01*
X12720105Y-15849136D02*
X12729629Y-15858660D01*
X12729629Y-15858660D02*
X12720105Y-15868184D01*
X12720105Y-15868184D02*
X12710582Y-15858660D01*
X12710582Y-15858660D02*
X12720105Y-15849136D01*
X12720105Y-15849136D02*
X12720105Y-15868184D01*
X12720105Y-15744374D02*
X12729629Y-15753898D01*
X12729629Y-15753898D02*
X12720105Y-15763422D01*
X12720105Y-15763422D02*
X12710582Y-15753898D01*
X12710582Y-15753898D02*
X12720105Y-15744374D01*
X12720105Y-15744374D02*
X12720105Y-15763422D01*
D13*
X11007900Y-16156700D02*
X11087900Y-16236700D01*
X11087900Y-16156700D02*
X11007900Y-16236700D01*
D12*
X11386772Y-16088184D02*
X11405820Y-16088184D01*
X11405820Y-16088184D02*
X11424867Y-16097708D01*
X11424867Y-16097708D02*
X11434391Y-16107231D01*
X11434391Y-16107231D02*
X11443915Y-16126279D01*
X11443915Y-16126279D02*
X11453439Y-16164374D01*
X11453439Y-16164374D02*
X11453439Y-16211993D01*
X11453439Y-16211993D02*
X11443915Y-16250088D01*
X11443915Y-16250088D02*
X11434391Y-16269136D01*
X11434391Y-16269136D02*
X11424867Y-16278660D01*
X11424867Y-16278660D02*
X11405820Y-16288184D01*
X11405820Y-16288184D02*
X11386772Y-16288184D01*
X11386772Y-16288184D02*
X11367724Y-16278660D01*
X11367724Y-16278660D02*
X11358201Y-16269136D01*
X11358201Y-16269136D02*
X11348677Y-16250088D01*
X11348677Y-16250088D02*
X11339153Y-16211993D01*
X11339153Y-16211993D02*
X11339153Y-16164374D01*
X11339153Y-16164374D02*
X11348677Y-16126279D01*
X11348677Y-16126279D02*
X11358201Y-16107231D01*
X11358201Y-16107231D02*
X11367724Y-16097708D01*
X11367724Y-16097708D02*
X11386772Y-16088184D01*
X11539153Y-16269136D02*
X11548677Y-16278660D01*
X11548677Y-16278660D02*
X11539153Y-16288184D01*
X11539153Y-16288184D02*
X11529629Y-16278660D01*
X11529629Y-16278660D02*
X11539153Y-16269136D01*
X11539153Y-16269136D02*
X11539153Y-16288184D01*
X11662962Y-16173898D02*
X11643915Y-16164374D01*
X11643915Y-16164374D02*
X11634391Y-16154850D01*
X11634391Y-16154850D02*
X11624867Y-16135803D01*
X11624867Y-16135803D02*
X11624867Y-16126279D01*
X11624867Y-16126279D02*
X11634391Y-16107231D01*
X11634391Y-16107231D02*
X11643915Y-16097708D01*
X11643915Y-16097708D02*
X11662962Y-16088184D01*
X11662962Y-16088184D02*
X11701058Y-16088184D01*
X11701058Y-16088184D02*
X11720105Y-16097708D01*
X11720105Y-16097708D02*
X11729629Y-16107231D01*
X11729629Y-16107231D02*
X11739153Y-16126279D01*
X11739153Y-16126279D02*
X11739153Y-16135803D01*
X11739153Y-16135803D02*
X11729629Y-16154850D01*
X11729629Y-16154850D02*
X11720105Y-16164374D01*
X11720105Y-16164374D02*
X11701058Y-16173898D01*
X11701058Y-16173898D02*
X11662962Y-16173898D01*
X11662962Y-16173898D02*
X11643915Y-16183422D01*
X11643915Y-16183422D02*
X11634391Y-16192946D01*
X11634391Y-16192946D02*
X11624867Y-16211993D01*
X11624867Y-16211993D02*
X11624867Y-16250088D01*
X11624867Y-16250088D02*
X11634391Y-16269136D01*
X11634391Y-16269136D02*
X11643915Y-16278660D01*
X11643915Y-16278660D02*
X11662962Y-16288184D01*
X11662962Y-16288184D02*
X11701058Y-16288184D01*
X11701058Y-16288184D02*
X11720105Y-16278660D01*
X11720105Y-16278660D02*
X11729629Y-16269136D01*
X11729629Y-16269136D02*
X11739153Y-16250088D01*
X11739153Y-16250088D02*
X11739153Y-16211993D01*
X11739153Y-16211993D02*
X11729629Y-16192946D01*
X11729629Y-16192946D02*
X11720105Y-16183422D01*
X11720105Y-16183422D02*
X11701058Y-16173898D01*
X11862962Y-16088184D02*
X11882010Y-16088184D01*
X11882010Y-16088184D02*
X11901058Y-16097708D01*
X11901058Y-16097708D02*
X11910582Y-16107231D01*
X11910582Y-16107231D02*
X11920105Y-16126279D01*
X11920105Y-16126279D02*
X11929629Y-16164374D01*
X11929629Y-16164374D02*
X11929629Y-16211993D01*
X11929629Y-16211993D02*
X11920105Y-16250088D01*
X11920105Y-16250088D02*
X11910582Y-16269136D01*
X11910582Y-16269136D02*
X11901058Y-16278660D01*
X11901058Y-16278660D02*
X11882010Y-16288184D01*
X11882010Y-16288184D02*
X11862962Y-16288184D01*
X11862962Y-16288184D02*
X11843915Y-16278660D01*
X11843915Y-16278660D02*
X11834391Y-16269136D01*
X11834391Y-16269136D02*
X11824867Y-16250088D01*
X11824867Y-16250088D02*
X11815343Y-16211993D01*
X11815343Y-16211993D02*
X11815343Y-16164374D01*
X11815343Y-16164374D02*
X11824867Y-16126279D01*
X11824867Y-16126279D02*
X11834391Y-16107231D01*
X11834391Y-16107231D02*
X11843915Y-16097708D01*
X11843915Y-16097708D02*
X11862962Y-16088184D01*
X12053439Y-16088184D02*
X12072486Y-16088184D01*
X12072486Y-16088184D02*
X12091534Y-16097708D01*
X12091534Y-16097708D02*
X12101058Y-16107231D01*
X12101058Y-16107231D02*
X12110582Y-16126279D01*
X12110582Y-16126279D02*
X12120105Y-16164374D01*
X12120105Y-16164374D02*
X12120105Y-16211993D01*
X12120105Y-16211993D02*
X12110582Y-16250088D01*
X12110582Y-16250088D02*
X12101058Y-16269136D01*
X12101058Y-16269136D02*
X12091534Y-16278660D01*
X12091534Y-16278660D02*
X12072486Y-16288184D01*
X12072486Y-16288184D02*
X12053439Y-16288184D01*
X12053439Y-16288184D02*
X12034391Y-16278660D01*
X12034391Y-16278660D02*
X12024867Y-16269136D01*
X12024867Y-16269136D02*
X12015343Y-16250088D01*
X12015343Y-16250088D02*
X12005820Y-16211993D01*
X12005820Y-16211993D02*
X12005820Y-16164374D01*
X12005820Y-16164374D02*
X12015343Y-16126279D01*
X12015343Y-16126279D02*
X12024867Y-16107231D01*
X12024867Y-16107231D02*
X12034391Y-16097708D01*
X12034391Y-16097708D02*
X12053439Y-16088184D01*
X12205820Y-16288184D02*
X12205820Y-16154850D01*
X12205820Y-16173898D02*
X12215343Y-16164374D01*
X12215343Y-16164374D02*
X12234391Y-16154850D01*
X12234391Y-16154850D02*
X12262963Y-16154850D01*
X12262963Y-16154850D02*
X12282010Y-16164374D01*
X12282010Y-16164374D02*
X12291534Y-16183422D01*
X12291534Y-16183422D02*
X12291534Y-16288184D01*
X12291534Y-16183422D02*
X12301058Y-16164374D01*
X12301058Y-16164374D02*
X12320105Y-16154850D01*
X12320105Y-16154850D02*
X12348677Y-16154850D01*
X12348677Y-16154850D02*
X12367724Y-16164374D01*
X12367724Y-16164374D02*
X12377248Y-16183422D01*
X12377248Y-16183422D02*
X12377248Y-16288184D01*
X12472486Y-16288184D02*
X12472486Y-16154850D01*
X12472486Y-16173898D02*
X12482010Y-16164374D01*
X12482010Y-16164374D02*
X12501058Y-16154850D01*
X12501058Y-16154850D02*
X12529629Y-16154850D01*
X12529629Y-16154850D02*
X12548677Y-16164374D01*
X12548677Y-16164374D02*
X12558201Y-16183422D01*
X12558201Y-16183422D02*
X12558201Y-16288184D01*
X12558201Y-16183422D02*
X12567724Y-16164374D01*
X12567724Y-16164374D02*
X12586772Y-16154850D01*
X12586772Y-16154850D02*
X12615343Y-16154850D01*
X12615343Y-16154850D02*
X12634391Y-16164374D01*
X12634391Y-16164374D02*
X12643915Y-16183422D01*
X12643915Y-16183422D02*
X12643915Y-16288184D01*
X13034391Y-16078660D02*
X12862963Y-16335803D01*
X13291534Y-16088184D02*
X13310582Y-16088184D01*
X13310582Y-16088184D02*
X13329629Y-16097708D01*
X13329629Y-16097708D02*
X13339153Y-16107231D01*
X13339153Y-16107231D02*
X13348677Y-16126279D01*
X13348677Y-16126279D02*
X13358201Y-16164374D01*
X13358201Y-16164374D02*
X13358201Y-16211993D01*
X13358201Y-16211993D02*
X13348677Y-16250088D01*
X13348677Y-16250088D02*
X13339153Y-16269136D01*
X13339153Y-16269136D02*
X13329629Y-16278660D01*
X13329629Y-16278660D02*
X13310582Y-16288184D01*
X13310582Y-16288184D02*
X13291534Y-16288184D01*
X13291534Y-16288184D02*
X13272486Y-16278660D01*
X13272486Y-16278660D02*
X13262963Y-16269136D01*
X13262963Y-16269136D02*
X13253439Y-16250088D01*
X13253439Y-16250088D02*
X13243915Y-16211993D01*
X13243915Y-16211993D02*
X13243915Y-16164374D01*
X13243915Y-16164374D02*
X13253439Y-16126279D01*
X13253439Y-16126279D02*
X13262963Y-16107231D01*
X13262963Y-16107231D02*
X13272486Y-16097708D01*
X13272486Y-16097708D02*
X13291534Y-16088184D01*
X13443915Y-16269136D02*
X13453439Y-16278660D01*
X13453439Y-16278660D02*
X13443915Y-16288184D01*
X13443915Y-16288184D02*
X13434391Y-16278660D01*
X13434391Y-16278660D02*
X13443915Y-16269136D01*
X13443915Y-16269136D02*
X13443915Y-16288184D01*
X13577248Y-16088184D02*
X13596296Y-16088184D01*
X13596296Y-16088184D02*
X13615344Y-16097708D01*
X13615344Y-16097708D02*
X13624867Y-16107231D01*
X13624867Y-16107231D02*
X13634391Y-16126279D01*
X13634391Y-16126279D02*
X13643915Y-16164374D01*
X13643915Y-16164374D02*
X13643915Y-16211993D01*
X13643915Y-16211993D02*
X13634391Y-16250088D01*
X13634391Y-16250088D02*
X13624867Y-16269136D01*
X13624867Y-16269136D02*
X13615344Y-16278660D01*
X13615344Y-16278660D02*
X13596296Y-16288184D01*
X13596296Y-16288184D02*
X13577248Y-16288184D01*
X13577248Y-16288184D02*
X13558201Y-16278660D01*
X13558201Y-16278660D02*
X13548677Y-16269136D01*
X13548677Y-16269136D02*
X13539153Y-16250088D01*
X13539153Y-16250088D02*
X13529629Y-16211993D01*
X13529629Y-16211993D02*
X13529629Y-16164374D01*
X13529629Y-16164374D02*
X13539153Y-16126279D01*
X13539153Y-16126279D02*
X13548677Y-16107231D01*
X13548677Y-16107231D02*
X13558201Y-16097708D01*
X13558201Y-16097708D02*
X13577248Y-16088184D01*
X13710582Y-16088184D02*
X13834391Y-16088184D01*
X13834391Y-16088184D02*
X13767725Y-16164374D01*
X13767725Y-16164374D02*
X13796296Y-16164374D01*
X13796296Y-16164374D02*
X13815344Y-16173898D01*
X13815344Y-16173898D02*
X13824867Y-16183422D01*
X13824867Y-16183422D02*
X13834391Y-16202469D01*
X13834391Y-16202469D02*
X13834391Y-16250088D01*
X13834391Y-16250088D02*
X13824867Y-16269136D01*
X13824867Y-16269136D02*
X13815344Y-16278660D01*
X13815344Y-16278660D02*
X13796296Y-16288184D01*
X13796296Y-16288184D02*
X13739153Y-16288184D01*
X13739153Y-16288184D02*
X13720106Y-16278660D01*
X13720106Y-16278660D02*
X13710582Y-16269136D01*
X14024867Y-16288184D02*
X13910582Y-16288184D01*
X13967725Y-16288184D02*
X13967725Y-16088184D01*
X13967725Y-16088184D02*
X13948677Y-16116755D01*
X13948677Y-16116755D02*
X13929629Y-16135803D01*
X13929629Y-16135803D02*
X13910582Y-16145327D01*
X14205820Y-16088184D02*
X14110582Y-16088184D01*
X14110582Y-16088184D02*
X14101058Y-16183422D01*
X14101058Y-16183422D02*
X14110582Y-16173898D01*
X14110582Y-16173898D02*
X14129629Y-16164374D01*
X14129629Y-16164374D02*
X14177248Y-16164374D01*
X14177248Y-16164374D02*
X14196296Y-16173898D01*
X14196296Y-16173898D02*
X14205820Y-16183422D01*
X14205820Y-16183422D02*
X14215344Y-16202469D01*
X14215344Y-16202469D02*
X14215344Y-16250088D01*
X14215344Y-16250088D02*
X14205820Y-16269136D01*
X14205820Y-16269136D02*
X14196296Y-16278660D01*
X14196296Y-16278660D02*
X14177248Y-16288184D01*
X14177248Y-16288184D02*
X14129629Y-16288184D01*
X14129629Y-16288184D02*
X14110582Y-16278660D01*
X14110582Y-16278660D02*
X14101058Y-16269136D01*
X14291534Y-16088184D02*
X14291534Y-16126279D01*
X14367725Y-16088184D02*
X14367725Y-16126279D01*
X14662963Y-16364374D02*
X14653439Y-16354850D01*
X14653439Y-16354850D02*
X14634391Y-16326279D01*
X14634391Y-16326279D02*
X14624868Y-16307231D01*
X14624868Y-16307231D02*
X14615344Y-16278660D01*
X14615344Y-16278660D02*
X14605820Y-16231041D01*
X14605820Y-16231041D02*
X14605820Y-16192946D01*
X14605820Y-16192946D02*
X14615344Y-16145327D01*
X14615344Y-16145327D02*
X14624868Y-16116755D01*
X14624868Y-16116755D02*
X14634391Y-16097708D01*
X14634391Y-16097708D02*
X14653439Y-16069136D01*
X14653439Y-16069136D02*
X14662963Y-16059612D01*
X14720106Y-16088184D02*
X14843915Y-16088184D01*
X14843915Y-16088184D02*
X14777248Y-16164374D01*
X14777248Y-16164374D02*
X14805820Y-16164374D01*
X14805820Y-16164374D02*
X14824868Y-16173898D01*
X14824868Y-16173898D02*
X14834391Y-16183422D01*
X14834391Y-16183422D02*
X14843915Y-16202469D01*
X14843915Y-16202469D02*
X14843915Y-16250088D01*
X14843915Y-16250088D02*
X14834391Y-16269136D01*
X14834391Y-16269136D02*
X14824868Y-16278660D01*
X14824868Y-16278660D02*
X14805820Y-16288184D01*
X14805820Y-16288184D02*
X14748677Y-16288184D01*
X14748677Y-16288184D02*
X14729629Y-16278660D01*
X14729629Y-16278660D02*
X14720106Y-16269136D01*
X15082010Y-16288184D02*
X15082010Y-16088184D01*
X15167725Y-16288184D02*
X15167725Y-16183422D01*
X15167725Y-16183422D02*
X15158201Y-16164374D01*
X15158201Y-16164374D02*
X15139153Y-16154850D01*
X15139153Y-16154850D02*
X15110582Y-16154850D01*
X15110582Y-16154850D02*
X15091534Y-16164374D01*
X15091534Y-16164374D02*
X15082010Y-16173898D01*
X15291534Y-16288184D02*
X15272487Y-16278660D01*
X15272487Y-16278660D02*
X15262963Y-16269136D01*
X15262963Y-16269136D02*
X15253439Y-16250088D01*
X15253439Y-16250088D02*
X15253439Y-16192946D01*
X15253439Y-16192946D02*
X15262963Y-16173898D01*
X15262963Y-16173898D02*
X15272487Y-16164374D01*
X15272487Y-16164374D02*
X15291534Y-16154850D01*
X15291534Y-16154850D02*
X15320106Y-16154850D01*
X15320106Y-16154850D02*
X15339153Y-16164374D01*
X15339153Y-16164374D02*
X15348677Y-16173898D01*
X15348677Y-16173898D02*
X15358201Y-16192946D01*
X15358201Y-16192946D02*
X15358201Y-16250088D01*
X15358201Y-16250088D02*
X15348677Y-16269136D01*
X15348677Y-16269136D02*
X15339153Y-16278660D01*
X15339153Y-16278660D02*
X15320106Y-16288184D01*
X15320106Y-16288184D02*
X15291534Y-16288184D01*
X15472487Y-16288184D02*
X15453439Y-16278660D01*
X15453439Y-16278660D02*
X15443915Y-16259612D01*
X15443915Y-16259612D02*
X15443915Y-16088184D01*
X15624868Y-16278660D02*
X15605820Y-16288184D01*
X15605820Y-16288184D02*
X15567725Y-16288184D01*
X15567725Y-16288184D02*
X15548677Y-16278660D01*
X15548677Y-16278660D02*
X15539153Y-16259612D01*
X15539153Y-16259612D02*
X15539153Y-16183422D01*
X15539153Y-16183422D02*
X15548677Y-16164374D01*
X15548677Y-16164374D02*
X15567725Y-16154850D01*
X15567725Y-16154850D02*
X15605820Y-16154850D01*
X15605820Y-16154850D02*
X15624868Y-16164374D01*
X15624868Y-16164374D02*
X15634391Y-16183422D01*
X15634391Y-16183422D02*
X15634391Y-16202469D01*
X15634391Y-16202469D02*
X15539153Y-16221517D01*
X15710582Y-16278660D02*
X15729630Y-16288184D01*
X15729630Y-16288184D02*
X15767725Y-16288184D01*
X15767725Y-16288184D02*
X15786772Y-16278660D01*
X15786772Y-16278660D02*
X15796296Y-16259612D01*
X15796296Y-16259612D02*
X15796296Y-16250088D01*
X15796296Y-16250088D02*
X15786772Y-16231041D01*
X15786772Y-16231041D02*
X15767725Y-16221517D01*
X15767725Y-16221517D02*
X15739153Y-16221517D01*
X15739153Y-16221517D02*
X15720106Y-16211993D01*
X15720106Y-16211993D02*
X15710582Y-16192946D01*
X15710582Y-16192946D02*
X15710582Y-16183422D01*
X15710582Y-16183422D02*
X15720106Y-16164374D01*
X15720106Y-16164374D02*
X15739153Y-16154850D01*
X15739153Y-16154850D02*
X15767725Y-16154850D01*
X15767725Y-16154850D02*
X15786772Y-16164374D01*
X15862963Y-16364374D02*
X15872487Y-16354850D01*
X15872487Y-16354850D02*
X15891534Y-16326279D01*
X15891534Y-16326279D02*
X15901058Y-16307231D01*
X15901058Y-16307231D02*
X15910582Y-16278660D01*
X15910582Y-16278660D02*
X15920106Y-16231041D01*
X15920106Y-16231041D02*
X15920106Y-16192946D01*
X15920106Y-16192946D02*
X15910582Y-16145327D01*
X15910582Y-16145327D02*
X15901058Y-16116755D01*
X15901058Y-16116755D02*
X15891534Y-16097708D01*
X15891534Y-16097708D02*
X15872487Y-16069136D01*
X15872487Y-16069136D02*
X15862963Y-16059612D01*
D13*
X11087900Y-16460700D02*
G75*
G02*
X10987900Y-16460700I-50000J0D01*
G01*
X10987900Y-16460700D02*
G75*
G02*
X11087900Y-16460700I50000J0D01*
G01*
D12*
X11453439Y-16552184D02*
X11339153Y-16552184D01*
X11396296Y-16552184D02*
X11396296Y-16352184D01*
X11396296Y-16352184D02*
X11377248Y-16380755D01*
X11377248Y-16380755D02*
X11358201Y-16399803D01*
X11358201Y-16399803D02*
X11339153Y-16409327D01*
X11539153Y-16533136D02*
X11548677Y-16542660D01*
X11548677Y-16542660D02*
X11539153Y-16552184D01*
X11539153Y-16552184D02*
X11529629Y-16542660D01*
X11529629Y-16542660D02*
X11539153Y-16533136D01*
X11539153Y-16533136D02*
X11539153Y-16552184D01*
X11672486Y-16352184D02*
X11691534Y-16352184D01*
X11691534Y-16352184D02*
X11710582Y-16361708D01*
X11710582Y-16361708D02*
X11720105Y-16371231D01*
X11720105Y-16371231D02*
X11729629Y-16390279D01*
X11729629Y-16390279D02*
X11739153Y-16428374D01*
X11739153Y-16428374D02*
X11739153Y-16475993D01*
X11739153Y-16475993D02*
X11729629Y-16514088D01*
X11729629Y-16514088D02*
X11720105Y-16533136D01*
X11720105Y-16533136D02*
X11710582Y-16542660D01*
X11710582Y-16542660D02*
X11691534Y-16552184D01*
X11691534Y-16552184D02*
X11672486Y-16552184D01*
X11672486Y-16552184D02*
X11653439Y-16542660D01*
X11653439Y-16542660D02*
X11643915Y-16533136D01*
X11643915Y-16533136D02*
X11634391Y-16514088D01*
X11634391Y-16514088D02*
X11624867Y-16475993D01*
X11624867Y-16475993D02*
X11624867Y-16428374D01*
X11624867Y-16428374D02*
X11634391Y-16390279D01*
X11634391Y-16390279D02*
X11643915Y-16371231D01*
X11643915Y-16371231D02*
X11653439Y-16361708D01*
X11653439Y-16361708D02*
X11672486Y-16352184D01*
X11862962Y-16352184D02*
X11882010Y-16352184D01*
X11882010Y-16352184D02*
X11901058Y-16361708D01*
X11901058Y-16361708D02*
X11910582Y-16371231D01*
X11910582Y-16371231D02*
X11920105Y-16390279D01*
X11920105Y-16390279D02*
X11929629Y-16428374D01*
X11929629Y-16428374D02*
X11929629Y-16475993D01*
X11929629Y-16475993D02*
X11920105Y-16514088D01*
X11920105Y-16514088D02*
X11910582Y-16533136D01*
X11910582Y-16533136D02*
X11901058Y-16542660D01*
X11901058Y-16542660D02*
X11882010Y-16552184D01*
X11882010Y-16552184D02*
X11862962Y-16552184D01*
X11862962Y-16552184D02*
X11843915Y-16542660D01*
X11843915Y-16542660D02*
X11834391Y-16533136D01*
X11834391Y-16533136D02*
X11824867Y-16514088D01*
X11824867Y-16514088D02*
X11815343Y-16475993D01*
X11815343Y-16475993D02*
X11815343Y-16428374D01*
X11815343Y-16428374D02*
X11824867Y-16390279D01*
X11824867Y-16390279D02*
X11834391Y-16371231D01*
X11834391Y-16371231D02*
X11843915Y-16361708D01*
X11843915Y-16361708D02*
X11862962Y-16352184D01*
X12053439Y-16352184D02*
X12072486Y-16352184D01*
X12072486Y-16352184D02*
X12091534Y-16361708D01*
X12091534Y-16361708D02*
X12101058Y-16371231D01*
X12101058Y-16371231D02*
X12110582Y-16390279D01*
X12110582Y-16390279D02*
X12120105Y-16428374D01*
X12120105Y-16428374D02*
X12120105Y-16475993D01*
X12120105Y-16475993D02*
X12110582Y-16514088D01*
X12110582Y-16514088D02*
X12101058Y-16533136D01*
X12101058Y-16533136D02*
X12091534Y-16542660D01*
X12091534Y-16542660D02*
X12072486Y-16552184D01*
X12072486Y-16552184D02*
X12053439Y-16552184D01*
X12053439Y-16552184D02*
X12034391Y-16542660D01*
X12034391Y-16542660D02*
X12024867Y-16533136D01*
X12024867Y-16533136D02*
X12015343Y-16514088D01*
X12015343Y-16514088D02*
X12005820Y-16475993D01*
X12005820Y-16475993D02*
X12005820Y-16428374D01*
X12005820Y-16428374D02*
X12015343Y-16390279D01*
X12015343Y-16390279D02*
X12024867Y-16371231D01*
X12024867Y-16371231D02*
X12034391Y-16361708D01*
X12034391Y-16361708D02*
X12053439Y-16352184D01*
X12205820Y-16552184D02*
X12205820Y-16418850D01*
X12205820Y-16437898D02*
X12215343Y-16428374D01*
X12215343Y-16428374D02*
X12234391Y-16418850D01*
X12234391Y-16418850D02*
X12262963Y-16418850D01*
X12262963Y-16418850D02*
X12282010Y-16428374D01*
X12282010Y-16428374D02*
X12291534Y-16447422D01*
X12291534Y-16447422D02*
X12291534Y-16552184D01*
X12291534Y-16447422D02*
X12301058Y-16428374D01*
X12301058Y-16428374D02*
X12320105Y-16418850D01*
X12320105Y-16418850D02*
X12348677Y-16418850D01*
X12348677Y-16418850D02*
X12367724Y-16428374D01*
X12367724Y-16428374D02*
X12377248Y-16447422D01*
X12377248Y-16447422D02*
X12377248Y-16552184D01*
X12472486Y-16552184D02*
X12472486Y-16418850D01*
X12472486Y-16437898D02*
X12482010Y-16428374D01*
X12482010Y-16428374D02*
X12501058Y-16418850D01*
X12501058Y-16418850D02*
X12529629Y-16418850D01*
X12529629Y-16418850D02*
X12548677Y-16428374D01*
X12548677Y-16428374D02*
X12558201Y-16447422D01*
X12558201Y-16447422D02*
X12558201Y-16552184D01*
X12558201Y-16447422D02*
X12567724Y-16428374D01*
X12567724Y-16428374D02*
X12586772Y-16418850D01*
X12586772Y-16418850D02*
X12615343Y-16418850D01*
X12615343Y-16418850D02*
X12634391Y-16428374D01*
X12634391Y-16428374D02*
X12643915Y-16447422D01*
X12643915Y-16447422D02*
X12643915Y-16552184D01*
X13034391Y-16342660D02*
X12862963Y-16599803D01*
X13291534Y-16352184D02*
X13310582Y-16352184D01*
X13310582Y-16352184D02*
X13329629Y-16361708D01*
X13329629Y-16361708D02*
X13339153Y-16371231D01*
X13339153Y-16371231D02*
X13348677Y-16390279D01*
X13348677Y-16390279D02*
X13358201Y-16428374D01*
X13358201Y-16428374D02*
X13358201Y-16475993D01*
X13358201Y-16475993D02*
X13348677Y-16514088D01*
X13348677Y-16514088D02*
X13339153Y-16533136D01*
X13339153Y-16533136D02*
X13329629Y-16542660D01*
X13329629Y-16542660D02*
X13310582Y-16552184D01*
X13310582Y-16552184D02*
X13291534Y-16552184D01*
X13291534Y-16552184D02*
X13272486Y-16542660D01*
X13272486Y-16542660D02*
X13262963Y-16533136D01*
X13262963Y-16533136D02*
X13253439Y-16514088D01*
X13253439Y-16514088D02*
X13243915Y-16475993D01*
X13243915Y-16475993D02*
X13243915Y-16428374D01*
X13243915Y-16428374D02*
X13253439Y-16390279D01*
X13253439Y-16390279D02*
X13262963Y-16371231D01*
X13262963Y-16371231D02*
X13272486Y-16361708D01*
X13272486Y-16361708D02*
X13291534Y-16352184D01*
X13443915Y-16533136D02*
X13453439Y-16542660D01*
X13453439Y-16542660D02*
X13443915Y-16552184D01*
X13443915Y-16552184D02*
X13434391Y-16542660D01*
X13434391Y-16542660D02*
X13443915Y-16533136D01*
X13443915Y-16533136D02*
X13443915Y-16552184D01*
X13577248Y-16352184D02*
X13596296Y-16352184D01*
X13596296Y-16352184D02*
X13615344Y-16361708D01*
X13615344Y-16361708D02*
X13624867Y-16371231D01*
X13624867Y-16371231D02*
X13634391Y-16390279D01*
X13634391Y-16390279D02*
X13643915Y-16428374D01*
X13643915Y-16428374D02*
X13643915Y-16475993D01*
X13643915Y-16475993D02*
X13634391Y-16514088D01*
X13634391Y-16514088D02*
X13624867Y-16533136D01*
X13624867Y-16533136D02*
X13615344Y-16542660D01*
X13615344Y-16542660D02*
X13596296Y-16552184D01*
X13596296Y-16552184D02*
X13577248Y-16552184D01*
X13577248Y-16552184D02*
X13558201Y-16542660D01*
X13558201Y-16542660D02*
X13548677Y-16533136D01*
X13548677Y-16533136D02*
X13539153Y-16514088D01*
X13539153Y-16514088D02*
X13529629Y-16475993D01*
X13529629Y-16475993D02*
X13529629Y-16428374D01*
X13529629Y-16428374D02*
X13539153Y-16390279D01*
X13539153Y-16390279D02*
X13548677Y-16371231D01*
X13548677Y-16371231D02*
X13558201Y-16361708D01*
X13558201Y-16361708D02*
X13577248Y-16352184D01*
X13710582Y-16352184D02*
X13834391Y-16352184D01*
X13834391Y-16352184D02*
X13767725Y-16428374D01*
X13767725Y-16428374D02*
X13796296Y-16428374D01*
X13796296Y-16428374D02*
X13815344Y-16437898D01*
X13815344Y-16437898D02*
X13824867Y-16447422D01*
X13824867Y-16447422D02*
X13834391Y-16466469D01*
X13834391Y-16466469D02*
X13834391Y-16514088D01*
X13834391Y-16514088D02*
X13824867Y-16533136D01*
X13824867Y-16533136D02*
X13815344Y-16542660D01*
X13815344Y-16542660D02*
X13796296Y-16552184D01*
X13796296Y-16552184D02*
X13739153Y-16552184D01*
X13739153Y-16552184D02*
X13720106Y-16542660D01*
X13720106Y-16542660D02*
X13710582Y-16533136D01*
X13929629Y-16552184D02*
X13967725Y-16552184D01*
X13967725Y-16552184D02*
X13986772Y-16542660D01*
X13986772Y-16542660D02*
X13996296Y-16533136D01*
X13996296Y-16533136D02*
X14015344Y-16504565D01*
X14015344Y-16504565D02*
X14024867Y-16466469D01*
X14024867Y-16466469D02*
X14024867Y-16390279D01*
X14024867Y-16390279D02*
X14015344Y-16371231D01*
X14015344Y-16371231D02*
X14005820Y-16361708D01*
X14005820Y-16361708D02*
X13986772Y-16352184D01*
X13986772Y-16352184D02*
X13948677Y-16352184D01*
X13948677Y-16352184D02*
X13929629Y-16361708D01*
X13929629Y-16361708D02*
X13920106Y-16371231D01*
X13920106Y-16371231D02*
X13910582Y-16390279D01*
X13910582Y-16390279D02*
X13910582Y-16437898D01*
X13910582Y-16437898D02*
X13920106Y-16456946D01*
X13920106Y-16456946D02*
X13929629Y-16466469D01*
X13929629Y-16466469D02*
X13948677Y-16475993D01*
X13948677Y-16475993D02*
X13986772Y-16475993D01*
X13986772Y-16475993D02*
X14005820Y-16466469D01*
X14005820Y-16466469D02*
X14015344Y-16456946D01*
X14015344Y-16456946D02*
X14024867Y-16437898D01*
X14196296Y-16418850D02*
X14196296Y-16552184D01*
X14148677Y-16342660D02*
X14101058Y-16485517D01*
X14101058Y-16485517D02*
X14224867Y-16485517D01*
X14291534Y-16352184D02*
X14291534Y-16390279D01*
X14367725Y-16352184D02*
X14367725Y-16390279D01*
X14662963Y-16628374D02*
X14653439Y-16618850D01*
X14653439Y-16618850D02*
X14634391Y-16590279D01*
X14634391Y-16590279D02*
X14624868Y-16571231D01*
X14624868Y-16571231D02*
X14615344Y-16542660D01*
X14615344Y-16542660D02*
X14605820Y-16495041D01*
X14605820Y-16495041D02*
X14605820Y-16456946D01*
X14605820Y-16456946D02*
X14615344Y-16409327D01*
X14615344Y-16409327D02*
X14624868Y-16380755D01*
X14624868Y-16380755D02*
X14634391Y-16361708D01*
X14634391Y-16361708D02*
X14653439Y-16333136D01*
X14653439Y-16333136D02*
X14662963Y-16323612D01*
X14834391Y-16352184D02*
X14739153Y-16352184D01*
X14739153Y-16352184D02*
X14729629Y-16447422D01*
X14729629Y-16447422D02*
X14739153Y-16437898D01*
X14739153Y-16437898D02*
X14758201Y-16428374D01*
X14758201Y-16428374D02*
X14805820Y-16428374D01*
X14805820Y-16428374D02*
X14824868Y-16437898D01*
X14824868Y-16437898D02*
X14834391Y-16447422D01*
X14834391Y-16447422D02*
X14843915Y-16466469D01*
X14843915Y-16466469D02*
X14843915Y-16514088D01*
X14843915Y-16514088D02*
X14834391Y-16533136D01*
X14834391Y-16533136D02*
X14824868Y-16542660D01*
X14824868Y-16542660D02*
X14805820Y-16552184D01*
X14805820Y-16552184D02*
X14758201Y-16552184D01*
X14758201Y-16552184D02*
X14739153Y-16542660D01*
X14739153Y-16542660D02*
X14729629Y-16533136D01*
X14939153Y-16552184D02*
X14977248Y-16552184D01*
X14977248Y-16552184D02*
X14996296Y-16542660D01*
X14996296Y-16542660D02*
X15005820Y-16533136D01*
X15005820Y-16533136D02*
X15024868Y-16504565D01*
X15024868Y-16504565D02*
X15034391Y-16466469D01*
X15034391Y-16466469D02*
X15034391Y-16390279D01*
X15034391Y-16390279D02*
X15024868Y-16371231D01*
X15024868Y-16371231D02*
X15015344Y-16361708D01*
X15015344Y-16361708D02*
X14996296Y-16352184D01*
X14996296Y-16352184D02*
X14958201Y-16352184D01*
X14958201Y-16352184D02*
X14939153Y-16361708D01*
X14939153Y-16361708D02*
X14929629Y-16371231D01*
X14929629Y-16371231D02*
X14920106Y-16390279D01*
X14920106Y-16390279D02*
X14920106Y-16437898D01*
X14920106Y-16437898D02*
X14929629Y-16456946D01*
X14929629Y-16456946D02*
X14939153Y-16466469D01*
X14939153Y-16466469D02*
X14958201Y-16475993D01*
X14958201Y-16475993D02*
X14996296Y-16475993D01*
X14996296Y-16475993D02*
X15015344Y-16466469D01*
X15015344Y-16466469D02*
X15024868Y-16456946D01*
X15024868Y-16456946D02*
X15034391Y-16437898D01*
X15272487Y-16552184D02*
X15272487Y-16352184D01*
X15358201Y-16552184D02*
X15358201Y-16447422D01*
X15358201Y-16447422D02*
X15348677Y-16428374D01*
X15348677Y-16428374D02*
X15329630Y-16418850D01*
X15329630Y-16418850D02*
X15301058Y-16418850D01*
X15301058Y-16418850D02*
X15282010Y-16428374D01*
X15282010Y-16428374D02*
X15272487Y-16437898D01*
X15482010Y-16552184D02*
X15462963Y-16542660D01*
X15462963Y-16542660D02*
X15453439Y-16533136D01*
X15453439Y-16533136D02*
X15443915Y-16514088D01*
X15443915Y-16514088D02*
X15443915Y-16456946D01*
X15443915Y-16456946D02*
X15453439Y-16437898D01*
X15453439Y-16437898D02*
X15462963Y-16428374D01*
X15462963Y-16428374D02*
X15482010Y-16418850D01*
X15482010Y-16418850D02*
X15510582Y-16418850D01*
X15510582Y-16418850D02*
X15529630Y-16428374D01*
X15529630Y-16428374D02*
X15539153Y-16437898D01*
X15539153Y-16437898D02*
X15548677Y-16456946D01*
X15548677Y-16456946D02*
X15548677Y-16514088D01*
X15548677Y-16514088D02*
X15539153Y-16533136D01*
X15539153Y-16533136D02*
X15529630Y-16542660D01*
X15529630Y-16542660D02*
X15510582Y-16552184D01*
X15510582Y-16552184D02*
X15482010Y-16552184D01*
X15662963Y-16552184D02*
X15643915Y-16542660D01*
X15643915Y-16542660D02*
X15634391Y-16523612D01*
X15634391Y-16523612D02*
X15634391Y-16352184D01*
X15815344Y-16542660D02*
X15796296Y-16552184D01*
X15796296Y-16552184D02*
X15758201Y-16552184D01*
X15758201Y-16552184D02*
X15739153Y-16542660D01*
X15739153Y-16542660D02*
X15729630Y-16523612D01*
X15729630Y-16523612D02*
X15729630Y-16447422D01*
X15729630Y-16447422D02*
X15739153Y-16428374D01*
X15739153Y-16428374D02*
X15758201Y-16418850D01*
X15758201Y-16418850D02*
X15796296Y-16418850D01*
X15796296Y-16418850D02*
X15815344Y-16428374D01*
X15815344Y-16428374D02*
X15824868Y-16447422D01*
X15824868Y-16447422D02*
X15824868Y-16466469D01*
X15824868Y-16466469D02*
X15729630Y-16485517D01*
X15901058Y-16542660D02*
X15920106Y-16552184D01*
X15920106Y-16552184D02*
X15958201Y-16552184D01*
X15958201Y-16552184D02*
X15977249Y-16542660D01*
X15977249Y-16542660D02*
X15986772Y-16523612D01*
X15986772Y-16523612D02*
X15986772Y-16514088D01*
X15986772Y-16514088D02*
X15977249Y-16495041D01*
X15977249Y-16495041D02*
X15958201Y-16485517D01*
X15958201Y-16485517D02*
X15929630Y-16485517D01*
X15929630Y-16485517D02*
X15910582Y-16475993D01*
X15910582Y-16475993D02*
X15901058Y-16456946D01*
X15901058Y-16456946D02*
X15901058Y-16447422D01*
X15901058Y-16447422D02*
X15910582Y-16428374D01*
X15910582Y-16428374D02*
X15929630Y-16418850D01*
X15929630Y-16418850D02*
X15958201Y-16418850D01*
X15958201Y-16418850D02*
X15977249Y-16428374D01*
X16053439Y-16628374D02*
X16062963Y-16618850D01*
X16062963Y-16618850D02*
X16082011Y-16590279D01*
X16082011Y-16590279D02*
X16091534Y-16571231D01*
X16091534Y-16571231D02*
X16101058Y-16542660D01*
X16101058Y-16542660D02*
X16110582Y-16495041D01*
X16110582Y-16495041D02*
X16110582Y-16456946D01*
X16110582Y-16456946D02*
X16101058Y-16409327D01*
X16101058Y-16409327D02*
X16091534Y-16380755D01*
X16091534Y-16380755D02*
X16082011Y-16361708D01*
X16082011Y-16361708D02*
X16062963Y-16333136D01*
X16062963Y-16333136D02*
X16053439Y-16323612D01*
D14*
X11032900Y-16669700D02*
X11032900Y-16779700D01*
X10977900Y-16724700D02*
X11087900Y-16724700D01*
D12*
X11453439Y-16816184D02*
X11339153Y-16816184D01*
X11396296Y-16816184D02*
X11396296Y-16616184D01*
X11396296Y-16616184D02*
X11377248Y-16644755D01*
X11377248Y-16644755D02*
X11358201Y-16663803D01*
X11358201Y-16663803D02*
X11339153Y-16673327D01*
X11539153Y-16797136D02*
X11548677Y-16806660D01*
X11548677Y-16806660D02*
X11539153Y-16816184D01*
X11539153Y-16816184D02*
X11529629Y-16806660D01*
X11529629Y-16806660D02*
X11539153Y-16797136D01*
X11539153Y-16797136D02*
X11539153Y-16816184D01*
X11739153Y-16816184D02*
X11624867Y-16816184D01*
X11682010Y-16816184D02*
X11682010Y-16616184D01*
X11682010Y-16616184D02*
X11662962Y-16644755D01*
X11662962Y-16644755D02*
X11643915Y-16663803D01*
X11643915Y-16663803D02*
X11624867Y-16673327D01*
X11862962Y-16616184D02*
X11882010Y-16616184D01*
X11882010Y-16616184D02*
X11901058Y-16625708D01*
X11901058Y-16625708D02*
X11910582Y-16635231D01*
X11910582Y-16635231D02*
X11920105Y-16654279D01*
X11920105Y-16654279D02*
X11929629Y-16692374D01*
X11929629Y-16692374D02*
X11929629Y-16739993D01*
X11929629Y-16739993D02*
X11920105Y-16778089D01*
X11920105Y-16778089D02*
X11910582Y-16797136D01*
X11910582Y-16797136D02*
X11901058Y-16806660D01*
X11901058Y-16806660D02*
X11882010Y-16816184D01*
X11882010Y-16816184D02*
X11862962Y-16816184D01*
X11862962Y-16816184D02*
X11843915Y-16806660D01*
X11843915Y-16806660D02*
X11834391Y-16797136D01*
X11834391Y-16797136D02*
X11824867Y-16778089D01*
X11824867Y-16778089D02*
X11815343Y-16739993D01*
X11815343Y-16739993D02*
X11815343Y-16692374D01*
X11815343Y-16692374D02*
X11824867Y-16654279D01*
X11824867Y-16654279D02*
X11834391Y-16635231D01*
X11834391Y-16635231D02*
X11843915Y-16625708D01*
X11843915Y-16625708D02*
X11862962Y-16616184D01*
X12053439Y-16616184D02*
X12072486Y-16616184D01*
X12072486Y-16616184D02*
X12091534Y-16625708D01*
X12091534Y-16625708D02*
X12101058Y-16635231D01*
X12101058Y-16635231D02*
X12110582Y-16654279D01*
X12110582Y-16654279D02*
X12120105Y-16692374D01*
X12120105Y-16692374D02*
X12120105Y-16739993D01*
X12120105Y-16739993D02*
X12110582Y-16778089D01*
X12110582Y-16778089D02*
X12101058Y-16797136D01*
X12101058Y-16797136D02*
X12091534Y-16806660D01*
X12091534Y-16806660D02*
X12072486Y-16816184D01*
X12072486Y-16816184D02*
X12053439Y-16816184D01*
X12053439Y-16816184D02*
X12034391Y-16806660D01*
X12034391Y-16806660D02*
X12024867Y-16797136D01*
X12024867Y-16797136D02*
X12015343Y-16778089D01*
X12015343Y-16778089D02*
X12005820Y-16739993D01*
X12005820Y-16739993D02*
X12005820Y-16692374D01*
X12005820Y-16692374D02*
X12015343Y-16654279D01*
X12015343Y-16654279D02*
X12024867Y-16635231D01*
X12024867Y-16635231D02*
X12034391Y-16625708D01*
X12034391Y-16625708D02*
X12053439Y-16616184D01*
X12205820Y-16816184D02*
X12205820Y-16682850D01*
X12205820Y-16701898D02*
X12215343Y-16692374D01*
X12215343Y-16692374D02*
X12234391Y-16682850D01*
X12234391Y-16682850D02*
X12262963Y-16682850D01*
X12262963Y-16682850D02*
X12282010Y-16692374D01*
X12282010Y-16692374D02*
X12291534Y-16711422D01*
X12291534Y-16711422D02*
X12291534Y-16816184D01*
X12291534Y-16711422D02*
X12301058Y-16692374D01*
X12301058Y-16692374D02*
X12320105Y-16682850D01*
X12320105Y-16682850D02*
X12348677Y-16682850D01*
X12348677Y-16682850D02*
X12367724Y-16692374D01*
X12367724Y-16692374D02*
X12377248Y-16711422D01*
X12377248Y-16711422D02*
X12377248Y-16816184D01*
X12472486Y-16816184D02*
X12472486Y-16682850D01*
X12472486Y-16701898D02*
X12482010Y-16692374D01*
X12482010Y-16692374D02*
X12501058Y-16682850D01*
X12501058Y-16682850D02*
X12529629Y-16682850D01*
X12529629Y-16682850D02*
X12548677Y-16692374D01*
X12548677Y-16692374D02*
X12558201Y-16711422D01*
X12558201Y-16711422D02*
X12558201Y-16816184D01*
X12558201Y-16711422D02*
X12567724Y-16692374D01*
X12567724Y-16692374D02*
X12586772Y-16682850D01*
X12586772Y-16682850D02*
X12615343Y-16682850D01*
X12615343Y-16682850D02*
X12634391Y-16692374D01*
X12634391Y-16692374D02*
X12643915Y-16711422D01*
X12643915Y-16711422D02*
X12643915Y-16816184D01*
X13034391Y-16606660D02*
X12862963Y-16863803D01*
X13291534Y-16616184D02*
X13310582Y-16616184D01*
X13310582Y-16616184D02*
X13329629Y-16625708D01*
X13329629Y-16625708D02*
X13339153Y-16635231D01*
X13339153Y-16635231D02*
X13348677Y-16654279D01*
X13348677Y-16654279D02*
X13358201Y-16692374D01*
X13358201Y-16692374D02*
X13358201Y-16739993D01*
X13358201Y-16739993D02*
X13348677Y-16778089D01*
X13348677Y-16778089D02*
X13339153Y-16797136D01*
X13339153Y-16797136D02*
X13329629Y-16806660D01*
X13329629Y-16806660D02*
X13310582Y-16816184D01*
X13310582Y-16816184D02*
X13291534Y-16816184D01*
X13291534Y-16816184D02*
X13272486Y-16806660D01*
X13272486Y-16806660D02*
X13262963Y-16797136D01*
X13262963Y-16797136D02*
X13253439Y-16778089D01*
X13253439Y-16778089D02*
X13243915Y-16739993D01*
X13243915Y-16739993D02*
X13243915Y-16692374D01*
X13243915Y-16692374D02*
X13253439Y-16654279D01*
X13253439Y-16654279D02*
X13262963Y-16635231D01*
X13262963Y-16635231D02*
X13272486Y-16625708D01*
X13272486Y-16625708D02*
X13291534Y-16616184D01*
X13443915Y-16797136D02*
X13453439Y-16806660D01*
X13453439Y-16806660D02*
X13443915Y-16816184D01*
X13443915Y-16816184D02*
X13434391Y-16806660D01*
X13434391Y-16806660D02*
X13443915Y-16797136D01*
X13443915Y-16797136D02*
X13443915Y-16816184D01*
X13577248Y-16616184D02*
X13596296Y-16616184D01*
X13596296Y-16616184D02*
X13615344Y-16625708D01*
X13615344Y-16625708D02*
X13624867Y-16635231D01*
X13624867Y-16635231D02*
X13634391Y-16654279D01*
X13634391Y-16654279D02*
X13643915Y-16692374D01*
X13643915Y-16692374D02*
X13643915Y-16739993D01*
X13643915Y-16739993D02*
X13634391Y-16778089D01*
X13634391Y-16778089D02*
X13624867Y-16797136D01*
X13624867Y-16797136D02*
X13615344Y-16806660D01*
X13615344Y-16806660D02*
X13596296Y-16816184D01*
X13596296Y-16816184D02*
X13577248Y-16816184D01*
X13577248Y-16816184D02*
X13558201Y-16806660D01*
X13558201Y-16806660D02*
X13548677Y-16797136D01*
X13548677Y-16797136D02*
X13539153Y-16778089D01*
X13539153Y-16778089D02*
X13529629Y-16739993D01*
X13529629Y-16739993D02*
X13529629Y-16692374D01*
X13529629Y-16692374D02*
X13539153Y-16654279D01*
X13539153Y-16654279D02*
X13548677Y-16635231D01*
X13548677Y-16635231D02*
X13558201Y-16625708D01*
X13558201Y-16625708D02*
X13577248Y-16616184D01*
X13815344Y-16682850D02*
X13815344Y-16816184D01*
X13767725Y-16606660D02*
X13720106Y-16749517D01*
X13720106Y-16749517D02*
X13843915Y-16749517D01*
X13901058Y-16616184D02*
X14024867Y-16616184D01*
X14024867Y-16616184D02*
X13958201Y-16692374D01*
X13958201Y-16692374D02*
X13986772Y-16692374D01*
X13986772Y-16692374D02*
X14005820Y-16701898D01*
X14005820Y-16701898D02*
X14015344Y-16711422D01*
X14015344Y-16711422D02*
X14024867Y-16730469D01*
X14024867Y-16730469D02*
X14024867Y-16778089D01*
X14024867Y-16778089D02*
X14015344Y-16797136D01*
X14015344Y-16797136D02*
X14005820Y-16806660D01*
X14005820Y-16806660D02*
X13986772Y-16816184D01*
X13986772Y-16816184D02*
X13929629Y-16816184D01*
X13929629Y-16816184D02*
X13910582Y-16806660D01*
X13910582Y-16806660D02*
X13901058Y-16797136D01*
X14091534Y-16616184D02*
X14215344Y-16616184D01*
X14215344Y-16616184D02*
X14148677Y-16692374D01*
X14148677Y-16692374D02*
X14177248Y-16692374D01*
X14177248Y-16692374D02*
X14196296Y-16701898D01*
X14196296Y-16701898D02*
X14205820Y-16711422D01*
X14205820Y-16711422D02*
X14215344Y-16730469D01*
X14215344Y-16730469D02*
X14215344Y-16778089D01*
X14215344Y-16778089D02*
X14205820Y-16797136D01*
X14205820Y-16797136D02*
X14196296Y-16806660D01*
X14196296Y-16806660D02*
X14177248Y-16816184D01*
X14177248Y-16816184D02*
X14120106Y-16816184D01*
X14120106Y-16816184D02*
X14101058Y-16806660D01*
X14101058Y-16806660D02*
X14091534Y-16797136D01*
X14291534Y-16616184D02*
X14291534Y-16654279D01*
X14367725Y-16616184D02*
X14367725Y-16654279D01*
X14662963Y-16892374D02*
X14653439Y-16882850D01*
X14653439Y-16882850D02*
X14634391Y-16854279D01*
X14634391Y-16854279D02*
X14624868Y-16835231D01*
X14624868Y-16835231D02*
X14615344Y-16806660D01*
X14615344Y-16806660D02*
X14605820Y-16759041D01*
X14605820Y-16759041D02*
X14605820Y-16720946D01*
X14605820Y-16720946D02*
X14615344Y-16673327D01*
X14615344Y-16673327D02*
X14624868Y-16644755D01*
X14624868Y-16644755D02*
X14634391Y-16625708D01*
X14634391Y-16625708D02*
X14653439Y-16597136D01*
X14653439Y-16597136D02*
X14662963Y-16587612D01*
X14720106Y-16616184D02*
X14843915Y-16616184D01*
X14843915Y-16616184D02*
X14777248Y-16692374D01*
X14777248Y-16692374D02*
X14805820Y-16692374D01*
X14805820Y-16692374D02*
X14824868Y-16701898D01*
X14824868Y-16701898D02*
X14834391Y-16711422D01*
X14834391Y-16711422D02*
X14843915Y-16730469D01*
X14843915Y-16730469D02*
X14843915Y-16778089D01*
X14843915Y-16778089D02*
X14834391Y-16797136D01*
X14834391Y-16797136D02*
X14824868Y-16806660D01*
X14824868Y-16806660D02*
X14805820Y-16816184D01*
X14805820Y-16816184D02*
X14748677Y-16816184D01*
X14748677Y-16816184D02*
X14729629Y-16806660D01*
X14729629Y-16806660D02*
X14720106Y-16797136D01*
X15082010Y-16816184D02*
X15082010Y-16616184D01*
X15167725Y-16816184D02*
X15167725Y-16711422D01*
X15167725Y-16711422D02*
X15158201Y-16692374D01*
X15158201Y-16692374D02*
X15139153Y-16682850D01*
X15139153Y-16682850D02*
X15110582Y-16682850D01*
X15110582Y-16682850D02*
X15091534Y-16692374D01*
X15091534Y-16692374D02*
X15082010Y-16701898D01*
X15291534Y-16816184D02*
X15272487Y-16806660D01*
X15272487Y-16806660D02*
X15262963Y-16797136D01*
X15262963Y-16797136D02*
X15253439Y-16778089D01*
X15253439Y-16778089D02*
X15253439Y-16720946D01*
X15253439Y-16720946D02*
X15262963Y-16701898D01*
X15262963Y-16701898D02*
X15272487Y-16692374D01*
X15272487Y-16692374D02*
X15291534Y-16682850D01*
X15291534Y-16682850D02*
X15320106Y-16682850D01*
X15320106Y-16682850D02*
X15339153Y-16692374D01*
X15339153Y-16692374D02*
X15348677Y-16701898D01*
X15348677Y-16701898D02*
X15358201Y-16720946D01*
X15358201Y-16720946D02*
X15358201Y-16778089D01*
X15358201Y-16778089D02*
X15348677Y-16797136D01*
X15348677Y-16797136D02*
X15339153Y-16806660D01*
X15339153Y-16806660D02*
X15320106Y-16816184D01*
X15320106Y-16816184D02*
X15291534Y-16816184D01*
X15472487Y-16816184D02*
X15453439Y-16806660D01*
X15453439Y-16806660D02*
X15443915Y-16787612D01*
X15443915Y-16787612D02*
X15443915Y-16616184D01*
X15624868Y-16806660D02*
X15605820Y-16816184D01*
X15605820Y-16816184D02*
X15567725Y-16816184D01*
X15567725Y-16816184D02*
X15548677Y-16806660D01*
X15548677Y-16806660D02*
X15539153Y-16787612D01*
X15539153Y-16787612D02*
X15539153Y-16711422D01*
X15539153Y-16711422D02*
X15548677Y-16692374D01*
X15548677Y-16692374D02*
X15567725Y-16682850D01*
X15567725Y-16682850D02*
X15605820Y-16682850D01*
X15605820Y-16682850D02*
X15624868Y-16692374D01*
X15624868Y-16692374D02*
X15634391Y-16711422D01*
X15634391Y-16711422D02*
X15634391Y-16730469D01*
X15634391Y-16730469D02*
X15539153Y-16749517D01*
X15710582Y-16806660D02*
X15729630Y-16816184D01*
X15729630Y-16816184D02*
X15767725Y-16816184D01*
X15767725Y-16816184D02*
X15786772Y-16806660D01*
X15786772Y-16806660D02*
X15796296Y-16787612D01*
X15796296Y-16787612D02*
X15796296Y-16778089D01*
X15796296Y-16778089D02*
X15786772Y-16759041D01*
X15786772Y-16759041D02*
X15767725Y-16749517D01*
X15767725Y-16749517D02*
X15739153Y-16749517D01*
X15739153Y-16749517D02*
X15720106Y-16739993D01*
X15720106Y-16739993D02*
X15710582Y-16720946D01*
X15710582Y-16720946D02*
X15710582Y-16711422D01*
X15710582Y-16711422D02*
X15720106Y-16692374D01*
X15720106Y-16692374D02*
X15739153Y-16682850D01*
X15739153Y-16682850D02*
X15767725Y-16682850D01*
X15767725Y-16682850D02*
X15786772Y-16692374D01*
X15862963Y-16892374D02*
X15872487Y-16882850D01*
X15872487Y-16882850D02*
X15891534Y-16854279D01*
X15891534Y-16854279D02*
X15901058Y-16835231D01*
X15901058Y-16835231D02*
X15910582Y-16806660D01*
X15910582Y-16806660D02*
X15920106Y-16759041D01*
X15920106Y-16759041D02*
X15920106Y-16720946D01*
X15920106Y-16720946D02*
X15910582Y-16673327D01*
X15910582Y-16673327D02*
X15901058Y-16644755D01*
X15901058Y-16644755D02*
X15891534Y-16625708D01*
X15891534Y-16625708D02*
X15872487Y-16597136D01*
X15872487Y-16597136D02*
X15862963Y-16587612D01*
D15*
X11068570Y-17035370D02*
X11068570Y-16942031D01*
X10975231Y-16942031D01*
X10975231Y-17035370D01*
X11068570Y-17035370D01*
D12*
X11453439Y-17080184D02*
X11339153Y-17080184D01*
X11396296Y-17080184D02*
X11396296Y-16880184D01*
X11396296Y-16880184D02*
X11377248Y-16908755D01*
X11377248Y-16908755D02*
X11358201Y-16927803D01*
X11358201Y-16927803D02*
X11339153Y-16937327D01*
X11539153Y-17061136D02*
X11548677Y-17070660D01*
X11548677Y-17070660D02*
X11539153Y-17080184D01*
X11539153Y-17080184D02*
X11529629Y-17070660D01*
X11529629Y-17070660D02*
X11539153Y-17061136D01*
X11539153Y-17061136D02*
X11539153Y-17080184D01*
X11615343Y-16880184D02*
X11739153Y-16880184D01*
X11739153Y-16880184D02*
X11672486Y-16956374D01*
X11672486Y-16956374D02*
X11701058Y-16956374D01*
X11701058Y-16956374D02*
X11720105Y-16965898D01*
X11720105Y-16965898D02*
X11729629Y-16975422D01*
X11729629Y-16975422D02*
X11739153Y-16994470D01*
X11739153Y-16994470D02*
X11739153Y-17042089D01*
X11739153Y-17042089D02*
X11729629Y-17061136D01*
X11729629Y-17061136D02*
X11720105Y-17070660D01*
X11720105Y-17070660D02*
X11701058Y-17080184D01*
X11701058Y-17080184D02*
X11643915Y-17080184D01*
X11643915Y-17080184D02*
X11624867Y-17070660D01*
X11624867Y-17070660D02*
X11615343Y-17061136D01*
X11815343Y-16899231D02*
X11824867Y-16889708D01*
X11824867Y-16889708D02*
X11843915Y-16880184D01*
X11843915Y-16880184D02*
X11891534Y-16880184D01*
X11891534Y-16880184D02*
X11910582Y-16889708D01*
X11910582Y-16889708D02*
X11920105Y-16899231D01*
X11920105Y-16899231D02*
X11929629Y-16918279D01*
X11929629Y-16918279D02*
X11929629Y-16937327D01*
X11929629Y-16937327D02*
X11920105Y-16965898D01*
X11920105Y-16965898D02*
X11805820Y-17080184D01*
X11805820Y-17080184D02*
X11929629Y-17080184D01*
X12053439Y-16880184D02*
X12072486Y-16880184D01*
X12072486Y-16880184D02*
X12091534Y-16889708D01*
X12091534Y-16889708D02*
X12101058Y-16899231D01*
X12101058Y-16899231D02*
X12110582Y-16918279D01*
X12110582Y-16918279D02*
X12120105Y-16956374D01*
X12120105Y-16956374D02*
X12120105Y-17003993D01*
X12120105Y-17003993D02*
X12110582Y-17042089D01*
X12110582Y-17042089D02*
X12101058Y-17061136D01*
X12101058Y-17061136D02*
X12091534Y-17070660D01*
X12091534Y-17070660D02*
X12072486Y-17080184D01*
X12072486Y-17080184D02*
X12053439Y-17080184D01*
X12053439Y-17080184D02*
X12034391Y-17070660D01*
X12034391Y-17070660D02*
X12024867Y-17061136D01*
X12024867Y-17061136D02*
X12015343Y-17042089D01*
X12015343Y-17042089D02*
X12005820Y-17003993D01*
X12005820Y-17003993D02*
X12005820Y-16956374D01*
X12005820Y-16956374D02*
X12015343Y-16918279D01*
X12015343Y-16918279D02*
X12024867Y-16899231D01*
X12024867Y-16899231D02*
X12034391Y-16889708D01*
X12034391Y-16889708D02*
X12053439Y-16880184D01*
X12205820Y-17080184D02*
X12205820Y-16946850D01*
X12205820Y-16965898D02*
X12215343Y-16956374D01*
X12215343Y-16956374D02*
X12234391Y-16946850D01*
X12234391Y-16946850D02*
X12262963Y-16946850D01*
X12262963Y-16946850D02*
X12282010Y-16956374D01*
X12282010Y-16956374D02*
X12291534Y-16975422D01*
X12291534Y-16975422D02*
X12291534Y-17080184D01*
X12291534Y-16975422D02*
X12301058Y-16956374D01*
X12301058Y-16956374D02*
X12320105Y-16946850D01*
X12320105Y-16946850D02*
X12348677Y-16946850D01*
X12348677Y-16946850D02*
X12367724Y-16956374D01*
X12367724Y-16956374D02*
X12377248Y-16975422D01*
X12377248Y-16975422D02*
X12377248Y-17080184D01*
X12472486Y-17080184D02*
X12472486Y-16946850D01*
X12472486Y-16965898D02*
X12482010Y-16956374D01*
X12482010Y-16956374D02*
X12501058Y-16946850D01*
X12501058Y-16946850D02*
X12529629Y-16946850D01*
X12529629Y-16946850D02*
X12548677Y-16956374D01*
X12548677Y-16956374D02*
X12558201Y-16975422D01*
X12558201Y-16975422D02*
X12558201Y-17080184D01*
X12558201Y-16975422D02*
X12567724Y-16956374D01*
X12567724Y-16956374D02*
X12586772Y-16946850D01*
X12586772Y-16946850D02*
X12615343Y-16946850D01*
X12615343Y-16946850D02*
X12634391Y-16956374D01*
X12634391Y-16956374D02*
X12643915Y-16975422D01*
X12643915Y-16975422D02*
X12643915Y-17080184D01*
X13034391Y-16870660D02*
X12862963Y-17127803D01*
X13291534Y-16880184D02*
X13310582Y-16880184D01*
X13310582Y-16880184D02*
X13329629Y-16889708D01*
X13329629Y-16889708D02*
X13339153Y-16899231D01*
X13339153Y-16899231D02*
X13348677Y-16918279D01*
X13348677Y-16918279D02*
X13358201Y-16956374D01*
X13358201Y-16956374D02*
X13358201Y-17003993D01*
X13358201Y-17003993D02*
X13348677Y-17042089D01*
X13348677Y-17042089D02*
X13339153Y-17061136D01*
X13339153Y-17061136D02*
X13329629Y-17070660D01*
X13329629Y-17070660D02*
X13310582Y-17080184D01*
X13310582Y-17080184D02*
X13291534Y-17080184D01*
X13291534Y-17080184D02*
X13272486Y-17070660D01*
X13272486Y-17070660D02*
X13262963Y-17061136D01*
X13262963Y-17061136D02*
X13253439Y-17042089D01*
X13253439Y-17042089D02*
X13243915Y-17003993D01*
X13243915Y-17003993D02*
X13243915Y-16956374D01*
X13243915Y-16956374D02*
X13253439Y-16918279D01*
X13253439Y-16918279D02*
X13262963Y-16899231D01*
X13262963Y-16899231D02*
X13272486Y-16889708D01*
X13272486Y-16889708D02*
X13291534Y-16880184D01*
X13443915Y-17061136D02*
X13453439Y-17070660D01*
X13453439Y-17070660D02*
X13443915Y-17080184D01*
X13443915Y-17080184D02*
X13434391Y-17070660D01*
X13434391Y-17070660D02*
X13443915Y-17061136D01*
X13443915Y-17061136D02*
X13443915Y-17080184D01*
X13577248Y-16880184D02*
X13596296Y-16880184D01*
X13596296Y-16880184D02*
X13615344Y-16889708D01*
X13615344Y-16889708D02*
X13624867Y-16899231D01*
X13624867Y-16899231D02*
X13634391Y-16918279D01*
X13634391Y-16918279D02*
X13643915Y-16956374D01*
X13643915Y-16956374D02*
X13643915Y-17003993D01*
X13643915Y-17003993D02*
X13634391Y-17042089D01*
X13634391Y-17042089D02*
X13624867Y-17061136D01*
X13624867Y-17061136D02*
X13615344Y-17070660D01*
X13615344Y-17070660D02*
X13596296Y-17080184D01*
X13596296Y-17080184D02*
X13577248Y-17080184D01*
X13577248Y-17080184D02*
X13558201Y-17070660D01*
X13558201Y-17070660D02*
X13548677Y-17061136D01*
X13548677Y-17061136D02*
X13539153Y-17042089D01*
X13539153Y-17042089D02*
X13529629Y-17003993D01*
X13529629Y-17003993D02*
X13529629Y-16956374D01*
X13529629Y-16956374D02*
X13539153Y-16918279D01*
X13539153Y-16918279D02*
X13548677Y-16899231D01*
X13548677Y-16899231D02*
X13558201Y-16889708D01*
X13558201Y-16889708D02*
X13577248Y-16880184D01*
X13824867Y-16880184D02*
X13729629Y-16880184D01*
X13729629Y-16880184D02*
X13720106Y-16975422D01*
X13720106Y-16975422D02*
X13729629Y-16965898D01*
X13729629Y-16965898D02*
X13748677Y-16956374D01*
X13748677Y-16956374D02*
X13796296Y-16956374D01*
X13796296Y-16956374D02*
X13815344Y-16965898D01*
X13815344Y-16965898D02*
X13824867Y-16975422D01*
X13824867Y-16975422D02*
X13834391Y-16994470D01*
X13834391Y-16994470D02*
X13834391Y-17042089D01*
X13834391Y-17042089D02*
X13824867Y-17061136D01*
X13824867Y-17061136D02*
X13815344Y-17070660D01*
X13815344Y-17070660D02*
X13796296Y-17080184D01*
X13796296Y-17080184D02*
X13748677Y-17080184D01*
X13748677Y-17080184D02*
X13729629Y-17070660D01*
X13729629Y-17070660D02*
X13720106Y-17061136D01*
X13910582Y-16899231D02*
X13920106Y-16889708D01*
X13920106Y-16889708D02*
X13939153Y-16880184D01*
X13939153Y-16880184D02*
X13986772Y-16880184D01*
X13986772Y-16880184D02*
X14005820Y-16889708D01*
X14005820Y-16889708D02*
X14015344Y-16899231D01*
X14015344Y-16899231D02*
X14024867Y-16918279D01*
X14024867Y-16918279D02*
X14024867Y-16937327D01*
X14024867Y-16937327D02*
X14015344Y-16965898D01*
X14015344Y-16965898D02*
X13901058Y-17080184D01*
X13901058Y-17080184D02*
X14024867Y-17080184D01*
X14148677Y-16880184D02*
X14167725Y-16880184D01*
X14167725Y-16880184D02*
X14186772Y-16889708D01*
X14186772Y-16889708D02*
X14196296Y-16899231D01*
X14196296Y-16899231D02*
X14205820Y-16918279D01*
X14205820Y-16918279D02*
X14215344Y-16956374D01*
X14215344Y-16956374D02*
X14215344Y-17003993D01*
X14215344Y-17003993D02*
X14205820Y-17042089D01*
X14205820Y-17042089D02*
X14196296Y-17061136D01*
X14196296Y-17061136D02*
X14186772Y-17070660D01*
X14186772Y-17070660D02*
X14167725Y-17080184D01*
X14167725Y-17080184D02*
X14148677Y-17080184D01*
X14148677Y-17080184D02*
X14129629Y-17070660D01*
X14129629Y-17070660D02*
X14120106Y-17061136D01*
X14120106Y-17061136D02*
X14110582Y-17042089D01*
X14110582Y-17042089D02*
X14101058Y-17003993D01*
X14101058Y-17003993D02*
X14101058Y-16956374D01*
X14101058Y-16956374D02*
X14110582Y-16918279D01*
X14110582Y-16918279D02*
X14120106Y-16899231D01*
X14120106Y-16899231D02*
X14129629Y-16889708D01*
X14129629Y-16889708D02*
X14148677Y-16880184D01*
X14291534Y-16880184D02*
X14291534Y-16918279D01*
X14367725Y-16880184D02*
X14367725Y-16918279D01*
X14662963Y-17156374D02*
X14653439Y-17146850D01*
X14653439Y-17146850D02*
X14634391Y-17118279D01*
X14634391Y-17118279D02*
X14624868Y-17099231D01*
X14624868Y-17099231D02*
X14615344Y-17070660D01*
X14615344Y-17070660D02*
X14605820Y-17023041D01*
X14605820Y-17023041D02*
X14605820Y-16984946D01*
X14605820Y-16984946D02*
X14615344Y-16937327D01*
X14615344Y-16937327D02*
X14624868Y-16908755D01*
X14624868Y-16908755D02*
X14634391Y-16889708D01*
X14634391Y-16889708D02*
X14653439Y-16861136D01*
X14653439Y-16861136D02*
X14662963Y-16851612D01*
X14843915Y-17080184D02*
X14729629Y-17080184D01*
X14786772Y-17080184D02*
X14786772Y-16880184D01*
X14786772Y-16880184D02*
X14767725Y-16908755D01*
X14767725Y-16908755D02*
X14748677Y-16927803D01*
X14748677Y-16927803D02*
X14729629Y-16937327D01*
X15015344Y-16880184D02*
X14977248Y-16880184D01*
X14977248Y-16880184D02*
X14958201Y-16889708D01*
X14958201Y-16889708D02*
X14948677Y-16899231D01*
X14948677Y-16899231D02*
X14929629Y-16927803D01*
X14929629Y-16927803D02*
X14920106Y-16965898D01*
X14920106Y-16965898D02*
X14920106Y-17042089D01*
X14920106Y-17042089D02*
X14929629Y-17061136D01*
X14929629Y-17061136D02*
X14939153Y-17070660D01*
X14939153Y-17070660D02*
X14958201Y-17080184D01*
X14958201Y-17080184D02*
X14996296Y-17080184D01*
X14996296Y-17080184D02*
X15015344Y-17070660D01*
X15015344Y-17070660D02*
X15024868Y-17061136D01*
X15024868Y-17061136D02*
X15034391Y-17042089D01*
X15034391Y-17042089D02*
X15034391Y-16994470D01*
X15034391Y-16994470D02*
X15024868Y-16975422D01*
X15024868Y-16975422D02*
X15015344Y-16965898D01*
X15015344Y-16965898D02*
X14996296Y-16956374D01*
X14996296Y-16956374D02*
X14958201Y-16956374D01*
X14958201Y-16956374D02*
X14939153Y-16965898D01*
X14939153Y-16965898D02*
X14929629Y-16975422D01*
X14929629Y-16975422D02*
X14920106Y-16994470D01*
X15272487Y-17080184D02*
X15272487Y-16880184D01*
X15358201Y-17080184D02*
X15358201Y-16975422D01*
X15358201Y-16975422D02*
X15348677Y-16956374D01*
X15348677Y-16956374D02*
X15329630Y-16946850D01*
X15329630Y-16946850D02*
X15301058Y-16946850D01*
X15301058Y-16946850D02*
X15282010Y-16956374D01*
X15282010Y-16956374D02*
X15272487Y-16965898D01*
X15482010Y-17080184D02*
X15462963Y-17070660D01*
X15462963Y-17070660D02*
X15453439Y-17061136D01*
X15453439Y-17061136D02*
X15443915Y-17042089D01*
X15443915Y-17042089D02*
X15443915Y-16984946D01*
X15443915Y-16984946D02*
X15453439Y-16965898D01*
X15453439Y-16965898D02*
X15462963Y-16956374D01*
X15462963Y-16956374D02*
X15482010Y-16946850D01*
X15482010Y-16946850D02*
X15510582Y-16946850D01*
X15510582Y-16946850D02*
X15529630Y-16956374D01*
X15529630Y-16956374D02*
X15539153Y-16965898D01*
X15539153Y-16965898D02*
X15548677Y-16984946D01*
X15548677Y-16984946D02*
X15548677Y-17042089D01*
X15548677Y-17042089D02*
X15539153Y-17061136D01*
X15539153Y-17061136D02*
X15529630Y-17070660D01*
X15529630Y-17070660D02*
X15510582Y-17080184D01*
X15510582Y-17080184D02*
X15482010Y-17080184D01*
X15662963Y-17080184D02*
X15643915Y-17070660D01*
X15643915Y-17070660D02*
X15634391Y-17051612D01*
X15634391Y-17051612D02*
X15634391Y-16880184D01*
X15815344Y-17070660D02*
X15796296Y-17080184D01*
X15796296Y-17080184D02*
X15758201Y-17080184D01*
X15758201Y-17080184D02*
X15739153Y-17070660D01*
X15739153Y-17070660D02*
X15729630Y-17051612D01*
X15729630Y-17051612D02*
X15729630Y-16975422D01*
X15729630Y-16975422D02*
X15739153Y-16956374D01*
X15739153Y-16956374D02*
X15758201Y-16946850D01*
X15758201Y-16946850D02*
X15796296Y-16946850D01*
X15796296Y-16946850D02*
X15815344Y-16956374D01*
X15815344Y-16956374D02*
X15824868Y-16975422D01*
X15824868Y-16975422D02*
X15824868Y-16994470D01*
X15824868Y-16994470D02*
X15729630Y-17013517D01*
X15901058Y-17070660D02*
X15920106Y-17080184D01*
X15920106Y-17080184D02*
X15958201Y-17080184D01*
X15958201Y-17080184D02*
X15977249Y-17070660D01*
X15977249Y-17070660D02*
X15986772Y-17051612D01*
X15986772Y-17051612D02*
X15986772Y-17042089D01*
X15986772Y-17042089D02*
X15977249Y-17023041D01*
X15977249Y-17023041D02*
X15958201Y-17013517D01*
X15958201Y-17013517D02*
X15929630Y-17013517D01*
X15929630Y-17013517D02*
X15910582Y-17003993D01*
X15910582Y-17003993D02*
X15901058Y-16984946D01*
X15901058Y-16984946D02*
X15901058Y-16975422D01*
X15901058Y-16975422D02*
X15910582Y-16956374D01*
X15910582Y-16956374D02*
X15929630Y-16946850D01*
X15929630Y-16946850D02*
X15958201Y-16946850D01*
X15958201Y-16946850D02*
X15977249Y-16956374D01*
X16053439Y-17156374D02*
X16062963Y-17146850D01*
X16062963Y-17146850D02*
X16082011Y-17118279D01*
X16082011Y-17118279D02*
X16091534Y-17099231D01*
X16091534Y-17099231D02*
X16101058Y-17070660D01*
X16101058Y-17070660D02*
X16110582Y-17023041D01*
X16110582Y-17023041D02*
X16110582Y-16984946D01*
X16110582Y-16984946D02*
X16101058Y-16937327D01*
X16101058Y-16937327D02*
X16091534Y-16908755D01*
X16091534Y-16908755D02*
X16082011Y-16889708D01*
X16082011Y-16889708D02*
X16062963Y-16861136D01*
X16062963Y-16861136D02*
X16053439Y-16851612D01*
D16*
X11012900Y-17327700D02*
X11087900Y-17252700D01*
X11012900Y-17177700D01*
X10937900Y-17252700D01*
X11012900Y-17327700D01*
D12*
X11453439Y-17344184D02*
X11339153Y-17344184D01*
X11396296Y-17344184D02*
X11396296Y-17144184D01*
X11396296Y-17144184D02*
X11377248Y-17172755D01*
X11377248Y-17172755D02*
X11358201Y-17191803D01*
X11358201Y-17191803D02*
X11339153Y-17201327D01*
X11539153Y-17325136D02*
X11548677Y-17334660D01*
X11548677Y-17334660D02*
X11539153Y-17344184D01*
X11539153Y-17344184D02*
X11529629Y-17334660D01*
X11529629Y-17334660D02*
X11539153Y-17325136D01*
X11539153Y-17325136D02*
X11539153Y-17344184D01*
X11729629Y-17144184D02*
X11634391Y-17144184D01*
X11634391Y-17144184D02*
X11624867Y-17239422D01*
X11624867Y-17239422D02*
X11634391Y-17229898D01*
X11634391Y-17229898D02*
X11653439Y-17220374D01*
X11653439Y-17220374D02*
X11701058Y-17220374D01*
X11701058Y-17220374D02*
X11720105Y-17229898D01*
X11720105Y-17229898D02*
X11729629Y-17239422D01*
X11729629Y-17239422D02*
X11739153Y-17258470D01*
X11739153Y-17258470D02*
X11739153Y-17306089D01*
X11739153Y-17306089D02*
X11729629Y-17325136D01*
X11729629Y-17325136D02*
X11720105Y-17334660D01*
X11720105Y-17334660D02*
X11701058Y-17344184D01*
X11701058Y-17344184D02*
X11653439Y-17344184D01*
X11653439Y-17344184D02*
X11634391Y-17334660D01*
X11634391Y-17334660D02*
X11624867Y-17325136D01*
X11862962Y-17144184D02*
X11882010Y-17144184D01*
X11882010Y-17144184D02*
X11901058Y-17153708D01*
X11901058Y-17153708D02*
X11910582Y-17163231D01*
X11910582Y-17163231D02*
X11920105Y-17182279D01*
X11920105Y-17182279D02*
X11929629Y-17220374D01*
X11929629Y-17220374D02*
X11929629Y-17267993D01*
X11929629Y-17267993D02*
X11920105Y-17306089D01*
X11920105Y-17306089D02*
X11910582Y-17325136D01*
X11910582Y-17325136D02*
X11901058Y-17334660D01*
X11901058Y-17334660D02*
X11882010Y-17344184D01*
X11882010Y-17344184D02*
X11862962Y-17344184D01*
X11862962Y-17344184D02*
X11843915Y-17334660D01*
X11843915Y-17334660D02*
X11834391Y-17325136D01*
X11834391Y-17325136D02*
X11824867Y-17306089D01*
X11824867Y-17306089D02*
X11815343Y-17267993D01*
X11815343Y-17267993D02*
X11815343Y-17220374D01*
X11815343Y-17220374D02*
X11824867Y-17182279D01*
X11824867Y-17182279D02*
X11834391Y-17163231D01*
X11834391Y-17163231D02*
X11843915Y-17153708D01*
X11843915Y-17153708D02*
X11862962Y-17144184D01*
X12053439Y-17144184D02*
X12072486Y-17144184D01*
X12072486Y-17144184D02*
X12091534Y-17153708D01*
X12091534Y-17153708D02*
X12101058Y-17163231D01*
X12101058Y-17163231D02*
X12110582Y-17182279D01*
X12110582Y-17182279D02*
X12120105Y-17220374D01*
X12120105Y-17220374D02*
X12120105Y-17267993D01*
X12120105Y-17267993D02*
X12110582Y-17306089D01*
X12110582Y-17306089D02*
X12101058Y-17325136D01*
X12101058Y-17325136D02*
X12091534Y-17334660D01*
X12091534Y-17334660D02*
X12072486Y-17344184D01*
X12072486Y-17344184D02*
X12053439Y-17344184D01*
X12053439Y-17344184D02*
X12034391Y-17334660D01*
X12034391Y-17334660D02*
X12024867Y-17325136D01*
X12024867Y-17325136D02*
X12015343Y-17306089D01*
X12015343Y-17306089D02*
X12005820Y-17267993D01*
X12005820Y-17267993D02*
X12005820Y-17220374D01*
X12005820Y-17220374D02*
X12015343Y-17182279D01*
X12015343Y-17182279D02*
X12024867Y-17163231D01*
X12024867Y-17163231D02*
X12034391Y-17153708D01*
X12034391Y-17153708D02*
X12053439Y-17144184D01*
X12205820Y-17344184D02*
X12205820Y-17210850D01*
X12205820Y-17229898D02*
X12215343Y-17220374D01*
X12215343Y-17220374D02*
X12234391Y-17210850D01*
X12234391Y-17210850D02*
X12262963Y-17210850D01*
X12262963Y-17210850D02*
X12282010Y-17220374D01*
X12282010Y-17220374D02*
X12291534Y-17239422D01*
X12291534Y-17239422D02*
X12291534Y-17344184D01*
X12291534Y-17239422D02*
X12301058Y-17220374D01*
X12301058Y-17220374D02*
X12320105Y-17210850D01*
X12320105Y-17210850D02*
X12348677Y-17210850D01*
X12348677Y-17210850D02*
X12367724Y-17220374D01*
X12367724Y-17220374D02*
X12377248Y-17239422D01*
X12377248Y-17239422D02*
X12377248Y-17344184D01*
X12472486Y-17344184D02*
X12472486Y-17210850D01*
X12472486Y-17229898D02*
X12482010Y-17220374D01*
X12482010Y-17220374D02*
X12501058Y-17210850D01*
X12501058Y-17210850D02*
X12529629Y-17210850D01*
X12529629Y-17210850D02*
X12548677Y-17220374D01*
X12548677Y-17220374D02*
X12558201Y-17239422D01*
X12558201Y-17239422D02*
X12558201Y-17344184D01*
X12558201Y-17239422D02*
X12567724Y-17220374D01*
X12567724Y-17220374D02*
X12586772Y-17210850D01*
X12586772Y-17210850D02*
X12615343Y-17210850D01*
X12615343Y-17210850D02*
X12634391Y-17220374D01*
X12634391Y-17220374D02*
X12643915Y-17239422D01*
X12643915Y-17239422D02*
X12643915Y-17344184D01*
X13034391Y-17134660D02*
X12862963Y-17391803D01*
X13291534Y-17144184D02*
X13310582Y-17144184D01*
X13310582Y-17144184D02*
X13329629Y-17153708D01*
X13329629Y-17153708D02*
X13339153Y-17163231D01*
X13339153Y-17163231D02*
X13348677Y-17182279D01*
X13348677Y-17182279D02*
X13358201Y-17220374D01*
X13358201Y-17220374D02*
X13358201Y-17267993D01*
X13358201Y-17267993D02*
X13348677Y-17306089D01*
X13348677Y-17306089D02*
X13339153Y-17325136D01*
X13339153Y-17325136D02*
X13329629Y-17334660D01*
X13329629Y-17334660D02*
X13310582Y-17344184D01*
X13310582Y-17344184D02*
X13291534Y-17344184D01*
X13291534Y-17344184D02*
X13272486Y-17334660D01*
X13272486Y-17334660D02*
X13262963Y-17325136D01*
X13262963Y-17325136D02*
X13253439Y-17306089D01*
X13253439Y-17306089D02*
X13243915Y-17267993D01*
X13243915Y-17267993D02*
X13243915Y-17220374D01*
X13243915Y-17220374D02*
X13253439Y-17182279D01*
X13253439Y-17182279D02*
X13262963Y-17163231D01*
X13262963Y-17163231D02*
X13272486Y-17153708D01*
X13272486Y-17153708D02*
X13291534Y-17144184D01*
X13443915Y-17325136D02*
X13453439Y-17334660D01*
X13453439Y-17334660D02*
X13443915Y-17344184D01*
X13443915Y-17344184D02*
X13434391Y-17334660D01*
X13434391Y-17334660D02*
X13443915Y-17325136D01*
X13443915Y-17325136D02*
X13443915Y-17344184D01*
X13577248Y-17144184D02*
X13596296Y-17144184D01*
X13596296Y-17144184D02*
X13615344Y-17153708D01*
X13615344Y-17153708D02*
X13624867Y-17163231D01*
X13624867Y-17163231D02*
X13634391Y-17182279D01*
X13634391Y-17182279D02*
X13643915Y-17220374D01*
X13643915Y-17220374D02*
X13643915Y-17267993D01*
X13643915Y-17267993D02*
X13634391Y-17306089D01*
X13634391Y-17306089D02*
X13624867Y-17325136D01*
X13624867Y-17325136D02*
X13615344Y-17334660D01*
X13615344Y-17334660D02*
X13596296Y-17344184D01*
X13596296Y-17344184D02*
X13577248Y-17344184D01*
X13577248Y-17344184D02*
X13558201Y-17334660D01*
X13558201Y-17334660D02*
X13548677Y-17325136D01*
X13548677Y-17325136D02*
X13539153Y-17306089D01*
X13539153Y-17306089D02*
X13529629Y-17267993D01*
X13529629Y-17267993D02*
X13529629Y-17220374D01*
X13529629Y-17220374D02*
X13539153Y-17182279D01*
X13539153Y-17182279D02*
X13548677Y-17163231D01*
X13548677Y-17163231D02*
X13558201Y-17153708D01*
X13558201Y-17153708D02*
X13577248Y-17144184D01*
X13824867Y-17144184D02*
X13729629Y-17144184D01*
X13729629Y-17144184D02*
X13720106Y-17239422D01*
X13720106Y-17239422D02*
X13729629Y-17229898D01*
X13729629Y-17229898D02*
X13748677Y-17220374D01*
X13748677Y-17220374D02*
X13796296Y-17220374D01*
X13796296Y-17220374D02*
X13815344Y-17229898D01*
X13815344Y-17229898D02*
X13824867Y-17239422D01*
X13824867Y-17239422D02*
X13834391Y-17258470D01*
X13834391Y-17258470D02*
X13834391Y-17306089D01*
X13834391Y-17306089D02*
X13824867Y-17325136D01*
X13824867Y-17325136D02*
X13815344Y-17334660D01*
X13815344Y-17334660D02*
X13796296Y-17344184D01*
X13796296Y-17344184D02*
X13748677Y-17344184D01*
X13748677Y-17344184D02*
X13729629Y-17334660D01*
X13729629Y-17334660D02*
X13720106Y-17325136D01*
X13929629Y-17344184D02*
X13967725Y-17344184D01*
X13967725Y-17344184D02*
X13986772Y-17334660D01*
X13986772Y-17334660D02*
X13996296Y-17325136D01*
X13996296Y-17325136D02*
X14015344Y-17296565D01*
X14015344Y-17296565D02*
X14024867Y-17258470D01*
X14024867Y-17258470D02*
X14024867Y-17182279D01*
X14024867Y-17182279D02*
X14015344Y-17163231D01*
X14015344Y-17163231D02*
X14005820Y-17153708D01*
X14005820Y-17153708D02*
X13986772Y-17144184D01*
X13986772Y-17144184D02*
X13948677Y-17144184D01*
X13948677Y-17144184D02*
X13929629Y-17153708D01*
X13929629Y-17153708D02*
X13920106Y-17163231D01*
X13920106Y-17163231D02*
X13910582Y-17182279D01*
X13910582Y-17182279D02*
X13910582Y-17229898D01*
X13910582Y-17229898D02*
X13920106Y-17248946D01*
X13920106Y-17248946D02*
X13929629Y-17258470D01*
X13929629Y-17258470D02*
X13948677Y-17267993D01*
X13948677Y-17267993D02*
X13986772Y-17267993D01*
X13986772Y-17267993D02*
X14005820Y-17258470D01*
X14005820Y-17258470D02*
X14015344Y-17248946D01*
X14015344Y-17248946D02*
X14024867Y-17229898D01*
X14215344Y-17344184D02*
X14101058Y-17344184D01*
X14158201Y-17344184D02*
X14158201Y-17144184D01*
X14158201Y-17144184D02*
X14139153Y-17172755D01*
X14139153Y-17172755D02*
X14120106Y-17191803D01*
X14120106Y-17191803D02*
X14101058Y-17201327D01*
X14291534Y-17144184D02*
X14291534Y-17182279D01*
X14367725Y-17144184D02*
X14367725Y-17182279D01*
X14662963Y-17420374D02*
X14653439Y-17410850D01*
X14653439Y-17410850D02*
X14634391Y-17382279D01*
X14634391Y-17382279D02*
X14624868Y-17363231D01*
X14624868Y-17363231D02*
X14615344Y-17334660D01*
X14615344Y-17334660D02*
X14605820Y-17287041D01*
X14605820Y-17287041D02*
X14605820Y-17248946D01*
X14605820Y-17248946D02*
X14615344Y-17201327D01*
X14615344Y-17201327D02*
X14624868Y-17172755D01*
X14624868Y-17172755D02*
X14634391Y-17153708D01*
X14634391Y-17153708D02*
X14653439Y-17125136D01*
X14653439Y-17125136D02*
X14662963Y-17115612D01*
X14729629Y-17163231D02*
X14739153Y-17153708D01*
X14739153Y-17153708D02*
X14758201Y-17144184D01*
X14758201Y-17144184D02*
X14805820Y-17144184D01*
X14805820Y-17144184D02*
X14824868Y-17153708D01*
X14824868Y-17153708D02*
X14834391Y-17163231D01*
X14834391Y-17163231D02*
X14843915Y-17182279D01*
X14843915Y-17182279D02*
X14843915Y-17201327D01*
X14843915Y-17201327D02*
X14834391Y-17229898D01*
X14834391Y-17229898D02*
X14720106Y-17344184D01*
X14720106Y-17344184D02*
X14843915Y-17344184D01*
X15082010Y-17344184D02*
X15082010Y-17144184D01*
X15167725Y-17344184D02*
X15167725Y-17239422D01*
X15167725Y-17239422D02*
X15158201Y-17220374D01*
X15158201Y-17220374D02*
X15139153Y-17210850D01*
X15139153Y-17210850D02*
X15110582Y-17210850D01*
X15110582Y-17210850D02*
X15091534Y-17220374D01*
X15091534Y-17220374D02*
X15082010Y-17229898D01*
X15291534Y-17344184D02*
X15272487Y-17334660D01*
X15272487Y-17334660D02*
X15262963Y-17325136D01*
X15262963Y-17325136D02*
X15253439Y-17306089D01*
X15253439Y-17306089D02*
X15253439Y-17248946D01*
X15253439Y-17248946D02*
X15262963Y-17229898D01*
X15262963Y-17229898D02*
X15272487Y-17220374D01*
X15272487Y-17220374D02*
X15291534Y-17210850D01*
X15291534Y-17210850D02*
X15320106Y-17210850D01*
X15320106Y-17210850D02*
X15339153Y-17220374D01*
X15339153Y-17220374D02*
X15348677Y-17229898D01*
X15348677Y-17229898D02*
X15358201Y-17248946D01*
X15358201Y-17248946D02*
X15358201Y-17306089D01*
X15358201Y-17306089D02*
X15348677Y-17325136D01*
X15348677Y-17325136D02*
X15339153Y-17334660D01*
X15339153Y-17334660D02*
X15320106Y-17344184D01*
X15320106Y-17344184D02*
X15291534Y-17344184D01*
X15472487Y-17344184D02*
X15453439Y-17334660D01*
X15453439Y-17334660D02*
X15443915Y-17315612D01*
X15443915Y-17315612D02*
X15443915Y-17144184D01*
X15624868Y-17334660D02*
X15605820Y-17344184D01*
X15605820Y-17344184D02*
X15567725Y-17344184D01*
X15567725Y-17344184D02*
X15548677Y-17334660D01*
X15548677Y-17334660D02*
X15539153Y-17315612D01*
X15539153Y-17315612D02*
X15539153Y-17239422D01*
X15539153Y-17239422D02*
X15548677Y-17220374D01*
X15548677Y-17220374D02*
X15567725Y-17210850D01*
X15567725Y-17210850D02*
X15605820Y-17210850D01*
X15605820Y-17210850D02*
X15624868Y-17220374D01*
X15624868Y-17220374D02*
X15634391Y-17239422D01*
X15634391Y-17239422D02*
X15634391Y-17258470D01*
X15634391Y-17258470D02*
X15539153Y-17277517D01*
X15710582Y-17334660D02*
X15729630Y-17344184D01*
X15729630Y-17344184D02*
X15767725Y-17344184D01*
X15767725Y-17344184D02*
X15786772Y-17334660D01*
X15786772Y-17334660D02*
X15796296Y-17315612D01*
X15796296Y-17315612D02*
X15796296Y-17306089D01*
X15796296Y-17306089D02*
X15786772Y-17287041D01*
X15786772Y-17287041D02*
X15767725Y-17277517D01*
X15767725Y-17277517D02*
X15739153Y-17277517D01*
X15739153Y-17277517D02*
X15720106Y-17267993D01*
X15720106Y-17267993D02*
X15710582Y-17248946D01*
X15710582Y-17248946D02*
X15710582Y-17239422D01*
X15710582Y-17239422D02*
X15720106Y-17220374D01*
X15720106Y-17220374D02*
X15739153Y-17210850D01*
X15739153Y-17210850D02*
X15767725Y-17210850D01*
X15767725Y-17210850D02*
X15786772Y-17220374D01*
X15862963Y-17420374D02*
X15872487Y-17410850D01*
X15872487Y-17410850D02*
X15891534Y-17382279D01*
X15891534Y-17382279D02*
X15901058Y-17363231D01*
X15901058Y-17363231D02*
X15910582Y-17334660D01*
X15910582Y-17334660D02*
X15920106Y-17287041D01*
X15920106Y-17287041D02*
X15920106Y-17248946D01*
X15920106Y-17248946D02*
X15910582Y-17201327D01*
X15910582Y-17201327D02*
X15901058Y-17172755D01*
X15901058Y-17172755D02*
X15891534Y-17153708D01*
X15891534Y-17153708D02*
X15872487Y-17125136D01*
X15872487Y-17125136D02*
X15862963Y-17115612D01*
M02*
