M48
; DRILL file {KiCad 8.0.0} date 2024-06-20T18:12:15-0300
; FORMAT={-:-/ absolute / metric / decimal}
; #@! TF.CreationDate,2024-06-20T18:12:15-03:00
; #@! TF.GenerationSoftware,Kicad,Pcbnew,8.0.0
; #@! TF.FileFunction,Plated,1,2,PTH
FMAT,2
METRIC
; #@! TA.AperFunction,Plated,PTH,ComponentDrill
T1C0.800
; #@! TA.AperFunction,Plated,PTH,ComponentDrill
T2C1.000
; #@! TA.AperFunction,Plated,PTH,ComponentDrill
T3C1.100
; #@! TA.AperFunction,Plated,PTH,ComponentDrill
T4C1.320
; #@! TA.AperFunction,Plated,PTH,ComponentDrill
T5C1.500
; #@! TA.AperFunction,Plated,PTH,ViaDrill
T6C3.000
%
G90
G05
T1
X182.825Y-130.556
X185.325Y-130.556
X187.825Y-130.556
T2
X125.476Y-124.46
X128.016Y-124.46
X130.556Y-124.46
X130.81Y-102.743
X133.096Y-124.46
X133.35Y-102.743
X135.636Y-124.46
X138.176Y-124.46
X142.113Y-101.463
X142.113Y-116.703
X144.297Y-146.451
X144.297Y-148.991
X144.653Y-101.463
X144.653Y-116.703
X145.415Y-124.714
X145.415Y-127.254
X147.193Y-101.463
X147.193Y-116.703
X149.733Y-101.463
X149.733Y-116.703
X149.86Y-91.186
X152.273Y-101.463
X152.273Y-116.703
X152.4Y-91.186
X154.813Y-101.463
X154.813Y-116.703
X154.94Y-91.186
X157.353Y-101.463
X157.353Y-116.703
X157.48Y-91.186
X159.893Y-101.463
X159.893Y-116.703
X160.02Y-91.186
X162.433Y-101.463
X162.433Y-116.703
X162.56Y-91.186
X164.973Y-101.463
X164.973Y-116.703
X165.1Y-91.186
X167.513Y-101.463
X167.513Y-116.703
X167.64Y-91.186
X170.053Y-101.463
X170.053Y-116.703
X170.18Y-91.186
X172.593Y-101.463
X172.593Y-116.703
X172.72Y-91.186
X175.006Y-145.288
X175.006Y-147.828
X175.133Y-101.463
X175.133Y-116.703
X175.26Y-91.186
X177.546Y-122.428
X177.673Y-96.901
X177.673Y-101.463
X177.673Y-116.703
X191.033Y-118.511
X191.033Y-121.051
T3
X192.334Y-102.997
X192.334Y-105.537
X192.334Y-108.077
T4
X150.876Y-127.0
X150.876Y-142.24
X153.416Y-127.0
X153.416Y-142.24
X155.956Y-127.0
X155.956Y-142.24
X158.496Y-127.0
X158.496Y-142.24
X161.036Y-127.0
X161.036Y-142.24
X163.576Y-127.0
X163.576Y-142.24
X166.116Y-127.0
X166.116Y-142.24
X168.656Y-127.0
X168.656Y-142.24
T5
X178.825Y-130.556
X191.825Y-130.556
T6
X115.951Y-132.715
X115.951Y-150.368
X116.332Y-105.918
X131.572Y-92.837
X191.516Y-92.837
X206.375Y-106.045
X206.756Y-132.842
X206.756Y-150.368
M30
